<?xml version="1.0" encoding="UTF-8" standalone="no"?><svg xmlns="http://www.w3.org/2000/svg" xmlns:xlink="http://www.w3.org/1999/xlink" contentScriptType="application/ecmascript" contentStyleType="text/css" height="235px" preserveAspectRatio="none" style="width:405px;height:235px;background:#FFFFFF;" version="1.1" viewBox="0 0 405 235" width="405px" zoomAndPan="magnify"><defs/><g><!--MD5=[f5a5f72fb4c1e47998ba0894911b774a]
class RootCoordinator--><rect codeLine="8" fill="#FEFECE" height="86.4141" id="RootCoordinator" style="stroke:#A80036;stroke-width:1.5;" width="274" x="79" y="7"/><ellipse cx="162.75" cy="23" fill="#8FBC8F" rx="11" ry="11" style="stroke:#A80036;stroke-width:1.0;"/><path d="M165.0938,18.6719 C164.1563,18.2344 163.5625,18.0938 162.6875,18.0938 C160.0625,18.0938 158.0625,20.1719 158.0625,22.8906 L158.0625,24.0156 C158.0625,26.5938 160.1719,28.4844 163.0625,28.4844 C164.2813,28.4844 165.4375,28.1875 166.1875,27.6406 C166.7656,27.2344 167.0938,26.7813 167.0938,26.3906 C167.0938,25.9375 166.7031,25.5469 166.2344,25.5469 C166.0156,25.5469 165.8125,25.625 165.625,25.8125 C165.1719,26.2969 165.1719,26.2969 164.9844,26.3906 C164.5625,26.6563 163.875,26.7813 163.1094,26.7813 C161.0625,26.7813 159.7656,25.6875 159.7656,23.9844 L159.7656,22.8906 C159.7656,21.1094 161.0156,19.7969 162.75,19.7969 C163.3281,19.7969 163.9375,19.9531 164.4063,20.2031 C164.8906,20.4844 165.0625,20.7031 165.1563,21.1094 C165.2188,21.5156 165.25,21.6406 165.3906,21.7656 C165.5313,21.9063 165.7656,22.0156 165.9844,22.0156 C166.25,22.0156 166.5156,21.875 166.6875,21.6563 C166.7969,21.5 166.8281,21.3125 166.8281,20.8906 L166.8281,19.4688 C166.8281,19.0313 166.8125,18.9063 166.7188,18.75 C166.5625,18.4844 166.2813,18.3438 165.9844,18.3438 C165.6875,18.3438 165.4844,18.4375 165.2656,18.75 L165.0938,18.6719 Z " fill="#000000"/><text fill="#000000" font-family="sans-serif" font-size="12" lengthAdjust="spacing" textLength="98" x="183.25" y="27.1543">RootCoordinator</text><line style="stroke:#A80036;stroke-width:1.5;" x1="80" x2="352" y1="39" y2="39"/><polygon fill="none" points="90,46,86,52,94,52" style="stroke:#1963A0;stroke-width:1.0;"/><text fill="#000000" font-family="sans-serif" font-size="11" lengthAdjust="spacing" textLength="199" x="99" y="53.2104">presenter : UINavigationController?</text><polygon fill="none" points="90,58.8047,86,64.8047,94,64.8047" style="stroke:#1963A0;stroke-width:1.0;"/><text fill="#000000" font-family="sans-serif" font-size="11" lengthAdjust="spacing" textLength="248" x="99" y="66.0151">dependencies : DefaultDependenciesType</text><line style="stroke:#A80036;stroke-width:1.5;" x1="80" x2="352" y1="72.6094" y2="72.6094"/><ellipse cx="90" cy="83.6094" fill="#84BE84" rx="3" ry="3" style="stroke:#038048;stroke-width:1.0;"/><text fill="#000000" font-family="sans-serif" font-size="11" lengthAdjust="spacing" textLength="169" x="99" y="86.8198">init(presenter:dependencies:)</text><!--MD5=[911ed5c07570aa38063b5b77a6dcb815]
class RootCoordinator0--><rect codeLine="13" fill="#FEFECE" height="58.7422" id="RootCoordinator0" style="stroke:#A80036;stroke-width:1.5;" width="130" x="7" y="170"/><ellipse cx="22" cy="188.9688" fill="#DA70D6" rx="11" ry="11" style="stroke:#A80036;stroke-width:1.0;"/><path d="M23.1875,188.9219 L25.8594,185.75 C26.4531,185.7344 26.8281,185.4375 26.8281,184.9063 C26.8281,184.6406 26.7031,184.375 26.4688,184.2031 C26.2969,184.0938 26.1563,184.0625 25.7031,184.0625 L24.1719,184.0625 C23.7969,184.0625 23.5313,184.1094 23.3906,184.2344 C23.1719,184.375 23.0313,184.6563 23.0313,184.9063 C23.0313,185.2813 23.2031,185.5 23.6875,185.7344 L22.0938,187.5938 L20.4844,185.7344 C20.9844,185.5 21.125,185.2813 21.125,184.9063 C21.125,184.6406 21,184.375 20.7813,184.2031 C20.6094,184.0938 20.4688,184.0625 19.9844,184.0625 L18.4375,184.0625 C18.3281,184.0625 18.3125,184.0625 18.1094,184.0938 C17.6094,184.1406 17.3281,184.4531 17.3281,184.9063 C17.3281,185.4219 17.6875,185.7188 18.3125,185.75 L21,188.9063 L18.1719,192.2656 C17.5469,192.2656 17.1719,192.5938 17.1719,193.125 C17.1719,193.3906 17.3125,193.6406 17.5313,193.8125 C17.6875,193.9219 17.8906,193.9688 18.2969,193.9688 L20.1719,193.9688 C20.5313,193.9688 20.75,193.9375 20.8906,193.8438 C21.1406,193.7031 21.2969,193.4063 21.2969,193.125 C21.2969,192.6094 20.9688,192.2969 20.3906,192.2656 L22.1094,190.2344 L23.8281,192.2656 C23.2344,192.2969 22.9063,192.6094 22.9063,193.125 C22.9063,193.6875 23.2656,193.9688 24.0156,193.9688 L25.9063,193.9688 C26.2656,193.9688 26.4844,193.9375 26.625,193.8438 C26.875,193.7031 27.0313,193.4063 27.0313,193.125 C27.0313,192.5938 26.6719,192.2813 26.0313,192.2656 L23.1875,188.9219 Z " fill="#000000"/><text fill="#000000" font-family="sans-serif" font-size="12" font-style="italic" lengthAdjust="spacing" textLength="72" x="49" y="186.1387">«extension»</text><text fill="#000000" font-family="sans-serif" font-size="12" lengthAdjust="spacing" textLength="98" x="36" y="200.1074">RootCoordinator</text><line style="stroke:#A80036;stroke-width:1.5;" x1="8" x2="136" y1="207.9375" y2="207.9375"/><ellipse cx="18" cy="218.9375" fill="#84BE84" rx="3" ry="3" style="stroke:#038048;stroke-width:1.0;"/><text fill="#000000" font-family="sans-serif" font-size="11" lengthAdjust="spacing" textLength="33" x="27" y="222.1479">start()</text><!--MD5=[0d4fb80341763a24143be61e75fdd318]
class NSObject--><rect fill="#FEFECE" height="32" id="NSObject" style="stroke:#A80036;stroke-width:1.5;" width="88" x="172" y="183.5"/><ellipse cx="187" cy="199.5" fill="#ADD1B2" rx="11" ry="11" style="stroke:#A80036;stroke-width:1.0;"/><path d="M189.3438,195.1719 C188.4063,194.7344 187.8125,194.5938 186.9375,194.5938 C184.3125,194.5938 182.3125,196.6719 182.3125,199.3906 L182.3125,200.5156 C182.3125,203.0938 184.4219,204.9844 187.3125,204.9844 C188.5313,204.9844 189.6875,204.6875 190.4375,204.1406 C191.0156,203.7344 191.3438,203.2813 191.3438,202.8906 C191.3438,202.4375 190.9531,202.0469 190.4844,202.0469 C190.2656,202.0469 190.0625,202.125 189.875,202.3125 C189.4219,202.7969 189.4219,202.7969 189.2344,202.8906 C188.8125,203.1563 188.125,203.2813 187.3594,203.2813 C185.3125,203.2813 184.0156,202.1875 184.0156,200.4844 L184.0156,199.3906 C184.0156,197.6094 185.2656,196.2969 187,196.2969 C187.5781,196.2969 188.1875,196.4531 188.6563,196.7031 C189.1406,196.9844 189.3125,197.2031 189.4063,197.6094 C189.4688,198.0156 189.5,198.1406 189.6406,198.2656 C189.7813,198.4063 190.0156,198.5156 190.2344,198.5156 C190.5,198.5156 190.7656,198.375 190.9375,198.1563 C191.0469,198 191.0781,197.8125 191.0781,197.3906 L191.0781,195.9688 C191.0781,195.5313 191.0625,195.4063 190.9688,195.25 C190.8125,194.9844 190.5313,194.8438 190.2344,194.8438 C189.9375,194.8438 189.7344,194.9375 189.5156,195.25 L189.3438,195.1719 Z " fill="#000000"/><text fill="#000000" font-family="sans-serif" font-size="12" lengthAdjust="spacing" textLength="56" x="201" y="203.6543">NSObject</text><!--MD5=[5d2bdee92db0d01b75732190da037553]
class Coordinator--><rect fill="#FEFECE" height="32" id="Coordinator" style="stroke:#A80036;stroke-width:1.5;" width="103" x="295.5" y="183.5"/><ellipse cx="310.5" cy="199.5" fill="#ADD1B2" rx="11" ry="11" style="stroke:#A80036;stroke-width:1.0;"/><path d="M312.8438,195.1719 C311.9063,194.7344 311.3125,194.5938 310.4375,194.5938 C307.8125,194.5938 305.8125,196.6719 305.8125,199.3906 L305.8125,200.5156 C305.8125,203.0938 307.9219,204.9844 310.8125,204.9844 C312.0313,204.9844 313.1875,204.6875 313.9375,204.1406 C314.5156,203.7344 314.8438,203.2813 314.8438,202.8906 C314.8438,202.4375 314.4531,202.0469 313.9844,202.0469 C313.7656,202.0469 313.5625,202.125 313.375,202.3125 C312.9219,202.7969 312.9219,202.7969 312.7344,202.8906 C312.3125,203.1563 311.625,203.2813 310.8594,203.2813 C308.8125,203.2813 307.5156,202.1875 307.5156,200.4844 L307.5156,199.3906 C307.5156,197.6094 308.7656,196.2969 310.5,196.2969 C311.0781,196.2969 311.6875,196.4531 312.1563,196.7031 C312.6406,196.9844 312.8125,197.2031 312.9063,197.6094 C312.9688,198.0156 313,198.1406 313.1406,198.2656 C313.2813,198.4063 313.5156,198.5156 313.7344,198.5156 C314,198.5156 314.2656,198.375 314.4375,198.1563 C314.5469,198 314.5781,197.8125 314.5781,197.3906 L314.5781,195.9688 C314.5781,195.5313 314.5625,195.4063 314.4688,195.25 C314.3125,194.9844 314.0313,194.8438 313.7344,194.8438 C313.4375,194.8438 313.2344,194.9375 313.0156,195.25 L312.8438,195.1719 Z " fill="#000000"/><text fill="#000000" font-family="sans-serif" font-size="12" lengthAdjust="spacing" textLength="71" x="324.5" y="203.6543">Coordinator</text><!--MD5=[f3a3a189ea4b6579f4d1d1cb032e2bbf]
link RootCoordinator to NSObject--><path codeLine="16" d="M216,93.268 C216,115.398 216,142.1855 216,163.1947 " fill="none" id="RootCoordinator-to-NSObject" style="stroke:#A80036;stroke-width:1.0;"/><polygon fill="none" points="223,163.2306,216,183.2306,209,163.2306,223,163.2306" style="stroke:#A80036;stroke-width:1.0;"/><text fill="#000000" font-family="sans-serif" font-size="13" lengthAdjust="spacing" textLength="47" x="217" y="136.0669">inherits</text><!--MD5=[fbd3ae902b49a227196c49b2db2e0dcb]
link RootCoordinator to Coordinator--><path codeLine="17" d="M253.539,93.268 C274.763,117.164 300.808,146.4896 320.008,168.1079 " fill="none" id="RootCoordinator-to-Coordinator" style="stroke:#A80036;stroke-width:1.0;"/><polygon fill="none" points="325.392,163.6284,333.439,183.2306,314.924,172.9251,325.392,163.6284" style="stroke:#A80036;stroke-width:1.0;"/><text fill="#000000" font-family="sans-serif" font-size="13" lengthAdjust="spacing" textLength="47" x="295" y="136.0669">inherits</text><!--MD5=[b5a2799c817d4e3324419aa7b0292b95]
reverse link RootCoordinator to RootCoordinator0--><path codeLine="18" d="M171.048,97.045 C147.824,120.833 120.207,149.1212 100.0423,169.7761 " fill="none" id="RootCoordinator-backto-RootCoordinator0" style="stroke:#A80036;stroke-width:1.0;stroke-dasharray:7.0,7.0;"/><polygon fill="#A80036" points="174.735,93.268,165.5861,96.9147,171.2426,96.8461,171.3111,102.5026,174.735,93.268" style="stroke:#A80036;stroke-width:1.0;"/><text fill="#000000" font-family="sans-serif" font-size="13" lengthAdjust="spacing" textLength="21" x="145" y="136.0669">ext</text><!--MD5=[f9d91c1ff5bd53f541cda646d378aa23]
@startuml

' STYLE START
hide empty members
skinparam shadowing false
' STYLE END


class "RootCoordinator" as RootCoordinator << (C, DarkSeaGreen) >> { 
  ~presenter : UINavigationController?
  ~dependencies : DefaultDependenciesType
  +init(presenter:dependencies:) 
}
class "RootCoordinator" as RootCoordinator0 << (X, Orchid) extension >> { 
  +start() 
}
RootCoordinator - -|> NSObject : inherits
RootCoordinator - -|> Coordinator : inherits
RootCoordinator <.. RootCoordinator0 : ext
@enduml

@startuml

hide empty members
skinparam shadowing false


class "RootCoordinator" as RootCoordinator << (C, DarkSeaGreen) >> { 
  ~presenter : UINavigationController?
  ~dependencies : DefaultDependenciesType
  +init(presenter:dependencies:) 
}
class "RootCoordinator" as RootCoordinator0 << (X, Orchid) extension >> { 
  +start() 
}
RootCoordinator - -|> NSObject : inherits
RootCoordinator - -|> Coordinator : inherits
RootCoordinator <.. RootCoordinator0 : ext
@enduml

PlantUML version 1.2021.7(Sun May 23 12:40:07 UTC 2021)
(GPL source distribution)
Java Runtime: Java(TM) SE Runtime Environment
JVM: Java HotSpot(TM) 64-Bit Server VM
Default Encoding: UTF-8
Language: en
Country: US
--></g></svg>