<?xml version="1.0" encoding="UTF-8" standalone="no"?><svg xmlns="http://www.w3.org/2000/svg" xmlns:xlink="http://www.w3.org/1999/xlink" contentScriptType="application/ecmascript" contentStyleType="text/css" height="421px" preserveAspectRatio="none" style="width:2313px;height:421px;background:#FFFFFF;" version="1.1" viewBox="0 0 2313 421" width="2313px" zoomAndPan="magnify"><defs/><g><!--MD5=[8bcf2fabfcc6127fbc7d1e9ab1caa00d]
class BlackArrowEndpoint--><rect codeLine="8" fill="#FEFECE" height="37.9375" id="BlackArrowEndpoint" style="stroke:#A80036;stroke-width:1.5;" width="152" x="1042.5" y="211"/><ellipse cx="1057.5" cy="229.9688" fill="#DAA520" rx="11" ry="11" style="stroke:#A80036;stroke-width:1.0;"/><path d="M1057.0469,231.5625 L1058.7188,231.5625 C1060.2969,231.5625 1061.1406,231.2813 1061.8906,230.4531 C1062.4375,229.8594 1062.75,229.0469 1062.75,228.2656 C1062.75,226.3906 1061.2188,225.0625 1059.0469,225.0625 L1055.0938,225.0625 C1054.6563,225.0625 1054.5313,225.0781 1054.375,225.1719 C1054.125,225.3281 1053.9688,225.625 1053.9688,225.9063 C1053.9688,226.1563 1054.1094,226.4375 1054.3281,226.6094 C1054.4844,226.7188 1054.6719,226.75 1055.0938,226.75 L1055.3438,226.75 L1055.3438,233.2656 L1055.0938,233.2656 C1054.6875,233.2656 1054.5313,233.2813 1054.375,233.3906 C1054.125,233.5469 1053.9688,233.8281 1053.9688,234.125 C1053.9688,234.375 1054.1094,234.6406 1054.3281,234.7969 C1054.4688,234.9219 1054.7031,234.9688 1055.0938,234.9688 L1058.7344,234.9688 C1059.0781,234.9688 1059.3281,234.9219 1059.4375,234.8438 C1059.7031,234.7031 1059.8594,234.4063 1059.8594,234.125 C1059.8594,233.8438 1059.7188,233.5938 1059.5,233.4219 C1059.3281,233.2969 1059.1875,233.2656 1058.7344,233.2656 L1057.0469,233.2656 L1057.0469,231.5625 Z M1057.0469,226.75 L1059.0469,226.75 C1060.2344,226.75 1060.9375,227.3594 1060.9375,228.3281 C1060.9375,229.2813 1060.2344,229.875 1059.0469,229.875 L1057.0469,229.875 L1057.0469,226.75 Z " fill="#000000"/><text fill="#000000" font-family="sans-serif" font-size="12" font-style="italic" lengthAdjust="spacing" textLength="63" x="1100" y="227.1387">«protocol»</text><text fill="#000000" font-family="sans-serif" font-size="12" lengthAdjust="spacing" textLength="120" x="1071.5" y="241.1074">BlackArrowEndpoint</text><!--MD5=[15e13ea90ac19f4c4e850ad641beda21]
class BlackArrowEndpoint0--><rect codeLine="10" fill="#FEFECE" height="71.5469" id="BlackArrowEndpoint0" style="stroke:#A80036;stroke-width:1.5;" width="152" x="966.5" y="343"/><ellipse cx="981.5" cy="361.9688" fill="#DA70D6" rx="11" ry="11" style="stroke:#A80036;stroke-width:1.0;"/><path d="M982.6875,361.9219 L985.3594,358.75 C985.9531,358.7344 986.3281,358.4375 986.3281,357.9063 C986.3281,357.6406 986.2031,357.375 985.9688,357.2031 C985.7969,357.0938 985.6563,357.0625 985.2031,357.0625 L983.6719,357.0625 C983.2969,357.0625 983.0313,357.1094 982.8906,357.2344 C982.6719,357.375 982.5313,357.6563 982.5313,357.9063 C982.5313,358.2813 982.7031,358.5 983.1875,358.7344 L981.5938,360.5938 L979.9844,358.7344 C980.4844,358.5 980.625,358.2813 980.625,357.9063 C980.625,357.6406 980.5,357.375 980.2813,357.2031 C980.1094,357.0938 979.9688,357.0625 979.4844,357.0625 L977.9375,357.0625 C977.8281,357.0625 977.8125,357.0625 977.6094,357.0938 C977.1094,357.1406 976.8281,357.4531 976.8281,357.9063 C976.8281,358.4219 977.1875,358.7188 977.8125,358.75 L980.5,361.9063 L977.6719,365.2656 C977.0469,365.2656 976.6719,365.5938 976.6719,366.125 C976.6719,366.3906 976.8125,366.6406 977.0313,366.8125 C977.1875,366.9219 977.3906,366.9688 977.7969,366.9688 L979.6719,366.9688 C980.0313,366.9688 980.25,366.9375 980.3906,366.8438 C980.6406,366.7031 980.7969,366.4063 980.7969,366.125 C980.7969,365.6094 980.4688,365.2969 979.8906,365.2656 L981.6094,363.2344 L983.3281,365.2656 C982.7344,365.2969 982.4063,365.6094 982.4063,366.125 C982.4063,366.6875 982.7656,366.9688 983.5156,366.9688 L985.4063,366.9688 C985.7656,366.9688 985.9844,366.9375 986.125,366.8438 C986.375,366.7031 986.5313,366.4063 986.5313,366.125 C986.5313,365.5938 986.1719,365.2813 985.5313,365.2656 L982.6875,361.9219 Z " fill="#000000"/><text fill="#000000" font-family="sans-serif" font-size="12" font-style="italic" lengthAdjust="spacing" textLength="72" x="1019.5" y="359.1387">«extension»</text><text fill="#000000" font-family="sans-serif" font-size="12" lengthAdjust="spacing" textLength="120" x="995.5" y="373.1074">BlackArrowEndpoint</text><line style="stroke:#A80036;stroke-width:1.5;" x1="967.5" x2="1117.5" y1="380.9375" y2="380.9375"/><ellipse cx="977.5" cy="391.9375" rx="3" ry="3" style="stroke:#038048;stroke-width:1.0;fill:none;"/><text fill="#000000" font-family="sans-serif" font-size="11" lengthAdjust="spacing" textLength="125" x="986.5" y="395.1479">isAuthenticated : Bool</text><ellipse cx="977.5" cy="404.7422" rx="3" ry="3" style="stroke:#038048;stroke-width:1.0;fill:none;"/><text fill="#000000" font-family="sans-serif" font-size="11" lengthAdjust="spacing" text-decoration="underline" textLength="81" x="986.5" y="407.9526">baseURL : URL</text><!--MD5=[df89d064746346b86b0fa570bc212c74]
class OpenBankingEndpoint--><rect codeLine="14" fill="#FEFECE" height="92.3516" id="OpenBankingEndpoint" style="stroke:#A80036;stroke-width:1.5;" width="185" x="589" y="16"/><ellipse cx="613.45" cy="34.9688" fill="#B0C4DE" rx="11" ry="11" style="stroke:#A80036;stroke-width:1.0;"/><path d="M612.2469,35.8438 L613.7,35.8438 L613.7,35.9531 C613.7,36.3594 613.7313,36.5156 613.8094,36.6719 C613.9656,36.9219 614.2469,37.0781 614.5438,37.0781 C614.7938,37.0781 615.0594,36.9375 615.2156,36.7188 C615.3406,36.5625 615.3719,36.4063 615.3719,35.9531 L615.3719,34.0313 C615.3719,33.875 615.3719,33.8281 615.3563,33.6719 C615.2938,33.2031 614.9813,32.8906 614.5281,32.8906 C614.2781,32.8906 614.0125,33.0313 613.8406,33.25 C613.7313,33.4219 613.7,33.5781 613.7,34.0313 L613.7,34.1563 L612.2469,34.1563 L612.2469,31.75 L616.2313,31.75 L616.2313,32.6094 C616.2313,33.0156 616.2625,33.1875 616.3406,33.3438 C616.5125,33.5938 616.7938,33.75 617.075,33.75 C617.3406,33.75 617.6063,33.6094 617.7781,33.3906 C617.8875,33.2188 617.9188,33.0781 617.9188,32.6094 L617.9188,30.0625 L610.2938,30.0625 C609.8563,30.0625 609.7313,30.0781 609.575,30.1719 C609.325,30.3281 609.1688,30.625 609.1688,30.9063 C609.1688,31.1875 609.3094,31.4375 609.5281,31.6094 C609.6844,31.7188 609.8719,31.75 610.2938,31.75 L610.5438,31.75 L610.5438,38.2656 L610.2938,38.2656 C609.8875,38.2656 609.7313,38.2813 609.575,38.3906 C609.325,38.5625 609.1688,38.8281 609.1688,39.125 C609.1688,39.3906 609.3094,39.6406 609.5281,39.7969 C609.6688,39.9219 609.9031,39.9688 610.2938,39.9688 L618.2938,39.9688 L618.2938,37.3906 C618.2938,36.9531 618.2625,36.8125 618.1844,36.6563 C618.0125,36.4063 617.7313,36.25 617.45,36.25 C617.1844,36.25 616.9188,36.3594 616.7469,36.6094 C616.6375,36.7656 616.6063,36.9063 616.6063,37.3906 L616.6063,38.2656 L612.2469,38.2656 L612.2469,35.8438 Z " fill="#000000"/><text fill="#000000" font-family="sans-serif" font-size="12" font-style="italic" lengthAdjust="spacing" textLength="49" x="671.05" y="32.1387">«enum»</text><text fill="#000000" font-family="sans-serif" font-size="12" lengthAdjust="spacing" textLength="132" x="629.55" y="46.1074">OpenBankingEndpoint</text><line style="stroke:#A80036;stroke-width:1.5;" x1="590" x2="773" y1="53.9375" y2="53.9375"/><ellipse cx="600" cy="64.9375" rx="3" ry="3" style="stroke:#038048;stroke-width:1.0;fill:none;"/><text fill="#000000" font-family="sans-serif" font-size="11" lengthAdjust="spacing" textLength="53" x="609" y="68.1479">providers</text><line style="stroke:#A80036;stroke-width:1.5;" x1="590" x2="773" y1="74.7422" y2="74.7422"/><ellipse cx="600" cy="85.7422" fill="#84BE84" rx="3" ry="3" style="stroke:#038048;stroke-width:1.0;"/><text fill="#000000" font-family="sans-serif" font-size="11" lengthAdjust="spacing" textLength="159" x="609" y="88.9526">authorise(userId:providerId:)</text><ellipse cx="600" cy="98.5469" fill="#84BE84" rx="3" ry="3" style="stroke:#038048;stroke-width:1.0;"/><text fill="#000000" font-family="sans-serif" font-size="11" lengthAdjust="spacing" textLength="80" x="609" y="101.7573">status(userId:)</text><!--MD5=[ccbdfd5c70d58c819a198d9e58cb2bb3]
class GenericResponse--><rect codeLine="19" fill="#FEFECE" height="97.1563" id="GenericResponse" style="stroke:#A80036;stroke-width:1.5;" width="139" x="2167" y="13.5"/><ellipse cx="2182" cy="32.4688" fill="#87CEEB" rx="11" ry="11" style="stroke:#A80036;stroke-width:1.0;"/><path d="M2185.7813,28.4375 C2185.7813,28 2185.7656,27.8594 2185.6719,27.7031 C2185.5313,27.4688 2185.25,27.3125 2184.9531,27.3125 C2184.6094,27.3125 2184.4688,27.4531 2184.2969,27.875 C2183.7031,27.5 2182.9531,27.3125 2182.0781,27.3125 C2179.9688,27.3125 2178.3906,28.6094 2178.3906,30.3281 C2178.3906,31.2969 2178.9219,32.2031 2179.7813,32.6875 C2180.3281,33 2180.875,33.1719 2181.9844,33.3594 C2183.1406,33.5625 2183.4063,33.625 2183.7656,33.8125 C2184.1406,34.0156 2184.375,34.3594 2184.375,34.7188 C2184.375,35.4531 2183.3906,36 2182.1406,36 C2181.0156,36 2179.9375,35.5156 2179.7656,34.9063 C2179.6406,34.4375 2179.6406,34.4375 2179.5156,34.3281 C2179.3594,34.1719 2179.1406,34.0781 2178.9063,34.0781 C2178.625,34.0781 2178.375,34.2031 2178.2031,34.4219 C2178.0938,34.5938 2178.0469,34.7813 2178.0469,35.2031 L2178.0469,36.3281 C2178.0469,37.0938 2178.3281,37.4531 2178.9219,37.4531 C2179.1875,37.4531 2179.3125,37.3906 2179.5938,37.0469 C2180.4375,37.4844 2181.3281,37.7031 2182.25,37.7031 C2184.5781,37.7031 2186.1406,36.5156 2186.1406,34.75 C2186.1406,33.8594 2185.8281,33.1719 2185.1406,32.625 C2184.6094,32.2031 2183.9688,31.9531 2182.4844,31.6875 C2181.2188,31.4531 2181.125,31.4219 2180.7969,31.25 C2180.4219,31.0625 2180.1563,30.6719 2180.1563,30.3125 C2180.1563,29.5781 2181.0156,29.0156 2182.0781,29.0156 C2183.1406,29.0156 2183.9531,29.4844 2184.1094,30.1563 C2184.2188,30.7031 2184.2188,30.7031 2184.3438,30.8438 C2184.4844,30.9688 2184.7188,31.0781 2184.9531,31.0781 C2185.2188,31.0781 2185.4688,30.9375 2185.6406,30.7188 C2185.75,30.5469 2185.7813,30.4063 2185.7813,29.9375 L2185.7813,28.4375 Z " fill="#000000"/><text fill="#000000" font-family="sans-serif" font-size="12" font-style="italic" lengthAdjust="spacing" textLength="50" x="2224.5" y="29.6387">«struct»</text><text fill="#000000" font-family="sans-serif" font-size="12" lengthAdjust="spacing" textLength="107" x="2196" y="43.6074">GenericResponse</text><line style="stroke:#A80036;stroke-width:1.5;" x1="2168" x2="2305" y1="51.4375" y2="51.4375"/><ellipse cx="2178" cy="62.4375" rx="3" ry="3" style="stroke:#038048;stroke-width:1.0;fill:none;"/><text fill="#000000" font-family="sans-serif" font-size="11" lengthAdjust="spacing" textLength="112" x="2187" y="65.6479">description : String?</text><ellipse cx="2178" cy="75.2422" rx="3" ry="3" style="stroke:#038048;stroke-width:1.0;fill:none;"/><text fill="#000000" font-family="sans-serif" font-size="11" lengthAdjust="spacing" textLength="91" x="2187" y="78.4526">errors : [String]?</text><ellipse cx="2178" cy="88.0469" rx="3" ry="3" style="stroke:#038048;stroke-width:1.0;fill:none;"/><text fill="#000000" font-family="sans-serif" font-size="11" lengthAdjust="spacing" textLength="103" x="2187" y="91.2573">message : String?</text><ellipse cx="2178" cy="100.8516" rx="3" ry="3" style="stroke:#038048;stroke-width:1.0;fill:none;"/><text fill="#000000" font-family="sans-serif" font-size="11" lengthAdjust="spacing" textLength="89" x="2187" y="104.062">statusCode : Int</text><!--MD5=[7b35ab55638ee20a08dd8c3fa6988b90]
class OpenBankingEndpoint1--><rect codeLine="25" fill="#FEFECE" height="71.5469" id="OpenBankingEndpoint1" style="stroke:#A80036;stroke-width:1.5;" width="198" x="433.5" y="194"/><ellipse cx="463.8" cy="212.9688" fill="#DA70D6" rx="11" ry="11" style="stroke:#A80036;stroke-width:1.0;"/><path d="M464.9875,212.9219 L467.6594,209.75 C468.2531,209.7344 468.6281,209.4375 468.6281,208.9063 C468.6281,208.6406 468.5031,208.375 468.2688,208.2031 C468.0969,208.0938 467.9563,208.0625 467.5031,208.0625 L465.9719,208.0625 C465.5969,208.0625 465.3313,208.1094 465.1906,208.2344 C464.9719,208.375 464.8313,208.6563 464.8313,208.9063 C464.8313,209.2813 465.0031,209.5 465.4875,209.7344 L463.8938,211.5938 L462.2844,209.7344 C462.7844,209.5 462.925,209.2813 462.925,208.9063 C462.925,208.6406 462.8,208.375 462.5813,208.2031 C462.4094,208.0938 462.2688,208.0625 461.7844,208.0625 L460.2375,208.0625 C460.1281,208.0625 460.1125,208.0625 459.9094,208.0938 C459.4094,208.1406 459.1281,208.4531 459.1281,208.9063 C459.1281,209.4219 459.4875,209.7188 460.1125,209.75 L462.8,212.9063 L459.9719,216.2656 C459.3469,216.2656 458.9719,216.5938 458.9719,217.125 C458.9719,217.3906 459.1125,217.6406 459.3313,217.8125 C459.4875,217.9219 459.6906,217.9688 460.0969,217.9688 L461.9719,217.9688 C462.3313,217.9688 462.55,217.9375 462.6906,217.8438 C462.9406,217.7031 463.0969,217.4063 463.0969,217.125 C463.0969,216.6094 462.7688,216.2969 462.1906,216.2656 L463.9094,214.2344 L465.6281,216.2656 C465.0344,216.2969 464.7063,216.6094 464.7063,217.125 C464.7063,217.6875 465.0656,217.9688 465.8156,217.9688 L467.7063,217.9688 C468.0656,217.9688 468.2844,217.9375 468.425,217.8438 C468.675,217.7031 468.8313,217.4063 468.8313,217.125 C468.8313,216.5938 468.4719,216.2813 467.8313,216.2656 L464.9875,212.9219 Z " fill="#000000"/><text fill="#000000" font-family="sans-serif" font-size="12" font-style="italic" lengthAdjust="spacing" textLength="72" x="511.2" y="210.1387">«extension»</text><text fill="#000000" font-family="sans-serif" font-size="12" lengthAdjust="spacing" textLength="132" x="481.2" y="224.1074">OpenBankingEndpoint</text><line style="stroke:#A80036;stroke-width:1.5;" x1="434.5" x2="630.5" y1="231.9375" y2="231.9375"/><ellipse cx="444.5" cy="242.9375" rx="3" ry="3" style="stroke:#038048;stroke-width:1.0;fill:none;"/><text fill="#000000" font-family="sans-serif" font-size="11" lengthAdjust="spacing" textLength="58" x="453.5" y="246.1479">uri : String</text><ellipse cx="444.5" cy="255.7422" rx="3" ry="3" style="stroke:#038048;stroke-width:1.0;fill:none;"/><text fill="#000000" font-family="sans-serif" font-size="11" lengthAdjust="spacing" textLength="172" x="453.5" y="258.9526">queryItems : [URLQueryItem]?</text><!--MD5=[dfe6d89d5293a6564b80438ed40c73e6]
class UserEndpoint--><rect codeLine="29" fill="#FEFECE" height="92.3516" id="UserEndpoint" style="stroke:#A80036;stroke-width:1.5;" width="239" x="7" y="16"/><ellipse cx="81.75" cy="34.9688" fill="#B0C4DE" rx="11" ry="11" style="stroke:#A80036;stroke-width:1.0;"/><path d="M80.5469,35.8438 L82,35.8438 L82,35.9531 C82,36.3594 82.0313,36.5156 82.1094,36.6719 C82.2656,36.9219 82.5469,37.0781 82.8438,37.0781 C83.0938,37.0781 83.3594,36.9375 83.5156,36.7188 C83.6406,36.5625 83.6719,36.4063 83.6719,35.9531 L83.6719,34.0313 C83.6719,33.875 83.6719,33.8281 83.6563,33.6719 C83.5938,33.2031 83.2813,32.8906 82.8281,32.8906 C82.5781,32.8906 82.3125,33.0313 82.1406,33.25 C82.0313,33.4219 82,33.5781 82,34.0313 L82,34.1563 L80.5469,34.1563 L80.5469,31.75 L84.5313,31.75 L84.5313,32.6094 C84.5313,33.0156 84.5625,33.1875 84.6406,33.3438 C84.8125,33.5938 85.0938,33.75 85.375,33.75 C85.6406,33.75 85.9063,33.6094 86.0781,33.3906 C86.1875,33.2188 86.2188,33.0781 86.2188,32.6094 L86.2188,30.0625 L78.5938,30.0625 C78.1563,30.0625 78.0313,30.0781 77.875,30.1719 C77.625,30.3281 77.4688,30.625 77.4688,30.9063 C77.4688,31.1875 77.6094,31.4375 77.8281,31.6094 C77.9844,31.7188 78.1719,31.75 78.5938,31.75 L78.8438,31.75 L78.8438,38.2656 L78.5938,38.2656 C78.1875,38.2656 78.0313,38.2813 77.875,38.3906 C77.625,38.5625 77.4688,38.8281 77.4688,39.125 C77.4688,39.3906 77.6094,39.6406 77.8281,39.7969 C77.9688,39.9219 78.2031,39.9688 78.5938,39.9688 L86.5938,39.9688 L86.5938,37.3906 C86.5938,36.9531 86.5625,36.8125 86.4844,36.6563 C86.3125,36.4063 86.0313,36.25 85.75,36.25 C85.4844,36.25 85.2188,36.3594 85.0469,36.6094 C84.9375,36.7656 84.9063,36.9063 84.9063,37.3906 L84.9063,38.2656 L80.5469,38.2656 L80.5469,35.8438 Z " fill="#000000"/><text fill="#000000" font-family="sans-serif" font-size="12" font-style="italic" lengthAdjust="spacing" textLength="49" x="118.25" y="32.1387">«enum»</text><text fill="#000000" font-family="sans-serif" font-size="12" lengthAdjust="spacing" textLength="81" x="102.25" y="46.1074">UserEndpoint</text><line style="stroke:#A80036;stroke-width:1.5;" x1="8" x2="245" y1="53.9375" y2="53.9375"/><ellipse cx="18" cy="64.9375" rx="3" ry="3" style="stroke:#038048;stroke-width:1.0;fill:none;"/><text fill="#000000" font-family="sans-serif" font-size="11" lengthAdjust="spacing" textLength="63" x="27" y="68.1479">createUser</text><line style="stroke:#A80036;stroke-width:1.5;" x1="8" x2="245" y1="74.7422" y2="74.7422"/><ellipse cx="18" cy="85.7422" fill="#84BE84" rx="3" ry="3" style="stroke:#038048;stroke-width:1.0;"/><text fill="#000000" font-family="sans-serif" font-size="11" lengthAdjust="spacing" textLength="201" x="27" y="88.9526">checkIfUsernameExists(username:)</text><ellipse cx="18" cy="98.5469" fill="#84BE84" rx="3" ry="3" style="stroke:#038048;stroke-width:1.0;"/><text fill="#000000" font-family="sans-serif" font-size="11" lengthAdjust="spacing" textLength="213" x="27" y="101.7573">getUserId(externalIdentityProviderId:)</text><!--MD5=[c6b650a28edabbfb3286f3806fc68a1b]
class UserEndpoint2--><rect codeLine="34" fill="#FEFECE" height="71.5469" id="UserEndpoint2" style="stroke:#A80036;stroke-width:1.5;" width="151" x="51" y="194"/><ellipse cx="83.1" cy="212.9688" fill="#DA70D6" rx="11" ry="11" style="stroke:#A80036;stroke-width:1.0;"/><path d="M84.2875,212.9219 L86.9594,209.75 C87.5531,209.7344 87.9281,209.4375 87.9281,208.9063 C87.9281,208.6406 87.8031,208.375 87.5688,208.2031 C87.3969,208.0938 87.2563,208.0625 86.8031,208.0625 L85.2719,208.0625 C84.8969,208.0625 84.6313,208.1094 84.4906,208.2344 C84.2719,208.375 84.1313,208.6563 84.1313,208.9063 C84.1313,209.2813 84.3031,209.5 84.7875,209.7344 L83.1938,211.5938 L81.5844,209.7344 C82.0844,209.5 82.225,209.2813 82.225,208.9063 C82.225,208.6406 82.1,208.375 81.8813,208.2031 C81.7094,208.0938 81.5688,208.0625 81.0844,208.0625 L79.5375,208.0625 C79.4281,208.0625 79.4125,208.0625 79.2094,208.0938 C78.7094,208.1406 78.4281,208.4531 78.4281,208.9063 C78.4281,209.4219 78.7875,209.7188 79.4125,209.75 L82.1,212.9063 L79.2719,216.2656 C78.6469,216.2656 78.2719,216.5938 78.2719,217.125 C78.2719,217.3906 78.4125,217.6406 78.6313,217.8125 C78.7875,217.9219 78.9906,217.9688 79.3969,217.9688 L81.2719,217.9688 C81.6313,217.9688 81.85,217.9375 81.9906,217.8438 C82.2406,217.7031 82.3969,217.4063 82.3969,217.125 C82.3969,216.6094 82.0688,216.2969 81.4906,216.2656 L83.2094,214.2344 L84.9281,216.2656 C84.3344,216.2969 84.0063,216.6094 84.0063,217.125 C84.0063,217.6875 84.3656,217.9688 85.1156,217.9688 L87.0063,217.9688 C87.3656,217.9688 87.5844,217.9375 87.725,217.8438 C87.975,217.7031 88.1313,217.4063 88.1313,217.125 C88.1313,216.5938 87.7719,216.2813 87.1313,216.2656 L84.2875,212.9219 Z " fill="#000000"/><text fill="#000000" font-family="sans-serif" font-size="12" font-style="italic" lengthAdjust="spacing" textLength="72" x="105.4" y="210.1387">«extension»</text><text fill="#000000" font-family="sans-serif" font-size="12" lengthAdjust="spacing" textLength="81" x="100.9" y="224.1074">UserEndpoint</text><line style="stroke:#A80036;stroke-width:1.5;" x1="52" x2="201" y1="231.9375" y2="231.9375"/><ellipse cx="62" cy="242.9375" rx="3" ry="3" style="stroke:#038048;stroke-width:1.0;fill:none;"/><text fill="#000000" font-family="sans-serif" font-size="11" lengthAdjust="spacing" textLength="58" x="71" y="246.1479">uri : String</text><ellipse cx="62" cy="255.7422" rx="3" ry="3" style="stroke:#038048;stroke-width:1.0;fill:none;"/><text fill="#000000" font-family="sans-serif" font-size="11" lengthAdjust="spacing" textLength="125" x="71" y="258.9526">isAuthenticated : Bool</text><!--MD5=[cfc92a6e5f57a9ed700fdc23c4018d91]
class AccountEndpoint--><rect codeLine="38" fill="#FEFECE" height="92.3516" id="AccountEndpoint" style="stroke:#A80036;stroke-width:1.5;" width="265" x="809" y="16"/><ellipse cx="887.25" cy="34.9688" fill="#B0C4DE" rx="11" ry="11" style="stroke:#A80036;stroke-width:1.0;"/><path d="M886.0469,35.8438 L887.5,35.8438 L887.5,35.9531 C887.5,36.3594 887.5313,36.5156 887.6094,36.6719 C887.7656,36.9219 888.0469,37.0781 888.3438,37.0781 C888.5938,37.0781 888.8594,36.9375 889.0156,36.7188 C889.1406,36.5625 889.1719,36.4063 889.1719,35.9531 L889.1719,34.0313 C889.1719,33.875 889.1719,33.8281 889.1563,33.6719 C889.0938,33.2031 888.7813,32.8906 888.3281,32.8906 C888.0781,32.8906 887.8125,33.0313 887.6406,33.25 C887.5313,33.4219 887.5,33.5781 887.5,34.0313 L887.5,34.1563 L886.0469,34.1563 L886.0469,31.75 L890.0313,31.75 L890.0313,32.6094 C890.0313,33.0156 890.0625,33.1875 890.1406,33.3438 C890.3125,33.5938 890.5938,33.75 890.875,33.75 C891.1406,33.75 891.4063,33.6094 891.5781,33.3906 C891.6875,33.2188 891.7188,33.0781 891.7188,32.6094 L891.7188,30.0625 L884.0938,30.0625 C883.6563,30.0625 883.5313,30.0781 883.375,30.1719 C883.125,30.3281 882.9688,30.625 882.9688,30.9063 C882.9688,31.1875 883.1094,31.4375 883.3281,31.6094 C883.4844,31.7188 883.6719,31.75 884.0938,31.75 L884.3438,31.75 L884.3438,38.2656 L884.0938,38.2656 C883.6875,38.2656 883.5313,38.2813 883.375,38.3906 C883.125,38.5625 882.9688,38.8281 882.9688,39.125 C882.9688,39.3906 883.1094,39.6406 883.3281,39.7969 C883.4688,39.9219 883.7031,39.9688 884.0938,39.9688 L892.0938,39.9688 L892.0938,37.3906 C892.0938,36.9531 892.0625,36.8125 891.9844,36.6563 C891.8125,36.4063 891.5313,36.25 891.25,36.25 C890.9844,36.25 890.7188,36.3594 890.5469,36.6094 C890.4375,36.7656 890.4063,36.9063 890.4063,37.3906 L890.4063,38.2656 L886.0469,38.2656 L886.0469,35.8438 Z " fill="#000000"/><text fill="#000000" font-family="sans-serif" font-size="12" font-style="italic" lengthAdjust="spacing" textLength="49" x="933.25" y="32.1387">«enum»</text><text fill="#000000" font-family="sans-serif" font-size="12" lengthAdjust="spacing" textLength="100" x="907.75" y="46.1074">AccountEndpoint</text><line style="stroke:#A80036;stroke-width:1.5;" x1="810" x2="1073" y1="53.9375" y2="53.9375"/><ellipse cx="820" cy="64.9375" rx="3" ry="3" style="stroke:#038048;stroke-width:1.0;fill:none;"/><text fill="#000000" font-family="sans-serif" font-size="11" lengthAdjust="spacing" textLength="19" x="829" y="68.1479">link</text><line style="stroke:#A80036;stroke-width:1.5;" x1="810" x2="1073" y1="74.7422" y2="74.7422"/><ellipse cx="820" cy="85.7422" fill="#84BE84" rx="3" ry="3" style="stroke:#038048;stroke-width:1.0;"/><text fill="#000000" font-family="sans-serif" font-size="11" lengthAdjust="spacing" textLength="116" x="829" y="88.9526">getAccounts(userId:)</text><ellipse cx="820" cy="98.5469" fill="#84BE84" rx="3" ry="3" style="stroke:#038048;stroke-width:1.0;"/><text fill="#000000" font-family="sans-serif" font-size="11" lengthAdjust="spacing" textLength="239" x="829" y="101.7573">getInstitutionAccounts(userId:institutionId:)</text><!--MD5=[1bdfdd56164065c9672cee68eaae279b]
class AccountEndpoint3--><rect codeLine="43" fill="#FEFECE" height="58.7422" id="AccountEndpoint3" style="stroke:#A80036;stroke-width:1.5;" width="132" x="874.5" y="200.5"/><ellipse cx="889.5" cy="219.4688" fill="#DA70D6" rx="11" ry="11" style="stroke:#A80036;stroke-width:1.0;"/><path d="M890.6875,219.4219 L893.3594,216.25 C893.9531,216.2344 894.3281,215.9375 894.3281,215.4063 C894.3281,215.1406 894.2031,214.875 893.9688,214.7031 C893.7969,214.5938 893.6563,214.5625 893.2031,214.5625 L891.6719,214.5625 C891.2969,214.5625 891.0313,214.6094 890.8906,214.7344 C890.6719,214.875 890.5313,215.1563 890.5313,215.4063 C890.5313,215.7813 890.7031,216 891.1875,216.2344 L889.5938,218.0938 L887.9844,216.2344 C888.4844,216 888.625,215.7813 888.625,215.4063 C888.625,215.1406 888.5,214.875 888.2813,214.7031 C888.1094,214.5938 887.9688,214.5625 887.4844,214.5625 L885.9375,214.5625 C885.8281,214.5625 885.8125,214.5625 885.6094,214.5938 C885.1094,214.6406 884.8281,214.9531 884.8281,215.4063 C884.8281,215.9219 885.1875,216.2188 885.8125,216.25 L888.5,219.4063 L885.6719,222.7656 C885.0469,222.7656 884.6719,223.0938 884.6719,223.625 C884.6719,223.8906 884.8125,224.1406 885.0313,224.3125 C885.1875,224.4219 885.3906,224.4688 885.7969,224.4688 L887.6719,224.4688 C888.0313,224.4688 888.25,224.4375 888.3906,224.3438 C888.6406,224.2031 888.7969,223.9063 888.7969,223.625 C888.7969,223.1094 888.4688,222.7969 887.8906,222.7656 L889.6094,220.7344 L891.3281,222.7656 C890.7344,222.7969 890.4063,223.1094 890.4063,223.625 C890.4063,224.1875 890.7656,224.4688 891.5156,224.4688 L893.4063,224.4688 C893.7656,224.4688 893.9844,224.4375 894.125,224.3438 C894.375,224.2031 894.5313,223.9063 894.5313,223.625 C894.5313,223.0938 894.1719,222.7813 893.5313,222.7656 L890.6875,219.4219 Z " fill="#000000"/><text fill="#000000" font-family="sans-serif" font-size="12" font-style="italic" lengthAdjust="spacing" textLength="72" x="917.5" y="216.6387">«extension»</text><text fill="#000000" font-family="sans-serif" font-size="12" lengthAdjust="spacing" textLength="100" x="903.5" y="230.6074">AccountEndpoint</text><line style="stroke:#A80036;stroke-width:1.5;" x1="875.5" x2="1005.5" y1="238.4375" y2="238.4375"/><ellipse cx="885.5" cy="249.4375" rx="3" ry="3" style="stroke:#038048;stroke-width:1.0;fill:none;"/><text fill="#000000" font-family="sans-serif" font-size="11" lengthAdjust="spacing" textLength="58" x="894.5" y="252.6479">uri : String</text><!--MD5=[ddfff22507b186fda625af94b4c34bbf]
class TransactionsEndpoint--><rect codeLine="46" fill="#FEFECE" height="71.5469" id="TransactionsEndpoint" style="stroke:#A80036;stroke-width:1.5;" width="272" x="281.5" y="26"/><ellipse cx="349.25" cy="44.9688" fill="#B0C4DE" rx="11" ry="11" style="stroke:#A80036;stroke-width:1.0;"/><path d="M348.0469,45.8438 L349.5,45.8438 L349.5,45.9531 C349.5,46.3594 349.5313,46.5156 349.6094,46.6719 C349.7656,46.9219 350.0469,47.0781 350.3438,47.0781 C350.5938,47.0781 350.8594,46.9375 351.0156,46.7188 C351.1406,46.5625 351.1719,46.4063 351.1719,45.9531 L351.1719,44.0313 C351.1719,43.875 351.1719,43.8281 351.1563,43.6719 C351.0938,43.2031 350.7813,42.8906 350.3281,42.8906 C350.0781,42.8906 349.8125,43.0313 349.6406,43.25 C349.5313,43.4219 349.5,43.5781 349.5,44.0313 L349.5,44.1563 L348.0469,44.1563 L348.0469,41.75 L352.0313,41.75 L352.0313,42.6094 C352.0313,43.0156 352.0625,43.1875 352.1406,43.3438 C352.3125,43.5938 352.5938,43.75 352.875,43.75 C353.1406,43.75 353.4063,43.6094 353.5781,43.3906 C353.6875,43.2188 353.7188,43.0781 353.7188,42.6094 L353.7188,40.0625 L346.0938,40.0625 C345.6563,40.0625 345.5313,40.0781 345.375,40.1719 C345.125,40.3281 344.9688,40.625 344.9688,40.9063 C344.9688,41.1875 345.1094,41.4375 345.3281,41.6094 C345.4844,41.7188 345.6719,41.75 346.0938,41.75 L346.3438,41.75 L346.3438,48.2656 L346.0938,48.2656 C345.6875,48.2656 345.5313,48.2813 345.375,48.3906 C345.125,48.5625 344.9688,48.8281 344.9688,49.125 C344.9688,49.3906 345.1094,49.6406 345.3281,49.7969 C345.4688,49.9219 345.7031,49.9688 346.0938,49.9688 L354.0938,49.9688 L354.0938,47.3906 C354.0938,46.9531 354.0625,46.8125 353.9844,46.6563 C353.8125,46.4063 353.5313,46.25 353.25,46.25 C352.9844,46.25 352.7188,46.3594 352.5469,46.6094 C352.4375,46.7656 352.4063,46.9063 352.4063,47.3906 L352.4063,48.2656 L348.0469,48.2656 L348.0469,45.8438 Z " fill="#000000"/><text fill="#000000" font-family="sans-serif" font-size="12" font-style="italic" lengthAdjust="spacing" textLength="49" x="409.25" y="42.1387">«enum»</text><text fill="#000000" font-family="sans-serif" font-size="12" lengthAdjust="spacing" textLength="128" x="369.75" y="56.1074">TransactionsEndpoint</text><line style="stroke:#A80036;stroke-width:1.5;" x1="282.5" x2="552.5" y1="63.9375" y2="63.9375"/><ellipse cx="292.5" cy="74.9375" fill="#84BE84" rx="3" ry="3" style="stroke:#038048;stroke-width:1.0;"/><text fill="#000000" font-family="sans-serif" font-size="11" lengthAdjust="spacing" textLength="169" x="301.5" y="78.1479">transactionsSummary(userId:)</text><ellipse cx="292.5" cy="87.7422" fill="#84BE84" rx="3" ry="3" style="stroke:#038048;stroke-width:1.0;"/><text fill="#000000" font-family="sans-serif" font-size="11" lengthAdjust="spacing" textLength="246" x="301.5" y="90.9526">transactionsCategorised(userId:categoryId:)</text><!--MD5=[74fa573412e2e127ab493d8ff983978f]
class TransactionsEndpoint4--><rect codeLine="50" fill="#FEFECE" height="58.7422" id="TransactionsEndpoint4" style="stroke:#A80036;stroke-width:1.5;" width="160" x="238.5" y="200.5"/><ellipse cx="253.5" cy="219.4688" fill="#DA70D6" rx="11" ry="11" style="stroke:#A80036;stroke-width:1.0;"/><path d="M254.6875,219.4219 L257.3594,216.25 C257.9531,216.2344 258.3281,215.9375 258.3281,215.4063 C258.3281,215.1406 258.2031,214.875 257.9688,214.7031 C257.7969,214.5938 257.6563,214.5625 257.2031,214.5625 L255.6719,214.5625 C255.2969,214.5625 255.0313,214.6094 254.8906,214.7344 C254.6719,214.875 254.5313,215.1563 254.5313,215.4063 C254.5313,215.7813 254.7031,216 255.1875,216.2344 L253.5938,218.0938 L251.9844,216.2344 C252.4844,216 252.625,215.7813 252.625,215.4063 C252.625,215.1406 252.5,214.875 252.2813,214.7031 C252.1094,214.5938 251.9688,214.5625 251.4844,214.5625 L249.9375,214.5625 C249.8281,214.5625 249.8125,214.5625 249.6094,214.5938 C249.1094,214.6406 248.8281,214.9531 248.8281,215.4063 C248.8281,215.9219 249.1875,216.2188 249.8125,216.25 L252.5,219.4063 L249.6719,222.7656 C249.0469,222.7656 248.6719,223.0938 248.6719,223.625 C248.6719,223.8906 248.8125,224.1406 249.0313,224.3125 C249.1875,224.4219 249.3906,224.4688 249.7969,224.4688 L251.6719,224.4688 C252.0313,224.4688 252.25,224.4375 252.3906,224.3438 C252.6406,224.2031 252.7969,223.9063 252.7969,223.625 C252.7969,223.1094 252.4688,222.7969 251.8906,222.7656 L253.6094,220.7344 L255.3281,222.7656 C254.7344,222.7969 254.4063,223.1094 254.4063,223.625 C254.4063,224.1875 254.7656,224.4688 255.5156,224.4688 L257.4063,224.4688 C257.7656,224.4688 257.9844,224.4375 258.125,224.3438 C258.375,224.2031 258.5313,223.9063 258.5313,223.625 C258.5313,223.0938 258.1719,222.7813 257.5313,222.7656 L254.6875,219.4219 Z " fill="#000000"/><text fill="#000000" font-family="sans-serif" font-size="12" font-style="italic" lengthAdjust="spacing" textLength="72" x="295.5" y="216.6387">«extension»</text><text fill="#000000" font-family="sans-serif" font-size="12" lengthAdjust="spacing" textLength="128" x="267.5" y="230.6074">TransactionsEndpoint</text><line style="stroke:#A80036;stroke-width:1.5;" x1="239.5" x2="397.5" y1="238.4375" y2="238.4375"/><ellipse cx="249.5" cy="249.4375" rx="3" ry="3" style="stroke:#038048;stroke-width:1.0;fill:none;"/><text fill="#000000" font-family="sans-serif" font-size="11" lengthAdjust="spacing" textLength="58" x="258.5" y="252.6479">uri : String</text><!--MD5=[706e0c9726e998fe7d836d6ec621ed4b]
class AffordabilityEndpoint--><rect codeLine="53" fill="#FEFECE" height="109.9609" id="AffordabilityEndpoint" style="stroke:#A80036;stroke-width:1.5;" width="251" x="1545" y="7"/><ellipse cx="1604.25" cy="25.9688" fill="#B0C4DE" rx="11" ry="11" style="stroke:#A80036;stroke-width:1.0;"/><path d="M1603.0469,26.8438 L1604.5,26.8438 L1604.5,26.9531 C1604.5,27.3594 1604.5313,27.5156 1604.6094,27.6719 C1604.7656,27.9219 1605.0469,28.0781 1605.3438,28.0781 C1605.5938,28.0781 1605.8594,27.9375 1606.0156,27.7188 C1606.1406,27.5625 1606.1719,27.4063 1606.1719,26.9531 L1606.1719,25.0313 C1606.1719,24.875 1606.1719,24.8281 1606.1563,24.6719 C1606.0938,24.2031 1605.7813,23.8906 1605.3281,23.8906 C1605.0781,23.8906 1604.8125,24.0313 1604.6406,24.25 C1604.5313,24.4219 1604.5,24.5781 1604.5,25.0313 L1604.5,25.1563 L1603.0469,25.1563 L1603.0469,22.75 L1607.0313,22.75 L1607.0313,23.6094 C1607.0313,24.0156 1607.0625,24.1875 1607.1406,24.3438 C1607.3125,24.5938 1607.5938,24.75 1607.875,24.75 C1608.1406,24.75 1608.4063,24.6094 1608.5781,24.3906 C1608.6875,24.2188 1608.7188,24.0781 1608.7188,23.6094 L1608.7188,21.0625 L1601.0938,21.0625 C1600.6563,21.0625 1600.5313,21.0781 1600.375,21.1719 C1600.125,21.3281 1599.9688,21.625 1599.9688,21.9063 C1599.9688,22.1875 1600.1094,22.4375 1600.3281,22.6094 C1600.4844,22.7188 1600.6719,22.75 1601.0938,22.75 L1601.3438,22.75 L1601.3438,29.2656 L1601.0938,29.2656 C1600.6875,29.2656 1600.5313,29.2813 1600.375,29.3906 C1600.125,29.5625 1599.9688,29.8281 1599.9688,30.125 C1599.9688,30.3906 1600.1094,30.6406 1600.3281,30.7969 C1600.4688,30.9219 1600.7031,30.9688 1601.0938,30.9688 L1609.0938,30.9688 L1609.0938,28.3906 C1609.0938,27.9531 1609.0625,27.8125 1608.9844,27.6563 C1608.8125,27.4063 1608.5313,27.25 1608.25,27.25 C1607.9844,27.25 1607.7188,27.3594 1607.5469,27.6094 C1607.4375,27.7656 1607.4063,27.9063 1607.4063,28.3906 L1607.4063,29.2656 L1603.0469,29.2656 L1603.0469,26.8438 Z " fill="#000000"/><text fill="#000000" font-family="sans-serif" font-size="12" font-style="italic" lengthAdjust="spacing" textLength="49" x="1662.25" y="23.1387">«enum»</text><text fill="#000000" font-family="sans-serif" font-size="12" lengthAdjust="spacing" textLength="124" x="1624.75" y="37.1074">AffordabilityEndpoint</text><line style="stroke:#A80036;stroke-width:1.5;" x1="1546" x2="1795" y1="44.9375" y2="44.9375"/><ellipse cx="1556" cy="55.9375" fill="#84BE84" rx="3" ry="3" style="stroke:#038048;stroke-width:1.0;"/><text fill="#000000" font-family="sans-serif" font-size="11" lengthAdjust="spacing" textLength="179" x="1565" y="59.1479">customerDirectoryView(userId:)</text><ellipse cx="1556" cy="68.7422" fill="#84BE84" rx="3" ry="3" style="stroke:#038048;stroke-width:1.0;"/><text fill="#000000" font-family="sans-serif" font-size="11" lengthAdjust="spacing" textLength="225" x="1565" y="71.9526">goalTrackingAndMortgageLimits(userId:)</text><ellipse cx="1556" cy="81.5469" fill="#84BE84" rx="3" ry="3" style="stroke:#038048;stroke-width:1.0;"/><text fill="#000000" font-family="sans-serif" font-size="11" lengthAdjust="spacing" textLength="88" x="1565" y="84.7573">income(userId:)</text><ellipse cx="1556" cy="94.3516" fill="#84BE84" rx="3" ry="3" style="stroke:#038048;stroke-width:1.0;"/><text fill="#000000" font-family="sans-serif" font-size="11" lengthAdjust="spacing" textLength="159" x="1565" y="97.562">mortgageIllustration(userId:)</text><ellipse cx="1556" cy="107.1563" fill="#84BE84" rx="3" ry="3" style="stroke:#038048;stroke-width:1.0;"/><text fill="#000000" font-family="sans-serif" font-size="11" lengthAdjust="spacing" textLength="149" x="1565" y="110.3667">disposableIncome(userId:)</text><!--MD5=[0529020df83f4ce83334da8b29606c90]
class AffordabilityEndpoint5--><rect codeLine="60" fill="#FEFECE" height="58.7422" id="AffordabilityEndpoint5" style="stroke:#A80036;stroke-width:1.5;" width="156" x="1654.5" y="200.5"/><ellipse cx="1669.5" cy="219.4688" fill="#DA70D6" rx="11" ry="11" style="stroke:#A80036;stroke-width:1.0;"/><path d="M1670.6875,219.4219 L1673.3594,216.25 C1673.9531,216.2344 1674.3281,215.9375 1674.3281,215.4063 C1674.3281,215.1406 1674.2031,214.875 1673.9688,214.7031 C1673.7969,214.5938 1673.6563,214.5625 1673.2031,214.5625 L1671.6719,214.5625 C1671.2969,214.5625 1671.0313,214.6094 1670.8906,214.7344 C1670.6719,214.875 1670.5313,215.1563 1670.5313,215.4063 C1670.5313,215.7813 1670.7031,216 1671.1875,216.2344 L1669.5938,218.0938 L1667.9844,216.2344 C1668.4844,216 1668.625,215.7813 1668.625,215.4063 C1668.625,215.1406 1668.5,214.875 1668.2813,214.7031 C1668.1094,214.5938 1667.9688,214.5625 1667.4844,214.5625 L1665.9375,214.5625 C1665.8281,214.5625 1665.8125,214.5625 1665.6094,214.5938 C1665.1094,214.6406 1664.8281,214.9531 1664.8281,215.4063 C1664.8281,215.9219 1665.1875,216.2188 1665.8125,216.25 L1668.5,219.4063 L1665.6719,222.7656 C1665.0469,222.7656 1664.6719,223.0938 1664.6719,223.625 C1664.6719,223.8906 1664.8125,224.1406 1665.0313,224.3125 C1665.1875,224.4219 1665.3906,224.4688 1665.7969,224.4688 L1667.6719,224.4688 C1668.0313,224.4688 1668.25,224.4375 1668.3906,224.3438 C1668.6406,224.2031 1668.7969,223.9063 1668.7969,223.625 C1668.7969,223.1094 1668.4688,222.7969 1667.8906,222.7656 L1669.6094,220.7344 L1671.3281,222.7656 C1670.7344,222.7969 1670.4063,223.1094 1670.4063,223.625 C1670.4063,224.1875 1670.7656,224.4688 1671.5156,224.4688 L1673.4063,224.4688 C1673.7656,224.4688 1673.9844,224.4375 1674.125,224.3438 C1674.375,224.2031 1674.5313,223.9063 1674.5313,223.625 C1674.5313,223.0938 1674.1719,222.7813 1673.5313,222.7656 L1670.6875,219.4219 Z " fill="#000000"/><text fill="#000000" font-family="sans-serif" font-size="12" font-style="italic" lengthAdjust="spacing" textLength="72" x="1709.5" y="216.6387">«extension»</text><text fill="#000000" font-family="sans-serif" font-size="12" lengthAdjust="spacing" textLength="124" x="1683.5" y="230.6074">AffordabilityEndpoint</text><line style="stroke:#A80036;stroke-width:1.5;" x1="1655.5" x2="1809.5" y1="238.4375" y2="238.4375"/><ellipse cx="1665.5" cy="249.4375" rx="3" ry="3" style="stroke:#038048;stroke-width:1.0;fill:none;"/><text fill="#000000" font-family="sans-serif" font-size="11" lengthAdjust="spacing" textLength="58" x="1674.5" y="252.6479">uri : String</text><!--MD5=[afbc0fd53848f866b8eda2a9d47ed4ac]
class DepositEndpoint--><rect codeLine="63" fill="#FEFECE" height="92.3516" id="DepositEndpoint" style="stroke:#A80036;stroke-width:1.5;" width="159" x="1109" y="16"/><ellipse cx="1136.6" cy="34.9688" fill="#B0C4DE" rx="11" ry="11" style="stroke:#A80036;stroke-width:1.0;"/><path d="M1135.3969,35.8438 L1136.85,35.8438 L1136.85,35.9531 C1136.85,36.3594 1136.8813,36.5156 1136.9594,36.6719 C1137.1156,36.9219 1137.3969,37.0781 1137.6938,37.0781 C1137.9438,37.0781 1138.2094,36.9375 1138.3656,36.7188 C1138.4906,36.5625 1138.5219,36.4063 1138.5219,35.9531 L1138.5219,34.0313 C1138.5219,33.875 1138.5219,33.8281 1138.5063,33.6719 C1138.4438,33.2031 1138.1313,32.8906 1137.6781,32.8906 C1137.4281,32.8906 1137.1625,33.0313 1136.9906,33.25 C1136.8813,33.4219 1136.85,33.5781 1136.85,34.0313 L1136.85,34.1563 L1135.3969,34.1563 L1135.3969,31.75 L1139.3813,31.75 L1139.3813,32.6094 C1139.3813,33.0156 1139.4125,33.1875 1139.4906,33.3438 C1139.6625,33.5938 1139.9438,33.75 1140.225,33.75 C1140.4906,33.75 1140.7563,33.6094 1140.9281,33.3906 C1141.0375,33.2188 1141.0688,33.0781 1141.0688,32.6094 L1141.0688,30.0625 L1133.4438,30.0625 C1133.0063,30.0625 1132.8813,30.0781 1132.725,30.1719 C1132.475,30.3281 1132.3188,30.625 1132.3188,30.9063 C1132.3188,31.1875 1132.4594,31.4375 1132.6781,31.6094 C1132.8344,31.7188 1133.0219,31.75 1133.4438,31.75 L1133.6938,31.75 L1133.6938,38.2656 L1133.4438,38.2656 C1133.0375,38.2656 1132.8813,38.2813 1132.725,38.3906 C1132.475,38.5625 1132.3188,38.8281 1132.3188,39.125 C1132.3188,39.3906 1132.4594,39.6406 1132.6781,39.7969 C1132.8188,39.9219 1133.0531,39.9688 1133.4438,39.9688 L1141.4438,39.9688 L1141.4438,37.3906 C1141.4438,36.9531 1141.4125,36.8125 1141.3344,36.6563 C1141.1625,36.4063 1140.8813,36.25 1140.6,36.25 C1140.3344,36.25 1140.0688,36.3594 1139.8969,36.6094 C1139.7875,36.7656 1139.7563,36.9063 1139.7563,37.3906 L1139.7563,38.2656 L1135.3969,38.2656 L1135.3969,35.8438 Z " fill="#000000"/><text fill="#000000" font-family="sans-serif" font-size="12" font-style="italic" lengthAdjust="spacing" textLength="49" x="1178.4" y="32.1387">«enum»</text><text fill="#000000" font-family="sans-serif" font-size="12" lengthAdjust="spacing" textLength="99" x="1153.4" y="46.1074">DepositEndpoint</text><line style="stroke:#A80036;stroke-width:1.5;" x1="1110" x2="1267" y1="53.9375" y2="53.9375"/><ellipse cx="1120" cy="64.9375" rx="3" ry="3" style="stroke:#038048;stroke-width:1.0;fill:none;"/><text fill="#000000" font-family="sans-serif" font-size="11" lengthAdjust="spacing" textLength="50" x="1129" y="68.1479">accounts</text><line style="stroke:#A80036;stroke-width:1.5;" x1="1110" x2="1267" y1="74.7422" y2="74.7422"/><ellipse cx="1120" cy="85.7422" fill="#84BE84" rx="3" ry="3" style="stroke:#038048;stroke-width:1.0;"/><text fill="#000000" font-family="sans-serif" font-size="11" lengthAdjust="spacing" textLength="91" x="1129" y="88.9526">balance(userId:)</text><ellipse cx="1120" cy="98.5469" fill="#84BE84" rx="3" ry="3" style="stroke:#038048;stroke-width:1.0;"/><text fill="#000000" font-family="sans-serif" font-size="11" lengthAdjust="spacing" textLength="133" x="1129" y="101.7573">externalCapital(userId:)</text><!--MD5=[a407402f91168911aa27e2307fa47c0b]
class DepositEndpoint6--><rect codeLine="68" fill="#FEFECE" height="58.7422" id="DepositEndpoint6" style="stroke:#A80036;stroke-width:1.5;" width="131" x="1342" y="200.5"/><ellipse cx="1357" cy="219.4688" fill="#DA70D6" rx="11" ry="11" style="stroke:#A80036;stroke-width:1.0;"/><path d="M1358.1875,219.4219 L1360.8594,216.25 C1361.4531,216.2344 1361.8281,215.9375 1361.8281,215.4063 C1361.8281,215.1406 1361.7031,214.875 1361.4688,214.7031 C1361.2969,214.5938 1361.1563,214.5625 1360.7031,214.5625 L1359.1719,214.5625 C1358.7969,214.5625 1358.5313,214.6094 1358.3906,214.7344 C1358.1719,214.875 1358.0313,215.1563 1358.0313,215.4063 C1358.0313,215.7813 1358.2031,216 1358.6875,216.2344 L1357.0938,218.0938 L1355.4844,216.2344 C1355.9844,216 1356.125,215.7813 1356.125,215.4063 C1356.125,215.1406 1356,214.875 1355.7813,214.7031 C1355.6094,214.5938 1355.4688,214.5625 1354.9844,214.5625 L1353.4375,214.5625 C1353.3281,214.5625 1353.3125,214.5625 1353.1094,214.5938 C1352.6094,214.6406 1352.3281,214.9531 1352.3281,215.4063 C1352.3281,215.9219 1352.6875,216.2188 1353.3125,216.25 L1356,219.4063 L1353.1719,222.7656 C1352.5469,222.7656 1352.1719,223.0938 1352.1719,223.625 C1352.1719,223.8906 1352.3125,224.1406 1352.5313,224.3125 C1352.6875,224.4219 1352.8906,224.4688 1353.2969,224.4688 L1355.1719,224.4688 C1355.5313,224.4688 1355.75,224.4375 1355.8906,224.3438 C1356.1406,224.2031 1356.2969,223.9063 1356.2969,223.625 C1356.2969,223.1094 1355.9688,222.7969 1355.3906,222.7656 L1357.1094,220.7344 L1358.8281,222.7656 C1358.2344,222.7969 1357.9063,223.1094 1357.9063,223.625 C1357.9063,224.1875 1358.2656,224.4688 1359.0156,224.4688 L1360.9063,224.4688 C1361.2656,224.4688 1361.4844,224.4375 1361.625,224.3438 C1361.875,224.2031 1362.0313,223.9063 1362.0313,223.625 C1362.0313,223.0938 1361.6719,222.7813 1361.0313,222.7656 L1358.1875,219.4219 Z " fill="#000000"/><text fill="#000000" font-family="sans-serif" font-size="12" font-style="italic" lengthAdjust="spacing" textLength="72" x="1384.5" y="216.6387">«extension»</text><text fill="#000000" font-family="sans-serif" font-size="12" lengthAdjust="spacing" textLength="99" x="1371" y="230.6074">DepositEndpoint</text><line style="stroke:#A80036;stroke-width:1.5;" x1="1343" x2="1472" y1="238.4375" y2="238.4375"/><ellipse cx="1353" cy="249.4375" rx="3" ry="3" style="stroke:#038048;stroke-width:1.0;fill:none;"/><text fill="#000000" font-family="sans-serif" font-size="11" lengthAdjust="spacing" textLength="58" x="1362" y="252.6479">uri : String</text><!--MD5=[63ece6a8f44d917a54cb1dcff9925782]
class PropertyEndpoint--><rect codeLine="71" fill="#FEFECE" height="71.5469" id="PropertyEndpoint" style="stroke:#A80036;stroke-width:1.5;" width="301" x="1831" y="26"/><ellipse cx="1925.75" cy="44.9688" fill="#B0C4DE" rx="11" ry="11" style="stroke:#A80036;stroke-width:1.0;"/><path d="M1924.5469,45.8438 L1926,45.8438 L1926,45.9531 C1926,46.3594 1926.0313,46.5156 1926.1094,46.6719 C1926.2656,46.9219 1926.5469,47.0781 1926.8438,47.0781 C1927.0938,47.0781 1927.3594,46.9375 1927.5156,46.7188 C1927.6406,46.5625 1927.6719,46.4063 1927.6719,45.9531 L1927.6719,44.0313 C1927.6719,43.875 1927.6719,43.8281 1927.6563,43.6719 C1927.5938,43.2031 1927.2813,42.8906 1926.8281,42.8906 C1926.5781,42.8906 1926.3125,43.0313 1926.1406,43.25 C1926.0313,43.4219 1926,43.5781 1926,44.0313 L1926,44.1563 L1924.5469,44.1563 L1924.5469,41.75 L1928.5313,41.75 L1928.5313,42.6094 C1928.5313,43.0156 1928.5625,43.1875 1928.6406,43.3438 C1928.8125,43.5938 1929.0938,43.75 1929.375,43.75 C1929.6406,43.75 1929.9063,43.6094 1930.0781,43.3906 C1930.1875,43.2188 1930.2188,43.0781 1930.2188,42.6094 L1930.2188,40.0625 L1922.5938,40.0625 C1922.1563,40.0625 1922.0313,40.0781 1921.875,40.1719 C1921.625,40.3281 1921.4688,40.625 1921.4688,40.9063 C1921.4688,41.1875 1921.6094,41.4375 1921.8281,41.6094 C1921.9844,41.7188 1922.1719,41.75 1922.5938,41.75 L1922.8438,41.75 L1922.8438,48.2656 L1922.5938,48.2656 C1922.1875,48.2656 1922.0313,48.2813 1921.875,48.3906 C1921.625,48.5625 1921.4688,48.8281 1921.4688,49.125 C1921.4688,49.3906 1921.6094,49.6406 1921.8281,49.7969 C1921.9688,49.9219 1922.2031,49.9688 1922.5938,49.9688 L1930.5938,49.9688 L1930.5938,47.3906 C1930.5938,46.9531 1930.5625,46.8125 1930.4844,46.6563 C1930.3125,46.4063 1930.0313,46.25 1929.75,46.25 C1929.4844,46.25 1929.2188,46.3594 1929.0469,46.6094 C1928.9375,46.7656 1928.9063,46.9063 1928.9063,47.3906 L1928.9063,48.2656 L1924.5469,48.2656 L1924.5469,45.8438 Z " fill="#000000"/><text fill="#000000" font-family="sans-serif" font-size="12" font-style="italic" lengthAdjust="spacing" textLength="49" x="1973.25" y="42.1387">«enum»</text><text fill="#000000" font-family="sans-serif" font-size="12" lengthAdjust="spacing" textLength="103" x="1946.25" y="56.1074">PropertyEndpoint</text><line style="stroke:#A80036;stroke-width:1.5;" x1="1832" x2="2131" y1="63.9375" y2="63.9375"/><ellipse cx="1842" cy="74.9375" fill="#84BE84" rx="3" ry="3" style="stroke:#038048;stroke-width:1.0;"/><text fill="#000000" font-family="sans-serif" font-size="11" lengthAdjust="spacing" textLength="158" x="1851" y="78.1479">autocomplete(searchTerm:)</text><ellipse cx="1842" cy="87.7422" fill="#84BE84" rx="3" ry="3" style="stroke:#038048;stroke-width:1.0;"/><text fill="#000000" font-family="sans-serif" font-size="11" lengthAdjust="spacing" textLength="275" x="1851" y="90.9526">listings(pageNumber:pageSize:postcode:userId:)</text><!--MD5=[25e20c63c27e2aa2686d45d8b641f98b]
class PropertyEndpoint7--><rect codeLine="75" fill="#FEFECE" height="71.5469" id="PropertyEndpoint7" style="stroke:#A80036;stroke-width:1.5;" width="198" x="1882.5" y="194"/><ellipse cx="1925.85" cy="212.9688" fill="#DA70D6" rx="11" ry="11" style="stroke:#A80036;stroke-width:1.0;"/><path d="M1927.0375,212.9219 L1929.7094,209.75 C1930.3031,209.7344 1930.6781,209.4375 1930.6781,208.9063 C1930.6781,208.6406 1930.5531,208.375 1930.3188,208.2031 C1930.1469,208.0938 1930.0063,208.0625 1929.5531,208.0625 L1928.0219,208.0625 C1927.6469,208.0625 1927.3813,208.1094 1927.2406,208.2344 C1927.0219,208.375 1926.8813,208.6563 1926.8813,208.9063 C1926.8813,209.2813 1927.0531,209.5 1927.5375,209.7344 L1925.9438,211.5938 L1924.3344,209.7344 C1924.8344,209.5 1924.975,209.2813 1924.975,208.9063 C1924.975,208.6406 1924.85,208.375 1924.6313,208.2031 C1924.4594,208.0938 1924.3188,208.0625 1923.8344,208.0625 L1922.2875,208.0625 C1922.1781,208.0625 1922.1625,208.0625 1921.9594,208.0938 C1921.4594,208.1406 1921.1781,208.4531 1921.1781,208.9063 C1921.1781,209.4219 1921.5375,209.7188 1922.1625,209.75 L1924.85,212.9063 L1922.0219,216.2656 C1921.3969,216.2656 1921.0219,216.5938 1921.0219,217.125 C1921.0219,217.3906 1921.1625,217.6406 1921.3813,217.8125 C1921.5375,217.9219 1921.7406,217.9688 1922.1469,217.9688 L1924.0219,217.9688 C1924.3813,217.9688 1924.6,217.9375 1924.7406,217.8438 C1924.9906,217.7031 1925.1469,217.4063 1925.1469,217.125 C1925.1469,216.6094 1924.8188,216.2969 1924.2406,216.2656 L1925.9594,214.2344 L1927.6781,216.2656 C1927.0844,216.2969 1926.7563,216.6094 1926.7563,217.125 C1926.7563,217.6875 1927.1156,217.9688 1927.8656,217.9688 L1929.7563,217.9688 C1930.1156,217.9688 1930.3344,217.9375 1930.475,217.8438 C1930.725,217.7031 1930.8813,217.4063 1930.8813,217.125 C1930.8813,216.5938 1930.5219,216.2813 1929.8813,216.2656 L1927.0375,212.9219 Z " fill="#000000"/><text fill="#000000" font-family="sans-serif" font-size="12" font-style="italic" lengthAdjust="spacing" textLength="72" x="1961.65" y="210.1387">«extension»</text><text fill="#000000" font-family="sans-serif" font-size="12" lengthAdjust="spacing" textLength="103" x="1946.15" y="224.1074">PropertyEndpoint</text><line style="stroke:#A80036;stroke-width:1.5;" x1="1883.5" x2="2079.5" y1="231.9375" y2="231.9375"/><ellipse cx="1893.5" cy="242.9375" rx="3" ry="3" style="stroke:#038048;stroke-width:1.0;fill:none;"/><text fill="#000000" font-family="sans-serif" font-size="11" lengthAdjust="spacing" textLength="58" x="1902.5" y="246.1479">uri : String</text><ellipse cx="1893.5" cy="255.7422" rx="3" ry="3" style="stroke:#038048;stroke-width:1.0;fill:none;"/><text fill="#000000" font-family="sans-serif" font-size="11" lengthAdjust="spacing" textLength="172" x="1902.5" y="258.9526">queryItems : [URLQueryItem]?</text><!--MD5=[25a83e5efd7c770e3fa93b37ae989d26]
class GoalEndpoint--><rect codeLine="79" fill="#FEFECE" height="84.3516" id="GoalEndpoint" style="stroke:#A80036;stroke-width:1.5;" width="207" x="1303" y="20"/><ellipse cx="1362.75" cy="38.9688" fill="#B0C4DE" rx="11" ry="11" style="stroke:#A80036;stroke-width:1.0;"/><path d="M1361.5469,39.8438 L1363,39.8438 L1363,39.9531 C1363,40.3594 1363.0313,40.5156 1363.1094,40.6719 C1363.2656,40.9219 1363.5469,41.0781 1363.8438,41.0781 C1364.0938,41.0781 1364.3594,40.9375 1364.5156,40.7188 C1364.6406,40.5625 1364.6719,40.4063 1364.6719,39.9531 L1364.6719,38.0313 C1364.6719,37.875 1364.6719,37.8281 1364.6563,37.6719 C1364.5938,37.2031 1364.2813,36.8906 1363.8281,36.8906 C1363.5781,36.8906 1363.3125,37.0313 1363.1406,37.25 C1363.0313,37.4219 1363,37.5781 1363,38.0313 L1363,38.1563 L1361.5469,38.1563 L1361.5469,35.75 L1365.5313,35.75 L1365.5313,36.6094 C1365.5313,37.0156 1365.5625,37.1875 1365.6406,37.3438 C1365.8125,37.5938 1366.0938,37.75 1366.375,37.75 C1366.6406,37.75 1366.9063,37.6094 1367.0781,37.3906 C1367.1875,37.2188 1367.2188,37.0781 1367.2188,36.6094 L1367.2188,34.0625 L1359.5938,34.0625 C1359.1563,34.0625 1359.0313,34.0781 1358.875,34.1719 C1358.625,34.3281 1358.4688,34.625 1358.4688,34.9063 C1358.4688,35.1875 1358.6094,35.4375 1358.8281,35.6094 C1358.9844,35.7188 1359.1719,35.75 1359.5938,35.75 L1359.8438,35.75 L1359.8438,42.2656 L1359.5938,42.2656 C1359.1875,42.2656 1359.0313,42.2813 1358.875,42.3906 C1358.625,42.5625 1358.4688,42.8281 1358.4688,43.125 C1358.4688,43.3906 1358.6094,43.6406 1358.8281,43.7969 C1358.9688,43.9219 1359.2031,43.9688 1359.5938,43.9688 L1367.5938,43.9688 L1367.5938,41.3906 C1367.5938,40.9531 1367.5625,40.8125 1367.4844,40.6563 C1367.3125,40.4063 1367.0313,40.25 1366.75,40.25 C1366.4844,40.25 1366.2188,40.3594 1366.0469,40.6094 C1365.9375,40.7656 1365.9063,40.9063 1365.9063,41.3906 L1365.9063,42.2656 L1361.5469,42.2656 L1361.5469,39.8438 Z " fill="#000000"/><text fill="#000000" font-family="sans-serif" font-size="12" font-style="italic" lengthAdjust="spacing" textLength="49" x="1398.25" y="36.1387">«enum»</text><text fill="#000000" font-family="sans-serif" font-size="12" lengthAdjust="spacing" textLength="79" x="1383.25" y="50.1074">GoalEndpoint</text><line style="stroke:#A80036;stroke-width:1.5;" x1="1304" x2="1509" y1="57.9375" y2="57.9375"/><ellipse cx="1314" cy="68.9375" fill="#84BE84" rx="3" ry="3" style="stroke:#038048;stroke-width:1.0;"/><text fill="#000000" font-family="sans-serif" font-size="11" lengthAdjust="spacing" textLength="120" x="1323" y="72.1479">propertyGoal(userId:)</text><ellipse cx="1314" cy="81.7422" fill="#84BE84" rx="3" ry="3" style="stroke:#038048;stroke-width:1.0;"/><text fill="#000000" font-family="sans-serif" font-size="11" lengthAdjust="spacing" textLength="181" x="1323" y="84.9526">depositAndSavingsGoal(userId:)</text><ellipse cx="1314" cy="94.5469" fill="#84BE84" rx="3" ry="3" style="stroke:#038048;stroke-width:1.0;"/><text fill="#000000" font-family="sans-serif" font-size="11" lengthAdjust="spacing" textLength="163" x="1323" y="97.7573">monthlySavingsGoal(userId:)</text><!--MD5=[a7625084f1bb8efdd6767eeb16ffadf8]
class GoalEndpoint8--><rect codeLine="84" fill="#FEFECE" height="58.7422" id="GoalEndpoint8" style="stroke:#A80036;stroke-width:1.5;" width="111" x="1508" y="200.5"/><ellipse cx="1523" cy="219.4688" fill="#DA70D6" rx="11" ry="11" style="stroke:#A80036;stroke-width:1.0;"/><path d="M1524.1875,219.4219 L1526.8594,216.25 C1527.4531,216.2344 1527.8281,215.9375 1527.8281,215.4063 C1527.8281,215.1406 1527.7031,214.875 1527.4688,214.7031 C1527.2969,214.5938 1527.1563,214.5625 1526.7031,214.5625 L1525.1719,214.5625 C1524.7969,214.5625 1524.5313,214.6094 1524.3906,214.7344 C1524.1719,214.875 1524.0313,215.1563 1524.0313,215.4063 C1524.0313,215.7813 1524.2031,216 1524.6875,216.2344 L1523.0938,218.0938 L1521.4844,216.2344 C1521.9844,216 1522.125,215.7813 1522.125,215.4063 C1522.125,215.1406 1522,214.875 1521.7813,214.7031 C1521.6094,214.5938 1521.4688,214.5625 1520.9844,214.5625 L1519.4375,214.5625 C1519.3281,214.5625 1519.3125,214.5625 1519.1094,214.5938 C1518.6094,214.6406 1518.3281,214.9531 1518.3281,215.4063 C1518.3281,215.9219 1518.6875,216.2188 1519.3125,216.25 L1522,219.4063 L1519.1719,222.7656 C1518.5469,222.7656 1518.1719,223.0938 1518.1719,223.625 C1518.1719,223.8906 1518.3125,224.1406 1518.5313,224.3125 C1518.6875,224.4219 1518.8906,224.4688 1519.2969,224.4688 L1521.1719,224.4688 C1521.5313,224.4688 1521.75,224.4375 1521.8906,224.3438 C1522.1406,224.2031 1522.2969,223.9063 1522.2969,223.625 C1522.2969,223.1094 1521.9688,222.7969 1521.3906,222.7656 L1523.1094,220.7344 L1524.8281,222.7656 C1524.2344,222.7969 1523.9063,223.1094 1523.9063,223.625 C1523.9063,224.1875 1524.2656,224.4688 1525.0156,224.4688 L1526.9063,224.4688 C1527.2656,224.4688 1527.4844,224.4375 1527.625,224.3438 C1527.875,224.2031 1528.0313,223.9063 1528.0313,223.625 C1528.0313,223.0938 1527.6719,222.7813 1527.0313,222.7656 L1524.1875,219.4219 Z " fill="#000000"/><text fill="#000000" font-family="sans-serif" font-size="12" font-style="italic" lengthAdjust="spacing" textLength="72" x="1540.5" y="216.6387">«extension»</text><text fill="#000000" font-family="sans-serif" font-size="12" lengthAdjust="spacing" textLength="79" x="1537" y="230.6074">GoalEndpoint</text><line style="stroke:#A80036;stroke-width:1.5;" x1="1509" x2="1618" y1="238.4375" y2="238.4375"/><ellipse cx="1519" cy="249.4375" rx="3" ry="3" style="stroke:#038048;stroke-width:1.0;fill:none;"/><text fill="#000000" font-family="sans-serif" font-size="11" lengthAdjust="spacing" textLength="58" x="1528" y="252.6479">uri : String</text><!--MD5=[4fd3bb6c1d79f4919f90c95b62a35422]
class Endpoint--><rect fill="#FEFECE" height="32" id="Endpoint" style="stroke:#A80036;stroke-width:1.5;" width="84" x="1153.5" y="363"/><ellipse cx="1168.5" cy="379" fill="#ADD1B2" rx="11" ry="11" style="stroke:#A80036;stroke-width:1.0;"/><path d="M1170.8438,374.6719 C1169.9063,374.2344 1169.3125,374.0938 1168.4375,374.0938 C1165.8125,374.0938 1163.8125,376.1719 1163.8125,378.8906 L1163.8125,380.0156 C1163.8125,382.5938 1165.9219,384.4844 1168.8125,384.4844 C1170.0313,384.4844 1171.1875,384.1875 1171.9375,383.6406 C1172.5156,383.2344 1172.8438,382.7813 1172.8438,382.3906 C1172.8438,381.9375 1172.4531,381.5469 1171.9844,381.5469 C1171.7656,381.5469 1171.5625,381.625 1171.375,381.8125 C1170.9219,382.2969 1170.9219,382.2969 1170.7344,382.3906 C1170.3125,382.6563 1169.625,382.7813 1168.8594,382.7813 C1166.8125,382.7813 1165.5156,381.6875 1165.5156,379.9844 L1165.5156,378.8906 C1165.5156,377.1094 1166.7656,375.7969 1168.5,375.7969 C1169.0781,375.7969 1169.6875,375.9531 1170.1563,376.2031 C1170.6406,376.4844 1170.8125,376.7031 1170.9063,377.1094 C1170.9688,377.5156 1171,377.6406 1171.1406,377.7656 C1171.2813,377.9063 1171.5156,378.0156 1171.7344,378.0156 C1172,378.0156 1172.2656,377.875 1172.4375,377.6563 C1172.5469,377.5 1172.5781,377.3125 1172.5781,376.8906 L1172.5781,375.4688 C1172.5781,375.0313 1172.5625,374.9063 1172.4688,374.75 C1172.3125,374.4844 1172.0313,374.3438 1171.7344,374.3438 C1171.4375,374.3438 1171.2344,374.4375 1171.0156,374.75 L1170.8438,374.6719 Z " fill="#000000"/><text fill="#000000" font-family="sans-serif" font-size="12" lengthAdjust="spacing" textLength="52" x="1182.5" y="383.1543">Endpoint</text><!--MD5=[62ba8ad8b61caf20139235a169a8c31d]
class Response--><rect fill="#FEFECE" height="32" id="Response" style="stroke:#A80036;stroke-width:1.5;" width="92" x="2190.5" y="214"/><ellipse cx="2205.5" cy="230" fill="#ADD1B2" rx="11" ry="11" style="stroke:#A80036;stroke-width:1.0;"/><path d="M2207.8438,225.6719 C2206.9063,225.2344 2206.3125,225.0938 2205.4375,225.0938 C2202.8125,225.0938 2200.8125,227.1719 2200.8125,229.8906 L2200.8125,231.0156 C2200.8125,233.5938 2202.9219,235.4844 2205.8125,235.4844 C2207.0313,235.4844 2208.1875,235.1875 2208.9375,234.6406 C2209.5156,234.2344 2209.8438,233.7813 2209.8438,233.3906 C2209.8438,232.9375 2209.4531,232.5469 2208.9844,232.5469 C2208.7656,232.5469 2208.5625,232.625 2208.375,232.8125 C2207.9219,233.2969 2207.9219,233.2969 2207.7344,233.3906 C2207.3125,233.6563 2206.625,233.7813 2205.8594,233.7813 C2203.8125,233.7813 2202.5156,232.6875 2202.5156,230.9844 L2202.5156,229.8906 C2202.5156,228.1094 2203.7656,226.7969 2205.5,226.7969 C2206.0781,226.7969 2206.6875,226.9531 2207.1563,227.2031 C2207.6406,227.4844 2207.8125,227.7031 2207.9063,228.1094 C2207.9688,228.5156 2208,228.6406 2208.1406,228.7656 C2208.2813,228.9063 2208.5156,229.0156 2208.7344,229.0156 C2209,229.0156 2209.2656,228.875 2209.4375,228.6563 C2209.5469,228.5 2209.5781,228.3125 2209.5781,227.8906 L2209.5781,226.4688 C2209.5781,226.0313 2209.5625,225.9063 2209.4688,225.75 C2209.3125,225.4844 2209.0313,225.3438 2208.7344,225.3438 C2208.4375,225.3438 2208.2344,225.4375 2208.0156,225.75 L2207.8438,225.6719 Z " fill="#000000"/><text fill="#000000" font-family="sans-serif" font-size="12" lengthAdjust="spacing" textLength="60" x="2219.5" y="234.1543">Response</text><!--MD5=[b535b5846504bab6e66bcd7d89ff3c3e]
link BlackArrowEndpoint to Endpoint--><path codeLine="87" d="M1127.94,249.025 C1140.41,272.82 1162.58,315.1619 1178.12,344.8199 " fill="none" id="BlackArrowEndpoint-to-Endpoint" style="stroke:#A80036;stroke-width:1.0;stroke-dasharray:7.0,7.0;"/><polygon fill="none" points="1184.53,341.9774,1187.61,362.9421,1172.13,348.4736,1184.53,341.9774" style="stroke:#A80036;stroke-width:1.0;"/><text fill="#000000" font-family="sans-serif" font-size="13" lengthAdjust="spacing" textLength="47" x="1160.5" y="309.0669">inherits</text><!--MD5=[ee234f1e09f4bcda6af060dd42361371]
link GenericResponse to Response--><path codeLine="88" d="M2236.5,110.569 C2236.5,136.996 2236.5,169.324 2236.5,193.523 " fill="none" id="GenericResponse-to-Response" style="stroke:#A80036;stroke-width:1.0;"/><polygon fill="none" points="2243.5,193.776,2236.5,213.775,2229.5,193.775,2243.5,193.776" style="stroke:#A80036;stroke-width:1.0;"/><text fill="#000000" font-family="sans-serif" font-size="13" lengthAdjust="spacing" textLength="47" x="2237.5" y="160.0669">inherits</text><!--MD5=[e1408df943c5c29512d43d0a5d3119b3]
link OpenBankingEndpoint to BlackArrowEndpoint--><path codeLine="89" d="M746.152,108.099 C777.56,128.047 816.631,150.088 854.5,164 C926.106,190.306 949.864,174.069 1023.5,194 C1033.97,196.834 1044.92,200.336 1055.5,204.019 " fill="none" id="OpenBankingEndpoint-to-BlackArrowEndpoint" style="stroke:#A80036;stroke-width:1.0;stroke-dasharray:7.0,7.0;"/><polygon fill="none" points="1058.17,197.542,1074.56,210.965,1053.38,210.697,1058.17,197.542" style="stroke:#A80036;stroke-width:1.0;"/><text fill="#000000" font-family="sans-serif" font-size="13" lengthAdjust="spacing" textLength="73" x="855.5" y="160.0669">conforms to</text><!--MD5=[40910028d015377ecb6893fc06c25d9b]
link UserEndpoint to BlackArrowEndpoint--><path codeLine="90" d="M232.533,108.043 C242.879,111.451 253.315,114.521 263.5,117 C390.69,147.957 430.213,112.543 556.5,147 C573.959,151.764 575.966,159.52 593.5,164 C779.112,211.429 836.186,153.816 1023.5,194 C1034.92,196.45 1046.81,199.986 1058.16,203.879 " fill="none" id="UserEndpoint-to-BlackArrowEndpoint" style="stroke:#A80036;stroke-width:1.0;stroke-dasharray:7.0,7.0;"/><polygon fill="none" points="1060.82,197.398,1077.17,210.874,1055.98,210.537,1060.82,197.398" style="stroke:#A80036;stroke-width:1.0;"/><text fill="#000000" font-family="sans-serif" font-size="13" lengthAdjust="spacing" textLength="73" x="594.5" y="160.0669">conforms to</text><!--MD5=[f3ab73547c25e9ebc44d56e290d06df9]
link AccountEndpoint to BlackArrowEndpoint--><path codeLine="91" d="M977.172,108.213 C992.439,126.389 1010.99,147.019 1029.5,164 C1043.03,176.415 1058.93,188.658 1073.51,199.112 " fill="none" id="AccountEndpoint-to-BlackArrowEndpoint" style="stroke:#A80036;stroke-width:1.0;stroke-dasharray:7.0,7.0;"/><polygon fill="none" points="1077.98,193.698,1090.4,210.868,1069.99,205.189,1077.98,193.698" style="stroke:#A80036;stroke-width:1.0;"/><text fill="#000000" font-family="sans-serif" font-size="13" lengthAdjust="spacing" textLength="73" x="1030.5" y="160.0669">conforms to</text><!--MD5=[5f598835d91a010ce84106debc085da0]
link TransactionsEndpoint to BlackArrowEndpoint--><path codeLine="92" d="M514.553,98.02 C533.377,104.532 553.002,111.128 571.5,117 C589.669,122.768 717.783,160.384 736.5,164 C862.423,188.325 898.585,164.94 1023.5,194 C1034.52,196.564 1046.01,200.051 1057.03,203.836 " fill="none" id="TransactionsEndpoint-to-BlackArrowEndpoint" style="stroke:#A80036;stroke-width:1.0;stroke-dasharray:7.0,7.0;"/><polygon fill="none" points="1059.78,197.389,1076.16,210.834,1054.97,210.537,1059.78,197.389" style="stroke:#A80036;stroke-width:1.0;"/><text fill="#000000" font-family="sans-serif" font-size="13" lengthAdjust="spacing" textLength="73" x="737.5" y="160.0669">conforms to</text><!--MD5=[b16e9a9f617a9125cb6352cfdcf54eff]
link AffordabilityEndpoint to BlackArrowEndpoint--><path codeLine="93" d="M1544.63,112.103 C1538.87,113.852 1533.14,115.496 1527.5,117 C1446.59,138.566 1420.87,120.332 1341.5,147 C1326.23,152.129 1324.28,157.607 1309.5,164 C1274.02,179.342 1233.65,193.534 1199.18,204.718 " fill="none" id="AffordabilityEndpoint-to-BlackArrowEndpoint" style="stroke:#A80036;stroke-width:1.0;stroke-dasharray:7.0,7.0;"/><polygon fill="none" points="1200.84,211.537,1179.65,210.941,1196.59,198.198,1200.84,211.537" style="stroke:#A80036;stroke-width:1.0;"/><text fill="#000000" font-family="sans-serif" font-size="13" lengthAdjust="spacing" textLength="73" x="1342.5" y="160.0669">conforms to</text><!--MD5=[8d77b76389b3b6f88652e1edb33a30c3]
link DepositEndpoint to BlackArrowEndpoint--><path codeLine="94" d="M1138.98,108.334 C1129.39,119.913 1120.71,133.065 1115.5,147 C1110.36,160.742 1109.84,176.698 1111.06,190.863 " fill="none" id="DepositEndpoint-to-BlackArrowEndpoint" style="stroke:#A80036;stroke-width:1.0;stroke-dasharray:7.0,7.0;"/><polygon fill="none" points="1118,189.975,1113.92,210.768,1104.15,191.967,1118,189.975" style="stroke:#A80036;stroke-width:1.0;"/><text fill="#000000" font-family="sans-serif" font-size="13" lengthAdjust="spacing" textLength="73" x="1116.5" y="160.0669">conforms to</text><!--MD5=[56b285d477a9276defe1259f48c07afc]
link PropertyEndpoint to BlackArrowEndpoint--><path codeLine="95" d="M1913.83,98.062 C1866.14,121.019 1800.06,149.382 1738.5,164 C1559.01,206.619 1507.65,171.857 1324.5,194 C1288.37,198.368 1248.93,204.687 1214.31,210.757 " fill="none" id="PropertyEndpoint-to-BlackArrowEndpoint" style="stroke:#A80036;stroke-width:1.0;stroke-dasharray:7.0,7.0;"/><polygon fill="none" points="1215.47,217.661,1194.55,214.285,1213.01,203.879,1215.47,217.661" style="stroke:#A80036;stroke-width:1.0;"/><text fill="#000000" font-family="sans-serif" font-size="13" lengthAdjust="spacing" textLength="73" x="1795.5" y="160.0669">conforms to</text><!--MD5=[87c5d6fad7a256f993454e65fcef0ffb]
link GoalEndpoint to BlackArrowEndpoint--><path codeLine="96" d="M1312.09,104.084 C1285.19,116.848 1256.22,131.63 1230.5,147 C1204.84,162.336 1177.75,182.064 1156.64,198.327 " fill="none" id="GoalEndpoint-to-BlackArrowEndpoint" style="stroke:#A80036;stroke-width:1.0;stroke-dasharray:7.0,7.0;"/><polygon fill="none" points="1160.86,203.908,1140.8,210.737,1152.23,192.89,1160.86,203.908" style="stroke:#A80036;stroke-width:1.0;"/><text fill="#000000" font-family="sans-serif" font-size="13" lengthAdjust="spacing" textLength="73" x="1231.5" y="160.0669">conforms to</text><!--MD5=[ae16742df5f145ca2cbcefe52c3f1206]
reverse link BlackArrowEndpoint to BlackArrowEndpoint0--><path codeLine="97" d="M1106.82,253.596 C1094.5,277.424 1074.93,315.277 1060.61,342.9766 " fill="none" id="BlackArrowEndpoint-backto-BlackArrowEndpoint0" style="stroke:#A80036;stroke-width:1.0;stroke-dasharray:7.0,7.0;"/><polygon fill="#A80036" points="1109.18,249.025,1101.4949,255.1844,1106.8847,253.467,1108.6021,258.8569,1109.18,249.025" style="stroke:#A80036;stroke-width:1.0;"/><text fill="#000000" font-family="sans-serif" font-size="13" lengthAdjust="spacing" textLength="21" x="1084.5" y="309.0669">ext</text><!--MD5=[32c89948534a44020a3b7ff2801ac5da]
reverse link OpenBankingEndpoint to OpenBankingEndpoint1--><path codeLine="98" d="M586.539,110.626 C558.119,125.822 533.39,140.406 529.5,147 C521.321,160.865 520.947,178.467 523.081,193.805 " fill="none" id="OpenBankingEndpoint-backto-OpenBankingEndpoint1" style="stroke:#A80036;stroke-width:1.0;stroke-dasharray:7.0,7.0;"/><polygon fill="#A80036" points="591.129,108.183,581.305,108.8828,586.7158,110.5332,585.0653,115.9439,591.129,108.183" style="stroke:#A80036;stroke-width:1.0;"/><text fill="#000000" font-family="sans-serif" font-size="13" lengthAdjust="spacing" textLength="21" x="530.5" y="160.0669">ext</text><!--MD5=[b9920e3f4e120e7cb37521ab579fd9be]
reverse link UserEndpoint to UserEndpoint2--><path codeLine="99" d="M126.5,113.493 C126.5,139.514 126.5,170.596 126.5,193.961 " fill="none" id="UserEndpoint-backto-UserEndpoint2" style="stroke:#A80036;stroke-width:1.0;stroke-dasharray:7.0,7.0;"/><polygon fill="#A80036" points="126.5,108.36,122.5,117.36,126.5,113.36,130.5,117.36,126.5,108.36" style="stroke:#A80036;stroke-width:1.0;"/><text fill="#000000" font-family="sans-serif" font-size="13" lengthAdjust="spacing" textLength="21" x="127.5" y="160.0669">ext</text><!--MD5=[283f984be16d1ddebf8cfab3f1499869]
reverse link AccountEndpoint to AccountEndpoint3--><path codeLine="100" d="M938.252,113.627 C937.553,129.726 937.122,147.608 937.5,164 C937.774,175.858 938.327,188.924 938.886,200.212 " fill="none" id="AccountEndpoint-backto-AccountEndpoint3" style="stroke:#A80036;stroke-width:1.0;stroke-dasharray:7.0,7.0;"/><polygon fill="#A80036" points="938.499,108.24,934.0917,117.0477,938.2704,113.2348,942.0833,117.4135,938.499,108.24" style="stroke:#A80036;stroke-width:1.0;"/><text fill="#000000" font-family="sans-serif" font-size="13" lengthAdjust="spacing" textLength="21" x="938.5" y="160.0669">ext</text><!--MD5=[9926ad8c034031bc89179acd42539cbe]
reverse link TransactionsEndpoint to TransactionsEndpoint4--><path codeLine="101" d="M393.901,102.57 C375.931,132.702 351.62,173.465 335.519,200.464 " fill="none" id="TransactionsEndpoint-backto-TransactionsEndpoint4" style="stroke:#A80036;stroke-width:1.0;stroke-dasharray:7.0,7.0;"/><polygon fill="#A80036" points="396.505,98.204,388.4593,103.8844,393.9437,102.4981,395.3299,107.9825,396.505,98.204" style="stroke:#A80036;stroke-width:1.0;"/><text fill="#000000" font-family="sans-serif" font-size="13" lengthAdjust="spacing" textLength="21" x="366.5" y="160.0669">ext</text><!--MD5=[9185b64d473f39062eb6200c69c5bec5]
reverse link AffordabilityEndpoint to AffordabilityEndpoint5--><path codeLine="102" d="M1692.63,122.255 C1702.52,148.732 1713.72,178.73 1721.73,200.168 " fill="none" id="AffordabilityEndpoint-backto-AffordabilityEndpoint5" style="stroke:#A80036;stroke-width:1.0;stroke-dasharray:7.0,7.0;"/><polygon fill="#A80036" points="1690.8,117.355,1690.2016,127.1857,1692.5494,122.039,1697.696,124.3867,1690.8,117.355" style="stroke:#A80036;stroke-width:1.0;"/><text fill="#000000" font-family="sans-serif" font-size="13" lengthAdjust="spacing" textLength="21" x="1708.5" y="160.0669">ext</text><!--MD5=[e55e4e2804d0c31341d4ede9ddfce1b0]
reverse link DepositEndpoint to DepositEndpoint6--><path codeLine="103" d="M1269.12,110.164 C1274.59,112.647 1280.07,114.956 1285.5,117 C1344.64,139.28 1384.8,97.822 1424.5,147 C1436.55,161.933 1431.66,183.268 1424.09,200.432 " fill="none" id="DepositEndpoint-backto-DepositEndpoint6" style="stroke:#A80036;stroke-width:1.0;stroke-dasharray:7.0,7.0;"/><polygon fill="#A80036" points="1264.54,108.039,1271.0265,115.4501,1269.0773,110.1397,1274.3877,108.1905,1264.54,108.039" style="stroke:#A80036;stroke-width:1.0;"/><text fill="#000000" font-family="sans-serif" font-size="13" lengthAdjust="spacing" textLength="21" x="1432.5" y="160.0669">ext</text><!--MD5=[08ce7afb959b968ed25f1923b332bd73]
reverse link PropertyEndpoint to PropertyEndpoint7--><path codeLine="104" d="M1981.5,103.267 C1981.5,130.944 1981.5,167.339 1981.5,193.846 " fill="none" id="PropertyEndpoint-backto-PropertyEndpoint7" style="stroke:#A80036;stroke-width:1.0;stroke-dasharray:7.0,7.0;"/><polygon fill="#A80036" points="1981.5,98.204,1977.5,107.204,1981.5,103.204,1985.5,107.204,1981.5,98.204" style="stroke:#A80036;stroke-width:1.0;"/><text fill="#000000" font-family="sans-serif" font-size="13" lengthAdjust="spacing" textLength="21" x="1982.5" y="160.0669">ext</text><!--MD5=[ebeacda241bf620677a82e46171b9941]
reverse link GoalEndpoint to GoalEndpoint8--><path codeLine="105" d="M1455.38,107.849 C1468.38,120.255 1482.21,133.913 1494.5,147 C1510.55,164.088 1527.52,184.219 1540.61,200.258 " fill="none" id="GoalEndpoint-backto-GoalEndpoint8" style="stroke:#A80036;stroke-width:1.0;stroke-dasharray:7.0,7.0;"/><polygon fill="#A80036" points="1451.74,104.384,1455.5085,113.4834,1455.3644,107.8283,1461.0194,107.6843,1451.74,104.384" style="stroke:#A80036;stroke-width:1.0;"/><text fill="#000000" font-family="sans-serif" font-size="13" lengthAdjust="spacing" textLength="21" x="1509.5" y="160.0669">ext</text><!--MD5=[ab0fc8dcb949d3faefc5bd8c53589551]
@startuml

' STYLE START
hide empty members
skinparam shadowing false
' STYLE END


class "BlackArrowEndpoint" as BlackArrowEndpoint << (P, GoldenRod) protocol >> {  
}
class "BlackArrowEndpoint" as BlackArrowEndpoint0 << (X, Orchid) extension >> { 
  +isAuthenticated : Bool
  +{static} baseURL : URL 
}
class "OpenBankingEndpoint" as OpenBankingEndpoint << (E, LightSteelBlue) enum >> { 
  +authorise(userId:providerId:)
  +status(userId:)
  +providers 
}
class "GenericResponse" as GenericResponse << (S, SkyBlue) struct >> { 
  +description : String?
  +errors : [String]?
  +message : String?
  +statusCode : Int 
}
class "OpenBankingEndpoint" as OpenBankingEndpoint1 << (X, Orchid) extension >> { 
  +uri : String
  +queryItems : [URLQueryItem]? 
}
class "UserEndpoint" as UserEndpoint << (E, LightSteelBlue) enum >> { 
  +createUser
  +checkIfUsernameExists(username:)
  +getUserId(externalIdentityProviderId:) 
}
class "UserEndpoint" as UserEndpoint2 << (X, Orchid) extension >> { 
  +uri : String
  +isAuthenticated : Bool 
}
class "AccountEndpoint" as AccountEndpoint << (E, LightSteelBlue) enum >> { 
  +getAccounts(userId:)
  +getInstitutionAccounts(userId:institutionId:)
  +link 
}
class "AccountEndpoint" as AccountEndpoint3 << (X, Orchid) extension >> { 
  +uri : String 
}
class "TransactionsEndpoint" as TransactionsEndpoint << (E, LightSteelBlue) enum >> { 
  +transactionsSummary(userId:)
  +transactionsCategorised(userId:categoryId:) 
}
class "TransactionsEndpoint" as TransactionsEndpoint4 << (X, Orchid) extension >> { 
  +uri : String 
}
class "AffordabilityEndpoint" as AffordabilityEndpoint << (E, LightSteelBlue) enum >> { 
  +customerDirectoryView(userId:)
  +goalTrackingAndMortgageLimits(userId:)
  +income(userId:)
  +mortgageIllustration(userId:)
  +disposableIncome(userId:) 
}
class "AffordabilityEndpoint" as AffordabilityEndpoint5 << (X, Orchid) extension >> { 
  +uri : String 
}
class "DepositEndpoint" as DepositEndpoint << (E, LightSteelBlue) enum >> { 
  +accounts
  +balance(userId:)
  +externalCapital(userId:) 
}
class "DepositEndpoint" as DepositEndpoint6 << (X, Orchid) extension >> { 
  +uri : String 
}
class "PropertyEndpoint" as PropertyEndpoint << (E, LightSteelBlue) enum >> { 
  +autocomplete(searchTerm:)
  +listings(pageNumber:pageSize:postcode:userId:) 
}
class "PropertyEndpoint" as PropertyEndpoint7 << (X, Orchid) extension >> { 
  +uri : String
  +queryItems : [URLQueryItem]? 
}
class "GoalEndpoint" as GoalEndpoint << (E, LightSteelBlue) enum >> { 
  +propertyGoal(userId:)
  +depositAndSavingsGoal(userId:)
  +monthlySavingsGoal(userId:) 
}
class "GoalEndpoint" as GoalEndpoint8 << (X, Orchid) extension >> { 
  +uri : String 
}
BlackArrowEndpoint ..|> Endpoint : inherits
GenericResponse - -|> Response : inherits
OpenBankingEndpoint ..|> BlackArrowEndpoint : conforms to
UserEndpoint ..|> BlackArrowEndpoint : conforms to
AccountEndpoint ..|> BlackArrowEndpoint : conforms to
TransactionsEndpoint ..|> BlackArrowEndpoint : conforms to
AffordabilityEndpoint ..|> BlackArrowEndpoint : conforms to
DepositEndpoint ..|> BlackArrowEndpoint : conforms to
PropertyEndpoint ..|> BlackArrowEndpoint : conforms to
GoalEndpoint ..|> BlackArrowEndpoint : conforms to
BlackArrowEndpoint <.. BlackArrowEndpoint0 : ext
OpenBankingEndpoint <.. OpenBankingEndpoint1 : ext
UserEndpoint <.. UserEndpoint2 : ext
AccountEndpoint <.. AccountEndpoint3 : ext
TransactionsEndpoint <.. TransactionsEndpoint4 : ext
AffordabilityEndpoint <.. AffordabilityEndpoint5 : ext
DepositEndpoint <.. DepositEndpoint6 : ext
PropertyEndpoint <.. PropertyEndpoint7 : ext
GoalEndpoint <.. GoalEndpoint8 : ext
@enduml

@startuml

hide empty members
skinparam shadowing false


class "BlackArrowEndpoint" as BlackArrowEndpoint << (P, GoldenRod) protocol >> {  
}
class "BlackArrowEndpoint" as BlackArrowEndpoint0 << (X, Orchid) extension >> { 
  +isAuthenticated : Bool
  +{static} baseURL : URL 
}
class "OpenBankingEndpoint" as OpenBankingEndpoint << (E, LightSteelBlue) enum >> { 
  +authorise(userId:providerId:)
  +status(userId:)
  +providers 
}
class "GenericResponse" as GenericResponse << (S, SkyBlue) struct >> { 
  +description : String?
  +errors : [String]?
  +message : String?
  +statusCode : Int 
}
class "OpenBankingEndpoint" as OpenBankingEndpoint1 << (X, Orchid) extension >> { 
  +uri : String
  +queryItems : [URLQueryItem]? 
}
class "UserEndpoint" as UserEndpoint << (E, LightSteelBlue) enum >> { 
  +createUser
  +checkIfUsernameExists(username:)
  +getUserId(externalIdentityProviderId:) 
}
class "UserEndpoint" as UserEndpoint2 << (X, Orchid) extension >> { 
  +uri : String
  +isAuthenticated : Bool 
}
class "AccountEndpoint" as AccountEndpoint << (E, LightSteelBlue) enum >> { 
  +getAccounts(userId:)
  +getInstitutionAccounts(userId:institutionId:)
  +link 
}
class "AccountEndpoint" as AccountEndpoint3 << (X, Orchid) extension >> { 
  +uri : String 
}
class "TransactionsEndpoint" as TransactionsEndpoint << (E, LightSteelBlue) enum >> { 
  +transactionsSummary(userId:)
  +transactionsCategorised(userId:categoryId:) 
}
class "TransactionsEndpoint" as TransactionsEndpoint4 << (X, Orchid) extension >> { 
  +uri : String 
}
class "AffordabilityEndpoint" as AffordabilityEndpoint << (E, LightSteelBlue) enum >> { 
  +customerDirectoryView(userId:)
  +goalTrackingAndMortgageLimits(userId:)
  +income(userId:)
  +mortgageIllustration(userId:)
  +disposableIncome(userId:) 
}
class "AffordabilityEndpoint" as AffordabilityEndpoint5 << (X, Orchid) extension >> { 
  +uri : String 
}
class "DepositEndpoint" as DepositEndpoint << (E, LightSteelBlue) enum >> { 
  +accounts
  +balance(userId:)
  +externalCapital(userId:) 
}
class "DepositEndpoint" as DepositEndpoint6 << (X, Orchid) extension >> { 
  +uri : String 
}
class "PropertyEndpoint" as PropertyEndpoint << (E, LightSteelBlue) enum >> { 
  +autocomplete(searchTerm:)
  +listings(pageNumber:pageSize:postcode:userId:) 
}
class "PropertyEndpoint" as PropertyEndpoint7 << (X, Orchid) extension >> { 
  +uri : String
  +queryItems : [URLQueryItem]? 
}
class "GoalEndpoint" as GoalEndpoint << (E, LightSteelBlue) enum >> { 
  +propertyGoal(userId:)
  +depositAndSavingsGoal(userId:)
  +monthlySavingsGoal(userId:) 
}
class "GoalEndpoint" as GoalEndpoint8 << (X, Orchid) extension >> { 
  +uri : String 
}
BlackArrowEndpoint ..|> Endpoint : inherits
GenericResponse - -|> Response : inherits
OpenBankingEndpoint ..|> BlackArrowEndpoint : conforms to
UserEndpoint ..|> BlackArrowEndpoint : conforms to
AccountEndpoint ..|> BlackArrowEndpoint : conforms to
TransactionsEndpoint ..|> BlackArrowEndpoint : conforms to
AffordabilityEndpoint ..|> BlackArrowEndpoint : conforms to
DepositEndpoint ..|> BlackArrowEndpoint : conforms to
PropertyEndpoint ..|> BlackArrowEndpoint : conforms to
GoalEndpoint ..|> BlackArrowEndpoint : conforms to
BlackArrowEndpoint <.. BlackArrowEndpoint0 : ext
OpenBankingEndpoint <.. OpenBankingEndpoint1 : ext
UserEndpoint <.. UserEndpoint2 : ext
AccountEndpoint <.. AccountEndpoint3 : ext
TransactionsEndpoint <.. TransactionsEndpoint4 : ext
AffordabilityEndpoint <.. AffordabilityEndpoint5 : ext
DepositEndpoint <.. DepositEndpoint6 : ext
PropertyEndpoint <.. PropertyEndpoint7 : ext
GoalEndpoint <.. GoalEndpoint8 : ext
@enduml

PlantUML version 1.2021.7(Sun May 23 12:40:07 UTC 2021)
(GPL source distribution)
Java Runtime: Java(TM) SE Runtime Environment
JVM: Java HotSpot(TM) 64-Bit Server VM
Default Encoding: UTF-8
Language: en
Country: US
--></g></svg>