<?xml version="1.0" encoding="UTF-8" standalone="no"?><svg xmlns="http://www.w3.org/2000/svg" xmlns:xlink="http://www.w3.org/1999/xlink" contentScriptType="application/ecmascript" contentStyleType="text/css" height="531px" preserveAspectRatio="none" style="width:955px;height:531px;background:#FFFFFF;" version="1.1" viewBox="0 0 955 531" width="955px" zoomAndPan="magnify"><defs/><g><!--MD5=[3b3b6896349c39f54fba09a0a4f08330]
class ViewController--><rect codeLine="8" fill="#FEFECE" height="58.7422" id="ViewController" style="stroke:#A80036;stroke-width:1.5;" width="120" x="25.5" y="310.5"/><ellipse cx="40.5" cy="329.4688" fill="#DAA520" rx="11" ry="11" style="stroke:#A80036;stroke-width:1.0;"/><path d="M40.0469,331.0625 L41.7188,331.0625 C43.2969,331.0625 44.1406,330.7813 44.8906,329.9531 C45.4375,329.3594 45.75,328.5469 45.75,327.7656 C45.75,325.8906 44.2188,324.5625 42.0469,324.5625 L38.0938,324.5625 C37.6563,324.5625 37.5313,324.5781 37.375,324.6719 C37.125,324.8281 36.9688,325.125 36.9688,325.4063 C36.9688,325.6563 37.1094,325.9375 37.3281,326.1094 C37.4844,326.2188 37.6719,326.25 38.0938,326.25 L38.3438,326.25 L38.3438,332.7656 L38.0938,332.7656 C37.6875,332.7656 37.5313,332.7813 37.375,332.8906 C37.125,333.0469 36.9688,333.3281 36.9688,333.625 C36.9688,333.875 37.1094,334.1406 37.3281,334.2969 C37.4688,334.4219 37.7031,334.4688 38.0938,334.4688 L41.7344,334.4688 C42.0781,334.4688 42.3281,334.4219 42.4375,334.3438 C42.7031,334.2031 42.8594,333.9063 42.8594,333.625 C42.8594,333.3438 42.7188,333.0938 42.5,332.9219 C42.3281,332.7969 42.1875,332.7656 41.7344,332.7656 L40.0469,332.7656 L40.0469,331.0625 Z M40.0469,326.25 L42.0469,326.25 C43.2344,326.25 43.9375,326.8594 43.9375,327.8281 C43.9375,328.7813 43.2344,329.375 42.0469,329.375 L40.0469,329.375 L40.0469,326.25 Z " fill="#000000"/><text fill="#000000" font-family="sans-serif" font-size="12" font-style="italic" lengthAdjust="spacing" textLength="63" x="67" y="326.6387">«protocol»</text><text fill="#000000" font-family="sans-serif" font-size="12" lengthAdjust="spacing" textLength="88" x="54.5" y="340.6074">ViewController</text><line style="stroke:#A80036;stroke-width:1.5;" x1="26.5" x2="144.5" y1="348.4375" y2="348.4375"/><ellipse cx="36.5" cy="359.4375" fill="#84BE84" rx="3" ry="3" style="stroke:#038048;stroke-width:1.0;"/><text fill="#000000" font-family="sans-serif" font-size="11" lengthAdjust="spacing" textLength="90" x="45.5" y="362.6479">perform(action:)</text><!--MD5=[31073b54b46f818d764cc5acd8dd2f2a]
class ErrorPresenter--><rect codeLine="11" fill="#FEFECE" height="71.5469" id="ErrorPresenter" style="stroke:#A80036;stroke-width:1.5;" width="174" x="565.5" y="304"/><ellipse cx="604.8" cy="322.9688" fill="#DAA520" rx="11" ry="11" style="stroke:#A80036;stroke-width:1.0;"/><path d="M604.3469,324.5625 L606.0188,324.5625 C607.5969,324.5625 608.4406,324.2813 609.1906,323.4531 C609.7375,322.8594 610.05,322.0469 610.05,321.2656 C610.05,319.3906 608.5188,318.0625 606.3469,318.0625 L602.3938,318.0625 C601.9563,318.0625 601.8313,318.0781 601.675,318.1719 C601.425,318.3281 601.2688,318.625 601.2688,318.9063 C601.2688,319.1563 601.4094,319.4375 601.6281,319.6094 C601.7844,319.7188 601.9719,319.75 602.3938,319.75 L602.6438,319.75 L602.6438,326.2656 L602.3938,326.2656 C601.9875,326.2656 601.8313,326.2813 601.675,326.3906 C601.425,326.5469 601.2688,326.8281 601.2688,327.125 C601.2688,327.375 601.4094,327.6406 601.6281,327.7969 C601.7688,327.9219 602.0031,327.9688 602.3938,327.9688 L606.0344,327.9688 C606.3781,327.9688 606.6281,327.9219 606.7375,327.8438 C607.0031,327.7031 607.1594,327.4063 607.1594,327.125 C607.1594,326.8438 607.0188,326.5938 606.8,326.4219 C606.6281,326.2969 606.4875,326.2656 606.0344,326.2656 L604.3469,326.2656 L604.3469,324.5625 Z M604.3469,319.75 L606.3469,319.75 C607.5344,319.75 608.2375,320.3594 608.2375,321.3281 C608.2375,322.2813 607.5344,322.875 606.3469,322.875 L604.3469,322.875 L604.3469,319.75 Z " fill="#000000"/><text fill="#000000" font-family="sans-serif" font-size="12" font-style="italic" lengthAdjust="spacing" textLength="63" x="636.7" y="320.1387">«protocol»</text><text fill="#000000" font-family="sans-serif" font-size="12" lengthAdjust="spacing" textLength="88" x="624.2" y="334.1074">ErrorPresenter</text><line style="stroke:#A80036;stroke-width:1.5;" x1="566.5" x2="738.5" y1="341.9375" y2="341.9375"/><ellipse cx="576.5" cy="352.9375" fill="#84BE84" rx="3" ry="3" style="stroke:#038048;stroke-width:1.0;"/><text fill="#000000" font-family="sans-serif" font-size="11" lengthAdjust="spacing" textLength="82" x="585.5" y="356.1479">present(error:)</text><ellipse cx="576.5" cy="365.7422" fill="#84BE84" rx="3" ry="3" style="stroke:#038048;stroke-width:1.0;"/><text fill="#000000" font-family="sans-serif" font-size="11" lengthAdjust="spacing" textLength="148" x="585.5" y="368.9526">present(error:completion:)</text><!--MD5=[143280ff5fbc412bdf3a7bbd3b5090a7]
class DefaultDependenciesType--><rect codeLine="15" fill="#FEFECE" height="84.3516" id="DefaultDependenciesType" style="stroke:#A80036;stroke-width:1.5;" width="225" x="277" y="7"/><ellipse cx="306.85" cy="25.9688" fill="#DAA520" rx="11" ry="11" style="stroke:#A80036;stroke-width:1.0;"/><path d="M306.3969,27.5625 L308.0688,27.5625 C309.6469,27.5625 310.4906,27.2813 311.2406,26.4531 C311.7875,25.8594 312.1,25.0469 312.1,24.2656 C312.1,22.3906 310.5688,21.0625 308.3969,21.0625 L304.4438,21.0625 C304.0063,21.0625 303.8813,21.0781 303.725,21.1719 C303.475,21.3281 303.3188,21.625 303.3188,21.9063 C303.3188,22.1563 303.4594,22.4375 303.6781,22.6094 C303.8344,22.7188 304.0219,22.75 304.4438,22.75 L304.6938,22.75 L304.6938,29.2656 L304.4438,29.2656 C304.0375,29.2656 303.8813,29.2813 303.725,29.3906 C303.475,29.5469 303.3188,29.8281 303.3188,30.125 C303.3188,30.375 303.4594,30.6406 303.6781,30.7969 C303.8188,30.9219 304.0531,30.9688 304.4438,30.9688 L308.0844,30.9688 C308.4281,30.9688 308.6781,30.9219 308.7875,30.8438 C309.0531,30.7031 309.2094,30.4063 309.2094,30.125 C309.2094,29.8438 309.0688,29.5938 308.85,29.4219 C308.6781,29.2969 308.5375,29.2656 308.0844,29.2656 L306.3969,29.2656 L306.3969,27.5625 Z M306.3969,22.75 L308.3969,22.75 C309.5844,22.75 310.2875,23.3594 310.2875,24.3281 C310.2875,25.2813 309.5844,25.875 308.3969,25.875 L306.3969,25.875 L306.3969,22.75 Z " fill="#000000"/><text fill="#000000" font-family="sans-serif" font-size="12" font-style="italic" lengthAdjust="spacing" textLength="63" x="372.65" y="23.1387">«protocol»</text><text fill="#000000" font-family="sans-serif" font-size="12" lengthAdjust="spacing" textLength="160" x="324.15" y="37.1074">DefaultDependenciesType</text><line style="stroke:#A80036;stroke-width:1.5;" x1="278" x2="501" y1="44.9375" y2="44.9375"/><ellipse cx="288" cy="55.9375" rx="3" ry="3" style="stroke:#038048;stroke-width:1.0;fill:none;"/><text fill="#000000" font-family="sans-serif" font-size="11" lengthAdjust="spacing" textLength="199" x="297" y="59.1479">networkAgent : NetworkAgentType</text><ellipse cx="288" cy="68.7422" rx="3" ry="3" style="stroke:#038048;stroke-width:1.0;fill:none;"/><text fill="#000000" font-family="sans-serif" font-size="11" lengthAdjust="spacing" textLength="128" x="297" y="71.9526">session : SessionType</text><ellipse cx="288" cy="81.5469" rx="3" ry="3" style="stroke:#038048;stroke-width:1.0;fill:none;"/><text fill="#000000" font-family="sans-serif" font-size="11" lengthAdjust="spacing" textLength="103" x="297" y="84.7573">styles : AppStyles</text><!--MD5=[c1bcc462ea9a79ecccbb27330a543de5]
class ViewController0--><rect codeLine="20" fill="#FEFECE" height="58.7422" id="ViewController0" style="stroke:#A80036;stroke-width:1.5;" width="120" x="24.5" y="459.5"/><ellipse cx="39.5" cy="478.4688" fill="#DA70D6" rx="11" ry="11" style="stroke:#A80036;stroke-width:1.0;"/><path d="M40.6875,478.4219 L43.3594,475.25 C43.9531,475.2344 44.3281,474.9375 44.3281,474.4063 C44.3281,474.1406 44.2031,473.875 43.9688,473.7031 C43.7969,473.5938 43.6563,473.5625 43.2031,473.5625 L41.6719,473.5625 C41.2969,473.5625 41.0313,473.6094 40.8906,473.7344 C40.6719,473.875 40.5313,474.1563 40.5313,474.4063 C40.5313,474.7813 40.7031,475 41.1875,475.2344 L39.5938,477.0938 L37.9844,475.2344 C38.4844,475 38.625,474.7813 38.625,474.4063 C38.625,474.1406 38.5,473.875 38.2813,473.7031 C38.1094,473.5938 37.9688,473.5625 37.4844,473.5625 L35.9375,473.5625 C35.8281,473.5625 35.8125,473.5625 35.6094,473.5938 C35.1094,473.6406 34.8281,473.9531 34.8281,474.4063 C34.8281,474.9219 35.1875,475.2188 35.8125,475.25 L38.5,478.4063 L35.6719,481.7656 C35.0469,481.7656 34.6719,482.0938 34.6719,482.625 C34.6719,482.8906 34.8125,483.1406 35.0313,483.3125 C35.1875,483.4219 35.3906,483.4688 35.7969,483.4688 L37.6719,483.4688 C38.0313,483.4688 38.25,483.4375 38.3906,483.3438 C38.6406,483.2031 38.7969,482.9063 38.7969,482.625 C38.7969,482.1094 38.4688,481.7969 37.8906,481.7656 L39.6094,479.7344 L41.3281,481.7656 C40.7344,481.7969 40.4063,482.1094 40.4063,482.625 C40.4063,483.1875 40.7656,483.4688 41.5156,483.4688 L43.4063,483.4688 C43.7656,483.4688 43.9844,483.4375 44.125,483.3438 C44.375,483.2031 44.5313,482.9063 44.5313,482.625 C44.5313,482.0938 44.1719,481.7813 43.5313,481.7656 L40.6875,478.4219 Z " fill="#000000"/><text fill="#000000" font-family="sans-serif" font-size="12" font-style="italic" lengthAdjust="spacing" textLength="72" x="61.5" y="475.6387">«extension»</text><text fill="#000000" font-family="sans-serif" font-size="12" lengthAdjust="spacing" textLength="88" x="53.5" y="489.6074">ViewController</text><line style="stroke:#A80036;stroke-width:1.5;" x1="25.5" x2="143.5" y1="497.4375" y2="497.4375"/><ellipse cx="35.5" cy="508.4375" fill="#84BE84" rx="3" ry="3" style="stroke:#038048;stroke-width:1.0;"/><text fill="#000000" font-family="sans-serif" font-size="11" lengthAdjust="spacing" textLength="90" x="44.5" y="511.6479">perform(action:)</text><!--MD5=[3a10d3cc154be984b8171b090e959eb9]
class ErrorPresenter1--><rect codeLine="23" fill="#FEFECE" height="71.5469" id="ErrorPresenter1" style="stroke:#A80036;stroke-width:1.5;" width="174" x="774.5" y="453"/><ellipse cx="813.8" cy="471.9688" fill="#DA70D6" rx="11" ry="11" style="stroke:#A80036;stroke-width:1.0;"/><path d="M814.9875,471.9219 L817.6594,468.75 C818.2531,468.7344 818.6281,468.4375 818.6281,467.9063 C818.6281,467.6406 818.5031,467.375 818.2688,467.2031 C818.0969,467.0938 817.9563,467.0625 817.5031,467.0625 L815.9719,467.0625 C815.5969,467.0625 815.3313,467.1094 815.1906,467.2344 C814.9719,467.375 814.8313,467.6563 814.8313,467.9063 C814.8313,468.2813 815.0031,468.5 815.4875,468.7344 L813.8938,470.5938 L812.2844,468.7344 C812.7844,468.5 812.925,468.2813 812.925,467.9063 C812.925,467.6406 812.8,467.375 812.5813,467.2031 C812.4094,467.0938 812.2688,467.0625 811.7844,467.0625 L810.2375,467.0625 C810.1281,467.0625 810.1125,467.0625 809.9094,467.0938 C809.4094,467.1406 809.1281,467.4531 809.1281,467.9063 C809.1281,468.4219 809.4875,468.7188 810.1125,468.75 L812.8,471.9063 L809.9719,475.2656 C809.3469,475.2656 808.9719,475.5938 808.9719,476.125 C808.9719,476.3906 809.1125,476.6406 809.3313,476.8125 C809.4875,476.9219 809.6906,476.9688 810.0969,476.9688 L811.9719,476.9688 C812.3313,476.9688 812.55,476.9375 812.6906,476.8438 C812.9406,476.7031 813.0969,476.4063 813.0969,476.125 C813.0969,475.6094 812.7688,475.2969 812.1906,475.2656 L813.9094,473.2344 L815.6281,475.2656 C815.0344,475.2969 814.7063,475.6094 814.7063,476.125 C814.7063,476.6875 815.0656,476.9688 815.8156,476.9688 L817.7063,476.9688 C818.0656,476.9688 818.2844,476.9375 818.425,476.8438 C818.675,476.7031 818.8313,476.4063 818.8313,476.125 C818.8313,475.5938 818.4719,475.2813 817.8313,475.2656 L814.9875,471.9219 Z " fill="#000000"/><text fill="#000000" font-family="sans-serif" font-size="12" font-style="italic" lengthAdjust="spacing" textLength="72" x="841.2" y="469.1387">«extension»</text><text fill="#000000" font-family="sans-serif" font-size="12" lengthAdjust="spacing" textLength="88" x="833.2" y="483.1074">ErrorPresenter</text><line style="stroke:#A80036;stroke-width:1.5;" x1="775.5" x2="947.5" y1="490.9375" y2="490.9375"/><ellipse cx="785.5" cy="501.9375" fill="#84BE84" rx="3" ry="3" style="stroke:#038048;stroke-width:1.0;"/><text fill="#000000" font-family="sans-serif" font-size="11" lengthAdjust="spacing" textLength="82" x="794.5" y="505.1479">present(error:)</text><ellipse cx="785.5" cy="514.7422" fill="#84BE84" rx="3" ry="3" style="stroke:#038048;stroke-width:1.0;"/><text fill="#000000" font-family="sans-serif" font-size="11" lengthAdjust="spacing" textLength="148" x="794.5" y="517.9526">present(error:completion:)</text><!--MD5=[88cf97d89a0c1736c375d57c17b46923]
class ErrorPresenter2--><rect codeLine="27" fill="#FEFECE" height="71.5469" id="ErrorPresenter2" style="stroke:#A80036;stroke-width:1.5;" width="174" x="565.5" y="453"/><ellipse cx="604.8" cy="471.9688" fill="#DA70D6" rx="11" ry="11" style="stroke:#A80036;stroke-width:1.0;"/><path d="M605.9875,471.9219 L608.6594,468.75 C609.2531,468.7344 609.6281,468.4375 609.6281,467.9063 C609.6281,467.6406 609.5031,467.375 609.2688,467.2031 C609.0969,467.0938 608.9563,467.0625 608.5031,467.0625 L606.9719,467.0625 C606.5969,467.0625 606.3313,467.1094 606.1906,467.2344 C605.9719,467.375 605.8313,467.6563 605.8313,467.9063 C605.8313,468.2813 606.0031,468.5 606.4875,468.7344 L604.8938,470.5938 L603.2844,468.7344 C603.7844,468.5 603.925,468.2813 603.925,467.9063 C603.925,467.6406 603.8,467.375 603.5813,467.2031 C603.4094,467.0938 603.2688,467.0625 602.7844,467.0625 L601.2375,467.0625 C601.1281,467.0625 601.1125,467.0625 600.9094,467.0938 C600.4094,467.1406 600.1281,467.4531 600.1281,467.9063 C600.1281,468.4219 600.4875,468.7188 601.1125,468.75 L603.8,471.9063 L600.9719,475.2656 C600.3469,475.2656 599.9719,475.5938 599.9719,476.125 C599.9719,476.3906 600.1125,476.6406 600.3313,476.8125 C600.4875,476.9219 600.6906,476.9688 601.0969,476.9688 L602.9719,476.9688 C603.3313,476.9688 603.55,476.9375 603.6906,476.8438 C603.9406,476.7031 604.0969,476.4063 604.0969,476.125 C604.0969,475.6094 603.7688,475.2969 603.1906,475.2656 L604.9094,473.2344 L606.6281,475.2656 C606.0344,475.2969 605.7063,475.6094 605.7063,476.125 C605.7063,476.6875 606.0656,476.9688 606.8156,476.9688 L608.7063,476.9688 C609.0656,476.9688 609.2844,476.9375 609.425,476.8438 C609.675,476.7031 609.8313,476.4063 609.8313,476.125 C609.8313,475.5938 609.4719,475.2813 608.8313,475.2656 L605.9875,471.9219 Z " fill="#000000"/><text fill="#000000" font-family="sans-serif" font-size="12" font-style="italic" lengthAdjust="spacing" textLength="72" x="632.2" y="469.1387">«extension»</text><text fill="#000000" font-family="sans-serif" font-size="12" lengthAdjust="spacing" textLength="88" x="624.2" y="483.1074">ErrorPresenter</text><line style="stroke:#A80036;stroke-width:1.5;" x1="566.5" x2="738.5" y1="490.9375" y2="490.9375"/><ellipse cx="576.5" cy="501.9375" fill="#84BE84" rx="3" ry="3" style="stroke:#038048;stroke-width:1.0;"/><text fill="#000000" font-family="sans-serif" font-size="11" lengthAdjust="spacing" textLength="82" x="585.5" y="505.1479">present(error:)</text><ellipse cx="576.5" cy="514.7422" fill="#84BE84" rx="3" ry="3" style="stroke:#038048;stroke-width:1.0;"/><text fill="#000000" font-family="sans-serif" font-size="11" lengthAdjust="spacing" textLength="148" x="585.5" y="517.9526">present(error:completion:)</text><!--MD5=[5d2bdee92db0d01b75732190da037553]
class Coordinator--><rect codeLine="31" fill="#FEFECE" height="58.7422" id="Coordinator" style="stroke:#A80036;stroke-width:1.5;" width="103" x="181" y="310.5"/><ellipse cx="196" cy="329.4688" fill="#DAA520" rx="11" ry="11" style="stroke:#A80036;stroke-width:1.0;"/><path d="M195.5469,331.0625 L197.2188,331.0625 C198.7969,331.0625 199.6406,330.7813 200.3906,329.9531 C200.9375,329.3594 201.25,328.5469 201.25,327.7656 C201.25,325.8906 199.7188,324.5625 197.5469,324.5625 L193.5938,324.5625 C193.1563,324.5625 193.0313,324.5781 192.875,324.6719 C192.625,324.8281 192.4688,325.125 192.4688,325.4063 C192.4688,325.6563 192.6094,325.9375 192.8281,326.1094 C192.9844,326.2188 193.1719,326.25 193.5938,326.25 L193.8438,326.25 L193.8438,332.7656 L193.5938,332.7656 C193.1875,332.7656 193.0313,332.7813 192.875,332.8906 C192.625,333.0469 192.4688,333.3281 192.4688,333.625 C192.4688,333.875 192.6094,334.1406 192.8281,334.2969 C192.9688,334.4219 193.2031,334.4688 193.5938,334.4688 L197.2344,334.4688 C197.5781,334.4688 197.8281,334.4219 197.9375,334.3438 C198.2031,334.2031 198.3594,333.9063 198.3594,333.625 C198.3594,333.3438 198.2188,333.0938 198,332.9219 C197.8281,332.7969 197.6875,332.7656 197.2344,332.7656 L195.5469,332.7656 L195.5469,331.0625 Z M195.5469,326.25 L197.5469,326.25 C198.7344,326.25 199.4375,326.8594 199.4375,327.8281 C199.4375,328.7813 198.7344,329.375 197.5469,329.375 L195.5469,329.375 L195.5469,326.25 Z " fill="#000000"/><text fill="#000000" font-family="sans-serif" font-size="12" font-style="italic" lengthAdjust="spacing" textLength="63" x="214" y="326.6387">«protocol»</text><text fill="#000000" font-family="sans-serif" font-size="12" lengthAdjust="spacing" textLength="71" x="210" y="340.6074">Coordinator</text><line style="stroke:#A80036;stroke-width:1.5;" x1="182" x2="283" y1="348.4375" y2="348.4375"/><ellipse cx="192" cy="359.4375" fill="#84BE84" rx="3" ry="3" style="stroke:#038048;stroke-width:1.0;"/><text fill="#000000" font-family="sans-serif" font-size="11" lengthAdjust="spacing" textLength="33" x="201" y="362.6479">start()</text><!--MD5=[414618763dbfe30d96ae3eb629cae369]
class ResumableCoordinator--><rect codeLine="34" fill="#FEFECE" height="58.7422" id="ResumableCoordinator" style="stroke:#A80036;stroke-width:1.5;" width="169" x="40" y="168"/><ellipse cx="55" cy="186.9688" fill="#DAA520" rx="11" ry="11" style="stroke:#A80036;stroke-width:1.0;"/><path d="M54.5469,188.5625 L56.2188,188.5625 C57.7969,188.5625 58.6406,188.2813 59.3906,187.4531 C59.9375,186.8594 60.25,186.0469 60.25,185.2656 C60.25,183.3906 58.7188,182.0625 56.5469,182.0625 L52.5938,182.0625 C52.1563,182.0625 52.0313,182.0781 51.875,182.1719 C51.625,182.3281 51.4688,182.625 51.4688,182.9063 C51.4688,183.1563 51.6094,183.4375 51.8281,183.6094 C51.9844,183.7188 52.1719,183.75 52.5938,183.75 L52.8438,183.75 L52.8438,190.2656 L52.5938,190.2656 C52.1875,190.2656 52.0313,190.2813 51.875,190.3906 C51.625,190.5469 51.4688,190.8281 51.4688,191.125 C51.4688,191.375 51.6094,191.6406 51.8281,191.7969 C51.9688,191.9219 52.2031,191.9688 52.5938,191.9688 L56.2344,191.9688 C56.5781,191.9688 56.8281,191.9219 56.9375,191.8438 C57.2031,191.7031 57.3594,191.4063 57.3594,191.125 C57.3594,190.8438 57.2188,190.5938 57,190.4219 C56.8281,190.2969 56.6875,190.2656 56.2344,190.2656 L54.5469,190.2656 L54.5469,188.5625 Z M54.5469,183.75 L56.5469,183.75 C57.7344,183.75 58.4375,184.3594 58.4375,185.3281 C58.4375,186.2813 57.7344,186.875 56.5469,186.875 L54.5469,186.875 L54.5469,183.75 Z " fill="#000000"/><text fill="#000000" font-family="sans-serif" font-size="12" font-style="italic" lengthAdjust="spacing" textLength="63" x="106" y="184.1387">«protocol»</text><text fill="#000000" font-family="sans-serif" font-size="12" lengthAdjust="spacing" textLength="137" x="69" y="198.1074">ResumableCoordinator</text><line style="stroke:#A80036;stroke-width:1.5;" x1="41" x2="208" y1="205.9375" y2="205.9375"/><ellipse cx="51" cy="216.9375" fill="#84BE84" rx="3" ry="3" style="stroke:#038048;stroke-width:1.0;"/><text fill="#000000" font-family="sans-serif" font-size="11" lengthAdjust="spacing" textLength="52" x="60" y="220.1479">resume()</text><!--MD5=[c5bda78c184519861e409c3dadff7453]
class DashboardResumableCoordinator--><rect codeLine="37" fill="#FEFECE" height="58.7422" id="DashboardResumableCoordinator" style="stroke:#A80036;stroke-width:1.5;" width="235" x="7" y="19.5"/><ellipse cx="22" cy="38.4688" fill="#DAA520" rx="11" ry="11" style="stroke:#A80036;stroke-width:1.0;"/><path d="M21.5469,40.0625 L23.2188,40.0625 C24.7969,40.0625 25.6406,39.7813 26.3906,38.9531 C26.9375,38.3594 27.25,37.5469 27.25,36.7656 C27.25,34.8906 25.7188,33.5625 23.5469,33.5625 L19.5938,33.5625 C19.1563,33.5625 19.0313,33.5781 18.875,33.6719 C18.625,33.8281 18.4688,34.125 18.4688,34.4063 C18.4688,34.6563 18.6094,34.9375 18.8281,35.1094 C18.9844,35.2188 19.1719,35.25 19.5938,35.25 L19.8438,35.25 L19.8438,41.7656 L19.5938,41.7656 C19.1875,41.7656 19.0313,41.7813 18.875,41.8906 C18.625,42.0469 18.4688,42.3281 18.4688,42.625 C18.4688,42.875 18.6094,43.1406 18.8281,43.2969 C18.9688,43.4219 19.2031,43.4688 19.5938,43.4688 L23.2344,43.4688 C23.5781,43.4688 23.8281,43.4219 23.9375,43.3438 C24.2031,43.2031 24.3594,42.9063 24.3594,42.625 C24.3594,42.3438 24.2188,42.0938 24,41.9219 C23.8281,41.7969 23.6875,41.7656 23.2344,41.7656 L21.5469,41.7656 L21.5469,40.0625 Z M21.5469,35.25 L23.5469,35.25 C24.7344,35.25 25.4375,35.8594 25.4375,36.8281 C25.4375,37.7813 24.7344,38.375 23.5469,38.375 L21.5469,38.375 L21.5469,35.25 Z " fill="#000000"/><text fill="#000000" font-family="sans-serif" font-size="12" font-style="italic" lengthAdjust="spacing" textLength="63" x="106" y="35.6387">«protocol»</text><text fill="#000000" font-family="sans-serif" font-size="12" lengthAdjust="spacing" textLength="203" x="36" y="49.6074">DashboardResumableCoordinator</text><line style="stroke:#A80036;stroke-width:1.5;" x1="8" x2="241" y1="57.4375" y2="57.4375"/><ellipse cx="18" cy="68.4375" rx="3" ry="3" style="stroke:#038048;stroke-width:1.0;fill:none;"/><text fill="#000000" font-family="sans-serif" font-size="11" lengthAdjust="spacing" textLength="151" x="27" y="71.6479">tabBarItem : UITabBarItem</text><!--MD5=[28a79a11402f6ec3a08587f22d1632fb]
class NavigationRootCoordinator--><rect codeLine="40" fill="#FEFECE" height="58.7422" id="NavigationRootCoordinator" style="stroke:#A80036;stroke-width:1.5;" width="192" x="244.5" y="168"/><ellipse cx="259.5" cy="186.9688" fill="#DAA520" rx="11" ry="11" style="stroke:#A80036;stroke-width:1.0;"/><path d="M259.0469,188.5625 L260.7188,188.5625 C262.2969,188.5625 263.1406,188.2813 263.8906,187.4531 C264.4375,186.8594 264.75,186.0469 264.75,185.2656 C264.75,183.3906 263.2188,182.0625 261.0469,182.0625 L257.0938,182.0625 C256.6563,182.0625 256.5313,182.0781 256.375,182.1719 C256.125,182.3281 255.9688,182.625 255.9688,182.9063 C255.9688,183.1563 256.1094,183.4375 256.3281,183.6094 C256.4844,183.7188 256.6719,183.75 257.0938,183.75 L257.3438,183.75 L257.3438,190.2656 L257.0938,190.2656 C256.6875,190.2656 256.5313,190.2813 256.375,190.3906 C256.125,190.5469 255.9688,190.8281 255.9688,191.125 C255.9688,191.375 256.1094,191.6406 256.3281,191.7969 C256.4688,191.9219 256.7031,191.9688 257.0938,191.9688 L260.7344,191.9688 C261.0781,191.9688 261.3281,191.9219 261.4375,191.8438 C261.7031,191.7031 261.8594,191.4063 261.8594,191.125 C261.8594,190.8438 261.7188,190.5938 261.5,190.4219 C261.3281,190.2969 261.1875,190.2656 260.7344,190.2656 L259.0469,190.2656 L259.0469,188.5625 Z M259.0469,183.75 L261.0469,183.75 C262.2344,183.75 262.9375,184.3594 262.9375,185.3281 C262.9375,186.2813 262.2344,186.875 261.0469,186.875 L259.0469,186.875 L259.0469,183.75 Z " fill="#000000"/><text fill="#000000" font-family="sans-serif" font-size="12" font-style="italic" lengthAdjust="spacing" textLength="63" x="322" y="184.1387">«protocol»</text><text fill="#000000" font-family="sans-serif" font-size="12" lengthAdjust="spacing" textLength="160" x="273.5" y="198.1074">NavigationRootCoordinator</text><line style="stroke:#A80036;stroke-width:1.5;" x1="245.5" x2="435.5" y1="205.9375" y2="205.9375"/><ellipse cx="255.5" cy="216.9375" fill="#84BE84" rx="3" ry="3" style="stroke:#038048;stroke-width:1.0;"/><text fill="#000000" font-family="sans-serif" font-size="11" lengthAdjust="spacing" textLength="90" x="264.5" y="220.1479">start(animated:)</text><!--MD5=[41329b71fba651e70e2f2c9046648969]
class StoryboardInstantiable--><rect codeLine="43" fill="#FEFECE" height="71.5469" id="StoryboardInstantiable" style="stroke:#A80036;stroke-width:1.5;" width="211" x="319" y="304"/><ellipse cx="353.35" cy="322.9688" fill="#DAA520" rx="11" ry="11" style="stroke:#A80036;stroke-width:1.0;"/><path d="M352.8969,324.5625 L354.5688,324.5625 C356.1469,324.5625 356.9906,324.2813 357.7406,323.4531 C358.2875,322.8594 358.6,322.0469 358.6,321.2656 C358.6,319.3906 357.0688,318.0625 354.8969,318.0625 L350.9438,318.0625 C350.5063,318.0625 350.3813,318.0781 350.225,318.1719 C349.975,318.3281 349.8188,318.625 349.8188,318.9063 C349.8188,319.1563 349.9594,319.4375 350.1781,319.6094 C350.3344,319.7188 350.5219,319.75 350.9438,319.75 L351.1938,319.75 L351.1938,326.2656 L350.9438,326.2656 C350.5375,326.2656 350.3813,326.2813 350.225,326.3906 C349.975,326.5469 349.8188,326.8281 349.8188,327.125 C349.8188,327.375 349.9594,327.6406 350.1781,327.7969 C350.3188,327.9219 350.5531,327.9688 350.9438,327.9688 L354.5844,327.9688 C354.9281,327.9688 355.1781,327.9219 355.2875,327.8438 C355.5531,327.7031 355.7094,327.4063 355.7094,327.125 C355.7094,326.8438 355.5688,326.5938 355.35,326.4219 C355.1781,326.2969 355.0375,326.2656 354.5844,326.2656 L352.8969,326.2656 L352.8969,324.5625 Z M352.8969,319.75 L354.8969,319.75 C356.0844,319.75 356.7875,320.3594 356.7875,321.3281 C356.7875,322.2813 356.0844,322.875 354.8969,322.875 L352.8969,322.875 L352.8969,319.75 Z " fill="#000000"/><text fill="#000000" font-family="sans-serif" font-size="12" font-style="italic" lengthAdjust="spacing" textLength="63" x="408.15" y="320.1387">«protocol»</text><text fill="#000000" font-family="sans-serif" font-size="12" lengthAdjust="spacing" textLength="136" x="371.65" y="334.1074">StoryboardInstantiable</text><line style="stroke:#A80036;stroke-width:1.5;" x1="320" x2="529" y1="341.9375" y2="341.9375"/><ellipse cx="330" cy="352.9375" fill="#84BE84" rx="3" ry="3" style="stroke:#038048;stroke-width:1.0;"/><text fill="#000000" font-family="sans-serif" font-size="11" lengthAdjust="spacing" text-decoration="underline" textLength="185" x="339" y="356.1479">instantiate(storyboard:identifier:)</text><ellipse cx="330" cy="365.7422" fill="#84BE84" rx="3" ry="3" style="stroke:#038048;stroke-width:1.0;"/><text fill="#000000" font-family="sans-serif" font-size="11" lengthAdjust="spacing" text-decoration="underline" textLength="68" x="339" y="368.9526">instantiate()</text><!--MD5=[9ea840026452629e792a7b36637dbb7a]
class StoryboardInstantiable3--><rect codeLine="47" fill="#FEFECE" height="58.7422" id="StoryboardInstantiable3" style="stroke:#A80036;stroke-width:1.5;" width="211" x="319" y="459.5"/><ellipse cx="353.35" cy="478.4688" fill="#DA70D6" rx="11" ry="11" style="stroke:#A80036;stroke-width:1.0;"/><path d="M354.5375,478.4219 L357.2094,475.25 C357.8031,475.2344 358.1781,474.9375 358.1781,474.4063 C358.1781,474.1406 358.0531,473.875 357.8188,473.7031 C357.6469,473.5938 357.5063,473.5625 357.0531,473.5625 L355.5219,473.5625 C355.1469,473.5625 354.8813,473.6094 354.7406,473.7344 C354.5219,473.875 354.3813,474.1563 354.3813,474.4063 C354.3813,474.7813 354.5531,475 355.0375,475.2344 L353.4438,477.0938 L351.8344,475.2344 C352.3344,475 352.475,474.7813 352.475,474.4063 C352.475,474.1406 352.35,473.875 352.1313,473.7031 C351.9594,473.5938 351.8188,473.5625 351.3344,473.5625 L349.7875,473.5625 C349.6781,473.5625 349.6625,473.5625 349.4594,473.5938 C348.9594,473.6406 348.6781,473.9531 348.6781,474.4063 C348.6781,474.9219 349.0375,475.2188 349.6625,475.25 L352.35,478.4063 L349.5219,481.7656 C348.8969,481.7656 348.5219,482.0938 348.5219,482.625 C348.5219,482.8906 348.6625,483.1406 348.8813,483.3125 C349.0375,483.4219 349.2406,483.4688 349.6469,483.4688 L351.5219,483.4688 C351.8813,483.4688 352.1,483.4375 352.2406,483.3438 C352.4906,483.2031 352.6469,482.9063 352.6469,482.625 C352.6469,482.1094 352.3188,481.7969 351.7406,481.7656 L353.4594,479.7344 L355.1781,481.7656 C354.5844,481.7969 354.2563,482.1094 354.2563,482.625 C354.2563,483.1875 354.6156,483.4688 355.3656,483.4688 L357.2563,483.4688 C357.6156,483.4688 357.8344,483.4375 357.975,483.3438 C358.225,483.2031 358.3813,482.9063 358.3813,482.625 C358.3813,482.0938 358.0219,481.7813 357.3813,481.7656 L354.5375,478.4219 Z " fill="#000000"/><text fill="#000000" font-family="sans-serif" font-size="12" font-style="italic" lengthAdjust="spacing" textLength="72" x="403.65" y="475.6387">«extension»</text><text fill="#000000" font-family="sans-serif" font-size="12" lengthAdjust="spacing" textLength="136" x="371.65" y="489.6074">StoryboardInstantiable</text><line style="stroke:#A80036;stroke-width:1.5;" x1="320" x2="529" y1="497.4375" y2="497.4375"/><ellipse cx="330" cy="508.4375" fill="#84BE84" rx="3" ry="3" style="stroke:#038048;stroke-width:1.0;"/><text fill="#000000" font-family="sans-serif" font-size="11" lengthAdjust="spacing" text-decoration="underline" textLength="185" x="339" y="511.6479">instantiate(storyboard:identifier:)</text><!--MD5=[625eb5fdd814536c712f9f96ffbf9401]
class AnyObject--><rect fill="#FEFECE" height="32" id="AnyObject" style="stroke:#A80036;stroke-width:1.5;" width="94" x="189.5" y="473"/><ellipse cx="204.5" cy="489" fill="#ADD1B2" rx="11" ry="11" style="stroke:#A80036;stroke-width:1.0;"/><path d="M206.8438,484.6719 C205.9063,484.2344 205.3125,484.0938 204.4375,484.0938 C201.8125,484.0938 199.8125,486.1719 199.8125,488.8906 L199.8125,490.0156 C199.8125,492.5938 201.9219,494.4844 204.8125,494.4844 C206.0313,494.4844 207.1875,494.1875 207.9375,493.6406 C208.5156,493.2344 208.8438,492.7813 208.8438,492.3906 C208.8438,491.9375 208.4531,491.5469 207.9844,491.5469 C207.7656,491.5469 207.5625,491.625 207.375,491.8125 C206.9219,492.2969 206.9219,492.2969 206.7344,492.3906 C206.3125,492.6563 205.625,492.7813 204.8594,492.7813 C202.8125,492.7813 201.5156,491.6875 201.5156,489.9844 L201.5156,488.8906 C201.5156,487.1094 202.7656,485.7969 204.5,485.7969 C205.0781,485.7969 205.6875,485.9531 206.1563,486.2031 C206.6406,486.4844 206.8125,486.7031 206.9063,487.1094 C206.9688,487.5156 207,487.6406 207.1406,487.7656 C207.2813,487.9063 207.5156,488.0156 207.7344,488.0156 C208,488.0156 208.2656,487.875 208.4375,487.6563 C208.5469,487.5 208.5781,487.3125 208.5781,486.8906 L208.5781,485.4688 C208.5781,485.0313 208.5625,484.9063 208.4688,484.75 C208.3125,484.4844 208.0313,484.3438 207.7344,484.3438 C207.4375,484.3438 207.2344,484.4375 207.0156,484.75 L206.8438,484.6719 Z " fill="#000000"/><text fill="#000000" font-family="sans-serif" font-size="12" lengthAdjust="spacing" textLength="62" x="218.5" y="493.1543">AnyObject</text><!--MD5=[ca9f5510740fd58db62f81ab157ba02f]
link ViewController to AnyObject--><path codeLine="50" d="M114.973,369.692 C141.395,395.414 179.979,432.9761 206.547,458.8405 " fill="none" id="ViewController-to-AnyObject" style="stroke:#A80036;stroke-width:1.0;stroke-dasharray:7.0,7.0;"/><polygon fill="none" points="211.522,453.9143,220.97,472.8811,201.756,463.9457,211.522,453.9143" style="stroke:#A80036;stroke-width:1.0;"/><text fill="#000000" font-family="sans-serif" font-size="13" lengthAdjust="spacing" textLength="47" x="167.5" y="419.0669">inherits</text><!--MD5=[4a6114b1156f373c9c4faef5256f4eab]
link ErrorPresenter to AnyObject--><path codeLine="51" d="M578.031,376.185 C541.706,392.259 496.991,410.464 455.5,423 C388.749,443.1677 367.165,429.5374 301.5,453 C293.711,455.7829 285.719,459.3867 278.121,463.2209 " fill="none" id="ErrorPresenter-to-AnyObject" style="stroke:#A80036;stroke-width:1.0;stroke-dasharray:7.0,7.0;"/><polygon fill="none" points="281.296,469.4626,260.385,472.8895,274.595,457.1705,281.296,469.4626" style="stroke:#A80036;stroke-width:1.0;"/><text fill="#000000" font-family="sans-serif" font-size="13" lengthAdjust="spacing" textLength="47" x="506.5" y="419.0669">inherits</text><!--MD5=[f5361538d6a144a709425b8a9f0d51b9]
link Coordinator to AnyObject--><path codeLine="52" d="M233.281,369.692 C233.928,393.482 234.851,427.3998 235.543,452.8239 " fill="none" id="Coordinator-to-AnyObject" style="stroke:#A80036;stroke-width:1.0;stroke-dasharray:7.0,7.0;"/><polygon fill="none" points="242.542,452.698,236.089,472.8811,228.547,453.0789,242.542,452.698" style="stroke:#A80036;stroke-width:1.0;"/><text fill="#000000" font-family="sans-serif" font-size="13" lengthAdjust="spacing" textLength="47" x="236.5" y="419.0669">inherits</text><!--MD5=[b1ee1d48760c0081df94696e07966443]
link ResumableCoordinator to Coordinator--><path codeLine="53" d="M146.616,227.271 C161.468,246.592 181.332,272.434 198.216,294.399 " fill="none" id="ResumableCoordinator-to-Coordinator" style="stroke:#A80036;stroke-width:1.0;stroke-dasharray:7.0,7.0;"/><polygon fill="none" points="203.775,290.144,210.414,310.267,192.675,298.677,203.775,290.144" style="stroke:#A80036;stroke-width:1.0;"/><text fill="#000000" font-family="sans-serif" font-size="13" lengthAdjust="spacing" textLength="73" x="183.5" y="270.0669">conforms to</text><!--MD5=[796359effcad86906ad795199e5649f6]
link DashboardResumableCoordinator to ResumableCoordinator--><path codeLine="54" d="M124.5,78.594 C124.5,98.257 124.5,124.862 124.5,147.823 " fill="none" id="DashboardResumableCoordinator-to-ResumableCoordinator" style="stroke:#A80036;stroke-width:1.0;stroke-dasharray:7.0,7.0;"/><polygon fill="none" points="131.5,147.978,124.5,167.978,117.5,147.978,131.5,147.978" style="stroke:#A80036;stroke-width:1.0;"/><text fill="#000000" font-family="sans-serif" font-size="13" lengthAdjust="spacing" textLength="73" x="125.5" y="134.0669">conforms to</text><!--MD5=[96e3a69fd716903088c857abf59f3568]
link NavigationRootCoordinator to Coordinator--><path codeLine="55" d="M318.384,227.271 C303.532,246.592 283.668,272.434 266.784,294.399 " fill="none" id="NavigationRootCoordinator-to-Coordinator" style="stroke:#A80036;stroke-width:1.0;stroke-dasharray:7.0,7.0;"/><polygon fill="none" points="272.325,298.677,254.586,310.267,261.225,290.144,272.325,298.677" style="stroke:#A80036;stroke-width:1.0;"/><text fill="#000000" font-family="sans-serif" font-size="13" lengthAdjust="spacing" textLength="73" x="294.5" y="270.0669">conforms to</text><!--MD5=[b1a6a65cac6e6749257c34b1a485cf1e]
link StoryboardInstantiable to AnyObject--><path codeLine="56" d="M379.469,376.21 C346.444,402.034 302.229,436.6057 271.758,460.4314 " fill="none" id="StoryboardInstantiable-to-AnyObject" style="stroke:#A80036;stroke-width:1.0;stroke-dasharray:7.0,7.0;"/><polygon fill="none" points="276.065,465.9494,255.998,472.7544,267.441,454.9206,276.065,465.9494" style="stroke:#A80036;stroke-width:1.0;"/><text fill="#000000" font-family="sans-serif" font-size="13" lengthAdjust="spacing" textLength="47" x="337.5" y="419.0669">inherits</text><!--MD5=[9f0c2fe2b6bbc78e653fb29ebd4f9118]
reverse link ViewController to ViewController0--><path codeLine="57" d="M83.0176,374.915 C82.3922,384.92 81.8106,395.896 81.5,406 C80.9572,423.656 81.6441,443.4468 82.4968,459.1615 " fill="none" id="ViewController-backto-ViewController0" style="stroke:#A80036;stroke-width:1.0;stroke-dasharray:7.0,7.0;"/><polygon fill="#A80036" points="83.3475,369.781,78.7772,378.5052,83.0261,374.7707,86.7607,379.0195,83.3475,369.781" style="stroke:#A80036;stroke-width:1.0;"/><text fill="#000000" font-family="sans-serif" font-size="13" lengthAdjust="spacing" textLength="21" x="82.5" y="419.0669">ext</text><!--MD5=[c32b31916971e176447c6957b85423d8]
reverse link ErrorPresenter to ErrorPresenter1--><path codeLine="58" d="M706.614,379.061 C739.077,401.894 780.068,430.7246 811.725,452.9904 " fill="none" id="ErrorPresenter-backto-ErrorPresenter1" style="stroke:#A80036;stroke-width:1.0;stroke-dasharray:7.0,7.0;"/><polygon fill="#A80036" points="702.295,376.023,707.3533,384.4737,706.384,378.9005,711.9572,377.9312,702.295,376.023" style="stroke:#A80036;stroke-width:1.0;"/><text fill="#000000" font-family="sans-serif" font-size="13" lengthAdjust="spacing" textLength="21" x="763.5" y="419.0669">ext</text><!--MD5=[c20107b7574af4f89dfd11907d35798b]
reverse link ErrorPresenter to ErrorPresenter2--><path codeLine="59" d="M652.5,381.484 C652.5,403.849 652.5,431.3616 652.5,452.8227 " fill="none" id="ErrorPresenter-backto-ErrorPresenter2" style="stroke:#A80036;stroke-width:1.0;stroke-dasharray:7.0,7.0;"/><polygon fill="#A80036" points="652.5,376.21,648.5,385.21,652.5,381.21,656.5,385.21,652.5,376.21" style="stroke:#A80036;stroke-width:1.0;"/><text fill="#000000" font-family="sans-serif" font-size="13" lengthAdjust="spacing" textLength="21" x="653.5" y="419.0669">ext</text><!--MD5=[c7c389c87028aed37732564d9b82ab86]
reverse link StoryboardInstantiable to StoryboardInstantiable3--><path codeLine="60" d="M424.5,381.394 C424.5,406.162 424.5,437.2718 424.5,459.4799 " fill="none" id="StoryboardInstantiable-backto-StoryboardInstantiable3" style="stroke:#A80036;stroke-width:1.0;stroke-dasharray:7.0,7.0;"/><polygon fill="#A80036" points="424.5,376.21,420.5,385.21,424.5,381.21,428.5,385.21,424.5,376.21" style="stroke:#A80036;stroke-width:1.0;"/><text fill="#000000" font-family="sans-serif" font-size="13" lengthAdjust="spacing" textLength="21" x="425.5" y="419.0669">ext</text><!--MD5=[6b29d447af5a1eb994ef01e15a3f3d3a]
@startuml

' STYLE START
hide empty members
skinparam shadowing false
' STYLE END


class "ViewController" as ViewController << (P, GoldenRod) protocol >> { 
  +perform(action:) 
}
class "ErrorPresenter" as ErrorPresenter << (P, GoldenRod) protocol >> { 
  +present(error:)
  +present(error:completion:) 
}
class "DefaultDependenciesType" as DefaultDependenciesType << (P, GoldenRod) protocol >> { 
  +networkAgent : NetworkAgentType
  +session : SessionType
  +styles : AppStyles 
}
class "ViewController" as ViewController0 << (X, Orchid) extension >> { 
  +perform(action:) 
}
class "ErrorPresenter" as ErrorPresenter1 << (X, Orchid) extension >> { 
  +present(error:)
  +present(error:completion:) 
}
class "ErrorPresenter" as ErrorPresenter2 << (X, Orchid) extension >> { 
  +present(error:)
  +present(error:completion:) 
}
class "Coordinator" as Coordinator << (P, GoldenRod) protocol >> { 
  +start() 
}
class "ResumableCoordinator" as ResumableCoordinator << (P, GoldenRod) protocol >> { 
  +resume() 
}
class "DashboardResumableCoordinator" as DashboardResumableCoordinator << (P, GoldenRod) protocol >> { 
  +tabBarItem : UITabBarItem 
}
class "NavigationRootCoordinator" as NavigationRootCoordinator << (P, GoldenRod) protocol >> { 
  +start(animated:) 
}
class "StoryboardInstantiable" as StoryboardInstantiable << (P, GoldenRod) protocol >> { 
  +{static} instantiate(storyboard:identifier:)
  +{static} instantiate() 
}
class "StoryboardInstantiable" as StoryboardInstantiable3 << (X, Orchid) extension >> { 
  +{static} instantiate(storyboard:identifier:) 
}
ViewController ..|> AnyObject : inherits
ErrorPresenter ..|> AnyObject : inherits
Coordinator ..|> AnyObject : inherits
ResumableCoordinator ..|> Coordinator : conforms to
DashboardResumableCoordinator ..|> ResumableCoordinator : conforms to
NavigationRootCoordinator ..|> Coordinator : conforms to
StoryboardInstantiable ..|> AnyObject : inherits
ViewController <.. ViewController0 : ext
ErrorPresenter <.. ErrorPresenter1 : ext
ErrorPresenter <.. ErrorPresenter2 : ext
StoryboardInstantiable <.. StoryboardInstantiable3 : ext
@enduml

@startuml

hide empty members
skinparam shadowing false


class "ViewController" as ViewController << (P, GoldenRod) protocol >> { 
  +perform(action:) 
}
class "ErrorPresenter" as ErrorPresenter << (P, GoldenRod) protocol >> { 
  +present(error:)
  +present(error:completion:) 
}
class "DefaultDependenciesType" as DefaultDependenciesType << (P, GoldenRod) protocol >> { 
  +networkAgent : NetworkAgentType
  +session : SessionType
  +styles : AppStyles 
}
class "ViewController" as ViewController0 << (X, Orchid) extension >> { 
  +perform(action:) 
}
class "ErrorPresenter" as ErrorPresenter1 << (X, Orchid) extension >> { 
  +present(error:)
  +present(error:completion:) 
}
class "ErrorPresenter" as ErrorPresenter2 << (X, Orchid) extension >> { 
  +present(error:)
  +present(error:completion:) 
}
class "Coordinator" as Coordinator << (P, GoldenRod) protocol >> { 
  +start() 
}
class "ResumableCoordinator" as ResumableCoordinator << (P, GoldenRod) protocol >> { 
  +resume() 
}
class "DashboardResumableCoordinator" as DashboardResumableCoordinator << (P, GoldenRod) protocol >> { 
  +tabBarItem : UITabBarItem 
}
class "NavigationRootCoordinator" as NavigationRootCoordinator << (P, GoldenRod) protocol >> { 
  +start(animated:) 
}
class "StoryboardInstantiable" as StoryboardInstantiable << (P, GoldenRod) protocol >> { 
  +{static} instantiate(storyboard:identifier:)
  +{static} instantiate() 
}
class "StoryboardInstantiable" as StoryboardInstantiable3 << (X, Orchid) extension >> { 
  +{static} instantiate(storyboard:identifier:) 
}
ViewController ..|> AnyObject : inherits
ErrorPresenter ..|> AnyObject : inherits
Coordinator ..|> AnyObject : inherits
ResumableCoordinator ..|> Coordinator : conforms to
DashboardResumableCoordinator ..|> ResumableCoordinator : conforms to
NavigationRootCoordinator ..|> Coordinator : conforms to
StoryboardInstantiable ..|> AnyObject : inherits
ViewController <.. ViewController0 : ext
ErrorPresenter <.. ErrorPresenter1 : ext
ErrorPresenter <.. ErrorPresenter2 : ext
StoryboardInstantiable <.. StoryboardInstantiable3 : ext
@enduml

PlantUML version 1.2021.7(Sun May 23 12:40:07 UTC 2021)
(GPL source distribution)
Java Runtime: Java(TM) SE Runtime Environment
JVM: Java HotSpot(TM) 64-Bit Server VM
Default Encoding: UTF-8
Language: en
Country: US
--></g></svg>