<?xml version="1.0" encoding="UTF-8" standalone="no"?><svg xmlns="http://www.w3.org/2000/svg" xmlns:xlink="http://www.w3.org/1999/xlink" contentScriptType="application/ecmascript" contentStyleType="text/css" height="615px" preserveAspectRatio="none" style="width:1335px;height:615px;background:#FFFFFF;" version="1.1" viewBox="0 0 1335 615" width="1335px" zoomAndPan="magnify"><defs/><g><!--MD5=[407fa6767dc3f6308f6e9f70e5b0996a]
class Stylable--><rect codeLine="8" fill="#FEFECE" height="58.7422" id="Stylable" style="stroke:#A80036;stroke-width:1.5;" width="102" x="168" y="414"/><ellipse cx="187.95" cy="432.9688" fill="#DAA520" rx="11" ry="11" style="stroke:#A80036;stroke-width:1.0;"/><path d="M187.4969,434.5625 L189.1688,434.5625 C190.7469,434.5625 191.5906,434.2813 192.3406,433.4531 C192.8875,432.8594 193.2,432.0469 193.2,431.2656 C193.2,429.3906 191.6688,428.0625 189.4969,428.0625 L185.5438,428.0625 C185.1063,428.0625 184.9813,428.0781 184.825,428.1719 C184.575,428.3281 184.4188,428.625 184.4188,428.9063 C184.4188,429.1563 184.5594,429.4375 184.7781,429.6094 C184.9344,429.7188 185.1219,429.75 185.5438,429.75 L185.7938,429.75 L185.7938,436.2656 L185.5438,436.2656 C185.1375,436.2656 184.9813,436.2813 184.825,436.3906 C184.575,436.5469 184.4188,436.8281 184.4188,437.125 C184.4188,437.375 184.5594,437.6406 184.7781,437.7969 C184.9188,437.9219 185.1531,437.9688 185.5438,437.9688 L189.1844,437.9688 C189.5281,437.9688 189.7781,437.9219 189.8875,437.8438 C190.1531,437.7031 190.3094,437.4063 190.3094,437.125 C190.3094,436.8438 190.1688,436.5938 189.95,436.4219 C189.7781,436.2969 189.6375,436.2656 189.1844,436.2656 L187.4969,436.2656 L187.4969,434.5625 Z M187.4969,429.75 L189.4969,429.75 C190.6844,429.75 191.3875,430.3594 191.3875,431.3281 C191.3875,432.2813 190.6844,432.875 189.4969,432.875 L187.4969,432.875 L187.4969,429.75 Z " fill="#000000"/><text fill="#000000" font-family="sans-serif" font-size="12" font-style="italic" lengthAdjust="spacing" textLength="63" x="201.05" y="430.1387">«protocol»</text><text fill="#000000" font-family="sans-serif" font-size="12" lengthAdjust="spacing" textLength="48" x="208.55" y="444.1074">Stylable</text><line style="stroke:#A80036;stroke-width:1.5;" x1="169" x2="269" y1="451.9375" y2="451.9375"/><ellipse cx="179" cy="462.9375" fill="#84BE84" rx="3" ry="3" style="stroke:#038048;stroke-width:1.0;"/><text fill="#000000" font-family="sans-serif" font-size="11" lengthAdjust="spacing" textLength="76" x="188" y="466.1479">apply(styles:)</text><!--MD5=[e9c628f85ff7514fea6297e68c293a13]
class Stylable0--><rect codeLine="11" fill="#FEFECE" height="58.7422" id="Stylable0" style="stroke:#A80036;stroke-width:1.5;" width="102" x="31" y="550"/><ellipse cx="46.9" cy="568.9688" fill="#DA70D6" rx="11" ry="11" style="stroke:#A80036;stroke-width:1.0;"/><path d="M48.0875,568.9219 L50.7594,565.75 C51.3531,565.7344 51.7281,565.4375 51.7281,564.9063 C51.7281,564.6406 51.6031,564.375 51.3688,564.2031 C51.1969,564.0938 51.0563,564.0625 50.6031,564.0625 L49.0719,564.0625 C48.6969,564.0625 48.4313,564.1094 48.2906,564.2344 C48.0719,564.375 47.9313,564.6563 47.9313,564.9063 C47.9313,565.2813 48.1031,565.5 48.5875,565.7344 L46.9938,567.5938 L45.3844,565.7344 C45.8844,565.5 46.025,565.2813 46.025,564.9063 C46.025,564.6406 45.9,564.375 45.6813,564.2031 C45.5094,564.0938 45.3688,564.0625 44.8844,564.0625 L43.3375,564.0625 C43.2281,564.0625 43.2125,564.0625 43.0094,564.0938 C42.5094,564.1406 42.2281,564.4531 42.2281,564.9063 C42.2281,565.4219 42.5875,565.7188 43.2125,565.75 L45.9,568.9063 L43.0719,572.2656 C42.4469,572.2656 42.0719,572.5938 42.0719,573.125 C42.0719,573.3906 42.2125,573.6406 42.4313,573.8125 C42.5875,573.9219 42.7906,573.9688 43.1969,573.9688 L45.0719,573.9688 C45.4313,573.9688 45.65,573.9375 45.7906,573.8438 C46.0406,573.7031 46.1969,573.4063 46.1969,573.125 C46.1969,572.6094 45.8688,572.2969 45.2906,572.2656 L47.0094,570.2344 L48.7281,572.2656 C48.1344,572.2969 47.8063,572.6094 47.8063,573.125 C47.8063,573.6875 48.1656,573.9688 48.9156,573.9688 L50.8063,573.9688 C51.1656,573.9688 51.3844,573.9375 51.525,573.8438 C51.775,573.7031 51.9313,573.4063 51.9313,573.125 C51.9313,572.5938 51.5719,572.2813 50.9313,572.2656 L48.0875,568.9219 Z " fill="#000000"/><text fill="#000000" font-family="sans-serif" font-size="12" font-style="italic" lengthAdjust="spacing" textLength="72" x="59.1" y="566.1387">«extension»</text><text fill="#000000" font-family="sans-serif" font-size="12" lengthAdjust="spacing" textLength="48" x="71.1" y="580.1074">Stylable</text><line style="stroke:#A80036;stroke-width:1.5;" x1="32" x2="132" y1="587.9375" y2="587.9375"/><ellipse cx="42" cy="598.9375" fill="#84BE84" rx="3" ry="3" style="stroke:#038048;stroke-width:1.0;"/><text fill="#000000" font-family="sans-serif" font-size="11" lengthAdjust="spacing" textLength="76" x="51" y="602.1479">apply(styles:)</text><!--MD5=[2c94e04242e74022e7e0c753ee6c6bc7]
class Stylable1--><rect codeLine="14" fill="#FEFECE" height="58.7422" id="Stylable1" style="stroke:#A80036;stroke-width:1.5;" width="102" x="168" y="550"/><ellipse cx="183.9" cy="568.9688" fill="#DA70D6" rx="11" ry="11" style="stroke:#A80036;stroke-width:1.0;"/><path d="M185.0875,568.9219 L187.7594,565.75 C188.3531,565.7344 188.7281,565.4375 188.7281,564.9063 C188.7281,564.6406 188.6031,564.375 188.3688,564.2031 C188.1969,564.0938 188.0563,564.0625 187.6031,564.0625 L186.0719,564.0625 C185.6969,564.0625 185.4313,564.1094 185.2906,564.2344 C185.0719,564.375 184.9313,564.6563 184.9313,564.9063 C184.9313,565.2813 185.1031,565.5 185.5875,565.7344 L183.9938,567.5938 L182.3844,565.7344 C182.8844,565.5 183.025,565.2813 183.025,564.9063 C183.025,564.6406 182.9,564.375 182.6813,564.2031 C182.5094,564.0938 182.3688,564.0625 181.8844,564.0625 L180.3375,564.0625 C180.2281,564.0625 180.2125,564.0625 180.0094,564.0938 C179.5094,564.1406 179.2281,564.4531 179.2281,564.9063 C179.2281,565.4219 179.5875,565.7188 180.2125,565.75 L182.9,568.9063 L180.0719,572.2656 C179.4469,572.2656 179.0719,572.5938 179.0719,573.125 C179.0719,573.3906 179.2125,573.6406 179.4313,573.8125 C179.5875,573.9219 179.7906,573.9688 180.1969,573.9688 L182.0719,573.9688 C182.4313,573.9688 182.65,573.9375 182.7906,573.8438 C183.0406,573.7031 183.1969,573.4063 183.1969,573.125 C183.1969,572.6094 182.8688,572.2969 182.2906,572.2656 L184.0094,570.2344 L185.7281,572.2656 C185.1344,572.2969 184.8063,572.6094 184.8063,573.125 C184.8063,573.6875 185.1656,573.9688 185.9156,573.9688 L187.8063,573.9688 C188.1656,573.9688 188.3844,573.9375 188.525,573.8438 C188.775,573.7031 188.9313,573.4063 188.9313,573.125 C188.9313,572.5938 188.5719,572.2813 187.9313,572.2656 L185.0875,568.9219 Z " fill="#000000"/><text fill="#000000" font-family="sans-serif" font-size="12" font-style="italic" lengthAdjust="spacing" textLength="72" x="196.1" y="566.1387">«extension»</text><text fill="#000000" font-family="sans-serif" font-size="12" lengthAdjust="spacing" textLength="48" x="208.1" y="580.1074">Stylable</text><line style="stroke:#A80036;stroke-width:1.5;" x1="169" x2="269" y1="587.9375" y2="587.9375"/><ellipse cx="179" cy="598.9375" fill="#84BE84" rx="3" ry="3" style="stroke:#038048;stroke-width:1.0;"/><text fill="#000000" font-family="sans-serif" font-size="11" lengthAdjust="spacing" textLength="76" x="188" y="602.1479">apply(styles:)</text><!--MD5=[cb0d3b4941f1eca075d359c2504ca63f]
class UIFont--><rect codeLine="17" fill="#FEFECE" height="181.9844" id="UIFont" style="stroke:#A80036;stroke-width:1.5;" width="125" x="446.5" y="81"/><ellipse cx="472.75" cy="99.9688" fill="#DA70D6" rx="11" ry="11" style="stroke:#A80036;stroke-width:1.0;"/><path d="M473.9375,99.9219 L476.6094,96.75 C477.2031,96.7344 477.5781,96.4375 477.5781,95.9063 C477.5781,95.6406 477.4531,95.375 477.2188,95.2031 C477.0469,95.0938 476.9063,95.0625 476.4531,95.0625 L474.9219,95.0625 C474.5469,95.0625 474.2813,95.1094 474.1406,95.2344 C473.9219,95.375 473.7813,95.6563 473.7813,95.9063 C473.7813,96.2813 473.9531,96.5 474.4375,96.7344 L472.8438,98.5938 L471.2344,96.7344 C471.7344,96.5 471.875,96.2813 471.875,95.9063 C471.875,95.6406 471.75,95.375 471.5313,95.2031 C471.3594,95.0938 471.2188,95.0625 470.7344,95.0625 L469.1875,95.0625 C469.0781,95.0625 469.0625,95.0625 468.8594,95.0938 C468.3594,95.1406 468.0781,95.4531 468.0781,95.9063 C468.0781,96.4219 468.4375,96.7188 469.0625,96.75 L471.75,99.9063 L468.9219,103.2656 C468.2969,103.2656 467.9219,103.5938 467.9219,104.125 C467.9219,104.3906 468.0625,104.6406 468.2813,104.8125 C468.4375,104.9219 468.6406,104.9688 469.0469,104.9688 L470.9219,104.9688 C471.2813,104.9688 471.5,104.9375 471.6406,104.8438 C471.8906,104.7031 472.0469,104.4063 472.0469,104.125 C472.0469,103.6094 471.7188,103.2969 471.1406,103.2656 L472.8594,101.2344 L474.5781,103.2656 C473.9844,103.2969 473.6563,103.6094 473.6563,104.125 C473.6563,104.6875 474.0156,104.9688 474.7656,104.9688 L476.6563,104.9688 C477.0156,104.9688 477.2344,104.9375 477.375,104.8438 C477.625,104.7031 477.7813,104.4063 477.7813,104.125 C477.7813,103.5938 477.4219,103.2813 476.7813,103.2656 L473.9375,99.9219 Z " fill="#000000"/><text fill="#000000" font-family="sans-serif" font-size="12" font-style="italic" lengthAdjust="spacing" textLength="72" x="487.25" y="97.1387">«extension»</text><text fill="#000000" font-family="sans-serif" font-size="12" lengthAdjust="spacing" textLength="38" x="504.25" y="111.1074">UIFont</text><line style="stroke:#A80036;stroke-width:1.5;" x1="447.5" x2="570.5" y1="118.9375" y2="118.9375"/><ellipse cx="457.5" cy="129.9375" rx="3" ry="3" style="stroke:#038048;stroke-width:1.0;fill:none;"/><text fill="#000000" font-family="sans-serif" font-size="11" lengthAdjust="spacing" textLength="95" x="466.5" y="133.1479">ultralight : UIFont</text><ellipse cx="457.5" cy="142.7422" rx="3" ry="3" style="stroke:#038048;stroke-width:1.0;fill:none;"/><text fill="#000000" font-family="sans-serif" font-size="11" lengthAdjust="spacing" textLength="67" x="466.5" y="145.9526">thin : UIFont</text><ellipse cx="457.5" cy="155.5469" rx="3" ry="3" style="stroke:#038048;stroke-width:1.0;fill:none;"/><text fill="#000000" font-family="sans-serif" font-size="11" lengthAdjust="spacing" textLength="70" x="466.5" y="158.7573">light : UIFont</text><ellipse cx="457.5" cy="168.3516" rx="3" ry="3" style="stroke:#038048;stroke-width:1.0;fill:none;"/><text fill="#000000" font-family="sans-serif" font-size="11" lengthAdjust="spacing" textLength="86" x="466.5" y="171.562">regular : UIFont</text><ellipse cx="457.5" cy="181.1563" rx="3" ry="3" style="stroke:#038048;stroke-width:1.0;fill:none;"/><text fill="#000000" font-family="sans-serif" font-size="11" lengthAdjust="spacing" textLength="93" x="466.5" y="184.3667">medium : UIFont</text><ellipse cx="457.5" cy="193.9609" rx="3" ry="3" style="stroke:#038048;stroke-width:1.0;fill:none;"/><text fill="#000000" font-family="sans-serif" font-size="11" lengthAdjust="spacing" textLength="99" x="466.5" y="197.1714">semiBold : UIFont</text><ellipse cx="457.5" cy="206.7656" rx="3" ry="3" style="stroke:#038048;stroke-width:1.0;fill:none;"/><text fill="#000000" font-family="sans-serif" font-size="11" lengthAdjust="spacing" textLength="70" x="466.5" y="209.9761">bold : UIFont</text><ellipse cx="457.5" cy="219.5703" rx="3" ry="3" style="stroke:#038048;stroke-width:1.0;fill:none;"/><text fill="#000000" font-family="sans-serif" font-size="11" lengthAdjust="spacing" textLength="82" x="466.5" y="222.7808">heavy : UIFont</text><ellipse cx="457.5" cy="232.375" rx="3" ry="3" style="stroke:#038048;stroke-width:1.0;fill:none;"/><text fill="#000000" font-family="sans-serif" font-size="11" lengthAdjust="spacing" textLength="75" x="466.5" y="235.5854">black : UIFont</text><line style="stroke:#A80036;stroke-width:1.5;" x1="447.5" x2="570.5" y1="242.1797" y2="242.1797"/><ellipse cx="457.5" cy="253.1797" fill="#84BE84" rx="3" ry="3" style="stroke:#038048;stroke-width:1.0;"/><text fill="#000000" font-family="sans-serif" font-size="11" lengthAdjust="spacing" textLength="96" x="466.5" y="256.3901">fontWith(weight:)</text><!--MD5=[cad2a110fbc9693d34ba885a18d62133]
class UIView--><rect codeLine="29" fill="#FEFECE" height="58.7422" id="UIView" style="stroke:#A80036;stroke-width:1.5;" width="100" x="607" y="142.5"/><ellipse cx="622" cy="161.4688" fill="#DA70D6" rx="11" ry="11" style="stroke:#A80036;stroke-width:1.0;"/><path d="M623.1875,161.4219 L625.8594,158.25 C626.4531,158.2344 626.8281,157.9375 626.8281,157.4063 C626.8281,157.1406 626.7031,156.875 626.4688,156.7031 C626.2969,156.5938 626.1563,156.5625 625.7031,156.5625 L624.1719,156.5625 C623.7969,156.5625 623.5313,156.6094 623.3906,156.7344 C623.1719,156.875 623.0313,157.1563 623.0313,157.4063 C623.0313,157.7813 623.2031,158 623.6875,158.2344 L622.0938,160.0938 L620.4844,158.2344 C620.9844,158 621.125,157.7813 621.125,157.4063 C621.125,157.1406 621,156.875 620.7813,156.7031 C620.6094,156.5938 620.4688,156.5625 619.9844,156.5625 L618.4375,156.5625 C618.3281,156.5625 618.3125,156.5625 618.1094,156.5938 C617.6094,156.6406 617.3281,156.9531 617.3281,157.4063 C617.3281,157.9219 617.6875,158.2188 618.3125,158.25 L621,161.4063 L618.1719,164.7656 C617.5469,164.7656 617.1719,165.0938 617.1719,165.625 C617.1719,165.8906 617.3125,166.1406 617.5313,166.3125 C617.6875,166.4219 617.8906,166.4688 618.2969,166.4688 L620.1719,166.4688 C620.5313,166.4688 620.75,166.4375 620.8906,166.3438 C621.1406,166.2031 621.2969,165.9063 621.2969,165.625 C621.2969,165.1094 620.9688,164.7969 620.3906,164.7656 L622.1094,162.7344 L623.8281,164.7656 C623.2344,164.7969 622.9063,165.1094 622.9063,165.625 C622.9063,166.1875 623.2656,166.4688 624.0156,166.4688 L625.9063,166.4688 C626.2656,166.4688 626.4844,166.4375 626.625,166.3438 C626.875,166.2031 627.0313,165.9063 627.0313,165.625 C627.0313,165.0938 626.6719,164.7813 626.0313,164.7656 L623.1875,161.4219 Z " fill="#000000"/><text fill="#000000" font-family="sans-serif" font-size="12" font-style="italic" lengthAdjust="spacing" textLength="72" x="634" y="158.6387">«extension»</text><text fill="#000000" font-family="sans-serif" font-size="12" lengthAdjust="spacing" textLength="41" x="649.5" y="172.6074">UIView</text><line style="stroke:#A80036;stroke-width:1.5;" x1="608" x2="706" y1="180.4375" y2="180.4375"/><ellipse cx="618" cy="191.4375" fill="#84BE84" rx="3" ry="3" style="stroke:#038048;stroke-width:1.0;"/><text fill="#000000" font-family="sans-serif" font-size="11" lengthAdjust="spacing" textLength="73" x="627" y="194.6479">style(styles:)</text><!--MD5=[03171120f08f3ab855bc6f58992d0e76]
class AppStyles--><rect codeLine="32" fill="#FEFECE" height="105.1563" id="AppStyles" style="stroke:#A80036;stroke-width:1.5;" width="252" x="742" y="119.5"/><ellipse cx="833.25" cy="138.4688" fill="#87CEEB" rx="11" ry="11" style="stroke:#A80036;stroke-width:1.0;"/><path d="M837.0313,134.4375 C837.0313,134 837.0156,133.8594 836.9219,133.7031 C836.7813,133.4688 836.5,133.3125 836.2031,133.3125 C835.8594,133.3125 835.7188,133.4531 835.5469,133.875 C834.9531,133.5 834.2031,133.3125 833.3281,133.3125 C831.2188,133.3125 829.6406,134.6094 829.6406,136.3281 C829.6406,137.2969 830.1719,138.2031 831.0313,138.6875 C831.5781,139 832.125,139.1719 833.2344,139.3594 C834.3906,139.5625 834.6563,139.625 835.0156,139.8125 C835.3906,140.0156 835.625,140.3594 835.625,140.7188 C835.625,141.4531 834.6406,142 833.3906,142 C832.2656,142 831.1875,141.5156 831.0156,140.9063 C830.8906,140.4375 830.8906,140.4375 830.7656,140.3281 C830.6094,140.1719 830.3906,140.0781 830.1563,140.0781 C829.875,140.0781 829.625,140.2031 829.4531,140.4219 C829.3438,140.5938 829.2969,140.7813 829.2969,141.2031 L829.2969,142.3281 C829.2969,143.0938 829.5781,143.4531 830.1719,143.4531 C830.4375,143.4531 830.5625,143.3906 830.8438,143.0469 C831.6875,143.4844 832.5781,143.7031 833.5,143.7031 C835.8281,143.7031 837.3906,142.5156 837.3906,140.75 C837.3906,139.8594 837.0781,139.1719 836.3906,138.625 C835.8594,138.2031 835.2188,137.9531 833.7344,137.6875 C832.4688,137.4531 832.375,137.4219 832.0469,137.25 C831.6719,137.0625 831.4063,136.6719 831.4063,136.3125 C831.4063,135.5781 832.2656,135.0156 833.3281,135.0156 C834.3906,135.0156 835.2031,135.4844 835.3594,136.1563 C835.4688,136.7031 835.4688,136.7031 835.5938,136.8438 C835.7344,136.9688 835.9688,137.0781 836.2031,137.0781 C836.4688,137.0781 836.7188,136.9375 836.8906,136.7188 C837,136.5469 837.0313,136.4063 837.0313,135.9375 L837.0313,134.4375 Z " fill="#000000"/><text fill="#000000" font-family="sans-serif" font-size="12" font-style="italic" lengthAdjust="spacing" textLength="50" x="859.25" y="135.6387">«struct»</text><text fill="#000000" font-family="sans-serif" font-size="12" lengthAdjust="spacing" textLength="61" x="853.75" y="149.6074">AppStyles</text><line style="stroke:#A80036;stroke-width:1.5;" x1="743" x2="993" y1="157.4375" y2="157.4375"/><ellipse cx="753" cy="168.4375" rx="3" ry="3" style="stroke:#038048;stroke-width:1.0;fill:none;"/><text fill="#000000" font-family="sans-serif" font-size="11" lengthAdjust="spacing" textLength="69" x="762" y="171.6479">fonts : Fonts</text><ellipse cx="753" cy="181.2422" rx="3" ry="3" style="stroke:#038048;stroke-width:1.0;fill:none;"/><text fill="#000000" font-family="sans-serif" font-size="11" lengthAdjust="spacing" textLength="79" x="762" y="184.4526">colors : Colors</text><ellipse cx="753" cy="194.0469" rx="3" ry="3" style="stroke:#038048;stroke-width:1.0;fill:none;"/><text fill="#000000" font-family="sans-serif" font-size="11" lengthAdjust="spacing" textLength="226" x="762" y="197.2573">backgroundImages : BackgroundImages</text><line style="stroke:#A80036;stroke-width:1.5;" x1="743" x2="993" y1="203.8516" y2="203.8516"/><ellipse cx="753" cy="214.8516" fill="#84BE84" rx="3" ry="3" style="stroke:#038048;stroke-width:1.0;"/><text fill="#000000" font-family="sans-serif" font-size="11" lengthAdjust="spacing" text-decoration="underline" textLength="99" x="762" y="218.062">named(_:bundle:)</text><!--MD5=[9660fc9ef2badf9e14b42b86ec496ced]
class UINavigationBar--><rect codeLine="38" fill="#FEFECE" height="58.7422" id="UINavigationBar" style="stroke:#A80036;stroke-width:1.5;" width="126" x="7" y="142.5"/><ellipse cx="22" cy="161.4688" fill="#DA70D6" rx="11" ry="11" style="stroke:#A80036;stroke-width:1.0;"/><path d="M23.1875,161.4219 L25.8594,158.25 C26.4531,158.2344 26.8281,157.9375 26.8281,157.4063 C26.8281,157.1406 26.7031,156.875 26.4688,156.7031 C26.2969,156.5938 26.1563,156.5625 25.7031,156.5625 L24.1719,156.5625 C23.7969,156.5625 23.5313,156.6094 23.3906,156.7344 C23.1719,156.875 23.0313,157.1563 23.0313,157.4063 C23.0313,157.7813 23.2031,158 23.6875,158.2344 L22.0938,160.0938 L20.4844,158.2344 C20.9844,158 21.125,157.7813 21.125,157.4063 C21.125,157.1406 21,156.875 20.7813,156.7031 C20.6094,156.5938 20.4688,156.5625 19.9844,156.5625 L18.4375,156.5625 C18.3281,156.5625 18.3125,156.5625 18.1094,156.5938 C17.6094,156.6406 17.3281,156.9531 17.3281,157.4063 C17.3281,157.9219 17.6875,158.2188 18.3125,158.25 L21,161.4063 L18.1719,164.7656 C17.5469,164.7656 17.1719,165.0938 17.1719,165.625 C17.1719,165.8906 17.3125,166.1406 17.5313,166.3125 C17.6875,166.4219 17.8906,166.4688 18.2969,166.4688 L20.1719,166.4688 C20.5313,166.4688 20.75,166.4375 20.8906,166.3438 C21.1406,166.2031 21.2969,165.9063 21.2969,165.625 C21.2969,165.1094 20.9688,164.7969 20.3906,164.7656 L22.1094,162.7344 L23.8281,164.7656 C23.2344,164.7969 22.9063,165.1094 22.9063,165.625 C22.9063,166.1875 23.2656,166.4688 24.0156,166.4688 L25.9063,166.4688 C26.2656,166.4688 26.4844,166.4375 26.625,166.3438 C26.875,166.2031 27.0313,165.9063 27.0313,165.625 C27.0313,165.0938 26.6719,164.7813 26.0313,164.7656 L23.1875,161.4219 Z " fill="#000000"/><text fill="#000000" font-family="sans-serif" font-size="12" font-style="italic" lengthAdjust="spacing" textLength="72" x="47" y="158.6387">«extension»</text><text fill="#000000" font-family="sans-serif" font-size="12" lengthAdjust="spacing" textLength="94" x="36" y="172.6074">UINavigationBar</text><line style="stroke:#A80036;stroke-width:1.5;" x1="8" x2="132" y1="180.4375" y2="180.4375"/><ellipse cx="18" cy="191.4375" fill="#84BE84" rx="3" ry="3" style="stroke:#038048;stroke-width:1.0;"/><text fill="#000000" font-family="sans-serif" font-size="11" lengthAdjust="spacing" textLength="76" x="27" y="194.6479">apply(styles:)</text><!--MD5=[5ac917159cb2ba758bfa1a9de1ff80dc]
class UIToolbar--><rect codeLine="41" fill="#FEFECE" height="58.7422" id="UIToolbar" style="stroke:#A80036;stroke-width:1.5;" width="102" x="168" y="142.5"/><ellipse cx="183.9" cy="161.4688" fill="#DA70D6" rx="11" ry="11" style="stroke:#A80036;stroke-width:1.0;"/><path d="M185.0875,161.4219 L187.7594,158.25 C188.3531,158.2344 188.7281,157.9375 188.7281,157.4063 C188.7281,157.1406 188.6031,156.875 188.3688,156.7031 C188.1969,156.5938 188.0563,156.5625 187.6031,156.5625 L186.0719,156.5625 C185.6969,156.5625 185.4313,156.6094 185.2906,156.7344 C185.0719,156.875 184.9313,157.1563 184.9313,157.4063 C184.9313,157.7813 185.1031,158 185.5875,158.2344 L183.9938,160.0938 L182.3844,158.2344 C182.8844,158 183.025,157.7813 183.025,157.4063 C183.025,157.1406 182.9,156.875 182.6813,156.7031 C182.5094,156.5938 182.3688,156.5625 181.8844,156.5625 L180.3375,156.5625 C180.2281,156.5625 180.2125,156.5625 180.0094,156.5938 C179.5094,156.6406 179.2281,156.9531 179.2281,157.4063 C179.2281,157.9219 179.5875,158.2188 180.2125,158.25 L182.9,161.4063 L180.0719,164.7656 C179.4469,164.7656 179.0719,165.0938 179.0719,165.625 C179.0719,165.8906 179.2125,166.1406 179.4313,166.3125 C179.5875,166.4219 179.7906,166.4688 180.1969,166.4688 L182.0719,166.4688 C182.4313,166.4688 182.65,166.4375 182.7906,166.3438 C183.0406,166.2031 183.1969,165.9063 183.1969,165.625 C183.1969,165.1094 182.8688,164.7969 182.2906,164.7656 L184.0094,162.7344 L185.7281,164.7656 C185.1344,164.7969 184.8063,165.1094 184.8063,165.625 C184.8063,166.1875 185.1656,166.4688 185.9156,166.4688 L187.8063,166.4688 C188.1656,166.4688 188.3844,166.4375 188.525,166.3438 C188.775,166.2031 188.9313,165.9063 188.9313,165.625 C188.9313,165.0938 188.5719,164.7813 187.9313,164.7656 L185.0875,161.4219 Z " fill="#000000"/><text fill="#000000" font-family="sans-serif" font-size="12" font-style="italic" lengthAdjust="spacing" textLength="72" x="196.1" y="158.6387">«extension»</text><text fill="#000000" font-family="sans-serif" font-size="12" lengthAdjust="spacing" textLength="58" x="203.1" y="172.6074">UIToolbar</text><line style="stroke:#A80036;stroke-width:1.5;" x1="169" x2="269" y1="180.4375" y2="180.4375"/><ellipse cx="179" cy="191.4375" fill="#84BE84" rx="3" ry="3" style="stroke:#038048;stroke-width:1.0;"/><text fill="#000000" font-family="sans-serif" font-size="11" lengthAdjust="spacing" textLength="76" x="188" y="194.6479">apply(styles:)</text><!--MD5=[020f8ca1ec51bd793403f8f1dcdc0a99]
class UISearchBar--><rect codeLine="44" fill="#FEFECE" height="58.7422" id="UISearchBar" style="stroke:#A80036;stroke-width:1.5;" width="106" x="305" y="142.5"/><ellipse cx="320" cy="161.4688" fill="#DA70D6" rx="11" ry="11" style="stroke:#A80036;stroke-width:1.0;"/><path d="M321.1875,161.4219 L323.8594,158.25 C324.4531,158.2344 324.8281,157.9375 324.8281,157.4063 C324.8281,157.1406 324.7031,156.875 324.4688,156.7031 C324.2969,156.5938 324.1563,156.5625 323.7031,156.5625 L322.1719,156.5625 C321.7969,156.5625 321.5313,156.6094 321.3906,156.7344 C321.1719,156.875 321.0313,157.1563 321.0313,157.4063 C321.0313,157.7813 321.2031,158 321.6875,158.2344 L320.0938,160.0938 L318.4844,158.2344 C318.9844,158 319.125,157.7813 319.125,157.4063 C319.125,157.1406 319,156.875 318.7813,156.7031 C318.6094,156.5938 318.4688,156.5625 317.9844,156.5625 L316.4375,156.5625 C316.3281,156.5625 316.3125,156.5625 316.1094,156.5938 C315.6094,156.6406 315.3281,156.9531 315.3281,157.4063 C315.3281,157.9219 315.6875,158.2188 316.3125,158.25 L319,161.4063 L316.1719,164.7656 C315.5469,164.7656 315.1719,165.0938 315.1719,165.625 C315.1719,165.8906 315.3125,166.1406 315.5313,166.3125 C315.6875,166.4219 315.8906,166.4688 316.2969,166.4688 L318.1719,166.4688 C318.5313,166.4688 318.75,166.4375 318.8906,166.3438 C319.1406,166.2031 319.2969,165.9063 319.2969,165.625 C319.2969,165.1094 318.9688,164.7969 318.3906,164.7656 L320.1094,162.7344 L321.8281,164.7656 C321.2344,164.7969 320.9063,165.1094 320.9063,165.625 C320.9063,166.1875 321.2656,166.4688 322.0156,166.4688 L323.9063,166.4688 C324.2656,166.4688 324.4844,166.4375 324.625,166.3438 C324.875,166.2031 325.0313,165.9063 325.0313,165.625 C325.0313,165.0938 324.6719,164.7813 324.0313,164.7656 L321.1875,161.4219 Z " fill="#000000"/><text fill="#000000" font-family="sans-serif" font-size="12" font-style="italic" lengthAdjust="spacing" textLength="72" x="335" y="158.6387">«extension»</text><text fill="#000000" font-family="sans-serif" font-size="12" lengthAdjust="spacing" textLength="74" x="334" y="172.6074">UISearchBar</text><line style="stroke:#A80036;stroke-width:1.5;" x1="306" x2="410" y1="180.4375" y2="180.4375"/><ellipse cx="316" cy="191.4375" fill="#84BE84" rx="3" ry="3" style="stroke:#038048;stroke-width:1.0;"/><text fill="#000000" font-family="sans-serif" font-size="11" lengthAdjust="spacing" textLength="76" x="325" y="194.6479">apply(styles:)</text><!--MD5=[5f36e38305fbc867dc9de437c3a193ae]
class FontBook--><rect codeLine="47" fill="#FEFECE" height="329.7031" id="FontBook" style="stroke:#A80036;stroke-width:1.5;" width="299" x="1029.5" y="7"/><ellipse cx="1146.25" cy="23" fill="#8FBC8F" rx="11" ry="11" style="stroke:#A80036;stroke-width:1.0;"/><path d="M1148.5938,18.6719 C1147.6563,18.2344 1147.0625,18.0938 1146.1875,18.0938 C1143.5625,18.0938 1141.5625,20.1719 1141.5625,22.8906 L1141.5625,24.0156 C1141.5625,26.5938 1143.6719,28.4844 1146.5625,28.4844 C1147.7813,28.4844 1148.9375,28.1875 1149.6875,27.6406 C1150.2656,27.2344 1150.5938,26.7813 1150.5938,26.3906 C1150.5938,25.9375 1150.2031,25.5469 1149.7344,25.5469 C1149.5156,25.5469 1149.3125,25.625 1149.125,25.8125 C1148.6719,26.2969 1148.6719,26.2969 1148.4844,26.3906 C1148.0625,26.6563 1147.375,26.7813 1146.6094,26.7813 C1144.5625,26.7813 1143.2656,25.6875 1143.2656,23.9844 L1143.2656,22.8906 C1143.2656,21.1094 1144.5156,19.7969 1146.25,19.7969 C1146.8281,19.7969 1147.4375,19.9531 1147.9063,20.2031 C1148.3906,20.4844 1148.5625,20.7031 1148.6563,21.1094 C1148.7188,21.5156 1148.75,21.6406 1148.8906,21.7656 C1149.0313,21.9063 1149.2656,22.0156 1149.4844,22.0156 C1149.75,22.0156 1150.0156,21.875 1150.1875,21.6563 C1150.2969,21.5 1150.3281,21.3125 1150.3281,20.8906 L1150.3281,19.4688 C1150.3281,19.0313 1150.3125,18.9063 1150.2188,18.75 C1150.0625,18.4844 1149.7813,18.3438 1149.4844,18.3438 C1149.1875,18.3438 1148.9844,18.4375 1148.7656,18.75 L1148.5938,18.6719 Z " fill="#000000"/><text fill="#000000" font-family="sans-serif" font-size="12" lengthAdjust="spacing" textLength="57" x="1166.75" y="27.1543">FontBook</text><line style="stroke:#A80036;stroke-width:1.5;" x1="1030.5" x2="1327.5" y1="39" y2="39"/><polygon fill="none" points="1040.5,46,1036.5,52,1044.5,52" style="stroke:#1963A0;stroke-width:1.0;"/><text fill="#000000" font-family="sans-serif" font-size="11" lengthAdjust="spacing" textLength="119" x="1049.5" y="53.2104">familyName : String?</text><polygon fill="none" points="1040.5,58.8047,1036.5,64.8047,1044.5,64.8047" style="stroke:#1963A0;stroke-width:1.0;"/><text fill="#000000" font-family="sans-serif" font-size="11" lengthAdjust="spacing" textLength="91" x="1049.5" y="66.0151">scale : CGFloat?</text><polygon fill="none" points="1040.5,71.6094,1036.5,77.6094,1044.5,77.6094" style="stroke:#1963A0;stroke-width:1.0;"/><text fill="#000000" font-family="sans-serif" font-size="11" lengthAdjust="spacing" textLength="273" x="1049.5" y="78.8198">systemDesign : UIFontDescriptor.SystemDesign</text><polygon fill="none" points="1040.5,84.4141,1036.5,90.4141,1044.5,90.4141" style="stroke:#1963A0;stroke-width:1.0;"/><text fill="#000000" font-family="sans-serif" font-size="11" lengthAdjust="spacing" textLength="213" x="1049.5" y="91.6245">fontCache : [UIFont.TextStyle: UIFont]</text><ellipse cx="1040.5" cy="101.2188" rx="3" ry="3" style="stroke:#038048;stroke-width:1.0;fill:none;"/><text fill="#000000" font-family="sans-serif" font-size="11" lengthAdjust="spacing" textLength="100" x="1049.5" y="104.4292">largeTitle : UIFont</text><ellipse cx="1040.5" cy="114.0234" rx="3" ry="3" style="stroke:#038048;stroke-width:1.0;fill:none;"/><text fill="#000000" font-family="sans-serif" font-size="11" lengthAdjust="spacing" textLength="75" x="1049.5" y="117.2339">title1 : UIFont</text><ellipse cx="1040.5" cy="126.8281" rx="3" ry="3" style="stroke:#038048;stroke-width:1.0;fill:none;"/><text fill="#000000" font-family="sans-serif" font-size="11" lengthAdjust="spacing" textLength="75" x="1049.5" y="130.0386">title2 : UIFont</text><ellipse cx="1040.5" cy="139.6328" rx="3" ry="3" style="stroke:#038048;stroke-width:1.0;fill:none;"/><text fill="#000000" font-family="sans-serif" font-size="11" lengthAdjust="spacing" textLength="75" x="1049.5" y="142.8433">title3 : UIFont</text><ellipse cx="1040.5" cy="152.4375" rx="3" ry="3" style="stroke:#038048;stroke-width:1.0;fill:none;"/><text fill="#000000" font-family="sans-serif" font-size="11" lengthAdjust="spacing" textLength="96" x="1049.5" y="155.6479">headline : UIFont</text><ellipse cx="1040.5" cy="165.2422" rx="3" ry="3" style="stroke:#038048;stroke-width:1.0;fill:none;"/><text fill="#000000" font-family="sans-serif" font-size="11" lengthAdjust="spacing" textLength="116" x="1049.5" y="168.4526">subheadline : UIFont</text><ellipse cx="1040.5" cy="178.0469" rx="3" ry="3" style="stroke:#038048;stroke-width:1.0;fill:none;"/><text fill="#000000" font-family="sans-serif" font-size="11" lengthAdjust="spacing" textLength="74" x="1049.5" y="181.2573">body : UIFont</text><ellipse cx="1040.5" cy="190.8516" rx="3" ry="3" style="stroke:#038048;stroke-width:1.0;fill:none;"/><text fill="#000000" font-family="sans-serif" font-size="11" lengthAdjust="spacing" textLength="83" x="1049.5" y="194.062">callout : UIFont</text><ellipse cx="1040.5" cy="203.6563" rx="3" ry="3" style="stroke:#038048;stroke-width:1.0;fill:none;"/><text fill="#000000" font-family="sans-serif" font-size="11" lengthAdjust="spacing" textLength="94" x="1049.5" y="206.8667">footnote : UIFont</text><ellipse cx="1040.5" cy="216.4609" rx="3" ry="3" style="stroke:#038048;stroke-width:1.0;fill:none;"/><text fill="#000000" font-family="sans-serif" font-size="11" lengthAdjust="spacing" textLength="94" x="1049.5" y="219.6714">caption1 : UIFont</text><ellipse cx="1040.5" cy="229.2656" rx="3" ry="3" style="stroke:#038048;stroke-width:1.0;fill:none;"/><text fill="#000000" font-family="sans-serif" font-size="11" lengthAdjust="spacing" textLength="94" x="1049.5" y="232.4761">caption2 : UIFont</text><ellipse cx="1040.5" cy="242.0703" rx="3" ry="3" style="stroke:#038048;stroke-width:1.0;fill:none;"/><text fill="#000000" font-family="sans-serif" font-size="11" lengthAdjust="spacing" textLength="32" x="1049.5" y="245.2808">deinit</text><line style="stroke:#A80036;stroke-width:1.5;" x1="1030.5" x2="1327.5" y1="251.875" y2="251.875"/><rect fill="#F24D5C" height="6" style="stroke:#C82930;stroke-width:1.0;" width="6" x="1037.5" y="259.875"/><text fill="#000000" font-family="sans-serif" font-size="11" lengthAdjust="spacing" textLength="112" x="1049.5" y="266.0854">buildCache(design:)</text><rect fill="#F24D5C" height="6" style="stroke:#C82930;stroke-width:1.0;" width="6" x="1037.5" y="272.6797"/><text fill="#000000" font-family="sans-serif" font-size="11" lengthAdjust="spacing" textLength="86" x="1049.5" y="278.8901">font(textStyle:)</text><rect fill="#F24D5C" height="6" style="stroke:#C82930;stroke-width:1.0;" width="6" x="1037.5" y="285.4844"/><text fill="#000000" font-family="sans-serif" font-size="11" lengthAdjust="spacing" text-decoration="underline" textLength="108" x="1049.5" y="291.6948">systemDesign(for:)</text><ellipse cx="1040.5" cy="301.2891" fill="#84BE84" rx="3" ry="3" style="stroke:#038048;stroke-width:1.0;"/><text fill="#000000" font-family="sans-serif" font-size="11" lengthAdjust="spacing" textLength="215" x="1049.5" y="304.4995">init(familyName:systemDesign:scale:)</text><ellipse cx="1040.5" cy="314.0938" fill="#84BE84" rx="3" ry="3" style="stroke:#038048;stroke-width:1.0;"/><text fill="#000000" font-family="sans-serif" font-size="11" lengthAdjust="spacing" textLength="54" x="1049.5" y="317.3042">init(from:)</text><polygon fill="#4177AF" points="1040.5,322.8984,1036.5,328.8984,1044.5,328.8984" style="stroke:#1963A0;stroke-width:1.0;"/><text fill="#000000" font-family="sans-serif" font-size="11" lengthAdjust="spacing" textLength="186" x="1049.5" y="330.1089">contentSizeCategoryUpdated(_:)</text><!--MD5=[625eb5fdd814536c712f9f96ffbf9401]
class AnyObject--><rect fill="#FEFECE" height="32" id="AnyObject" style="stroke:#A80036;stroke-width:1.5;" width="94" x="305" y="563.5"/><ellipse cx="320" cy="579.5" fill="#ADD1B2" rx="11" ry="11" style="stroke:#A80036;stroke-width:1.0;"/><path d="M322.3438,575.1719 C321.4063,574.7344 320.8125,574.5938 319.9375,574.5938 C317.3125,574.5938 315.3125,576.6719 315.3125,579.3906 L315.3125,580.5156 C315.3125,583.0938 317.4219,584.9844 320.3125,584.9844 C321.5313,584.9844 322.6875,584.6875 323.4375,584.1406 C324.0156,583.7344 324.3438,583.2813 324.3438,582.8906 C324.3438,582.4375 323.9531,582.0469 323.4844,582.0469 C323.2656,582.0469 323.0625,582.125 322.875,582.3125 C322.4219,582.7969 322.4219,582.7969 322.2344,582.8906 C321.8125,583.1563 321.125,583.2813 320.3594,583.2813 C318.3125,583.2813 317.0156,582.1875 317.0156,580.4844 L317.0156,579.3906 C317.0156,577.6094 318.2656,576.2969 320,576.2969 C320.5781,576.2969 321.1875,576.4531 321.6563,576.7031 C322.1406,576.9844 322.3125,577.2031 322.4063,577.6094 C322.4688,578.0156 322.5,578.1406 322.6406,578.2656 C322.7813,578.4063 323.0156,578.5156 323.2344,578.5156 C323.5,578.5156 323.7656,578.375 323.9375,578.1563 C324.0469,578 324.0781,577.8125 324.0781,577.3906 L324.0781,575.9688 C324.0781,575.5313 324.0625,575.4063 323.9688,575.25 C323.8125,574.9844 323.5313,574.8438 323.2344,574.8438 C322.9375,574.8438 322.7344,574.9375 322.5156,575.25 L322.3438,575.1719 Z " fill="#000000"/><text fill="#000000" font-family="sans-serif" font-size="12" lengthAdjust="spacing" textLength="62" x="334" y="583.6543">AnyObject</text><!--MD5=[2449a81cbe032e9f5be390df60183171]
class Codable--><rect fill="#FEFECE" height="32" id="Codable" style="stroke:#A80036;stroke-width:1.5;" width="82" x="982" y="427.5"/><ellipse cx="997" cy="443.5" fill="#ADD1B2" rx="11" ry="11" style="stroke:#A80036;stroke-width:1.0;"/><path d="M999.3438,439.1719 C998.4063,438.7344 997.8125,438.5938 996.9375,438.5938 C994.3125,438.5938 992.3125,440.6719 992.3125,443.3906 L992.3125,444.5156 C992.3125,447.0938 994.4219,448.9844 997.3125,448.9844 C998.5313,448.9844 999.6875,448.6875 1000.4375,448.1406 C1001.0156,447.7344 1001.3438,447.2813 1001.3438,446.8906 C1001.3438,446.4375 1000.9531,446.0469 1000.4844,446.0469 C1000.2656,446.0469 1000.0625,446.125 999.875,446.3125 C999.4219,446.7969 999.4219,446.7969 999.2344,446.8906 C998.8125,447.1563 998.125,447.2813 997.3594,447.2813 C995.3125,447.2813 994.0156,446.1875 994.0156,444.4844 L994.0156,443.3906 C994.0156,441.6094 995.2656,440.2969 997,440.2969 C997.5781,440.2969 998.1875,440.4531 998.6563,440.7031 C999.1406,440.9844 999.3125,441.2031 999.4063,441.6094 C999.4688,442.0156 999.5,442.1406 999.6406,442.2656 C999.7813,442.4063 1000.0156,442.5156 1000.2344,442.5156 C1000.5,442.5156 1000.7656,442.375 1000.9375,442.1563 C1001.0469,442 1001.0781,441.8125 1001.0781,441.3906 L1001.0781,439.9688 C1001.0781,439.5313 1001.0625,439.4063 1000.9688,439.25 C1000.8125,438.9844 1000.5313,438.8438 1000.2344,438.8438 C999.9375,438.8438 999.7344,438.9375 999.5156,439.25 L999.3438,439.1719 Z " fill="#000000"/><text fill="#000000" font-family="sans-serif" font-size="12" lengthAdjust="spacing" textLength="50" x="1011" y="447.6543">Codable</text><!--MD5=[4c1ce7278a0e132eb41370ca52c05568]
link Stylable to AnyObject--><path codeLine="71" d="M247.532,473.246 C269.75,495.632 300.473,526.5855 322.848,549.1285 " fill="none" id="Stylable-to-AnyObject" style="stroke:#A80036;stroke-width:1.0;stroke-dasharray:7.0,7.0;"/><polygon fill="none" points="327.989,544.3721,337.11,563.4983,318.053,554.2345,327.989,544.3721" style="stroke:#A80036;stroke-width:1.0;"/><text fill="#000000" font-family="sans-serif" font-size="13" lengthAdjust="spacing" textLength="47" x="295" y="516.0669">inherits</text><!--MD5=[bb25aee9e3f02745b402461ba3083e19]
link AppStyles to Codable--><path codeLine="72" d="M897.702,224.643 C929.167,279.352 977.878,364.046 1004.342,410.059 " fill="none" id="AppStyles-to-Codable" style="stroke:#A80036;stroke-width:1.0;"/><polygon fill="none" points="1010.45,406.64,1014.35,427.467,998.315,413.62,1010.45,406.64" style="stroke:#A80036;stroke-width:1.0;"/><text fill="#000000" font-family="sans-serif" font-size="13" lengthAdjust="spacing" textLength="47" x="987" y="380.0669">inherits</text><!--MD5=[31a11e91431015bcd891ba04bb9e3b7a]
link UINavigationBar to Stylable--><path codeLine="73" d="M73.0397,201.55 C78.8487,244.721 94.845,327.555 136,384 C140.658,390.388 146.23,396.333 152.254,401.794 " fill="none" id="UINavigationBar-to-Stylable" style="stroke:#A80036;stroke-width:1.0;stroke-dasharray:7.0,7.0;"/><polygon fill="none" points="156.681,396.371,167.895,414.35,147.917,407.289,156.681,396.371" style="stroke:#A80036;stroke-width:1.0;"/><text fill="#000000" font-family="sans-serif" font-size="13" lengthAdjust="spacing" textLength="73" x="137" y="380.0669">conforms to</text><!--MD5=[8f86ca7cea103009993466416ba00d5c]
link UIToolbar to Stylable--><path codeLine="74" d="M219,201.586 C219,247.371 219,337.689 219,393.794 " fill="none" id="UIToolbar-to-Stylable" style="stroke:#A80036;stroke-width:1.0;stroke-dasharray:7.0,7.0;"/><polygon fill="none" points="226,393.801,219,413.801,212,393.801,226,393.801" style="stroke:#A80036;stroke-width:1.0;"/><text fill="#000000" font-family="sans-serif" font-size="13" lengthAdjust="spacing" textLength="73" x="220" y="380.0669">conforms to</text><!--MD5=[49d1955d54eaebb886be252455562f19]
link UISearchBar to Stylable--><path codeLine="75" d="M356.546,201.508 C353.088,244.625 341.41,327.388 302,384 C297.428,390.567 291.868,396.645 285.814,402.2 " fill="none" id="UISearchBar-to-Stylable" style="stroke:#A80036;stroke-width:1.0;stroke-dasharray:7.0,7.0;"/><polygon fill="none" points="289.997,407.82,270.03,414.913,281.215,396.916,289.997,407.82" style="stroke:#A80036;stroke-width:1.0;"/><text fill="#000000" font-family="sans-serif" font-size="13" lengthAdjust="spacing" textLength="73" x="313" y="380.0669">conforms to</text><!--MD5=[f7c5820c25193c9f56ad736db0655ad2]
link FontBook to Codable--><path codeLine="76" d="M1083.98,337.146 C1067.93,364.88 1052.89,390.868 1041.76,410.094 " fill="none" id="FontBook-to-Codable" style="stroke:#A80036;stroke-width:1.0;"/><polygon fill="none" points="1047.78,413.668,1031.7,427.471,1035.66,406.655,1047.78,413.668" style="stroke:#A80036;stroke-width:1.0;"/><text fill="#000000" font-family="sans-serif" font-size="13" lengthAdjust="spacing" textLength="47" x="1066" y="380.0669">inherits</text><!--MD5=[6c72dfef134b25785c1d9a03be61bc12]
reverse link Stylable to Stylable0--><path codeLine="77" d="M186.022,476.756 C163.263,499.017 133.271,528.3519 111.341,549.8012 " fill="none" id="Stylable-backto-Stylable0" style="stroke:#A80036;stroke-width:1.0;stroke-dasharray:7.0,7.0;"/><polygon fill="#A80036" points="189.61,473.246,180.3789,476.6792,186.0354,476.742,185.9725,482.3985,189.61,473.246" style="stroke:#A80036;stroke-width:1.0;"/><text fill="#000000" font-family="sans-serif" font-size="13" lengthAdjust="spacing" textLength="21" x="160" y="516.0669">ext</text><!--MD5=[467044a8724807dcd8499b535b7cf7ab]
reverse link Stylable to Stylable1--><path codeLine="78" d="M219,478.418 C219,500.461 219,528.8815 219,549.8012 " fill="none" id="Stylable-backto-Stylable1" style="stroke:#A80036;stroke-width:1.0;stroke-dasharray:7.0,7.0;"/><polygon fill="#A80036" points="219,473.246,215,482.246,219,478.246,223,482.246,219,473.246" style="stroke:#A80036;stroke-width:1.0;"/><text fill="#000000" font-family="sans-serif" font-size="13" lengthAdjust="spacing" textLength="21" x="220" y="516.0669">ext</text><!--MD5=[20341687abfad7045a81180f2e288574]
@startuml

' STYLE START
hide empty members
skinparam shadowing false
' STYLE END


class "Stylable" as Stylable << (P, GoldenRod) protocol >> { 
  +apply(styles:) 
}
class "Stylable" as Stylable0 << (X, Orchid) extension >> { 
  +apply(styles:) 
}
class "Stylable" as Stylable1 << (X, Orchid) extension >> { 
  +apply(styles:) 
}
class "UIFont" as UIFont << (X, Orchid) extension >> { 
  +fontWith(weight:)
  +ultralight : UIFont
  +thin : UIFont
  +light : UIFont
  +regular : UIFont
  +medium : UIFont
  +semiBold : UIFont
  +bold : UIFont
  +heavy : UIFont
  +black : UIFont 
}
class "UIView" as UIView << (X, Orchid) extension >> { 
  +style(styles:) 
}
class "AppStyles" as AppStyles << (S, SkyBlue) struct >> { 
  +fonts : Fonts
  +colors : Colors
  +backgroundImages : BackgroundImages
  +{static} named(_:bundle:) 
}
class "UINavigationBar" as UINavigationBar << (X, Orchid) extension >> { 
  +apply(styles:) 
}
class "UIToolbar" as UIToolbar << (X, Orchid) extension >> { 
  +apply(styles:) 
}
class "UISearchBar" as UISearchBar << (X, Orchid) extension >> { 
  +apply(styles:) 
}
class "FontBook" as FontBook << (C, DarkSeaGreen) >> { 
  ~familyName : String?
  ~scale : CGFloat?
  ~systemDesign : UIFontDescriptor.SystemDesign
  ~fontCache : [UIFont.TextStyle: UIFont]
  +largeTitle : UIFont
  +title1 : UIFont
  +title2 : UIFont
  +title3 : UIFont
  +headline : UIFont
  +subheadline : UIFont
  +body : UIFont
  +callout : UIFont
  +footnote : UIFont
  +caption1 : UIFont
  +caption2 : UIFont
  -buildCache(design:)
  -font(textStyle:)
  -{static} systemDesign(for:)
  +init(familyName:systemDesign:scale:)
  +init(from:)
  ~contentSizeCategoryUpdated(_:)
  +deinit 
}
Stylable ..|> AnyObject : inherits
AppStyles - -|> Codable : inherits
UINavigationBar ..|> Stylable : conforms to
UIToolbar ..|> Stylable : conforms to
UISearchBar ..|> Stylable : conforms to
FontBook - -|> Codable : inherits
Stylable <.. Stylable0 : ext
Stylable <.. Stylable1 : ext
@enduml

@startuml

hide empty members
skinparam shadowing false


class "Stylable" as Stylable << (P, GoldenRod) protocol >> { 
  +apply(styles:) 
}
class "Stylable" as Stylable0 << (X, Orchid) extension >> { 
  +apply(styles:) 
}
class "Stylable" as Stylable1 << (X, Orchid) extension >> { 
  +apply(styles:) 
}
class "UIFont" as UIFont << (X, Orchid) extension >> { 
  +fontWith(weight:)
  +ultralight : UIFont
  +thin : UIFont
  +light : UIFont
  +regular : UIFont
  +medium : UIFont
  +semiBold : UIFont
  +bold : UIFont
  +heavy : UIFont
  +black : UIFont 
}
class "UIView" as UIView << (X, Orchid) extension >> { 
  +style(styles:) 
}
class "AppStyles" as AppStyles << (S, SkyBlue) struct >> { 
  +fonts : Fonts
  +colors : Colors
  +backgroundImages : BackgroundImages
  +{static} named(_:bundle:) 
}
class "UINavigationBar" as UINavigationBar << (X, Orchid) extension >> { 
  +apply(styles:) 
}
class "UIToolbar" as UIToolbar << (X, Orchid) extension >> { 
  +apply(styles:) 
}
class "UISearchBar" as UISearchBar << (X, Orchid) extension >> { 
  +apply(styles:) 
}
class "FontBook" as FontBook << (C, DarkSeaGreen) >> { 
  ~familyName : String?
  ~scale : CGFloat?
  ~systemDesign : UIFontDescriptor.SystemDesign
  ~fontCache : [UIFont.TextStyle: UIFont]
  +largeTitle : UIFont
  +title1 : UIFont
  +title2 : UIFont
  +title3 : UIFont
  +headline : UIFont
  +subheadline : UIFont
  +body : UIFont
  +callout : UIFont
  +footnote : UIFont
  +caption1 : UIFont
  +caption2 : UIFont
  -buildCache(design:)
  -font(textStyle:)
  -{static} systemDesign(for:)
  +init(familyName:systemDesign:scale:)
  +init(from:)
  ~contentSizeCategoryUpdated(_:)
  +deinit 
}
Stylable ..|> AnyObject : inherits
AppStyles - -|> Codable : inherits
UINavigationBar ..|> Stylable : conforms to
UIToolbar ..|> Stylable : conforms to
UISearchBar ..|> Stylable : conforms to
FontBook - -|> Codable : inherits
Stylable <.. Stylable0 : ext
Stylable <.. Stylable1 : ext
@enduml

PlantUML version 1.2021.7(Sun May 23 12:40:07 UTC 2021)
(GPL source distribution)
Java Runtime: Java(TM) SE Runtime Environment
JVM: Java HotSpot(TM) 64-Bit Server VM
Default Encoding: UTF-8
Language: en
Country: US
--></g></svg>