<?xml version="1.0" encoding="UTF-8" standalone="no"?><svg xmlns="http://www.w3.org/2000/svg" xmlns:xlink="http://www.w3.org/1999/xlink" contentScriptType="application/ecmascript" contentStyleType="text/css" height="460px" preserveAspectRatio="none" style="width:1539px;height:460px;background:#FFFFFF;" version="1.1" viewBox="0 0 1539 460" width="1539px" zoomAndPan="magnify"><defs/><g><!--MD5=[f133e0a240d8b2e6edf8be9a9b13730e]
class PropertyListings--><rect codeLine="8" fill="#FEFECE" height="84.3516" id="PropertyListings" style="stroke:#A80036;stroke-width:1.5;" width="241" x="9" y="40"/><ellipse cx="77.25" cy="58.9688" fill="#87CEEB" rx="11" ry="11" style="stroke:#A80036;stroke-width:1.0;"/><path d="M81.0313,54.9375 C81.0313,54.5 81.0156,54.3594 80.9219,54.2031 C80.7813,53.9688 80.5,53.8125 80.2031,53.8125 C79.8594,53.8125 79.7188,53.9531 79.5469,54.375 C78.9531,54 78.2031,53.8125 77.3281,53.8125 C75.2188,53.8125 73.6406,55.1094 73.6406,56.8281 C73.6406,57.7969 74.1719,58.7031 75.0313,59.1875 C75.5781,59.5 76.125,59.6719 77.2344,59.8594 C78.3906,60.0625 78.6563,60.125 79.0156,60.3125 C79.3906,60.5156 79.625,60.8594 79.625,61.2188 C79.625,61.9531 78.6406,62.5 77.3906,62.5 C76.2656,62.5 75.1875,62.0156 75.0156,61.4063 C74.8906,60.9375 74.8906,60.9375 74.7656,60.8281 C74.6094,60.6719 74.3906,60.5781 74.1563,60.5781 C73.875,60.5781 73.625,60.7031 73.4531,60.9219 C73.3438,61.0938 73.2969,61.2813 73.2969,61.7031 L73.2969,62.8281 C73.2969,63.5938 73.5781,63.9531 74.1719,63.9531 C74.4375,63.9531 74.5625,63.8906 74.8438,63.5469 C75.6875,63.9844 76.5781,64.2031 77.5,64.2031 C79.8281,64.2031 81.3906,63.0156 81.3906,61.25 C81.3906,60.3594 81.0781,59.6719 80.3906,59.125 C79.8594,58.7031 79.2188,58.4531 77.7344,58.1875 C76.4688,57.9531 76.375,57.9219 76.0469,57.75 C75.6719,57.5625 75.4063,57.1719 75.4063,56.8125 C75.4063,56.0781 76.2656,55.5156 77.3281,55.5156 C78.3906,55.5156 79.2031,55.9844 79.3594,56.6563 C79.4688,57.2031 79.4688,57.2031 79.5938,57.3438 C79.7344,57.4688 79.9688,57.5781 80.2031,57.5781 C80.4688,57.5781 80.7188,57.4375 80.8906,57.2188 C81,57.0469 81.0313,56.9063 81.0313,56.4375 L81.0313,54.9375 Z " fill="#000000"/><text fill="#000000" font-family="sans-serif" font-size="12" font-style="italic" lengthAdjust="spacing" textLength="50" x="120.75" y="56.1387">«struct»</text><text fill="#000000" font-family="sans-serif" font-size="12" lengthAdjust="spacing" textLength="96" x="97.75" y="70.1074">PropertyListings</text><line style="stroke:#A80036;stroke-width:1.5;" x1="10" x2="249" y1="77.9375" y2="77.9375"/><polygon fill="none" points="20,84.9375,16,90.9375,24,90.9375" style="stroke:#1963A0;stroke-width:1.0;"/><text fill="#000000" font-family="sans-serif" font-size="11" lengthAdjust="spacing" textLength="99" x="29" y="92.1479">pageNumber : Int</text><polygon fill="none" points="20,97.7422,16,103.7422,24,103.7422" style="stroke:#1963A0;stroke-width:1.0;"/><text fill="#000000" font-family="sans-serif" font-size="11" lengthAdjust="spacing" textLength="80" x="29" y="104.9526">pageSize : Int</text><polygon fill="none" points="20,110.5469,16,116.5469,24,116.5469" style="stroke:#1963A0;stroke-width:1.0;"/><text fill="#000000" font-family="sans-serif" font-size="11" lengthAdjust="spacing" textLength="215" x="29" y="117.7573">response : PropertyListingsResponse?</text><!--MD5=[ec09704e950ffa6029a85528f5fcc0eb]
class PropertyCenterDataProviderOperations--><rect codeLine="13" fill="#FEFECE" height="109.9609" id="PropertyCenterDataProviderOperations" style="stroke:#A80036;stroke-width:1.5;" width="302" x="270.5" y="234"/><ellipse cx="301.25" cy="252.9688" fill="#DAA520" rx="11" ry="11" style="stroke:#A80036;stroke-width:1.0;"/><path d="M300.7969,254.5625 L302.4688,254.5625 C304.0469,254.5625 304.8906,254.2813 305.6406,253.4531 C306.1875,252.8594 306.5,252.0469 306.5,251.2656 C306.5,249.3906 304.9688,248.0625 302.7969,248.0625 L298.8438,248.0625 C298.4063,248.0625 298.2813,248.0781 298.125,248.1719 C297.875,248.3281 297.7188,248.625 297.7188,248.9063 C297.7188,249.1563 297.8594,249.4375 298.0781,249.6094 C298.2344,249.7188 298.4219,249.75 298.8438,249.75 L299.0938,249.75 L299.0938,256.2656 L298.8438,256.2656 C298.4375,256.2656 298.2813,256.2813 298.125,256.3906 C297.875,256.5469 297.7188,256.8281 297.7188,257.125 C297.7188,257.375 297.8594,257.6406 298.0781,257.7969 C298.2188,257.9219 298.4531,257.9688 298.8438,257.9688 L302.4844,257.9688 C302.8281,257.9688 303.0781,257.9219 303.1875,257.8438 C303.4531,257.7031 303.6094,257.4063 303.6094,257.125 C303.6094,256.8438 303.4688,256.5938 303.25,256.4219 C303.0781,256.2969 302.9375,256.2656 302.4844,256.2656 L300.7969,256.2656 L300.7969,254.5625 Z M300.7969,249.75 L302.7969,249.75 C303.9844,249.75 304.6875,250.3594 304.6875,251.3281 C304.6875,252.2813 303.9844,252.875 302.7969,252.875 L300.7969,252.875 L300.7969,249.75 Z " fill="#000000"/><text fill="#000000" font-family="sans-serif" font-size="12" font-style="italic" lengthAdjust="spacing" textLength="63" x="404.75" y="250.1387">«protocol»</text><text fill="#000000" font-family="sans-serif" font-size="12" lengthAdjust="spacing" textLength="235" x="318.75" y="264.1074">PropertyCenterDataProviderOperations</text><line style="stroke:#A80036;stroke-width:1.5;" x1="271.5" x2="571.5" y1="271.9375" y2="271.9375"/><polygon fill="#4177AF" points="281.5,278.9375,277.5,284.9375,285.5,284.9375" style="stroke:#1963A0;stroke-width:1.0;"/><text fill="#000000" font-family="sans-serif" font-size="11" lengthAdjust="spacing" textLength="38" x="290.5" y="286.1479">reset()</text><polygon fill="#4177AF" points="281.5,291.7422,277.5,297.7422,285.5,297.7422" style="stroke:#1963A0;stroke-width:1.0;"/><text fill="#000000" font-family="sans-serif" font-size="11" lengthAdjust="spacing" textLength="158" x="290.5" y="298.9526">autocomplete(searchTerm:)</text><polygon fill="#4177AF" points="281.5,304.5469,277.5,310.5469,285.5,310.5469" style="stroke:#1963A0;stroke-width:1.0;"/><text fill="#000000" font-family="sans-serif" font-size="11" lengthAdjust="spacing" textLength="274" x="290.5" y="311.7573">getProperties(pageNumber:pageSize:postcode:)</text><polygon fill="#4177AF" points="281.5,317.3516,277.5,323.3516,285.5,323.3516" style="stroke:#1963A0;stroke-width:1.0;"/><text fill="#000000" font-family="sans-serif" font-size="11" lengthAdjust="spacing" textLength="201" x="290.5" y="324.562">setPropertyGoal(listing:completion:)</text><polygon fill="#4177AF" points="281.5,330.1563,277.5,336.1563,285.5,336.1563" style="stroke:#1963A0;stroke-width:1.0;"/><text fill="#000000" font-family="sans-serif" font-size="11" lengthAdjust="spacing" textLength="276" x="290.5" y="337.3667">setDepositAndSavingsGoal(request:completion:)</text><!--MD5=[8a3fd47d7d4644f581d6a3a6bbb43a06]
class PropertyCenterDataProviderPublishers--><rect codeLine="20" fill="#FEFECE" height="71.5469" id="PropertyCenterDataProviderPublishers" style="stroke:#A80036;stroke-width:1.5;" width="433" x="608" y="253"/><ellipse cx="705.75" cy="271.9688" fill="#DAA520" rx="11" ry="11" style="stroke:#A80036;stroke-width:1.0;"/><path d="M705.2969,273.5625 L706.9688,273.5625 C708.5469,273.5625 709.3906,273.2813 710.1406,272.4531 C710.6875,271.8594 711,271.0469 711,270.2656 C711,268.3906 709.4688,267.0625 707.2969,267.0625 L703.3438,267.0625 C702.9063,267.0625 702.7813,267.0781 702.625,267.1719 C702.375,267.3281 702.2188,267.625 702.2188,267.9063 C702.2188,268.1563 702.3594,268.4375 702.5781,268.6094 C702.7344,268.7188 702.9219,268.75 703.3438,268.75 L703.5938,268.75 L703.5938,275.2656 L703.3438,275.2656 C702.9375,275.2656 702.7813,275.2813 702.625,275.3906 C702.375,275.5469 702.2188,275.8281 702.2188,276.125 C702.2188,276.375 702.3594,276.6406 702.5781,276.7969 C702.7188,276.9219 702.9531,276.9688 703.3438,276.9688 L706.9844,276.9688 C707.3281,276.9688 707.5781,276.9219 707.6875,276.8438 C707.9531,276.7031 708.1094,276.4063 708.1094,276.125 C708.1094,275.8438 707.9688,275.5938 707.75,275.4219 C707.5781,275.2969 707.4375,275.2656 706.9844,275.2656 L705.2969,275.2656 L705.2969,273.5625 Z M705.2969,268.75 L707.2969,268.75 C708.4844,268.75 709.1875,269.3594 709.1875,270.3281 C709.1875,271.2813 708.4844,271.875 707.2969,271.875 L705.2969,271.875 L705.2969,268.75 Z " fill="#000000"/><text fill="#000000" font-family="sans-serif" font-size="12" font-style="italic" lengthAdjust="spacing" textLength="63" x="809.25" y="269.1387">«protocol»</text><text fill="#000000" font-family="sans-serif" font-size="12" lengthAdjust="spacing" textLength="229" x="726.25" y="283.1074">PropertyCenterDataProviderPublishers</text><line style="stroke:#A80036;stroke-width:1.5;" x1="609" x2="1040" y1="290.9375" y2="290.9375"/><polygon fill="none" points="619,297.9375,615,303.9375,623,303.9375" style="stroke:#1963A0;stroke-width:1.0;"/><text fill="#000000" font-family="sans-serif" font-size="11" lengthAdjust="spacing" textLength="407" x="628" y="305.1479">autocompletePublisher : AnyPublisher&lt;AutocompleteResponse?, Error&gt;</text><polygon fill="none" points="619,310.7422,615,316.7422,623,316.7422" style="stroke:#1963A0;stroke-width:1.0;"/><text fill="#000000" font-family="sans-serif" font-size="11" lengthAdjust="spacing" textLength="339" x="628" y="317.9526">propertiesPublisher : AnyPublisher&lt;PropertyListings?, Error&gt;</text><!--MD5=[e3886a421b94592713b245ca07c21154]
class PropertyCenterDataProvider--><rect codeLine="24" fill="#FEFECE" height="150.4375" id="PropertyCenterDataProvider" style="stroke:#A80036;stroke-width:1.5;" width="433" x="905" y="7"/><ellipse cx="1033.25" cy="23" fill="#8FBC8F" rx="11" ry="11" style="stroke:#A80036;stroke-width:1.0;"/><path d="M1035.5938,18.6719 C1034.6563,18.2344 1034.0625,18.0938 1033.1875,18.0938 C1030.5625,18.0938 1028.5625,20.1719 1028.5625,22.8906 L1028.5625,24.0156 C1028.5625,26.5938 1030.6719,28.4844 1033.5625,28.4844 C1034.7813,28.4844 1035.9375,28.1875 1036.6875,27.6406 C1037.2656,27.2344 1037.5938,26.7813 1037.5938,26.3906 C1037.5938,25.9375 1037.2031,25.5469 1036.7344,25.5469 C1036.5156,25.5469 1036.3125,25.625 1036.125,25.8125 C1035.6719,26.2969 1035.6719,26.2969 1035.4844,26.3906 C1035.0625,26.6563 1034.375,26.7813 1033.6094,26.7813 C1031.5625,26.7813 1030.2656,25.6875 1030.2656,23.9844 L1030.2656,22.8906 C1030.2656,21.1094 1031.5156,19.7969 1033.25,19.7969 C1033.8281,19.7969 1034.4375,19.9531 1034.9063,20.2031 C1035.3906,20.4844 1035.5625,20.7031 1035.6563,21.1094 C1035.7188,21.5156 1035.75,21.6406 1035.8906,21.7656 C1036.0313,21.9063 1036.2656,22.0156 1036.4844,22.0156 C1036.75,22.0156 1037.0156,21.875 1037.1875,21.6563 C1037.2969,21.5 1037.3281,21.3125 1037.3281,20.8906 L1037.3281,19.4688 C1037.3281,19.0313 1037.3125,18.9063 1037.2188,18.75 C1037.0625,18.4844 1036.7813,18.3438 1036.4844,18.3438 C1036.1875,18.3438 1035.9844,18.4375 1035.7656,18.75 L1035.5938,18.6719 Z " fill="#000000"/><text fill="#000000" font-family="sans-serif" font-size="12" lengthAdjust="spacing" textLength="168" x="1053.75" y="27.1543">PropertyCenterDataProvider</text><line style="stroke:#A80036;stroke-width:1.5;" x1="906" x2="1337" y1="39" y2="39"/><polygon fill="none" points="916,46,912,52,920,52" style="stroke:#1963A0;stroke-width:1.0;"/><text fill="#000000" font-family="sans-serif" font-size="11" lengthAdjust="spacing" textLength="169" x="925" y="53.2104">autocompleteMinimumLength</text><polygon fill="none" points="916,58.8047,912,64.8047,920,64.8047" style="stroke:#1963A0;stroke-width:1.0;"/><text fill="#000000" font-family="sans-serif" font-size="11" lengthAdjust="spacing" textLength="294" x="925" y="66.0151">dependencies : DashboardDataDependenciesType</text><polygon fill="none" points="916,71.6094,912,77.6094,920,77.6094" style="stroke:#1963A0;stroke-width:1.0;"/><text fill="#000000" font-family="sans-serif" font-size="11" lengthAdjust="spacing" textLength="122" x="925" y="78.8198">autocompleteSubject</text><polygon fill="none" points="916,84.4141,912,90.4141,920,90.4141" style="stroke:#1963A0;stroke-width:1.0;"/><text fill="#000000" font-family="sans-serif" font-size="11" lengthAdjust="spacing" textLength="101" x="925" y="91.6245">propertiesSubject</text><polygon fill="none" points="916,97.2188,912,103.2188,920,103.2188" style="stroke:#1963A0;stroke-width:1.0;"/><text fill="#000000" font-family="sans-serif" font-size="11" lengthAdjust="spacing" textLength="407" x="925" y="104.4292">autocompletePublisher : AnyPublisher&lt;AutocompleteResponse?, Error&gt;</text><polygon fill="none" points="916,110.0234,912,116.0234,920,116.0234" style="stroke:#1963A0;stroke-width:1.0;"/><text fill="#000000" font-family="sans-serif" font-size="11" lengthAdjust="spacing" textLength="339" x="925" y="117.2339">propertiesPublisher : AnyPublisher&lt;PropertyListings?, Error&gt;</text><polygon fill="none" points="916,122.8281,912,128.8281,920,128.8281" style="stroke:#1963A0;stroke-width:1.0;"/><text fill="#000000" font-family="sans-serif" font-size="11" lengthAdjust="spacing" textLength="139" x="925" y="130.0386">pages : [Int: PageStatus]</text><line style="stroke:#A80036;stroke-width:1.5;" x1="906" x2="1337" y1="136.6328" y2="136.6328"/><polygon fill="#4177AF" points="916,143.6328,912,149.6328,920,149.6328" style="stroke:#1963A0;stroke-width:1.0;"/><text fill="#000000" font-family="sans-serif" font-size="11" lengthAdjust="spacing" textLength="110" x="925" y="150.8433">init(dependencies:)</text><!--MD5=[e4d492f13c36002064c0d552784d79f8]
class PropertyCenterDataProvider0--><rect codeLine="34" fill="#FEFECE" height="109.9609" id="PropertyCenterDataProvider0" style="stroke:#A80036;stroke-width:1.5;" width="288" x="1076.5" y="234"/><ellipse cx="1132.25" cy="252.9688" fill="#DA70D6" rx="11" ry="11" style="stroke:#A80036;stroke-width:1.0;"/><path d="M1133.4375,252.9219 L1136.1094,249.75 C1136.7031,249.7344 1137.0781,249.4375 1137.0781,248.9063 C1137.0781,248.6406 1136.9531,248.375 1136.7188,248.2031 C1136.5469,248.0938 1136.4063,248.0625 1135.9531,248.0625 L1134.4219,248.0625 C1134.0469,248.0625 1133.7813,248.1094 1133.6406,248.2344 C1133.4219,248.375 1133.2813,248.6563 1133.2813,248.9063 C1133.2813,249.2813 1133.4531,249.5 1133.9375,249.7344 L1132.3438,251.5938 L1130.7344,249.7344 C1131.2344,249.5 1131.375,249.2813 1131.375,248.9063 C1131.375,248.6406 1131.25,248.375 1131.0313,248.2031 C1130.8594,248.0938 1130.7188,248.0625 1130.2344,248.0625 L1128.6875,248.0625 C1128.5781,248.0625 1128.5625,248.0625 1128.3594,248.0938 C1127.8594,248.1406 1127.5781,248.4531 1127.5781,248.9063 C1127.5781,249.4219 1127.9375,249.7188 1128.5625,249.75 L1131.25,252.9063 L1128.4219,256.2656 C1127.7969,256.2656 1127.4219,256.5938 1127.4219,257.125 C1127.4219,257.3906 1127.5625,257.6406 1127.7813,257.8125 C1127.9375,257.9219 1128.1406,257.9688 1128.5469,257.9688 L1130.4219,257.9688 C1130.7813,257.9688 1131,257.9375 1131.1406,257.8438 C1131.3906,257.7031 1131.5469,257.4063 1131.5469,257.125 C1131.5469,256.6094 1131.2188,256.2969 1130.6406,256.2656 L1132.3594,254.2344 L1134.0781,256.2656 C1133.4844,256.2969 1133.1563,256.6094 1133.1563,257.125 C1133.1563,257.6875 1133.5156,257.9688 1134.2656,257.9688 L1136.1563,257.9688 C1136.5156,257.9688 1136.7344,257.9375 1136.875,257.8438 C1137.125,257.7031 1137.2813,257.4063 1137.2813,257.125 C1137.2813,256.5938 1136.9219,256.2813 1136.2813,256.2656 L1133.4375,252.9219 Z " fill="#000000"/><text fill="#000000" font-family="sans-serif" font-size="12" font-style="italic" lengthAdjust="spacing" textLength="72" x="1200.75" y="250.1387">«extension»</text><text fill="#000000" font-family="sans-serif" font-size="12" lengthAdjust="spacing" textLength="168" x="1152.75" y="264.1074">PropertyCenterDataProvider</text><line style="stroke:#A80036;stroke-width:1.5;" x1="1077.5" x2="1363.5" y1="271.9375" y2="271.9375"/><text fill="#000000" font-family="sans-serif" font-size="11" lengthAdjust="spacing" textLength="158" x="1082.5" y="286.1479">autocomplete(searchTerm:)</text><text fill="#000000" font-family="sans-serif" font-size="11" lengthAdjust="spacing" textLength="38" x="1082.5" y="298.9526">reset()</text><text fill="#000000" font-family="sans-serif" font-size="11" lengthAdjust="spacing" textLength="274" x="1082.5" y="311.7573">getProperties(pageNumber:pageSize:postcode:)</text><text fill="#000000" font-family="sans-serif" font-size="11" lengthAdjust="spacing" textLength="201" x="1082.5" y="324.562">setPropertyGoal(listing:completion:)</text><text fill="#000000" font-family="sans-serif" font-size="11" lengthAdjust="spacing" textLength="276" x="1082.5" y="337.3667">setDepositAndSavingsGoal(request:completion:)</text><!--MD5=[e5cbaf1f3eea5da5c248105ace9ae310]
class PropertyGoalRequest--><rect codeLine="41" fill="#FEFECE" height="58.7422" id="PropertyGoalRequest" style="stroke:#A80036;stroke-width:1.5;" width="159" x="1373" y="52.5"/><ellipse cx="1388" cy="71.4688" fill="#DA70D6" rx="11" ry="11" style="stroke:#A80036;stroke-width:1.0;"/><path d="M1389.1875,71.4219 L1391.8594,68.25 C1392.4531,68.2344 1392.8281,67.9375 1392.8281,67.4063 C1392.8281,67.1406 1392.7031,66.875 1392.4688,66.7031 C1392.2969,66.5938 1392.1563,66.5625 1391.7031,66.5625 L1390.1719,66.5625 C1389.7969,66.5625 1389.5313,66.6094 1389.3906,66.7344 C1389.1719,66.875 1389.0313,67.1563 1389.0313,67.4063 C1389.0313,67.7813 1389.2031,68 1389.6875,68.2344 L1388.0938,70.0938 L1386.4844,68.2344 C1386.9844,68 1387.125,67.7813 1387.125,67.4063 C1387.125,67.1406 1387,66.875 1386.7813,66.7031 C1386.6094,66.5938 1386.4688,66.5625 1385.9844,66.5625 L1384.4375,66.5625 C1384.3281,66.5625 1384.3125,66.5625 1384.1094,66.5938 C1383.6094,66.6406 1383.3281,66.9531 1383.3281,67.4063 C1383.3281,67.9219 1383.6875,68.2188 1384.3125,68.25 L1387,71.4063 L1384.1719,74.7656 C1383.5469,74.7656 1383.1719,75.0938 1383.1719,75.625 C1383.1719,75.8906 1383.3125,76.1406 1383.5313,76.3125 C1383.6875,76.4219 1383.8906,76.4688 1384.2969,76.4688 L1386.1719,76.4688 C1386.5313,76.4688 1386.75,76.4375 1386.8906,76.3438 C1387.1406,76.2031 1387.2969,75.9063 1387.2969,75.625 C1387.2969,75.1094 1386.9688,74.7969 1386.3906,74.7656 L1388.1094,72.7344 L1389.8281,74.7656 C1389.2344,74.7969 1388.9063,75.1094 1388.9063,75.625 C1388.9063,76.1875 1389.2656,76.4688 1390.0156,76.4688 L1391.9063,76.4688 C1392.2656,76.4688 1392.4844,76.4375 1392.625,76.3438 C1392.875,76.2031 1393.0313,75.9063 1393.0313,75.625 C1393.0313,75.0938 1392.6719,74.7813 1392.0313,74.7656 L1389.1875,71.4219 Z " fill="#000000"/><text fill="#000000" font-family="sans-serif" font-size="12" font-style="italic" lengthAdjust="spacing" textLength="72" x="1429.5" y="68.6387">«extension»</text><text fill="#000000" font-family="sans-serif" font-size="12" lengthAdjust="spacing" textLength="127" x="1402" y="82.6074">PropertyGoalRequest</text><line style="stroke:#A80036;stroke-width:1.5;" x1="1374" x2="1531" y1="90.4375" y2="90.4375"/><text fill="#000000" font-family="sans-serif" font-size="11" lengthAdjust="spacing" textLength="61" x="1379" y="104.6479">init(listing:)</text><!--MD5=[99fb636a8315889690522fada3ee7688]
class Equatable--><rect fill="#FEFECE" height="32" id="Equatable" style="stroke:#A80036;stroke-width:1.5;" width="91" x="21" y="273"/><ellipse cx="36" cy="289" fill="#ADD1B2" rx="11" ry="11" style="stroke:#A80036;stroke-width:1.0;"/><path d="M38.3438,284.6719 C37.4063,284.2344 36.8125,284.0938 35.9375,284.0938 C33.3125,284.0938 31.3125,286.1719 31.3125,288.8906 L31.3125,290.0156 C31.3125,292.5938 33.4219,294.4844 36.3125,294.4844 C37.5313,294.4844 38.6875,294.1875 39.4375,293.6406 C40.0156,293.2344 40.3438,292.7813 40.3438,292.3906 C40.3438,291.9375 39.9531,291.5469 39.4844,291.5469 C39.2656,291.5469 39.0625,291.625 38.875,291.8125 C38.4219,292.2969 38.4219,292.2969 38.2344,292.3906 C37.8125,292.6563 37.125,292.7813 36.3594,292.7813 C34.3125,292.7813 33.0156,291.6875 33.0156,289.9844 L33.0156,288.8906 C33.0156,287.1094 34.2656,285.7969 36,285.7969 C36.5781,285.7969 37.1875,285.9531 37.6563,286.2031 C38.1406,286.4844 38.3125,286.7031 38.4063,287.1094 C38.4688,287.5156 38.5,287.6406 38.6406,287.7656 C38.7813,287.9063 39.0156,288.0156 39.2344,288.0156 C39.5,288.0156 39.7656,287.875 39.9375,287.6563 C40.0469,287.5 40.0781,287.3125 40.0781,286.8906 L40.0781,285.4688 C40.0781,285.0313 40.0625,284.9063 39.9688,284.75 C39.8125,284.4844 39.5313,284.3438 39.2344,284.3438 C38.9375,284.3438 38.7344,284.4375 38.5156,284.75 L38.3438,284.6719 Z " fill="#000000"/><text fill="#000000" font-family="sans-serif" font-size="12" lengthAdjust="spacing" textLength="59" x="50" y="293.1543">Equatable</text><!--MD5=[34c430a2bb314daf0bded46d05a1251b]
class Hashable--><rect fill="#FEFECE" height="32" id="Hashable" style="stroke:#A80036;stroke-width:1.5;" width="88" x="147.5" y="273"/><ellipse cx="162.5" cy="289" fill="#ADD1B2" rx="11" ry="11" style="stroke:#A80036;stroke-width:1.0;"/><path d="M164.8438,284.6719 C163.9063,284.2344 163.3125,284.0938 162.4375,284.0938 C159.8125,284.0938 157.8125,286.1719 157.8125,288.8906 L157.8125,290.0156 C157.8125,292.5938 159.9219,294.4844 162.8125,294.4844 C164.0313,294.4844 165.1875,294.1875 165.9375,293.6406 C166.5156,293.2344 166.8438,292.7813 166.8438,292.3906 C166.8438,291.9375 166.4531,291.5469 165.9844,291.5469 C165.7656,291.5469 165.5625,291.625 165.375,291.8125 C164.9219,292.2969 164.9219,292.2969 164.7344,292.3906 C164.3125,292.6563 163.625,292.7813 162.8594,292.7813 C160.8125,292.7813 159.5156,291.6875 159.5156,289.9844 L159.5156,288.8906 C159.5156,287.1094 160.7656,285.7969 162.5,285.7969 C163.0781,285.7969 163.6875,285.9531 164.1563,286.2031 C164.6406,286.4844 164.8125,286.7031 164.9063,287.1094 C164.9688,287.5156 165,287.6406 165.1406,287.7656 C165.2813,287.9063 165.5156,288.0156 165.7344,288.0156 C166,288.0156 166.2656,287.875 166.4375,287.6563 C166.5469,287.5 166.5781,287.3125 166.5781,286.8906 L166.5781,285.4688 C166.5781,285.0313 166.5625,284.9063 166.4688,284.75 C166.3125,284.4844 166.0313,284.3438 165.7344,284.3438 C165.4375,284.3438 165.2344,284.4375 165.0156,284.75 L164.8438,284.6719 Z " fill="#000000"/><text fill="#000000" font-family="sans-serif" font-size="12" lengthAdjust="spacing" textLength="56" x="176.5" y="293.1543">Hashable</text><!--MD5=[625eb5fdd814536c712f9f96ffbf9401]
class AnyObject--><rect fill="#FEFECE" height="32" id="AnyObject" style="stroke:#A80036;stroke-width:1.5;" width="94" x="614.5" y="421"/><ellipse cx="629.5" cy="437" fill="#ADD1B2" rx="11" ry="11" style="stroke:#A80036;stroke-width:1.0;"/><path d="M631.8438,432.6719 C630.9063,432.2344 630.3125,432.0938 629.4375,432.0938 C626.8125,432.0938 624.8125,434.1719 624.8125,436.8906 L624.8125,438.0156 C624.8125,440.5938 626.9219,442.4844 629.8125,442.4844 C631.0313,442.4844 632.1875,442.1875 632.9375,441.6406 C633.5156,441.2344 633.8438,440.7813 633.8438,440.3906 C633.8438,439.9375 633.4531,439.5469 632.9844,439.5469 C632.7656,439.5469 632.5625,439.625 632.375,439.8125 C631.9219,440.2969 631.9219,440.2969 631.7344,440.3906 C631.3125,440.6563 630.625,440.7813 629.8594,440.7813 C627.8125,440.7813 626.5156,439.6875 626.5156,437.9844 L626.5156,436.8906 C626.5156,435.1094 627.7656,433.7969 629.5,433.7969 C630.0781,433.7969 630.6875,433.9531 631.1563,434.2031 C631.6406,434.4844 631.8125,434.7031 631.9063,435.1094 C631.9688,435.5156 632,435.6406 632.1406,435.7656 C632.2813,435.9063 632.5156,436.0156 632.7344,436.0156 C633,436.0156 633.2656,435.875 633.4375,435.6563 C633.5469,435.5 633.5781,435.3125 633.5781,434.8906 L633.5781,433.4688 C633.5781,433.0313 633.5625,432.9063 633.4688,432.75 C633.3125,432.4844 633.0313,432.3438 632.7344,432.3438 C632.4375,432.3438 632.2344,432.4375 632.0156,432.75 L631.8438,432.6719 Z " fill="#000000"/><text fill="#000000" font-family="sans-serif" font-size="12" lengthAdjust="spacing" textLength="62" x="643.5" y="441.1543">AnyObject</text><!--MD5=[0d4fb80341763a24143be61e75fdd318]
class NSObject--><rect fill="#FEFECE" height="32" id="NSObject" style="stroke:#A80036;stroke-width:1.5;" width="88" x="1399.5" y="273"/><ellipse cx="1414.5" cy="289" fill="#ADD1B2" rx="11" ry="11" style="stroke:#A80036;stroke-width:1.0;"/><path d="M1416.8438,284.6719 C1415.9063,284.2344 1415.3125,284.0938 1414.4375,284.0938 C1411.8125,284.0938 1409.8125,286.1719 1409.8125,288.8906 L1409.8125,290.0156 C1409.8125,292.5938 1411.9219,294.4844 1414.8125,294.4844 C1416.0313,294.4844 1417.1875,294.1875 1417.9375,293.6406 C1418.5156,293.2344 1418.8438,292.7813 1418.8438,292.3906 C1418.8438,291.9375 1418.4531,291.5469 1417.9844,291.5469 C1417.7656,291.5469 1417.5625,291.625 1417.375,291.8125 C1416.9219,292.2969 1416.9219,292.2969 1416.7344,292.3906 C1416.3125,292.6563 1415.625,292.7813 1414.8594,292.7813 C1412.8125,292.7813 1411.5156,291.6875 1411.5156,289.9844 L1411.5156,288.8906 C1411.5156,287.1094 1412.7656,285.7969 1414.5,285.7969 C1415.0781,285.7969 1415.6875,285.9531 1416.1563,286.2031 C1416.6406,286.4844 1416.8125,286.7031 1416.9063,287.1094 C1416.9688,287.5156 1417,287.6406 1417.1406,287.7656 C1417.2813,287.9063 1417.5156,288.0156 1417.7344,288.0156 C1418,288.0156 1418.2656,287.875 1418.4375,287.6563 C1418.5469,287.5 1418.5781,287.3125 1418.5781,286.8906 L1418.5781,285.4688 C1418.5781,285.0313 1418.5625,284.9063 1418.4688,284.75 C1418.3125,284.4844 1418.0313,284.3438 1417.7344,284.3438 C1417.4375,284.3438 1417.2344,284.4375 1417.0156,284.75 L1416.8438,284.6719 Z " fill="#000000"/><text fill="#000000" font-family="sans-serif" font-size="12" lengthAdjust="spacing" textLength="56" x="1428.5" y="293.1543">NSObject</text><!--MD5=[890c93e229a73dc69d142428d7e14c65]
link PropertyListings to Equatable--><path codeLine="44" d="M116.751,124.485 C105.0792,162.464 88.0072,218.016 77.0749,253.59 " fill="none" id="PropertyListings-to-Equatable" style="stroke:#A80036;stroke-width:1.0;"/><polygon fill="none" points="83.7309,255.76,71.1645,272.822,70.3486,251.648,83.7309,255.76" style="stroke:#A80036;stroke-width:1.0;"/><text fill="#000000" font-family="sans-serif" font-size="13" lengthAdjust="spacing" textLength="47" x="97.5" y="200.0669">inherits</text><!--MD5=[805dac6a0a82d72b4f1e5f15be476a74]
link PropertyListings to Hashable--><path codeLine="45" d="M142.047,124.485 C153.533,162.464 170.334,218.016 181.093,253.59 " fill="none" id="PropertyListings-to-Hashable" style="stroke:#A80036;stroke-width:1.0;"/><polygon fill="none" points="187.82,251.652,186.91,272.822,174.419,255.705,187.82,251.652" style="stroke:#A80036;stroke-width:1.0;"/><text fill="#000000" font-family="sans-serif" font-size="13" lengthAdjust="spacing" textLength="47" x="167.5" y="200.0669">inherits</text><!--MD5=[097fced7d9c8354da349f56a5ba0a156]
link PropertyCenterDataProviderOperations to AnyObject--><path codeLine="46" d="M510.526,344.158 C547.866,366.8726 589.501,392.2006 619.575,410.4956 " fill="none" id="PropertyCenterDataProviderOperations-to-AnyObject" style="stroke:#A80036;stroke-width:1.0;stroke-dasharray:7.0,7.0;"/><polygon fill="none" points="623.216,404.5169,636.665,420.8917,615.94,416.4776,623.216,404.5169" style="stroke:#A80036;stroke-width:1.0;"/><text fill="#000000" font-family="sans-serif" font-size="13" lengthAdjust="spacing" textLength="47" x="585.5" y="387.0669">inherits</text><!--MD5=[0c62fe7f39ccefa418c74e51569178ba]
link PropertyCenterDataProviderPublishers to AnyObject--><path codeLine="47" d="M785.042,325.343 C756.93,350.523 719.628,383.9342 693.394,407.4324 " fill="none" id="PropertyCenterDataProviderPublishers-to-AnyObject" style="stroke:#A80036;stroke-width:1.0;stroke-dasharray:7.0,7.0;"/><polygon fill="none" points="697.884,412.8084,678.316,420.9381,688.543,402.38,697.884,412.8084" style="stroke:#A80036;stroke-width:1.0;"/><text fill="#000000" font-family="sans-serif" font-size="13" lengthAdjust="spacing" textLength="47" x="729.5" y="387.0669">inherits</text><!--MD5=[120bf0e6a45364f4ea36f4182ee74b1e]
link PropertyCenterDataProvider to NSObject--><path codeLine="48" d="M1260.18,157.023 C1300.31,180.167 1343.51,206.804 1381.5,234 C1392.21,241.665 1403.25,250.819 1412.99,259.392 " fill="none" id="PropertyCenterDataProvider-to-NSObject" style="stroke:#A80036;stroke-width:1.0;"/><polygon fill="none" points="1417.78,254.281,1427.88,272.907,1408.37,264.646,1417.78,254.281" style="stroke:#A80036;stroke-width:1.0;"/><text fill="#000000" font-family="sans-serif" font-size="13" lengthAdjust="spacing" textLength="47" x="1335.5" y="200.0669">inherits</text><!--MD5=[95e076097429c6f3df5c249b6692bee5]
link PropertyCenterDataProvider to PropertyCenterDataProviderPublishers--><path codeLine="49" d="M1014.28,157.01 C973.581,185.099 928.393,216.289 892.323,241.186 " fill="none" id="PropertyCenterDataProvider-to-PropertyCenterDataProviderPublishers" style="stroke:#A80036;stroke-width:1.0;stroke-dasharray:7.0,7.0;"/><polygon fill="none" points="895.845,247.261,875.408,252.861,887.892,235.739,895.845,247.261" style="stroke:#A80036;stroke-width:1.0;"/><text fill="#000000" font-family="sans-serif" font-size="13" lengthAdjust="spacing" textLength="73" x="965.5" y="200.0669">conforms to</text><!--MD5=[313d26969ea544677094049dca5e6be9]
link PropertyCenterDataProvider to PropertyCenterDataProviderOperations--><path codeLine="50" d="M904.99,142.866 C813.694,168.524 705.898,199.359 591.985,233.611 " fill="none" id="PropertyCenterDataProvider-to-PropertyCenterDataProviderOperations" style="stroke:#A80036;stroke-width:1.0;stroke-dasharray:7.0,7.0;"/><polygon fill="none" points="593.7,240.405,572.531,239.476,589.659,227.001,593.7,240.405" style="stroke:#A80036;stroke-width:1.0;"/><text fill="#000000" font-family="sans-serif" font-size="13" lengthAdjust="spacing" textLength="73" x="737.5" y="200.0669">conforms to</text><!--MD5=[5843b04cf9e42c850b18108e05c0ee8e]
reverse link PropertyCenterDataProvider to PropertyCenterDataProvider0--><path codeLine="51" d="M1159.55,161.79 C1171.16,185.822 1183.65,211.694 1194.29,233.72 " fill="none" id="PropertyCenterDataProvider-backto-PropertyCenterDataProvider0" style="stroke:#A80036;stroke-width:1.0;stroke-dasharray:7.0,7.0;"/><polygon fill="#A80036" points="1157.24,157.01,1157.5539,166.8539,1159.4153,161.512,1164.7571,163.3734,1157.24,157.01" style="stroke:#A80036;stroke-width:1.0;"/><text fill="#000000" font-family="sans-serif" font-size="13" lengthAdjust="spacing" textLength="21" x="1181.5" y="200.0669">ext</text><!--MD5=[3ce4a89a0b483fbd867d5ceec2a3a670]
@startuml

' STYLE START
hide empty members
skinparam shadowing false
' STYLE END


class "PropertyListings" as PropertyListings << (S, SkyBlue) struct >> { 
  ~pageNumber : Int
  ~pageSize : Int
  ~response : PropertyListingsResponse? 
}
class "PropertyCenterDataProviderOperations" as PropertyCenterDataProviderOperations << (P, GoldenRod) protocol >> { 
  ~reset()
  ~autocomplete(searchTerm:)
  ~getProperties(pageNumber:pageSize:postcode:)
  ~setPropertyGoal(listing:completion:)
  ~setDepositAndSavingsGoal(request:completion:) 
}
class "PropertyCenterDataProviderPublishers" as PropertyCenterDataProviderPublishers << (P, GoldenRod) protocol >> { 
  ~autocompletePublisher : AnyPublisher<AutocompleteResponse?, Error>
  ~propertiesPublisher : AnyPublisher<PropertyListings?, Error> 
}
class "PropertyCenterDataProvider" as PropertyCenterDataProvider << (C, DarkSeaGreen) >> { 
  ~autocompleteMinimumLength
  ~dependencies : DashboardDataDependenciesType
  ~autocompleteSubject
  ~propertiesSubject
  ~autocompletePublisher : AnyPublisher<AutocompleteResponse?, Error>
  ~propertiesPublisher : AnyPublisher<PropertyListings?, Error>
  ~pages : [Int: PageStatus]
  ~init(dependencies:) 
}
class "PropertyCenterDataProvider" as PropertyCenterDataProvider0 << (X, Orchid) extension >> { 
  autocomplete(searchTerm:)
  reset()
  getProperties(pageNumber:pageSize:postcode:)
  setPropertyGoal(listing:completion:)
  setDepositAndSavingsGoal(request:completion:) 
}
class "PropertyGoalRequest" as PropertyGoalRequest << (X, Orchid) extension >> { 
  init(listing:) 
}
PropertyListings - -|> Equatable : inherits
PropertyListings - -|> Hashable : inherits
PropertyCenterDataProviderOperations ..|> AnyObject : inherits
PropertyCenterDataProviderPublishers ..|> AnyObject : inherits
PropertyCenterDataProvider - -|> NSObject : inherits
PropertyCenterDataProvider ..|> PropertyCenterDataProviderPublishers : conforms to
PropertyCenterDataProvider ..|> PropertyCenterDataProviderOperations : conforms to
PropertyCenterDataProvider <.. PropertyCenterDataProvider0 : ext
@enduml

@startuml

hide empty members
skinparam shadowing false


class "PropertyListings" as PropertyListings << (S, SkyBlue) struct >> { 
  ~pageNumber : Int
  ~pageSize : Int
  ~response : PropertyListingsResponse? 
}
class "PropertyCenterDataProviderOperations" as PropertyCenterDataProviderOperations << (P, GoldenRod) protocol >> { 
  ~reset()
  ~autocomplete(searchTerm:)
  ~getProperties(pageNumber:pageSize:postcode:)
  ~setPropertyGoal(listing:completion:)
  ~setDepositAndSavingsGoal(request:completion:) 
}
class "PropertyCenterDataProviderPublishers" as PropertyCenterDataProviderPublishers << (P, GoldenRod) protocol >> { 
  ~autocompletePublisher : AnyPublisher<AutocompleteResponse?, Error>
  ~propertiesPublisher : AnyPublisher<PropertyListings?, Error> 
}
class "PropertyCenterDataProvider" as PropertyCenterDataProvider << (C, DarkSeaGreen) >> { 
  ~autocompleteMinimumLength
  ~dependencies : DashboardDataDependenciesType
  ~autocompleteSubject
  ~propertiesSubject
  ~autocompletePublisher : AnyPublisher<AutocompleteResponse?, Error>
  ~propertiesPublisher : AnyPublisher<PropertyListings?, Error>
  ~pages : [Int: PageStatus]
  ~init(dependencies:) 
}
class "PropertyCenterDataProvider" as PropertyCenterDataProvider0 << (X, Orchid) extension >> { 
  autocomplete(searchTerm:)
  reset()
  getProperties(pageNumber:pageSize:postcode:)
  setPropertyGoal(listing:completion:)
  setDepositAndSavingsGoal(request:completion:) 
}
class "PropertyGoalRequest" as PropertyGoalRequest << (X, Orchid) extension >> { 
  init(listing:) 
}
PropertyListings - -|> Equatable : inherits
PropertyListings - -|> Hashable : inherits
PropertyCenterDataProviderOperations ..|> AnyObject : inherits
PropertyCenterDataProviderPublishers ..|> AnyObject : inherits
PropertyCenterDataProvider - -|> NSObject : inherits
PropertyCenterDataProvider ..|> PropertyCenterDataProviderPublishers : conforms to
PropertyCenterDataProvider ..|> PropertyCenterDataProviderOperations : conforms to
PropertyCenterDataProvider <.. PropertyCenterDataProvider0 : ext
@enduml

PlantUML version 1.2021.7(Sun May 23 12:40:07 UTC 2021)
(GPL source distribution)
Java Runtime: Java(TM) SE Runtime Environment
JVM: Java HotSpot(TM) 64-Bit Server VM
Default Encoding: UTF-8
Language: en
Country: US
--></g></svg>