<?xml version="1.0" encoding="UTF-8" standalone="no"?><svg xmlns="http://www.w3.org/2000/svg" xmlns:xlink="http://www.w3.org/1999/xlink" contentScriptType="application/ecmascript" contentStyleType="text/css" height="378px" preserveAspectRatio="none" style="width:1300px;height:378px;background:#FFFFFF;" version="1.1" viewBox="0 0 1300 378" width="1300px" zoomAndPan="magnify"><defs/><g><!--MD5=[811afa3d096029abf982fb6241c652ee]
class UITableView--><rect codeLine="8" fill="#FEFECE" height="58.7422" id="UITableView" style="stroke:#A80036;stroke-width:1.5;" width="139" x="8" y="17.5"/><ellipse cx="37.85" cy="36.4688" fill="#DA70D6" rx="11" ry="11" style="stroke:#A80036;stroke-width:1.0;"/><path d="M39.0375,36.4219 L41.7094,33.25 C42.3031,33.2344 42.6781,32.9375 42.6781,32.4063 C42.6781,32.1406 42.5531,31.875 42.3188,31.7031 C42.1469,31.5938 42.0063,31.5625 41.5531,31.5625 L40.0219,31.5625 C39.6469,31.5625 39.3813,31.6094 39.2406,31.7344 C39.0219,31.875 38.8813,32.1563 38.8813,32.4063 C38.8813,32.7813 39.0531,33 39.5375,33.2344 L37.9438,35.0938 L36.3344,33.2344 C36.8344,33 36.975,32.7813 36.975,32.4063 C36.975,32.1406 36.85,31.875 36.6313,31.7031 C36.4594,31.5938 36.3188,31.5625 35.8344,31.5625 L34.2875,31.5625 C34.1781,31.5625 34.1625,31.5625 33.9594,31.5938 C33.4594,31.6406 33.1781,31.9531 33.1781,32.4063 C33.1781,32.9219 33.5375,33.2188 34.1625,33.25 L36.85,36.4063 L34.0219,39.7656 C33.3969,39.7656 33.0219,40.0938 33.0219,40.625 C33.0219,40.8906 33.1625,41.1406 33.3813,41.3125 C33.5375,41.4219 33.7406,41.4688 34.1469,41.4688 L36.0219,41.4688 C36.3813,41.4688 36.6,41.4375 36.7406,41.3438 C36.9906,41.2031 37.1469,40.9063 37.1469,40.625 C37.1469,40.1094 36.8188,39.7969 36.2406,39.7656 L37.9594,37.7344 L39.6781,39.7656 C39.0844,39.7969 38.7563,40.1094 38.7563,40.625 C38.7563,41.1875 39.1156,41.4688 39.8656,41.4688 L41.7563,41.4688 C42.1156,41.4688 42.3344,41.4375 42.475,41.3438 C42.725,41.2031 42.8813,40.9063 42.8813,40.625 C42.8813,40.0938 42.5219,39.7813 41.8813,39.7656 L39.0375,36.4219 Z " fill="#000000"/><text fill="#000000" font-family="sans-serif" font-size="12" font-style="italic" lengthAdjust="spacing" textLength="72" x="56.15" y="33.6387">«extension»</text><text fill="#000000" font-family="sans-serif" font-size="12" lengthAdjust="spacing" textLength="74" x="55.15" y="47.6074">UITableView</text><line style="stroke:#A80036;stroke-width:1.5;" x1="9" x2="146" y1="55.4375" y2="55.4375"/><ellipse cx="19" cy="66.4375" fill="#84BE84" rx="3" ry="3" style="stroke:#038048;stroke-width:1.0;"/><text fill="#000000" font-family="sans-serif" font-size="11" lengthAdjust="spacing" textLength="113" x="28" y="69.6479">addRefreshControl()</text><!--MD5=[c05a985befea350f96a7bfda9fb0229e]
class UITableView0--><rect codeLine="11" fill="#FEFECE" height="58.7422" id="UITableView0" style="stroke:#A80036;stroke-width:1.5;" width="141" x="7" y="170.5"/><ellipse cx="37.75" cy="189.4688" fill="#DA70D6" rx="11" ry="11" style="stroke:#A80036;stroke-width:1.0;"/><path d="M38.9375,189.4219 L41.6094,186.25 C42.2031,186.2344 42.5781,185.9375 42.5781,185.4063 C42.5781,185.1406 42.4531,184.875 42.2188,184.7031 C42.0469,184.5938 41.9063,184.5625 41.4531,184.5625 L39.9219,184.5625 C39.5469,184.5625 39.2813,184.6094 39.1406,184.7344 C38.9219,184.875 38.7813,185.1563 38.7813,185.4063 C38.7813,185.7813 38.9531,186 39.4375,186.2344 L37.8438,188.0938 L36.2344,186.2344 C36.7344,186 36.875,185.7813 36.875,185.4063 C36.875,185.1406 36.75,184.875 36.5313,184.7031 C36.3594,184.5938 36.2188,184.5625 35.7344,184.5625 L34.1875,184.5625 C34.0781,184.5625 34.0625,184.5625 33.8594,184.5938 C33.3594,184.6406 33.0781,184.9531 33.0781,185.4063 C33.0781,185.9219 33.4375,186.2188 34.0625,186.25 L36.75,189.4063 L33.9219,192.7656 C33.2969,192.7656 32.9219,193.0938 32.9219,193.625 C32.9219,193.8906 33.0625,194.1406 33.2813,194.3125 C33.4375,194.4219 33.6406,194.4688 34.0469,194.4688 L35.9219,194.4688 C36.2813,194.4688 36.5,194.4375 36.6406,194.3438 C36.8906,194.2031 37.0469,193.9063 37.0469,193.625 C37.0469,193.1094 36.7188,192.7969 36.1406,192.7656 L37.8594,190.7344 L39.5781,192.7656 C38.9844,192.7969 38.6563,193.1094 38.6563,193.625 C38.6563,194.1875 39.0156,194.4688 39.7656,194.4688 L41.6563,194.4688 C42.0156,194.4688 42.2344,194.4375 42.375,194.3438 C42.625,194.2031 42.7813,193.9063 42.7813,193.625 C42.7813,193.0938 42.4219,192.7813 41.7813,192.7656 L38.9375,189.4219 Z " fill="#000000"/><text fill="#000000" font-family="sans-serif" font-size="12" font-style="italic" lengthAdjust="spacing" textLength="72" x="56.25" y="186.6387">«extension»</text><text fill="#000000" font-family="sans-serif" font-size="12" lengthAdjust="spacing" textLength="74" x="55.25" y="200.6074">UITableView</text><line style="stroke:#A80036;stroke-width:1.5;" x1="8" x2="147" y1="208.4375" y2="208.4375"/><text fill="#000000" font-family="sans-serif" font-size="11" lengthAdjust="spacing" textLength="129" x="13" y="222.6479">deselectAll(animated:)</text><!--MD5=[440b165069443d3efa79a7e8303d8a8d]
class ReusableElement--><rect codeLine="14" fill="#FEFECE" height="71.5469" id="ReusableElement" style="stroke:#A80036;stroke-width:1.5;" width="154" x="537.5" y="164"/><ellipse cx="561.05" cy="182.9688" fill="#DAA520" rx="11" ry="11" style="stroke:#A80036;stroke-width:1.0;"/><path d="M560.5969,184.5625 L562.2688,184.5625 C563.8469,184.5625 564.6906,184.2813 565.4406,183.4531 C565.9875,182.8594 566.3,182.0469 566.3,181.2656 C566.3,179.3906 564.7688,178.0625 562.5969,178.0625 L558.6438,178.0625 C558.2063,178.0625 558.0813,178.0781 557.925,178.1719 C557.675,178.3281 557.5188,178.625 557.5188,178.9063 C557.5188,179.1563 557.6594,179.4375 557.8781,179.6094 C558.0344,179.7188 558.2219,179.75 558.6438,179.75 L558.8938,179.75 L558.8938,186.2656 L558.6438,186.2656 C558.2375,186.2656 558.0813,186.2813 557.925,186.3906 C557.675,186.5469 557.5188,186.8281 557.5188,187.125 C557.5188,187.375 557.6594,187.6406 557.8781,187.7969 C558.0188,187.9219 558.2531,187.9688 558.6438,187.9688 L562.2844,187.9688 C562.6281,187.9688 562.8781,187.9219 562.9875,187.8438 C563.2531,187.7031 563.4094,187.4063 563.4094,187.125 C563.4094,186.8438 563.2688,186.5938 563.05,186.4219 C562.8781,186.2969 562.7375,186.2656 562.2844,186.2656 L560.5969,186.2656 L560.5969,184.5625 Z M560.5969,179.75 L562.5969,179.75 C563.7844,179.75 564.4875,180.3594 564.4875,181.3281 C564.4875,182.2813 563.7844,182.875 562.5969,182.875 L560.5969,182.875 L560.5969,179.75 Z " fill="#000000"/><text fill="#000000" font-family="sans-serif" font-size="12" font-style="italic" lengthAdjust="spacing" textLength="63" x="596.95" y="180.1387">«protocol»</text><text fill="#000000" font-family="sans-serif" font-size="12" lengthAdjust="spacing" textLength="103" x="576.95" y="194.1074">ReusableElement</text><line style="stroke:#A80036;stroke-width:1.5;" x1="538.5" x2="690.5" y1="201.9375" y2="201.9375"/><polygon fill="none" points="548.5,208.9375,544.5,214.9375,552.5,214.9375" style="stroke:#1963A0;stroke-width:1.0;"/><text fill="#000000" font-family="sans-serif" font-size="11" lengthAdjust="spacing" text-decoration="underline" textLength="128" x="557.5" y="216.1479">reuseIdentifier : String</text><polygon fill="none" points="548.5,221.7422,544.5,227.7422,552.5,227.7422" style="stroke:#1963A0;stroke-width:1.0;"/><text fill="#000000" font-family="sans-serif" font-size="11" lengthAdjust="spacing" text-decoration="underline" textLength="95" x="557.5" y="228.9526">nibName : String</text><!--MD5=[8caf06539a35ef380e18fbae993fee12]
class TableViewElement--><rect codeLine="18" fill="#FEFECE" height="58.7422" id="TableViewElement" style="stroke:#A80036;stroke-width:1.5;" width="142" x="360.5" y="17.5"/><ellipse cx="375.5" cy="36.4688" fill="#DAA520" rx="11" ry="11" style="stroke:#A80036;stroke-width:1.0;"/><path d="M375.0469,38.0625 L376.7188,38.0625 C378.2969,38.0625 379.1406,37.7813 379.8906,36.9531 C380.4375,36.3594 380.75,35.5469 380.75,34.7656 C380.75,32.8906 379.2188,31.5625 377.0469,31.5625 L373.0938,31.5625 C372.6563,31.5625 372.5313,31.5781 372.375,31.6719 C372.125,31.8281 371.9688,32.125 371.9688,32.4063 C371.9688,32.6563 372.1094,32.9375 372.3281,33.1094 C372.4844,33.2188 372.6719,33.25 373.0938,33.25 L373.3438,33.25 L373.3438,39.7656 L373.0938,39.7656 C372.6875,39.7656 372.5313,39.7813 372.375,39.8906 C372.125,40.0469 371.9688,40.3281 371.9688,40.625 C371.9688,40.875 372.1094,41.1406 372.3281,41.2969 C372.4688,41.4219 372.7031,41.4688 373.0938,41.4688 L376.7344,41.4688 C377.0781,41.4688 377.3281,41.4219 377.4375,41.3438 C377.7031,41.2031 377.8594,40.9063 377.8594,40.625 C377.8594,40.3438 377.7188,40.0938 377.5,39.9219 C377.3281,39.7969 377.1875,39.7656 376.7344,39.7656 L375.0469,39.7656 L375.0469,38.0625 Z M375.0469,33.25 L377.0469,33.25 C378.2344,33.25 378.9375,33.8594 378.9375,34.8281 C378.9375,35.7813 378.2344,36.375 377.0469,36.375 L375.0469,36.375 L375.0469,33.25 Z " fill="#000000"/><text fill="#000000" font-family="sans-serif" font-size="12" font-style="italic" lengthAdjust="spacing" textLength="63" x="413" y="33.6387">«protocol»</text><text fill="#000000" font-family="sans-serif" font-size="12" lengthAdjust="spacing" textLength="110" x="389.5" y="47.6074">TableViewElement</text><line style="stroke:#A80036;stroke-width:1.5;" x1="361.5" x2="501.5" y1="55.4375" y2="55.4375"/><polygon fill="#4177AF" points="371.5,62.4375,367.5,68.4375,375.5,68.4375" style="stroke:#1963A0;stroke-width:1.0;"/><text fill="#000000" font-family="sans-serif" font-size="11" lengthAdjust="spacing" text-decoration="underline" textLength="112" x="380.5" y="69.6479">register(tableView:)</text><!--MD5=[c191040429b9814b9b1e6cdb354e55e3]
class CollectionViewElement--><rect codeLine="21" fill="#FEFECE" height="58.7422" id="CollectionViewElement" style="stroke:#A80036;stroke-width:1.5;" width="168" x="592.5" y="17.5"/><ellipse cx="607.5" cy="36.4688" fill="#DAA520" rx="11" ry="11" style="stroke:#A80036;stroke-width:1.0;"/><path d="M607.0469,38.0625 L608.7188,38.0625 C610.2969,38.0625 611.1406,37.7813 611.8906,36.9531 C612.4375,36.3594 612.75,35.5469 612.75,34.7656 C612.75,32.8906 611.2188,31.5625 609.0469,31.5625 L605.0938,31.5625 C604.6563,31.5625 604.5313,31.5781 604.375,31.6719 C604.125,31.8281 603.9688,32.125 603.9688,32.4063 C603.9688,32.6563 604.1094,32.9375 604.3281,33.1094 C604.4844,33.2188 604.6719,33.25 605.0938,33.25 L605.3438,33.25 L605.3438,39.7656 L605.0938,39.7656 C604.6875,39.7656 604.5313,39.7813 604.375,39.8906 C604.125,40.0469 603.9688,40.3281 603.9688,40.625 C603.9688,40.875 604.1094,41.1406 604.3281,41.2969 C604.4688,41.4219 604.7031,41.4688 605.0938,41.4688 L608.7344,41.4688 C609.0781,41.4688 609.3281,41.4219 609.4375,41.3438 C609.7031,41.2031 609.8594,40.9063 609.8594,40.625 C609.8594,40.3438 609.7188,40.0938 609.5,39.9219 C609.3281,39.7969 609.1875,39.7656 608.7344,39.7656 L607.0469,39.7656 L607.0469,38.0625 Z M607.0469,33.25 L609.0469,33.25 C610.2344,33.25 610.9375,33.8594 610.9375,34.8281 C610.9375,35.7813 610.2344,36.375 609.0469,36.375 L607.0469,36.375 L607.0469,33.25 Z " fill="#000000"/><text fill="#000000" font-family="sans-serif" font-size="12" font-style="italic" lengthAdjust="spacing" textLength="63" x="658" y="33.6387">«protocol»</text><text fill="#000000" font-family="sans-serif" font-size="12" lengthAdjust="spacing" textLength="136" x="621.5" y="47.6074">CollectionViewElement</text><line style="stroke:#A80036;stroke-width:1.5;" x1="593.5" x2="759.5" y1="55.4375" y2="55.4375"/><polygon fill="#4177AF" points="603.5,62.4375,599.5,68.4375,607.5,68.4375" style="stroke:#1963A0;stroke-width:1.0;"/><text fill="#000000" font-family="sans-serif" font-size="11" lengthAdjust="spacing" text-decoration="underline" textLength="137" x="612.5" y="69.6479">register(collectionView:)</text><!--MD5=[4d9bda9e94269a31daabfbedccae3482]
class ReusableElement1--><rect codeLine="24" fill="#FEFECE" height="58.7422" id="ReusableElement1" style="stroke:#A80036;stroke-width:1.5;" width="135" x="472" y="313"/><ellipse cx="487" cy="331.9688" fill="#DA70D6" rx="11" ry="11" style="stroke:#A80036;stroke-width:1.0;"/><path d="M488.1875,331.9219 L490.8594,328.75 C491.4531,328.7344 491.8281,328.4375 491.8281,327.9063 C491.8281,327.6406 491.7031,327.375 491.4688,327.2031 C491.2969,327.0938 491.1563,327.0625 490.7031,327.0625 L489.1719,327.0625 C488.7969,327.0625 488.5313,327.1094 488.3906,327.2344 C488.1719,327.375 488.0313,327.6563 488.0313,327.9063 C488.0313,328.2813 488.2031,328.5 488.6875,328.7344 L487.0938,330.5938 L485.4844,328.7344 C485.9844,328.5 486.125,328.2813 486.125,327.9063 C486.125,327.6406 486,327.375 485.7813,327.2031 C485.6094,327.0938 485.4688,327.0625 484.9844,327.0625 L483.4375,327.0625 C483.3281,327.0625 483.3125,327.0625 483.1094,327.0938 C482.6094,327.1406 482.3281,327.4531 482.3281,327.9063 C482.3281,328.4219 482.6875,328.7188 483.3125,328.75 L486,331.9063 L483.1719,335.2656 C482.5469,335.2656 482.1719,335.5938 482.1719,336.125 C482.1719,336.3906 482.3125,336.6406 482.5313,336.8125 C482.6875,336.9219 482.8906,336.9688 483.2969,336.9688 L485.1719,336.9688 C485.5313,336.9688 485.75,336.9375 485.8906,336.8438 C486.1406,336.7031 486.2969,336.4063 486.2969,336.125 C486.2969,335.6094 485.9688,335.2969 485.3906,335.2656 L487.1094,333.2344 L488.8281,335.2656 C488.2344,335.2969 487.9063,335.6094 487.9063,336.125 C487.9063,336.6875 488.2656,336.9688 489.0156,336.9688 L490.9063,336.9688 C491.2656,336.9688 491.4844,336.9375 491.625,336.8438 C491.875,336.7031 492.0313,336.4063 492.0313,336.125 C492.0313,335.5938 491.6719,335.2813 491.0313,335.2656 L488.1875,331.9219 Z " fill="#000000"/><text fill="#000000" font-family="sans-serif" font-size="12" font-style="italic" lengthAdjust="spacing" textLength="72" x="516.5" y="329.1387">«extension»</text><text fill="#000000" font-family="sans-serif" font-size="12" lengthAdjust="spacing" textLength="103" x="501" y="343.1074">ReusableElement</text><line style="stroke:#A80036;stroke-width:1.5;" x1="473" x2="606" y1="350.9375" y2="350.9375"/><text fill="#000000" font-family="sans-serif" font-size="11" lengthAdjust="spacing" text-decoration="underline" textLength="95" x="478" y="365.1479">nibName : String</text><!--MD5=[f9249233ea1072bd1c22f65089d5d447]
class TableViewElement2--><rect codeLine="27" fill="#FEFECE" height="58.7422" id="TableViewElement2" style="stroke:#A80036;stroke-width:1.5;" width="142" x="360.5" y="170.5"/><ellipse cx="375.5" cy="189.4688" fill="#DA70D6" rx="11" ry="11" style="stroke:#A80036;stroke-width:1.0;"/><path d="M376.6875,189.4219 L379.3594,186.25 C379.9531,186.2344 380.3281,185.9375 380.3281,185.4063 C380.3281,185.1406 380.2031,184.875 379.9688,184.7031 C379.7969,184.5938 379.6563,184.5625 379.2031,184.5625 L377.6719,184.5625 C377.2969,184.5625 377.0313,184.6094 376.8906,184.7344 C376.6719,184.875 376.5313,185.1563 376.5313,185.4063 C376.5313,185.7813 376.7031,186 377.1875,186.2344 L375.5938,188.0938 L373.9844,186.2344 C374.4844,186 374.625,185.7813 374.625,185.4063 C374.625,185.1406 374.5,184.875 374.2813,184.7031 C374.1094,184.5938 373.9688,184.5625 373.4844,184.5625 L371.9375,184.5625 C371.8281,184.5625 371.8125,184.5625 371.6094,184.5938 C371.1094,184.6406 370.8281,184.9531 370.8281,185.4063 C370.8281,185.9219 371.1875,186.2188 371.8125,186.25 L374.5,189.4063 L371.6719,192.7656 C371.0469,192.7656 370.6719,193.0938 370.6719,193.625 C370.6719,193.8906 370.8125,194.1406 371.0313,194.3125 C371.1875,194.4219 371.3906,194.4688 371.7969,194.4688 L373.6719,194.4688 C374.0313,194.4688 374.25,194.4375 374.3906,194.3438 C374.6406,194.2031 374.7969,193.9063 374.7969,193.625 C374.7969,193.1094 374.4688,192.7969 373.8906,192.7656 L375.6094,190.7344 L377.3281,192.7656 C376.7344,192.7969 376.4063,193.1094 376.4063,193.625 C376.4063,194.1875 376.7656,194.4688 377.5156,194.4688 L379.4063,194.4688 C379.7656,194.4688 379.9844,194.4375 380.125,194.3438 C380.375,194.2031 380.5313,193.9063 380.5313,193.625 C380.5313,193.0938 380.1719,192.7813 379.5313,192.7656 L376.6875,189.4219 Z " fill="#000000"/><text fill="#000000" font-family="sans-serif" font-size="12" font-style="italic" lengthAdjust="spacing" textLength="72" x="408.5" y="186.6387">«extension»</text><text fill="#000000" font-family="sans-serif" font-size="12" lengthAdjust="spacing" textLength="110" x="389.5" y="200.6074">TableViewElement</text><line style="stroke:#A80036;stroke-width:1.5;" x1="361.5" x2="501.5" y1="208.4375" y2="208.4375"/><text fill="#000000" font-family="sans-serif" font-size="11" lengthAdjust="spacing" text-decoration="underline" textLength="112" x="366.5" y="222.6479">register(tableView:)</text><!--MD5=[c812e50f73e8ed7cadf84fc439bfc61a]
class TableViewElement3--><rect codeLine="30" fill="#FEFECE" height="58.7422" id="TableViewElement3" style="stroke:#A80036;stroke-width:1.5;" width="142" x="183.5" y="170.5"/><ellipse cx="198.5" cy="189.4688" fill="#DA70D6" rx="11" ry="11" style="stroke:#A80036;stroke-width:1.0;"/><path d="M199.6875,189.4219 L202.3594,186.25 C202.9531,186.2344 203.3281,185.9375 203.3281,185.4063 C203.3281,185.1406 203.2031,184.875 202.9688,184.7031 C202.7969,184.5938 202.6563,184.5625 202.2031,184.5625 L200.6719,184.5625 C200.2969,184.5625 200.0313,184.6094 199.8906,184.7344 C199.6719,184.875 199.5313,185.1563 199.5313,185.4063 C199.5313,185.7813 199.7031,186 200.1875,186.2344 L198.5938,188.0938 L196.9844,186.2344 C197.4844,186 197.625,185.7813 197.625,185.4063 C197.625,185.1406 197.5,184.875 197.2813,184.7031 C197.1094,184.5938 196.9688,184.5625 196.4844,184.5625 L194.9375,184.5625 C194.8281,184.5625 194.8125,184.5625 194.6094,184.5938 C194.1094,184.6406 193.8281,184.9531 193.8281,185.4063 C193.8281,185.9219 194.1875,186.2188 194.8125,186.25 L197.5,189.4063 L194.6719,192.7656 C194.0469,192.7656 193.6719,193.0938 193.6719,193.625 C193.6719,193.8906 193.8125,194.1406 194.0313,194.3125 C194.1875,194.4219 194.3906,194.4688 194.7969,194.4688 L196.6719,194.4688 C197.0313,194.4688 197.25,194.4375 197.3906,194.3438 C197.6406,194.2031 197.7969,193.9063 197.7969,193.625 C197.7969,193.1094 197.4688,192.7969 196.8906,192.7656 L198.6094,190.7344 L200.3281,192.7656 C199.7344,192.7969 199.4063,193.1094 199.4063,193.625 C199.4063,194.1875 199.7656,194.4688 200.5156,194.4688 L202.4063,194.4688 C202.7656,194.4688 202.9844,194.4375 203.125,194.3438 C203.375,194.2031 203.5313,193.9063 203.5313,193.625 C203.5313,193.0938 203.1719,192.7813 202.5313,192.7656 L199.6875,189.4219 Z " fill="#000000"/><text fill="#000000" font-family="sans-serif" font-size="12" font-style="italic" lengthAdjust="spacing" textLength="72" x="231.5" y="186.6387">«extension»</text><text fill="#000000" font-family="sans-serif" font-size="12" lengthAdjust="spacing" textLength="110" x="212.5" y="200.6074">TableViewElement</text><line style="stroke:#A80036;stroke-width:1.5;" x1="184.5" x2="324.5" y1="208.4375" y2="208.4375"/><text fill="#000000" font-family="sans-serif" font-size="11" lengthAdjust="spacing" text-decoration="underline" textLength="112" x="189.5" y="222.6479">register(tableView:)</text><!--MD5=[08cd641677f4fde13a55d72e301430c5]
class CollectionViewElement4--><rect codeLine="33" fill="#FEFECE" height="58.7422" id="CollectionViewElement4" style="stroke:#A80036;stroke-width:1.5;" width="168" x="726.5" y="170.5"/><ellipse cx="741.5" cy="189.4688" fill="#DA70D6" rx="11" ry="11" style="stroke:#A80036;stroke-width:1.0;"/><path d="M742.6875,189.4219 L745.3594,186.25 C745.9531,186.2344 746.3281,185.9375 746.3281,185.4063 C746.3281,185.1406 746.2031,184.875 745.9688,184.7031 C745.7969,184.5938 745.6563,184.5625 745.2031,184.5625 L743.6719,184.5625 C743.2969,184.5625 743.0313,184.6094 742.8906,184.7344 C742.6719,184.875 742.5313,185.1563 742.5313,185.4063 C742.5313,185.7813 742.7031,186 743.1875,186.2344 L741.5938,188.0938 L739.9844,186.2344 C740.4844,186 740.625,185.7813 740.625,185.4063 C740.625,185.1406 740.5,184.875 740.2813,184.7031 C740.1094,184.5938 739.9688,184.5625 739.4844,184.5625 L737.9375,184.5625 C737.8281,184.5625 737.8125,184.5625 737.6094,184.5938 C737.1094,184.6406 736.8281,184.9531 736.8281,185.4063 C736.8281,185.9219 737.1875,186.2188 737.8125,186.25 L740.5,189.4063 L737.6719,192.7656 C737.0469,192.7656 736.6719,193.0938 736.6719,193.625 C736.6719,193.8906 736.8125,194.1406 737.0313,194.3125 C737.1875,194.4219 737.3906,194.4688 737.7969,194.4688 L739.6719,194.4688 C740.0313,194.4688 740.25,194.4375 740.3906,194.3438 C740.6406,194.2031 740.7969,193.9063 740.7969,193.625 C740.7969,193.1094 740.4688,192.7969 739.8906,192.7656 L741.6094,190.7344 L743.3281,192.7656 C742.7344,192.7969 742.4063,193.1094 742.4063,193.625 C742.4063,194.1875 742.7656,194.4688 743.5156,194.4688 L745.4063,194.4688 C745.7656,194.4688 745.9844,194.4375 746.125,194.3438 C746.375,194.2031 746.5313,193.9063 746.5313,193.625 C746.5313,193.0938 746.1719,192.7813 745.5313,192.7656 L742.6875,189.4219 Z " fill="#000000"/><text fill="#000000" font-family="sans-serif" font-size="12" font-style="italic" lengthAdjust="spacing" textLength="72" x="787.5" y="186.6387">«extension»</text><text fill="#000000" font-family="sans-serif" font-size="12" lengthAdjust="spacing" textLength="136" x="755.5" y="200.6074">CollectionViewElement</text><line style="stroke:#A80036;stroke-width:1.5;" x1="727.5" x2="893.5" y1="208.4375" y2="208.4375"/><text fill="#000000" font-family="sans-serif" font-size="11" lengthAdjust="spacing" text-decoration="underline" textLength="137" x="732.5" y="222.6479">register(collectionView:)</text><!--MD5=[d3be6d0065f5929a78bc61f870af6a5a]
class ProviderBase--><rect codeLine="36" fill="#FEFECE" height="58.7422" id="ProviderBase" style="stroke:#A80036;stroke-width:1.5;" width="153" x="1023" y="170.5"/><ellipse cx="1056.45" cy="189.4688" fill="#DAA520" rx="11" ry="11" style="stroke:#A80036;stroke-width:1.0;"/><path d="M1055.9969,191.0625 L1057.6688,191.0625 C1059.2469,191.0625 1060.0906,190.7813 1060.8406,189.9531 C1061.3875,189.3594 1061.7,188.5469 1061.7,187.7656 C1061.7,185.8906 1060.1688,184.5625 1057.9969,184.5625 L1054.0438,184.5625 C1053.6063,184.5625 1053.4813,184.5781 1053.325,184.6719 C1053.075,184.8281 1052.9188,185.125 1052.9188,185.4063 C1052.9188,185.6563 1053.0594,185.9375 1053.2781,186.1094 C1053.4344,186.2188 1053.6219,186.25 1054.0438,186.25 L1054.2938,186.25 L1054.2938,192.7656 L1054.0438,192.7656 C1053.6375,192.7656 1053.4813,192.7813 1053.325,192.8906 C1053.075,193.0469 1052.9188,193.3281 1052.9188,193.625 C1052.9188,193.875 1053.0594,194.1406 1053.2781,194.2969 C1053.4188,194.4219 1053.6531,194.4688 1054.0438,194.4688 L1057.6844,194.4688 C1058.0281,194.4688 1058.2781,194.4219 1058.3875,194.3438 C1058.6531,194.2031 1058.8094,193.9063 1058.8094,193.625 C1058.8094,193.3438 1058.6688,193.0938 1058.45,192.9219 C1058.2781,192.7969 1058.1375,192.7656 1057.6844,192.7656 L1055.9969,192.7656 L1055.9969,191.0625 Z M1055.9969,186.25 L1057.9969,186.25 C1059.1844,186.25 1059.8875,186.8594 1059.8875,187.8281 C1059.8875,188.7813 1059.1844,189.375 1057.9969,189.375 L1055.9969,189.375 L1055.9969,186.25 Z " fill="#000000"/><text fill="#000000" font-family="sans-serif" font-size="12" font-style="italic" lengthAdjust="spacing" textLength="63" x="1083.05" y="186.6387">«protocol»</text><text fill="#000000" font-family="sans-serif" font-size="12" lengthAdjust="spacing" textLength="80" x="1074.55" y="200.6074">ProviderBase</text><line style="stroke:#A80036;stroke-width:1.5;" x1="1024" x2="1175" y1="208.4375" y2="208.4375"/><polygon fill="none" points="1034,215.4375,1030,221.4375,1038,221.4375" style="stroke:#1963A0;stroke-width:1.0;"/><text fill="#000000" font-family="sans-serif" font-size="11" lengthAdjust="spacing" text-decoration="underline" textLength="127" x="1043" y="222.6479">defaultSection : String</text><!--MD5=[df53c089b4432083521afbeead1ac573]
class TableDataProvider--><rect codeLine="39" fill="#FEFECE" height="79.5469" id="TableDataProvider" style="stroke:#A80036;stroke-width:1.5;" width="204" x="850.5" y="7"/><ellipse cx="893.4" cy="25.9688" fill="#DAA520" rx="11" ry="11" style="stroke:#A80036;stroke-width:1.0;"/><path d="M892.9469,27.5625 L894.6188,27.5625 C896.1969,27.5625 897.0406,27.2813 897.7906,26.4531 C898.3375,25.8594 898.65,25.0469 898.65,24.2656 C898.65,22.3906 897.1188,21.0625 894.9469,21.0625 L890.9938,21.0625 C890.5563,21.0625 890.4313,21.0781 890.275,21.1719 C890.025,21.3281 889.8688,21.625 889.8688,21.9063 C889.8688,22.1563 890.0094,22.4375 890.2281,22.6094 C890.3844,22.7188 890.5719,22.75 890.9938,22.75 L891.2438,22.75 L891.2438,29.2656 L890.9938,29.2656 C890.5875,29.2656 890.4313,29.2813 890.275,29.3906 C890.025,29.5469 889.8688,29.8281 889.8688,30.125 C889.8688,30.375 890.0094,30.6406 890.2281,30.7969 C890.3688,30.9219 890.6031,30.9688 890.9938,30.9688 L894.6344,30.9688 C894.9781,30.9688 895.2281,30.9219 895.3375,30.8438 C895.6031,30.7031 895.7594,30.4063 895.7594,30.125 C895.7594,29.8438 895.6188,29.5938 895.4,29.4219 C895.2281,29.2969 895.0875,29.2656 894.6344,29.2656 L892.9469,29.2656 L892.9469,27.5625 Z M892.9469,22.75 L894.9469,22.75 C896.1344,22.75 896.8375,23.3594 896.8375,24.3281 C896.8375,25.2813 896.1344,25.875 894.9469,25.875 L892.9469,25.875 L892.9469,22.75 Z " fill="#000000"/><text fill="#000000" font-family="sans-serif" font-size="12" font-style="italic" lengthAdjust="spacing" textLength="63" x="937.1" y="23.1387">«protocol»</text><text fill="#000000" font-family="sans-serif" font-size="12" lengthAdjust="spacing" textLength="110" x="913.6" y="37.1074">TableDataProvider</text><line style="stroke:#A80036;stroke-width:1.5;" x1="851.5" x2="1053.5" y1="44.9375" y2="44.9375"/><polygon fill="none" points="861.5,51.9375,857.5,57.9375,865.5,57.9375" style="stroke:#1963A0;stroke-width:1.0;"/><text fill="#000000" font-family="sans-serif" font-size="11" lengthAdjust="spacing" textLength="178" x="870.5" y="59.1479">dataSource : DataSourceType?</text><line style="stroke:#A80036;stroke-width:1.5;" x1="851.5" x2="1053.5" y1="65.7422" y2="65.7422"/><polygon fill="#4177AF" points="861.5,72.7422,857.5,78.7422,865.5,78.7422" style="stroke:#1963A0;stroke-width:1.0;"/><text fill="#000000" font-family="sans-serif" font-size="11" lengthAdjust="spacing" textLength="172" x="870.5" y="79.9526">createDataSource(tableView:)</text><!--MD5=[ef9ab99647286743b71788d9dd6f5306]
class CollectionDataProvider--><rect codeLine="43" fill="#FEFECE" height="58.7422" id="CollectionDataProvider" style="stroke:#A80036;stroke-width:1.5;" width="204" x="1089.5" y="17.5"/><ellipse cx="1120.7" cy="36.4688" fill="#DAA520" rx="11" ry="11" style="stroke:#A80036;stroke-width:1.0;"/><path d="M1120.2469,38.0625 L1121.9188,38.0625 C1123.4969,38.0625 1124.3406,37.7813 1125.0906,36.9531 C1125.6375,36.3594 1125.95,35.5469 1125.95,34.7656 C1125.95,32.8906 1124.4188,31.5625 1122.2469,31.5625 L1118.2938,31.5625 C1117.8563,31.5625 1117.7313,31.5781 1117.575,31.6719 C1117.325,31.8281 1117.1688,32.125 1117.1688,32.4063 C1117.1688,32.6563 1117.3094,32.9375 1117.5281,33.1094 C1117.6844,33.2188 1117.8719,33.25 1118.2938,33.25 L1118.5438,33.25 L1118.5438,39.7656 L1118.2938,39.7656 C1117.8875,39.7656 1117.7313,39.7813 1117.575,39.8906 C1117.325,40.0469 1117.1688,40.3281 1117.1688,40.625 C1117.1688,40.875 1117.3094,41.1406 1117.5281,41.2969 C1117.6688,41.4219 1117.9031,41.4688 1118.2938,41.4688 L1121.9344,41.4688 C1122.2781,41.4688 1122.5281,41.4219 1122.6375,41.3438 C1122.9031,41.2031 1123.0594,40.9063 1123.0594,40.625 C1123.0594,40.3438 1122.9188,40.0938 1122.7,39.9219 C1122.5281,39.7969 1122.3875,39.7656 1121.9344,39.7656 L1120.2469,39.7656 L1120.2469,38.0625 Z M1120.2469,33.25 L1122.2469,33.25 C1123.4344,33.25 1124.1375,33.8594 1124.1375,34.8281 C1124.1375,35.7813 1123.4344,36.375 1122.2469,36.375 L1120.2469,36.375 L1120.2469,33.25 Z " fill="#000000"/><text fill="#000000" font-family="sans-serif" font-size="12" font-style="italic" lengthAdjust="spacing" textLength="63" x="1174.8" y="33.6387">«protocol»</text><text fill="#000000" font-family="sans-serif" font-size="12" lengthAdjust="spacing" textLength="136" x="1138.3" y="47.6074">CollectionDataProvider</text><line style="stroke:#A80036;stroke-width:1.5;" x1="1090.5" x2="1292.5" y1="55.4375" y2="55.4375"/><polygon fill="none" points="1100.5,62.4375,1096.5,68.4375,1104.5,68.4375" style="stroke:#1963A0;stroke-width:1.0;"/><text fill="#000000" font-family="sans-serif" font-size="11" lengthAdjust="spacing" textLength="178" x="1109.5" y="69.6479">dataSource : DataSourceType?</text><!--MD5=[69edbf6270e2d7bcc2c79008f503c3ad]
class ProviderBase5--><rect codeLine="46" fill="#FEFECE" height="58.7422" id="ProviderBase5" style="stroke:#A80036;stroke-width:1.5;" width="139" x="1030" y="313"/><ellipse cx="1057.15" cy="331.9688" fill="#DA70D6" rx="11" ry="11" style="stroke:#A80036;stroke-width:1.0;"/><path d="M1058.3375,331.9219 L1061.0094,328.75 C1061.6031,328.7344 1061.9781,328.4375 1061.9781,327.9063 C1061.9781,327.6406 1061.8531,327.375 1061.6188,327.2031 C1061.4469,327.0938 1061.3063,327.0625 1060.8531,327.0625 L1059.3219,327.0625 C1058.9469,327.0625 1058.6813,327.1094 1058.5406,327.2344 C1058.3219,327.375 1058.1813,327.6563 1058.1813,327.9063 C1058.1813,328.2813 1058.3531,328.5 1058.8375,328.7344 L1057.2438,330.5938 L1055.6344,328.7344 C1056.1344,328.5 1056.275,328.2813 1056.275,327.9063 C1056.275,327.6406 1056.15,327.375 1055.9313,327.2031 C1055.7594,327.0938 1055.6188,327.0625 1055.1344,327.0625 L1053.5875,327.0625 C1053.4781,327.0625 1053.4625,327.0625 1053.2594,327.0938 C1052.7594,327.1406 1052.4781,327.4531 1052.4781,327.9063 C1052.4781,328.4219 1052.8375,328.7188 1053.4625,328.75 L1056.15,331.9063 L1053.3219,335.2656 C1052.6969,335.2656 1052.3219,335.5938 1052.3219,336.125 C1052.3219,336.3906 1052.4625,336.6406 1052.6813,336.8125 C1052.8375,336.9219 1053.0406,336.9688 1053.4469,336.9688 L1055.3219,336.9688 C1055.6813,336.9688 1055.9,336.9375 1056.0406,336.8438 C1056.2906,336.7031 1056.4469,336.4063 1056.4469,336.125 C1056.4469,335.6094 1056.1188,335.2969 1055.5406,335.2656 L1057.2594,333.2344 L1058.9781,335.2656 C1058.3844,335.2969 1058.0563,335.6094 1058.0563,336.125 C1058.0563,336.6875 1058.4156,336.9688 1059.1656,336.9688 L1061.0563,336.9688 C1061.4156,336.9688 1061.6344,336.9375 1061.775,336.8438 C1062.025,336.7031 1062.1813,336.4063 1062.1813,336.125 C1062.1813,335.5938 1061.8219,335.2813 1061.1813,335.2656 L1058.3375,331.9219 Z " fill="#000000"/><text fill="#000000" font-family="sans-serif" font-size="12" font-style="italic" lengthAdjust="spacing" textLength="72" x="1077.85" y="329.1387">«extension»</text><text fill="#000000" font-family="sans-serif" font-size="12" lengthAdjust="spacing" textLength="80" x="1073.85" y="343.1074">ProviderBase</text><line style="stroke:#A80036;stroke-width:1.5;" x1="1031" x2="1168" y1="350.9375" y2="350.9375"/><text fill="#000000" font-family="sans-serif" font-size="11" lengthAdjust="spacing" text-decoration="underline" textLength="127" x="1036" y="365.1479">defaultSection : String</text><!--MD5=[625eb5fdd814536c712f9f96ffbf9401]
class AnyObject--><rect fill="#FEFECE" height="32" id="AnyObject" style="stroke:#A80036;stroke-width:1.5;" width="94" x="642.5" y="326.5"/><ellipse cx="657.5" cy="342.5" fill="#ADD1B2" rx="11" ry="11" style="stroke:#A80036;stroke-width:1.0;"/><path d="M659.8438,338.1719 C658.9063,337.7344 658.3125,337.5938 657.4375,337.5938 C654.8125,337.5938 652.8125,339.6719 652.8125,342.3906 L652.8125,343.5156 C652.8125,346.0938 654.9219,347.9844 657.8125,347.9844 C659.0313,347.9844 660.1875,347.6875 660.9375,347.1406 C661.5156,346.7344 661.8438,346.2813 661.8438,345.8906 C661.8438,345.4375 661.4531,345.0469 660.9844,345.0469 C660.7656,345.0469 660.5625,345.125 660.375,345.3125 C659.9219,345.7969 659.9219,345.7969 659.7344,345.8906 C659.3125,346.1563 658.625,346.2813 657.8594,346.2813 C655.8125,346.2813 654.5156,345.1875 654.5156,343.4844 L654.5156,342.3906 C654.5156,340.6094 655.7656,339.2969 657.5,339.2969 C658.0781,339.2969 658.6875,339.4531 659.1563,339.7031 C659.6406,339.9844 659.8125,340.2031 659.9063,340.6094 C659.9688,341.0156 660,341.1406 660.1406,341.2656 C660.2813,341.4063 660.5156,341.5156 660.7344,341.5156 C661,341.5156 661.2656,341.375 661.4375,341.1563 C661.5469,341 661.5781,340.8125 661.5781,340.3906 L661.5781,338.9688 C661.5781,338.5313 661.5625,338.4063 661.4688,338.25 C661.3125,337.9844 661.0313,337.8438 660.7344,337.8438 C660.4375,337.8438 660.2344,337.9375 660.0156,338.25 L659.8438,338.1719 Z " fill="#000000"/><text fill="#000000" font-family="sans-serif" font-size="12" lengthAdjust="spacing" textLength="62" x="671.5" y="346.6543">AnyObject</text><!--MD5=[a3eca0ecda996cb9814d6fecce62487b]
link ReusableElement to AnyObject--><path codeLine="49" d="M633.232,236.092 C645.058,258.245 660.239,286.6843 671.851,308.4383 " fill="none" id="ReusableElement-to-AnyObject" style="stroke:#A80036;stroke-width:1.0;stroke-dasharray:7.0,7.0;"/><polygon fill="none" points="678.071,305.2251,681.314,326.1651,665.721,311.8179,678.071,305.2251" style="stroke:#A80036;stroke-width:1.0;"/><text fill="#000000" font-family="sans-serif" font-size="13" lengthAdjust="spacing" textLength="47" x="657.5" y="279.0669">inherits</text><!--MD5=[8f8e8ca0134ef1a1d16e97ed5fa95959]
link TableViewElement to ReusableElement--><path codeLine="50" d="M466.352,76.757 C491.726,97.695 526.684,126.54 556.269,150.952 " fill="none" id="TableViewElement-to-ReusableElement" style="stroke:#A80036;stroke-width:1.0;stroke-dasharray:7.0,7.0;"/><polygon fill="none" points="561.087,145.851,572.058,163.98,552.176,156.65,561.087,145.851" style="stroke:#A80036;stroke-width:1.0;"/><text fill="#000000" font-family="sans-serif" font-size="13" lengthAdjust="spacing" textLength="73" x="535.5" y="130.0669">conforms to</text><!--MD5=[44ca4482dca3b2769b5d81cc21664df7]
link CollectionViewElement to ReusableElement--><path codeLine="51" d="M664.692,76.757 C656.732,96.144 645.989,122.31 636.484,145.459 " fill="none" id="CollectionViewElement-to-ReusableElement" style="stroke:#A80036;stroke-width:1.0;stroke-dasharray:7.0,7.0;"/><polygon fill="none" points="642.951,148.137,628.879,163.98,630,142.82,642.951,148.137" style="stroke:#A80036;stroke-width:1.0;"/><text fill="#000000" font-family="sans-serif" font-size="13" lengthAdjust="spacing" textLength="73" x="648.5" y="130.0669">conforms to</text><!--MD5=[0d6907eb0c0d312510912321c222b65c]
link TableDataProvider to ProviderBase--><path codeLine="52" d="M990.739,87.279 C1011.24,108.335 1036.53,134.317 1057.57,155.925 " fill="none" id="TableDataProvider-to-ProviderBase" style="stroke:#A80036;stroke-width:1.0;stroke-dasharray:7.0,7.0;"/><polygon fill="none" points="1062.73,151.197,1071.67,170.411,1052.7,160.963,1062.73,151.197" style="stroke:#A80036;stroke-width:1.0;"/><text fill="#000000" font-family="sans-serif" font-size="13" lengthAdjust="spacing" textLength="73" x="1036.5" y="130.0669">conforms to</text><!--MD5=[b9e0e0df64f03cd2e64c2245fd64f608]
link CollectionDataProvider to ProviderBase--><path codeLine="53" d="M1173.98,76.757 C1160.87,98.273 1142.67,128.139 1127.55,152.964 " fill="none" id="CollectionDataProvider-to-ProviderBase" style="stroke:#A80036;stroke-width:1.0;stroke-dasharray:7.0,7.0;"/><polygon fill="none" points="1133.34,156.912,1116.96,170.35,1121.38,149.628,1133.34,156.912" style="stroke:#A80036;stroke-width:1.0;"/><text fill="#000000" font-family="sans-serif" font-size="13" lengthAdjust="spacing" textLength="73" x="1149.5" y="130.0669">conforms to</text><!--MD5=[62ed02e1007f8221aef274121512eb16]
reverse link UITableView to UITableView0--><path codeLine="54" d="M77.5,81.941 C77.5,108.561 77.5,145.193 77.5,170.35 " fill="none" id="UITableView-backto-UITableView0" style="stroke:#A80036;stroke-width:1.0;stroke-dasharray:7.0,7.0;"/><polygon fill="#A80036" points="77.5,76.757,73.5,85.757,77.5,81.757,81.5,85.757,77.5,76.757" style="stroke:#A80036;stroke-width:1.0;"/><text fill="#000000" font-family="sans-serif" font-size="13" lengthAdjust="spacing" textLength="21" x="78.5" y="130.0669">ext</text><!--MD5=[a50333506b322345cc18a0284c2196a8]
reverse link ReusableElement to ReusableElement1--><path codeLine="55" d="M593.349,240.622 C581.052,263.66 565.838,292.1608 554.721,312.9857 " fill="none" id="ReusableElement-backto-ReusableElement1" style="stroke:#A80036;stroke-width:1.0;stroke-dasharray:7.0,7.0;"/><polygon fill="#A80036" points="595.768,236.092,588.0001,242.1468,593.4128,240.5025,595.057,245.9152,595.768,236.092" style="stroke:#A80036;stroke-width:1.0;"/><text fill="#000000" font-family="sans-serif" font-size="13" lengthAdjust="spacing" textLength="21" x="580.5" y="279.0669">ext</text><!--MD5=[5ece40f8648e96a78a5a065f6cf8c0ca]
reverse link TableViewElement to TableViewElement2--><path codeLine="56" d="M430.804,81.901 C430.556,97.731 430.368,116.829 430.5,134 C430.591,145.85 430.776,158.914 430.962,170.203 " fill="none" id="TableViewElement-backto-TableViewElement2" style="stroke:#A80036;stroke-width:1.0;stroke-dasharray:7.0,7.0;"/><polygon fill="#A80036" points="430.89,76.666,426.7439,85.5997,430.8086,81.6653,434.7429,85.73,430.89,76.666" style="stroke:#A80036;stroke-width:1.0;"/><text fill="#000000" font-family="sans-serif" font-size="13" lengthAdjust="spacing" textLength="21" x="431.5" y="130.0669">ext</text><!--MD5=[eb6ddf96738bedc1b797c00b6c5e6169]
reverse link TableViewElement to TableViewElement3--><path codeLine="57" d="M393.649,80.291 C362.306,107.03 318.186,144.669 288.083,170.35 " fill="none" id="TableViewElement-backto-TableViewElement3" style="stroke:#A80036;stroke-width:1.0;stroke-dasharray:7.0,7.0;"/><polygon fill="#A80036" points="397.791,76.757,388.3481,79.5555,393.9873,80.0022,393.5405,85.6414,397.791,76.757" style="stroke:#A80036;stroke-width:1.0;"/><text fill="#000000" font-family="sans-serif" font-size="13" lengthAdjust="spacing" textLength="21" x="349.5" y="130.0669">ext</text><!--MD5=[4da109b8febbc123eccd791a2c07c52b]
reverse link CollectionViewElement to CollectionViewElement4--><path codeLine="58" d="M705.447,80.619 C729.157,107.337 762.379,144.774 785.075,170.35 " fill="none" id="CollectionViewElement-backto-CollectionViewElement4" style="stroke:#A80036;stroke-width:1.0;stroke-dasharray:7.0,7.0;"/><polygon fill="#A80036" points="702.02,76.757,705.0032,86.1432,705.3392,80.4963,710.9861,80.8324,702.02,76.757" style="stroke:#A80036;stroke-width:1.0;"/><text fill="#000000" font-family="sans-serif" font-size="13" lengthAdjust="spacing" textLength="21" x="753.5" y="130.0669">ext</text><!--MD5=[50bb4af21367f4a3f13e1881009bbe84]
reverse link ProviderBase to ProviderBase5--><path codeLine="59" d="M1099.5,235.031 C1099.5,258.82 1099.5,290.2364 1099.5,312.7672 " fill="none" id="ProviderBase-backto-ProviderBase5" style="stroke:#A80036;stroke-width:1.0;stroke-dasharray:7.0,7.0;"/><polygon fill="#A80036" points="1099.5,229.771,1095.5,238.771,1099.5,234.771,1103.5,238.771,1099.5,229.771" style="stroke:#A80036;stroke-width:1.0;"/><text fill="#000000" font-family="sans-serif" font-size="13" lengthAdjust="spacing" textLength="21" x="1100.5" y="279.0669">ext</text><!--MD5=[690331b5c059f7a0562bf71ff1ceeb63]
@startuml

' STYLE START
hide empty members
skinparam shadowing false
' STYLE END


class "UITableView" as UITableView << (X, Orchid) extension >> { 
  +addRefreshControl() 
}
class "UITableView" as UITableView0 << (X, Orchid) extension >> { 
  deselectAll(animated:) 
}
class "ReusableElement" as ReusableElement << (P, GoldenRod) protocol >> { 
  ~{static} reuseIdentifier : String
  ~{static} nibName : String 
}
class "TableViewElement" as TableViewElement << (P, GoldenRod) protocol >> { 
  ~{static} register(tableView:) 
}
class "CollectionViewElement" as CollectionViewElement << (P, GoldenRod) protocol >> { 
  ~{static} register(collectionView:) 
}
class "ReusableElement" as ReusableElement1 << (X, Orchid) extension >> { 
  {static} nibName : String 
}
class "TableViewElement" as TableViewElement2 << (X, Orchid) extension >> { 
  {static} register(tableView:) 
}
class "TableViewElement" as TableViewElement3 << (X, Orchid) extension >> { 
  {static} register(tableView:) 
}
class "CollectionViewElement" as CollectionViewElement4 << (X, Orchid) extension >> { 
  {static} register(collectionView:) 
}
class "ProviderBase" as ProviderBase << (P, GoldenRod) protocol >> { 
  ~{static} defaultSection : String 
}
class "TableDataProvider" as TableDataProvider << (P, GoldenRod) protocol >> { 
  ~dataSource : DataSourceType?
  ~createDataSource(tableView:) 
}
class "CollectionDataProvider" as CollectionDataProvider << (P, GoldenRod) protocol >> { 
  ~dataSource : DataSourceType? 
}
class "ProviderBase" as ProviderBase5 << (X, Orchid) extension >> { 
  {static} defaultSection : String 
}
ReusableElement ..|> AnyObject : inherits
TableViewElement ..|> ReusableElement : conforms to
CollectionViewElement ..|> ReusableElement : conforms to
TableDataProvider ..|> ProviderBase : conforms to
CollectionDataProvider ..|> ProviderBase : conforms to
UITableView <.. UITableView0 : ext
ReusableElement <.. ReusableElement1 : ext
TableViewElement <.. TableViewElement2 : ext
TableViewElement <.. TableViewElement3 : ext
CollectionViewElement <.. CollectionViewElement4 : ext
ProviderBase <.. ProviderBase5 : ext
@enduml

@startuml

hide empty members
skinparam shadowing false


class "UITableView" as UITableView << (X, Orchid) extension >> { 
  +addRefreshControl() 
}
class "UITableView" as UITableView0 << (X, Orchid) extension >> { 
  deselectAll(animated:) 
}
class "ReusableElement" as ReusableElement << (P, GoldenRod) protocol >> { 
  ~{static} reuseIdentifier : String
  ~{static} nibName : String 
}
class "TableViewElement" as TableViewElement << (P, GoldenRod) protocol >> { 
  ~{static} register(tableView:) 
}
class "CollectionViewElement" as CollectionViewElement << (P, GoldenRod) protocol >> { 
  ~{static} register(collectionView:) 
}
class "ReusableElement" as ReusableElement1 << (X, Orchid) extension >> { 
  {static} nibName : String 
}
class "TableViewElement" as TableViewElement2 << (X, Orchid) extension >> { 
  {static} register(tableView:) 
}
class "TableViewElement" as TableViewElement3 << (X, Orchid) extension >> { 
  {static} register(tableView:) 
}
class "CollectionViewElement" as CollectionViewElement4 << (X, Orchid) extension >> { 
  {static} register(collectionView:) 
}
class "ProviderBase" as ProviderBase << (P, GoldenRod) protocol >> { 
  ~{static} defaultSection : String 
}
class "TableDataProvider" as TableDataProvider << (P, GoldenRod) protocol >> { 
  ~dataSource : DataSourceType?
  ~createDataSource(tableView:) 
}
class "CollectionDataProvider" as CollectionDataProvider << (P, GoldenRod) protocol >> { 
  ~dataSource : DataSourceType? 
}
class "ProviderBase" as ProviderBase5 << (X, Orchid) extension >> { 
  {static} defaultSection : String 
}
ReusableElement ..|> AnyObject : inherits
TableViewElement ..|> ReusableElement : conforms to
CollectionViewElement ..|> ReusableElement : conforms to
TableDataProvider ..|> ProviderBase : conforms to
CollectionDataProvider ..|> ProviderBase : conforms to
UITableView <.. UITableView0 : ext
ReusableElement <.. ReusableElement1 : ext
TableViewElement <.. TableViewElement2 : ext
TableViewElement <.. TableViewElement3 : ext
CollectionViewElement <.. CollectionViewElement4 : ext
ProviderBase <.. ProviderBase5 : ext
@enduml

PlantUML version 1.2021.7(Sun May 23 12:40:07 UTC 2021)
(GPL source distribution)
Java Runtime: Java(TM) SE Runtime Environment
JVM: Java HotSpot(TM) 64-Bit Server VM
Default Encoding: UTF-8
Language: en
Country: US
--></g></svg>