<?xml version="1.0" encoding="UTF-8" standalone="no"?><svg xmlns="http://www.w3.org/2000/svg" xmlns:xlink="http://www.w3.org/1999/xlink" contentScriptType="application/ecmascript" contentStyleType="text/css" height="248px" preserveAspectRatio="none" style="width:1274px;height:248px;background:#FFFFFF;" version="1.1" viewBox="0 0 1274 248" width="1274px" zoomAndPan="magnify"><defs/><g><!--MD5=[b07eaf65fc88687896cb49e138639716]
class MortgageIllustrationProviderPublishers--><rect codeLine="8" fill="#FEFECE" height="58.7422" id="MortgageIllustrationProviderPublishers" style="stroke:#A80036;stroke-width:1.5;" width="581" x="9" y="183"/><ellipse cx="180.25" cy="201.9688" fill="#DAA520" rx="11" ry="11" style="stroke:#A80036;stroke-width:1.0;"/><path d="M179.7969,203.5625 L181.4688,203.5625 C183.0469,203.5625 183.8906,203.2813 184.6406,202.4531 C185.1875,201.8594 185.5,201.0469 185.5,200.2656 C185.5,198.3906 183.9688,197.0625 181.7969,197.0625 L177.8438,197.0625 C177.4063,197.0625 177.2813,197.0781 177.125,197.1719 C176.875,197.3281 176.7188,197.625 176.7188,197.9063 C176.7188,198.1563 176.8594,198.4375 177.0781,198.6094 C177.2344,198.7188 177.4219,198.75 177.8438,198.75 L178.0938,198.75 L178.0938,205.2656 L177.8438,205.2656 C177.4375,205.2656 177.2813,205.2813 177.125,205.3906 C176.875,205.5469 176.7188,205.8281 176.7188,206.125 C176.7188,206.375 176.8594,206.6406 177.0781,206.7969 C177.2188,206.9219 177.4531,206.9688 177.8438,206.9688 L181.4844,206.9688 C181.8281,206.9688 182.0781,206.9219 182.1875,206.8438 C182.4531,206.7031 182.6094,206.4063 182.6094,206.125 C182.6094,205.8438 182.4688,205.5938 182.25,205.4219 C182.0781,205.2969 181.9375,205.2656 181.4844,205.2656 L179.7969,205.2656 L179.7969,203.5625 Z M179.7969,198.75 L181.7969,198.75 C182.9844,198.75 183.6875,199.3594 183.6875,200.3281 C183.6875,201.2813 182.9844,201.875 181.7969,201.875 L179.7969,201.875 L179.7969,198.75 Z " fill="#000000"/><text fill="#000000" font-family="sans-serif" font-size="12" font-style="italic" lengthAdjust="spacing" textLength="63" x="284.25" y="199.1387">«protocol»</text><text fill="#000000" font-family="sans-serif" font-size="12" lengthAdjust="spacing" textLength="230" x="200.75" y="213.1074">MortgageIllustrationProviderPublishers</text><line style="stroke:#A80036;stroke-width:1.5;" x1="10" x2="589" y1="220.9375" y2="220.9375"/><polygon fill="none" points="20,227.9375,16,233.9375,24,233.9375" style="stroke:#1963A0;stroke-width:1.0;"/><text fill="#000000" font-family="sans-serif" font-size="11" lengthAdjust="spacing" textLength="555" x="29" y="235.1479">mortgageIllustration : AnyPublisher&lt;MortgageIllustrationResponse?, DashboardDataProviderError&gt;</text><!--MD5=[4ac6c3e8009863c34e42d6407f5726a4]
class MortgageIllustrationProviderOperations--><rect codeLine="11" fill="#FEFECE" height="58.7422" id="MortgageIllustrationProviderOperations" style="stroke:#A80036;stroke-width:1.5;" width="268" x="625.5" y="183"/><ellipse cx="640.5" cy="201.9688" fill="#DAA520" rx="11" ry="11" style="stroke:#A80036;stroke-width:1.0;"/><path d="M640.0469,203.5625 L641.7188,203.5625 C643.2969,203.5625 644.1406,203.2813 644.8906,202.4531 C645.4375,201.8594 645.75,201.0469 645.75,200.2656 C645.75,198.3906 644.2188,197.0625 642.0469,197.0625 L638.0938,197.0625 C637.6563,197.0625 637.5313,197.0781 637.375,197.1719 C637.125,197.3281 636.9688,197.625 636.9688,197.9063 C636.9688,198.1563 637.1094,198.4375 637.3281,198.6094 C637.4844,198.7188 637.6719,198.75 638.0938,198.75 L638.3438,198.75 L638.3438,205.2656 L638.0938,205.2656 C637.6875,205.2656 637.5313,205.2813 637.375,205.3906 C637.125,205.5469 636.9688,205.8281 636.9688,206.125 C636.9688,206.375 637.1094,206.6406 637.3281,206.7969 C637.4688,206.9219 637.7031,206.9688 638.0938,206.9688 L641.7344,206.9688 C642.0781,206.9688 642.3281,206.9219 642.4375,206.8438 C642.7031,206.7031 642.8594,206.4063 642.8594,206.125 C642.8594,205.8438 642.7188,205.5938 642.5,205.4219 C642.3281,205.2969 642.1875,205.2656 641.7344,205.2656 L640.0469,205.2656 L640.0469,203.5625 Z M640.0469,198.75 L642.0469,198.75 C643.2344,198.75 643.9375,199.3594 643.9375,200.3281 C643.9375,201.2813 643.2344,201.875 642.0469,201.875 L640.0469,201.875 L640.0469,198.75 Z " fill="#000000"/><text fill="#000000" font-family="sans-serif" font-size="12" font-style="italic" lengthAdjust="spacing" textLength="63" x="741" y="199.1387">«protocol»</text><text fill="#000000" font-family="sans-serif" font-size="12" lengthAdjust="spacing" textLength="236" x="654.5" y="213.1074">MortgageIllustrationProviderOperations</text><line style="stroke:#A80036;stroke-width:1.5;" x1="626.5" x2="892.5" y1="220.9375" y2="220.9375"/><polygon fill="#4177AF" points="636.5,227.9375,632.5,233.9375,640.5,233.9375" style="stroke:#1963A0;stroke-width:1.0;"/><text fill="#000000" font-family="sans-serif" font-size="11" lengthAdjust="spacing" textLength="204" x="645.5" y="235.1479">getMortgageIllustration(completion:)</text><!--MD5=[ab475c1d01bcb0f82fb7e2d3b3fdfb59]
class MortgageIllustrationProvider--><rect codeLine="14" fill="#FEFECE" height="99.2188" id="MortgageIllustrationProvider" style="stroke:#A80036;stroke-width:1.5;" width="669" x="563" y="7"/><ellipse cx="808.75" cy="23" fill="#8FBC8F" rx="11" ry="11" style="stroke:#A80036;stroke-width:1.0;"/><path d="M811.0938,18.6719 C810.1563,18.2344 809.5625,18.0938 808.6875,18.0938 C806.0625,18.0938 804.0625,20.1719 804.0625,22.8906 L804.0625,24.0156 C804.0625,26.5938 806.1719,28.4844 809.0625,28.4844 C810.2813,28.4844 811.4375,28.1875 812.1875,27.6406 C812.7656,27.2344 813.0938,26.7813 813.0938,26.3906 C813.0938,25.9375 812.7031,25.5469 812.2344,25.5469 C812.0156,25.5469 811.8125,25.625 811.625,25.8125 C811.1719,26.2969 811.1719,26.2969 810.9844,26.3906 C810.5625,26.6563 809.875,26.7813 809.1094,26.7813 C807.0625,26.7813 805.7656,25.6875 805.7656,23.9844 L805.7656,22.8906 C805.7656,21.1094 807.0156,19.7969 808.75,19.7969 C809.3281,19.7969 809.9375,19.9531 810.4063,20.2031 C810.8906,20.4844 811.0625,20.7031 811.1563,21.1094 C811.2188,21.5156 811.25,21.6406 811.3906,21.7656 C811.5313,21.9063 811.7656,22.0156 811.9844,22.0156 C812.25,22.0156 812.5156,21.875 812.6875,21.6563 C812.7969,21.5 812.8281,21.3125 812.8281,20.8906 L812.8281,19.4688 C812.8281,19.0313 812.8125,18.9063 812.7188,18.75 C812.5625,18.4844 812.2813,18.3438 811.9844,18.3438 C811.6875,18.3438 811.4844,18.4375 811.2656,18.75 L811.0938,18.6719 Z " fill="#000000"/><text fill="#000000" font-family="sans-serif" font-size="12" lengthAdjust="spacing" textLength="169" x="829.25" y="27.1543">MortgageIllustrationProvider</text><line style="stroke:#A80036;stroke-width:1.5;" x1="564" x2="1231" y1="39" y2="39"/><rect fill="none" height="6" style="stroke:#C82930;stroke-width:1.0;" width="6" x="571" y="47"/><text fill="#000000" font-family="sans-serif" font-size="11" lengthAdjust="spacing" textLength="643" x="583" y="53.2104">mortgageIllustrationSubject : CurrentValueSubject&lt;MortgageIllustrationResponse?, DashboardDataProviderError&gt;</text><polygon fill="none" points="574,58.8047,570,64.8047,578,64.8047" style="stroke:#1963A0;stroke-width:1.0;"/><text fill="#000000" font-family="sans-serif" font-size="11" lengthAdjust="spacing" textLength="555" x="583" y="66.0151">mortgageIllustration : AnyPublisher&lt;MortgageIllustrationResponse?, DashboardDataProviderError&gt;</text><polygon fill="none" points="574,71.6094,570,77.6094,578,77.6094" style="stroke:#1963A0;stroke-width:1.0;"/><text fill="#000000" font-family="sans-serif" font-size="11" lengthAdjust="spacing" textLength="267" x="583" y="78.8198">dependencies : DashboardDependenciesType</text><line style="stroke:#A80036;stroke-width:1.5;" x1="564" x2="1231" y1="85.4141" y2="85.4141"/><polygon fill="#4177AF" points="574,92.4141,570,98.4141,578,98.4141" style="stroke:#1963A0;stroke-width:1.0;"/><text fill="#000000" font-family="sans-serif" font-size="11" lengthAdjust="spacing" textLength="110" x="583" y="99.6245">init(dependencies:)</text><!--MD5=[bb57853f2cc729abd9977a0c0c4d4925]
class MortgageIllustrationProvider0--><rect codeLine="20" fill="#FEFECE" height="58.7422" id="MortgageIllustrationProvider0" style="stroke:#A80036;stroke-width:1.5;" width="216" x="928.5" y="183"/><ellipse cx="950.25" cy="201.9688" fill="#DA70D6" rx="11" ry="11" style="stroke:#A80036;stroke-width:1.0;"/><path d="M951.4375,201.9219 L954.1094,198.75 C954.7031,198.7344 955.0781,198.4375 955.0781,197.9063 C955.0781,197.6406 954.9531,197.375 954.7188,197.2031 C954.5469,197.0938 954.4063,197.0625 953.9531,197.0625 L952.4219,197.0625 C952.0469,197.0625 951.7813,197.1094 951.6406,197.2344 C951.4219,197.375 951.2813,197.6563 951.2813,197.9063 C951.2813,198.2813 951.4531,198.5 951.9375,198.7344 L950.3438,200.5938 L948.7344,198.7344 C949.2344,198.5 949.375,198.2813 949.375,197.9063 C949.375,197.6406 949.25,197.375 949.0313,197.2031 C948.8594,197.0938 948.7188,197.0625 948.2344,197.0625 L946.6875,197.0625 C946.5781,197.0625 946.5625,197.0625 946.3594,197.0938 C945.8594,197.1406 945.5781,197.4531 945.5781,197.9063 C945.5781,198.4219 945.9375,198.7188 946.5625,198.75 L949.25,201.9063 L946.4219,205.2656 C945.7969,205.2656 945.4219,205.5938 945.4219,206.125 C945.4219,206.3906 945.5625,206.6406 945.7813,206.8125 C945.9375,206.9219 946.1406,206.9688 946.5469,206.9688 L948.4219,206.9688 C948.7813,206.9688 949,206.9375 949.1406,206.8438 C949.3906,206.7031 949.5469,206.4063 949.5469,206.125 C949.5469,205.6094 949.2188,205.2969 948.6406,205.2656 L950.3594,203.2344 L952.0781,205.2656 C951.4844,205.2969 951.1563,205.6094 951.1563,206.125 C951.1563,206.6875 951.5156,206.9688 952.2656,206.9688 L954.1563,206.9688 C954.5156,206.9688 954.7344,206.9375 954.875,206.8438 C955.125,206.7031 955.2813,206.4063 955.2813,206.125 C955.2813,205.5938 954.9219,205.2813 954.2813,205.2656 L951.4375,201.9219 Z " fill="#000000"/><text fill="#000000" font-family="sans-serif" font-size="12" font-style="italic" lengthAdjust="spacing" textLength="72" x="1014.25" y="199.1387">«extension»</text><text fill="#000000" font-family="sans-serif" font-size="12" lengthAdjust="spacing" textLength="169" x="965.75" y="213.1074">MortgageIllustrationProvider</text><line style="stroke:#A80036;stroke-width:1.5;" x1="929.5" x2="1143.5" y1="220.9375" y2="220.9375"/><text fill="#000000" font-family="sans-serif" font-size="11" lengthAdjust="spacing" textLength="204" x="934.5" y="235.1479">getMortgageIllustration(completion:)</text><!--MD5=[0d4fb80341763a24143be61e75fdd318]
class NSObject--><rect fill="#FEFECE" height="32" id="NSObject" style="stroke:#A80036;stroke-width:1.5;" width="88" x="1179.5" y="196.5"/><ellipse cx="1194.5" cy="212.5" fill="#ADD1B2" rx="11" ry="11" style="stroke:#A80036;stroke-width:1.0;"/><path d="M1196.8438,208.1719 C1195.9063,207.7344 1195.3125,207.5938 1194.4375,207.5938 C1191.8125,207.5938 1189.8125,209.6719 1189.8125,212.3906 L1189.8125,213.5156 C1189.8125,216.0938 1191.9219,217.9844 1194.8125,217.9844 C1196.0313,217.9844 1197.1875,217.6875 1197.9375,217.1406 C1198.5156,216.7344 1198.8438,216.2813 1198.8438,215.8906 C1198.8438,215.4375 1198.4531,215.0469 1197.9844,215.0469 C1197.7656,215.0469 1197.5625,215.125 1197.375,215.3125 C1196.9219,215.7969 1196.9219,215.7969 1196.7344,215.8906 C1196.3125,216.1563 1195.625,216.2813 1194.8594,216.2813 C1192.8125,216.2813 1191.5156,215.1875 1191.5156,213.4844 L1191.5156,212.3906 C1191.5156,210.6094 1192.7656,209.2969 1194.5,209.2969 C1195.0781,209.2969 1195.6875,209.4531 1196.1563,209.7031 C1196.6406,209.9844 1196.8125,210.2031 1196.9063,210.6094 C1196.9688,211.0156 1197,211.1406 1197.1406,211.2656 C1197.2813,211.4063 1197.5156,211.5156 1197.7344,211.5156 C1198,211.5156 1198.2656,211.375 1198.4375,211.1563 C1198.5469,211 1198.5781,210.8125 1198.5781,210.3906 L1198.5781,208.9688 C1198.5781,208.5313 1198.5625,208.4063 1198.4688,208.25 C1198.3125,207.9844 1198.0313,207.8438 1197.7344,207.8438 C1197.4375,207.8438 1197.2344,207.9375 1197.0156,208.25 L1196.8438,208.1719 Z " fill="#000000"/><text fill="#000000" font-family="sans-serif" font-size="12" lengthAdjust="spacing" textLength="56" x="1208.5" y="216.6543">NSObject</text><!--MD5=[c3bf0e3338db4af89d82188b689be34e]
link MortgageIllustrationProvider to NSObject--><path codeLine="23" d="M1000.201,106.015 C1058.01,133.324 1127.6,166.198 1173.56,187.9082 " fill="none" id="MortgageIllustrationProvider-to-NSObject" style="stroke:#A80036;stroke-width:1.0;"/><polygon fill="none" points="1176.61,181.6083,1191.71,196.4804,1170.63,194.267,1176.61,181.6083" style="stroke:#A80036;stroke-width:1.0;"/><text fill="#000000" font-family="sans-serif" font-size="13" lengthAdjust="spacing" textLength="47" x="1100.5" y="149.0669">inherits</text><!--MD5=[551bbac9ca31a3bc6d8096a8dde9b5d3]
link MortgageIllustrationProvider to MortgageIllustrationProviderPublishers--><path codeLine="24" d="M709.11,106.015 C618.242,129.416 511.509,156.9023 429.779,177.9499 " fill="none" id="MortgageIllustrationProvider-to-MortgageIllustrationProviderPublishers" style="stroke:#A80036;stroke-width:1.0;stroke-dasharray:7.0,7.0;"/><polygon fill="none" points="431.475,184.7416,410.361,182.9506,427.983,171.1839,431.475,184.7416" style="stroke:#A80036;stroke-width:1.0;"/><text fill="#000000" font-family="sans-serif" font-size="13" lengthAdjust="spacing" textLength="73" x="582.5" y="149.0669">conforms to</text><!--MD5=[685c2bf4d34c3f4c8345ac2568d754ab]
link MortgageIllustrationProvider to MortgageIllustrationProviderOperations--><path codeLine="25" d="M853.836,106.227 C836.192,125.916 815.982,148.4691 798.806,167.637 " fill="none" id="MortgageIllustrationProvider-to-MortgageIllustrationProviderOperations" style="stroke:#A80036;stroke-width:1.0;stroke-dasharray:7.0,7.0;"/><polygon fill="none" points="803.774,172.5814,785.214,182.8046,793.348,163.2384,803.774,172.5814" style="stroke:#A80036;stroke-width:1.0;"/><text fill="#000000" font-family="sans-serif" font-size="13" lengthAdjust="spacing" textLength="73" x="825.5" y="149.0669">conforms to</text><!--MD5=[bd06c05d8e421ff23418359d6bdb325e]
reverse link MortgageIllustrationProvider to MortgageIllustrationProvider0--><path codeLine="26" d="M944.977,110.101 C966.949,134.443 992.195,162.4144 1010.6,182.8046 " fill="none" id="MortgageIllustrationProvider-backto-MortgageIllustrationProvider0" style="stroke:#A80036;stroke-width:1.0;stroke-dasharray:7.0,7.0;"/><polygon fill="#A80036" points="941.48,106.227,944.541,115.5881,944.8302,109.9386,950.4796,110.2278,941.48,106.227" style="stroke:#A80036;stroke-width:1.0;"/><text fill="#000000" font-family="sans-serif" font-size="13" lengthAdjust="spacing" textLength="21" x="985.5" y="149.0669">ext</text><!--MD5=[5c7fe72b5fd9845119e3c066cae10d16]
@startuml

' STYLE START
hide empty members
skinparam shadowing false
' STYLE END


class "MortgageIllustrationProviderPublishers" as MortgageIllustrationProviderPublishers << (P, GoldenRod) protocol >> { 
  ~mortgageIllustration : AnyPublisher<MortgageIllustrationResponse?, DashboardDataProviderError> 
}
class "MortgageIllustrationProviderOperations" as MortgageIllustrationProviderOperations << (P, GoldenRod) protocol >> { 
  ~getMortgageIllustration(completion:) 
}
class "MortgageIllustrationProvider" as MortgageIllustrationProvider << (C, DarkSeaGreen) >> { 
  -mortgageIllustrationSubject : CurrentValueSubject<MortgageIllustrationResponse?, DashboardDataProviderError>
  ~mortgageIllustration : AnyPublisher<MortgageIllustrationResponse?, DashboardDataProviderError>
  ~dependencies : DashboardDependenciesType
  ~init(dependencies:) 
}
class "MortgageIllustrationProvider" as MortgageIllustrationProvider0 << (X, Orchid) extension >> { 
  getMortgageIllustration(completion:) 
}
MortgageIllustrationProvider - -|> NSObject : inherits
MortgageIllustrationProvider ..|> MortgageIllustrationProviderPublishers : conforms to
MortgageIllustrationProvider ..|> MortgageIllustrationProviderOperations : conforms to
MortgageIllustrationProvider <.. MortgageIllustrationProvider0 : ext
@enduml

@startuml

hide empty members
skinparam shadowing false


class "MortgageIllustrationProviderPublishers" as MortgageIllustrationProviderPublishers << (P, GoldenRod) protocol >> { 
  ~mortgageIllustration : AnyPublisher<MortgageIllustrationResponse?, DashboardDataProviderError> 
}
class "MortgageIllustrationProviderOperations" as MortgageIllustrationProviderOperations << (P, GoldenRod) protocol >> { 
  ~getMortgageIllustration(completion:) 
}
class "MortgageIllustrationProvider" as MortgageIllustrationProvider << (C, DarkSeaGreen) >> { 
  -mortgageIllustrationSubject : CurrentValueSubject<MortgageIllustrationResponse?, DashboardDataProviderError>
  ~mortgageIllustration : AnyPublisher<MortgageIllustrationResponse?, DashboardDataProviderError>
  ~dependencies : DashboardDependenciesType
  ~init(dependencies:) 
}
class "MortgageIllustrationProvider" as MortgageIllustrationProvider0 << (X, Orchid) extension >> { 
  getMortgageIllustration(completion:) 
}
MortgageIllustrationProvider - -|> NSObject : inherits
MortgageIllustrationProvider ..|> MortgageIllustrationProviderPublishers : conforms to
MortgageIllustrationProvider ..|> MortgageIllustrationProviderOperations : conforms to
MortgageIllustrationProvider <.. MortgageIllustrationProvider0 : ext
@enduml

PlantUML version 1.2021.7(Sun May 23 12:40:07 UTC 2021)
(GPL source distribution)
Java Runtime: Java(TM) SE Runtime Environment
JVM: Java HotSpot(TM) 64-Bit Server VM
Default Encoding: UTF-8
Language: en
Country: US
--></g></svg>