<?xml version="1.0" encoding="UTF-8" standalone="no"?><svg xmlns="http://www.w3.org/2000/svg" xmlns:xlink="http://www.w3.org/1999/xlink" contentScriptType="application/ecmascript" contentStyleType="text/css" height="390px" preserveAspectRatio="none" style="width:1719px;height:390px;background:#FFFFFF;" version="1.1" viewBox="0 0 1719 390" width="1719px" zoomAndPan="magnify"><defs/><g><!--MD5=[46be0f02d3ccb60e27af689741ef5b84]
class UserDetails--><rect codeLine="8" fill="#FEFECE" height="135.5703" id="UserDetails" style="stroke:#A80036;stroke-width:1.5;" width="154" x="134" y="17"/><ellipse cx="172.4" cy="35.9688" fill="#DAA520" rx="11" ry="11" style="stroke:#A80036;stroke-width:1.0;"/><path d="M171.9469,37.5625 L173.6188,37.5625 C175.1969,37.5625 176.0406,37.2813 176.7906,36.4531 C177.3375,35.8594 177.65,35.0469 177.65,34.2656 C177.65,32.3906 176.1188,31.0625 173.9469,31.0625 L169.9938,31.0625 C169.5563,31.0625 169.4313,31.0781 169.275,31.1719 C169.025,31.3281 168.8688,31.625 168.8688,31.9063 C168.8688,32.1563 169.0094,32.4375 169.2281,32.6094 C169.3844,32.7188 169.5719,32.75 169.9938,32.75 L170.2438,32.75 L170.2438,39.2656 L169.9938,39.2656 C169.5875,39.2656 169.4313,39.2813 169.275,39.3906 C169.025,39.5469 168.8688,39.8281 168.8688,40.125 C168.8688,40.375 169.0094,40.6406 169.2281,40.7969 C169.3688,40.9219 169.6031,40.9688 169.9938,40.9688 L173.6344,40.9688 C173.9781,40.9688 174.2281,40.9219 174.3375,40.8438 C174.6031,40.7031 174.7594,40.4063 174.7594,40.125 C174.7594,39.8438 174.6188,39.5938 174.4,39.4219 C174.2281,39.2969 174.0875,39.2656 173.6344,39.2656 L171.9469,39.2656 L171.9469,37.5625 Z M171.9469,32.75 L173.9469,32.75 C175.1344,32.75 175.8375,33.3594 175.8375,34.3281 C175.8375,35.2813 175.1344,35.875 173.9469,35.875 L171.9469,35.875 L171.9469,32.75 Z " fill="#000000"/><text fill="#000000" font-family="sans-serif" font-size="12" font-style="italic" lengthAdjust="spacing" textLength="63" x="195.1" y="33.1387">«protocol»</text><text fill="#000000" font-family="sans-serif" font-size="12" lengthAdjust="spacing" textLength="70" x="191.6" y="47.1074">UserDetails</text><line style="stroke:#A80036;stroke-width:1.5;" x1="135" x2="287" y1="54.9375" y2="54.9375"/><ellipse cx="145" cy="65.9375" rx="3" ry="3" style="stroke:#038048;stroke-width:1.0;fill:none;"/><text fill="#000000" font-family="sans-serif" font-size="11" lengthAdjust="spacing" textLength="77" x="154" y="69.1479">name : String</text><ellipse cx="145" cy="78.7422" rx="3" ry="3" style="stroke:#038048;stroke-width:1.0;fill:none;"/><text fill="#000000" font-family="sans-serif" font-size="11" lengthAdjust="spacing" textLength="110" x="154" y="81.9526">givenName : String</text><ellipse cx="145" cy="91.5469" rx="3" ry="3" style="stroke:#038048;stroke-width:1.0;fill:none;"/><text fill="#000000" font-family="sans-serif" font-size="11" lengthAdjust="spacing" textLength="102" x="154" y="94.7573">username : String</text><ellipse cx="145" cy="104.3516" rx="3" ry="3" style="stroke:#038048;stroke-width:1.0;fill:none;"/><text fill="#000000" font-family="sans-serif" font-size="11" lengthAdjust="spacing" textLength="78" x="154" y="107.562">locale : String</text><ellipse cx="145" cy="117.1563" rx="3" ry="3" style="stroke:#038048;stroke-width:1.0;fill:none;"/><text fill="#000000" font-family="sans-serif" font-size="11" lengthAdjust="spacing" textLength="113" x="154" y="120.3667">familyName : String</text><ellipse cx="145" cy="129.9609" rx="3" ry="3" style="stroke:#038048;stroke-width:1.0;fill:none;"/><text fill="#000000" font-family="sans-serif" font-size="11" lengthAdjust="spacing" textLength="76" x="154" y="133.1714">email : String</text><ellipse cx="145" cy="142.7656" rx="3" ry="3" style="stroke:#038048;stroke-width:1.0;fill:none;"/><text fill="#000000" font-family="sans-serif" font-size="11" lengthAdjust="spacing" textLength="128" x="154" y="145.9761">externalUserId : String</text><!--MD5=[4eaf14c12f8ff5e6c369378f2d5bc207]
class URLComponents--><rect codeLine="17" fill="#FEFECE" height="58.7422" id="URLComponents" style="stroke:#A80036;stroke-width:1.5;" width="130" x="323" y="55.5"/><ellipse cx="338" cy="74.4688" fill="#DA70D6" rx="11" ry="11" style="stroke:#A80036;stroke-width:1.0;"/><path d="M339.1875,74.4219 L341.8594,71.25 C342.4531,71.2344 342.8281,70.9375 342.8281,70.4063 C342.8281,70.1406 342.7031,69.875 342.4688,69.7031 C342.2969,69.5938 342.1563,69.5625 341.7031,69.5625 L340.1719,69.5625 C339.7969,69.5625 339.5313,69.6094 339.3906,69.7344 C339.1719,69.875 339.0313,70.1563 339.0313,70.4063 C339.0313,70.7813 339.2031,71 339.6875,71.2344 L338.0938,73.0938 L336.4844,71.2344 C336.9844,71 337.125,70.7813 337.125,70.4063 C337.125,70.1406 337,69.875 336.7813,69.7031 C336.6094,69.5938 336.4688,69.5625 335.9844,69.5625 L334.4375,69.5625 C334.3281,69.5625 334.3125,69.5625 334.1094,69.5938 C333.6094,69.6406 333.3281,69.9531 333.3281,70.4063 C333.3281,70.9219 333.6875,71.2188 334.3125,71.25 L337,74.4063 L334.1719,77.7656 C333.5469,77.7656 333.1719,78.0938 333.1719,78.625 C333.1719,78.8906 333.3125,79.1406 333.5313,79.3125 C333.6875,79.4219 333.8906,79.4688 334.2969,79.4688 L336.1719,79.4688 C336.5313,79.4688 336.75,79.4375 336.8906,79.3438 C337.1406,79.2031 337.2969,78.9063 337.2969,78.625 C337.2969,78.1094 336.9688,77.7969 336.3906,77.7656 L338.1094,75.7344 L339.8281,77.7656 C339.2344,77.7969 338.9063,78.1094 338.9063,78.625 C338.9063,79.1875 339.2656,79.4688 340.0156,79.4688 L341.9063,79.4688 C342.2656,79.4688 342.4844,79.4375 342.625,79.3438 C342.875,79.2031 343.0313,78.9063 343.0313,78.625 C343.0313,78.0938 342.6719,77.7813 342.0313,77.7656 L339.1875,74.4219 Z " fill="#000000"/><text fill="#000000" font-family="sans-serif" font-size="12" font-style="italic" lengthAdjust="spacing" textLength="72" x="365" y="71.6387">«extension»</text><text fill="#000000" font-family="sans-serif" font-size="12" lengthAdjust="spacing" textLength="98" x="352" y="85.6074">URLComponents</text><line style="stroke:#A80036;stroke-width:1.5;" x1="324" x2="452" y1="93.4375" y2="93.4375"/><text fill="#000000" font-family="sans-serif" font-size="11" lengthAdjust="spacing" textLength="67" x="329" y="107.6479">init(uri:port:)</text><!--MD5=[5d0a77e8f66918aa15fe0099dd6d4ba9]
class Environment--><rect codeLine="20" fill="#FEFECE" height="143.5703" id="Environment" style="stroke:#A80036;stroke-width:1.5;" width="322" x="488" y="13"/><ellipse cx="607.75" cy="31.9688" fill="#87CEEB" rx="11" ry="11" style="stroke:#A80036;stroke-width:1.0;"/><path d="M611.5313,27.9375 C611.5313,27.5 611.5156,27.3594 611.4219,27.2031 C611.2813,26.9688 611,26.8125 610.7031,26.8125 C610.3594,26.8125 610.2188,26.9531 610.0469,27.375 C609.4531,27 608.7031,26.8125 607.8281,26.8125 C605.7188,26.8125 604.1406,28.1094 604.1406,29.8281 C604.1406,30.7969 604.6719,31.7031 605.5313,32.1875 C606.0781,32.5 606.625,32.6719 607.7344,32.8594 C608.8906,33.0625 609.1563,33.125 609.5156,33.3125 C609.8906,33.5156 610.125,33.8594 610.125,34.2188 C610.125,34.9531 609.1406,35.5 607.8906,35.5 C606.7656,35.5 605.6875,35.0156 605.5156,34.4063 C605.3906,33.9375 605.3906,33.9375 605.2656,33.8281 C605.1094,33.6719 604.8906,33.5781 604.6563,33.5781 C604.375,33.5781 604.125,33.7031 603.9531,33.9219 C603.8438,34.0938 603.7969,34.2813 603.7969,34.7031 L603.7969,35.8281 C603.7969,36.5938 604.0781,36.9531 604.6719,36.9531 C604.9375,36.9531 605.0625,36.8906 605.3438,36.5469 C606.1875,36.9844 607.0781,37.2031 608,37.2031 C610.3281,37.2031 611.8906,36.0156 611.8906,34.25 C611.8906,33.3594 611.5781,32.6719 610.8906,32.125 C610.3594,31.7031 609.7188,31.4531 608.2344,31.1875 C606.9688,30.9531 606.875,30.9219 606.5469,30.75 C606.1719,30.5625 605.9063,30.1719 605.9063,29.8125 C605.9063,29.0781 606.7656,28.5156 607.8281,28.5156 C608.8906,28.5156 609.7031,28.9844 609.8594,29.6563 C609.9688,30.2031 609.9688,30.2031 610.0938,30.3438 C610.2344,30.4688 610.4688,30.5781 610.7031,30.5781 C610.9688,30.5781 611.2188,30.4375 611.3906,30.2188 C611.5,30.0469 611.5313,29.9063 611.5313,29.4375 L611.5313,27.9375 Z " fill="#000000"/><text fill="#000000" font-family="sans-serif" font-size="12" font-style="italic" lengthAdjust="spacing" textLength="50" x="640.25" y="29.1387">«struct»</text><text fill="#000000" font-family="sans-serif" font-size="12" lengthAdjust="spacing" textLength="74" x="628.25" y="43.1074">Environment</text><line style="stroke:#A80036;stroke-width:1.5;" x1="489" x2="809" y1="50.9375" y2="50.9375"/><ellipse cx="499" cy="61.9375" rx="3" ry="3" style="stroke:#038048;stroke-width:1.0;fill:none;"/><text fill="#000000" font-family="sans-serif" font-size="11" lengthAdjust="spacing" text-decoration="underline" textLength="127" x="508" y="65.1479">shared : Environment!</text><ellipse cx="499" cy="74.7422" rx="3" ry="3" style="stroke:#038048;stroke-width:1.0;fill:none;"/><text fill="#000000" font-family="sans-serif" font-size="11" lengthAdjust="spacing" textLength="81" x="508" y="77.9526">baseURL : URL</text><ellipse cx="499" cy="87.5469" rx="3" ry="3" style="stroke:#038048;stroke-width:1.0;fill:none;"/><text fill="#000000" font-family="sans-serif" font-size="11" lengthAdjust="spacing" textLength="127" x="508" y="90.7573">openBankingURL : URL</text><ellipse cx="499" cy="100.3516" rx="3" ry="3" style="stroke:#038048;stroke-width:1.0;fill:none;"/><text fill="#000000" font-family="sans-serif" font-size="11" lengthAdjust="spacing" textLength="249" x="508" y="103.562">sessionConfiguration : SessionConfiguration</text><line style="stroke:#A80036;stroke-width:1.5;" x1="489" x2="809" y1="110.1563" y2="110.1563"/><ellipse cx="499" cy="121.1563" fill="#84BE84" rx="3" ry="3" style="stroke:#038048;stroke-width:1.0;"/><text fill="#000000" font-family="sans-serif" font-size="11" lengthAdjust="spacing" text-decoration="underline" textLength="82" x="508" y="124.3667">setup(bundle:)</text><rect fill="#F24D5C" height="6" style="stroke:#C82930;stroke-width:1.0;" width="6" x="496" y="130.9609"/><text fill="#000000" font-family="sans-serif" font-size="11" lengthAdjust="spacing" textLength="67" x="508" y="137.1714">init(bundle:)</text><rect fill="#F24D5C" height="6" style="stroke:#C82930;stroke-width:1.0;" width="6" x="496" y="143.7656"/><text fill="#000000" font-family="sans-serif" font-size="11" lengthAdjust="spacing" textLength="296" x="508" y="149.9761">init(baseURL:openBankingURL:sessionConfiguration:)</text><!--MD5=[d521a8caf1e68945bd5e904274aef9ca]
class SessionConfiguration--><rect codeLine="29" fill="#FEFECE" height="143.5703" id="SessionConfiguration" style="stroke:#A80036;stroke-width:1.5;" width="408" x="7" y="240"/><ellipse cx="143.25" cy="258.9688" fill="#87CEEB" rx="11" ry="11" style="stroke:#A80036;stroke-width:1.0;"/><path d="M147.0313,254.9375 C147.0313,254.5 147.0156,254.3594 146.9219,254.2031 C146.7813,253.9688 146.5,253.8125 146.2031,253.8125 C145.8594,253.8125 145.7188,253.9531 145.5469,254.375 C144.9531,254 144.2031,253.8125 143.3281,253.8125 C141.2188,253.8125 139.6406,255.1094 139.6406,256.8281 C139.6406,257.7969 140.1719,258.7031 141.0313,259.1875 C141.5781,259.5 142.125,259.6719 143.2344,259.8594 C144.3906,260.0625 144.6563,260.125 145.0156,260.3125 C145.3906,260.5156 145.625,260.8594 145.625,261.2188 C145.625,261.9531 144.6406,262.5 143.3906,262.5 C142.2656,262.5 141.1875,262.0156 141.0156,261.4063 C140.8906,260.9375 140.8906,260.9375 140.7656,260.8281 C140.6094,260.6719 140.3906,260.5781 140.1563,260.5781 C139.875,260.5781 139.625,260.7031 139.4531,260.9219 C139.3438,261.0938 139.2969,261.2813 139.2969,261.7031 L139.2969,262.8281 C139.2969,263.5938 139.5781,263.9531 140.1719,263.9531 C140.4375,263.9531 140.5625,263.8906 140.8438,263.5469 C141.6875,263.9844 142.5781,264.2031 143.5,264.2031 C145.8281,264.2031 147.3906,263.0156 147.3906,261.25 C147.3906,260.3594 147.0781,259.6719 146.3906,259.125 C145.8594,258.7031 145.2188,258.4531 143.7344,258.1875 C142.4688,257.9531 142.375,257.9219 142.0469,257.75 C141.6719,257.5625 141.4063,257.1719 141.4063,256.8125 C141.4063,256.0781 142.2656,255.5156 143.3281,255.5156 C144.3906,255.5156 145.2031,255.9844 145.3594,256.6563 C145.4688,257.2031 145.4688,257.2031 145.5938,257.3438 C145.7344,257.4688 145.9688,257.5781 146.2031,257.5781 C146.4688,257.5781 146.7188,257.4375 146.8906,257.2188 C147,257.0469 147.0313,256.9063 147.0313,256.4375 L147.0313,254.9375 Z " fill="#000000"/><text fill="#000000" font-family="sans-serif" font-size="12" font-style="italic" lengthAdjust="spacing" textLength="50" x="202.25" y="256.1387">«struct»</text><text fill="#000000" font-family="sans-serif" font-size="12" lengthAdjust="spacing" textLength="127" x="163.75" y="270.1074">SessionConfiguration</text><line style="stroke:#A80036;stroke-width:1.5;" x1="8" x2="414" y1="277.9375" y2="277.9375"/><ellipse cx="18" cy="288.9375" rx="3" ry="3" style="stroke:#038048;stroke-width:1.0;fill:none;"/><text fill="#000000" font-family="sans-serif" font-size="11" lengthAdjust="spacing" textLength="85" x="27" y="292.1479">clientId : String</text><ellipse cx="18" cy="301.7422" rx="3" ry="3" style="stroke:#038048;stroke-width:1.0;fill:none;"/><text fill="#000000" font-family="sans-serif" font-size="11" lengthAdjust="spacing" textLength="78" x="27" y="304.9526">issuer : String</text><ellipse cx="18" cy="314.5469" rx="3" ry="3" style="stroke:#038048;stroke-width:1.0;fill:none;"/><text fill="#000000" font-family="sans-serif" font-size="11" lengthAdjust="spacing" textLength="92" x="27" y="317.7573">scopes : [String]</text><ellipse cx="18" cy="327.3516" rx="3" ry="3" style="stroke:#038048;stroke-width:1.0;fill:none;"/><text fill="#000000" font-family="sans-serif" font-size="11" lengthAdjust="spacing" textLength="103" x="27" y="330.562">redirectUri : String</text><ellipse cx="18" cy="340.1563" rx="3" ry="3" style="stroke:#038048;stroke-width:1.0;fill:none;"/><text fill="#000000" font-family="sans-serif" font-size="11" lengthAdjust="spacing" textLength="141" x="27" y="343.3667">logoutRedirectUri : String</text><ellipse cx="18" cy="352.9609" rx="3" ry="3" style="stroke:#038048;stroke-width:1.0;fill:none;"/><text fill="#000000" font-family="sans-serif" font-size="11" lengthAdjust="spacing" textLength="112" x="27" y="356.1714">audienceUri : String</text><line style="stroke:#A80036;stroke-width:1.5;" x1="8" x2="414" y1="362.7656" y2="362.7656"/><ellipse cx="18" cy="373.7656" fill="#84BE84" rx="3" ry="3" style="stroke:#038048;stroke-width:1.0;"/><text fill="#000000" font-family="sans-serif" font-size="11" lengthAdjust="spacing" textLength="382" x="27" y="376.9761">init(clientId:issuer:scopes:redirectUri:logoutRedirectUri:audienceUri:)</text><!--MD5=[27d006ecd5bf5b07f1ed45ecf7ab9a37]
class SessionError--><rect codeLine="38" fill="#FEFECE" height="105.1563" id="SessionError" style="stroke:#A80036;stroke-width:1.5;" width="150" x="845" y="32.5"/><ellipse cx="878" cy="51.4688" fill="#B0C4DE" rx="11" ry="11" style="stroke:#A80036;stroke-width:1.0;"/><path d="M876.7969,52.3438 L878.25,52.3438 L878.25,52.4531 C878.25,52.8594 878.2813,53.0156 878.3594,53.1719 C878.5156,53.4219 878.7969,53.5781 879.0938,53.5781 C879.3438,53.5781 879.6094,53.4375 879.7656,53.2188 C879.8906,53.0625 879.9219,52.9063 879.9219,52.4531 L879.9219,50.5313 C879.9219,50.375 879.9219,50.3281 879.9063,50.1719 C879.8438,49.7031 879.5313,49.3906 879.0781,49.3906 C878.8281,49.3906 878.5625,49.5313 878.3906,49.75 C878.2813,49.9219 878.25,50.0781 878.25,50.5313 L878.25,50.6563 L876.7969,50.6563 L876.7969,48.25 L880.7813,48.25 L880.7813,49.1094 C880.7813,49.5156 880.8125,49.6875 880.8906,49.8438 C881.0625,50.0938 881.3438,50.25 881.625,50.25 C881.8906,50.25 882.1563,50.1094 882.3281,49.8906 C882.4375,49.7188 882.4688,49.5781 882.4688,49.1094 L882.4688,46.5625 L874.8438,46.5625 C874.4063,46.5625 874.2813,46.5781 874.125,46.6719 C873.875,46.8281 873.7188,47.125 873.7188,47.4063 C873.7188,47.6875 873.8594,47.9375 874.0781,48.1094 C874.2344,48.2188 874.4219,48.25 874.8438,48.25 L875.0938,48.25 L875.0938,54.7656 L874.8438,54.7656 C874.4375,54.7656 874.2813,54.7813 874.125,54.8906 C873.875,55.0625 873.7188,55.3281 873.7188,55.625 C873.7188,55.8906 873.8594,56.1406 874.0781,56.2969 C874.2188,56.4219 874.4531,56.4688 874.8438,56.4688 L882.8438,56.4688 L882.8438,53.8906 C882.8438,53.4531 882.8125,53.3125 882.7344,53.1563 C882.5625,52.9063 882.2813,52.75 882,52.75 C881.7344,52.75 881.4688,52.8594 881.2969,53.1094 C881.1875,53.2656 881.1563,53.4063 881.1563,53.8906 L881.1563,54.7656 L876.7969,54.7656 L876.7969,52.3438 Z " fill="#000000"/><text fill="#000000" font-family="sans-serif" font-size="12" font-style="italic" lengthAdjust="spacing" textLength="49" x="910.5" y="48.6387">«enum»</text><text fill="#000000" font-family="sans-serif" font-size="12" lengthAdjust="spacing" textLength="78" x="896" y="62.6074">SessionError</text><line style="stroke:#A80036;stroke-width:1.5;" x1="846" x2="994" y1="70.4375" y2="70.4375"/><ellipse cx="856" cy="81.4375" rx="3" ry="3" style="stroke:#038048;stroke-width:1.0;fill:none;"/><text fill="#000000" font-family="sans-serif" font-size="11" lengthAdjust="spacing" textLength="55" x="865" y="84.6479">cancelled</text><ellipse cx="856" cy="94.2422" rx="3" ry="3" style="stroke:#038048;stroke-width:1.0;fill:none;"/><text fill="#000000" font-family="sans-serif" font-size="11" lengthAdjust="spacing" textLength="124" x="865" y="97.4526">offlineSessionExpired</text><line style="stroke:#A80036;stroke-width:1.5;" x1="846" x2="994" y1="104.0469" y2="104.0469"/><ellipse cx="856" cy="115.0469" fill="#84BE84" rx="3" ry="3" style="stroke:#038048;stroke-width:1.0;"/><text fill="#000000" font-family="sans-serif" font-size="11" lengthAdjust="spacing" textLength="109" x="865" y="118.2573">cantConnect(error:)</text><ellipse cx="856" cy="127.8516" fill="#84BE84" rx="3" ry="3" style="stroke:#038048;stroke-width:1.0;"/><text fill="#000000" font-family="sans-serif" font-size="11" lengthAdjust="spacing" textLength="68" x="865" y="131.062">other(error:)</text><!--MD5=[ab5e52abd9e066946041a3d3cdf53f3b]
class SessionType--><rect codeLine="44" fill="#FEFECE" height="156.375" id="SessionType" style="stroke:#A80036;stroke-width:1.5;" width="201" x="1277.5" y="7"/><ellipse cx="1334.75" cy="25.9688" fill="#DAA520" rx="11" ry="11" style="stroke:#A80036;stroke-width:1.0;"/><path d="M1334.2969,27.5625 L1335.9688,27.5625 C1337.5469,27.5625 1338.3906,27.2813 1339.1406,26.4531 C1339.6875,25.8594 1340,25.0469 1340,24.2656 C1340,22.3906 1338.4688,21.0625 1336.2969,21.0625 L1332.3438,21.0625 C1331.9063,21.0625 1331.7813,21.0781 1331.625,21.1719 C1331.375,21.3281 1331.2188,21.625 1331.2188,21.9063 C1331.2188,22.1563 1331.3594,22.4375 1331.5781,22.6094 C1331.7344,22.7188 1331.9219,22.75 1332.3438,22.75 L1332.5938,22.75 L1332.5938,29.2656 L1332.3438,29.2656 C1331.9375,29.2656 1331.7813,29.2813 1331.625,29.3906 C1331.375,29.5469 1331.2188,29.8281 1331.2188,30.125 C1331.2188,30.375 1331.3594,30.6406 1331.5781,30.7969 C1331.7188,30.9219 1331.9531,30.9688 1332.3438,30.9688 L1335.9844,30.9688 C1336.3281,30.9688 1336.5781,30.9219 1336.6875,30.8438 C1336.9531,30.7031 1337.1094,30.4063 1337.1094,30.125 C1337.1094,29.8438 1336.9688,29.5938 1336.75,29.4219 C1336.5781,29.2969 1336.4375,29.2656 1335.9844,29.2656 L1334.2969,29.2656 L1334.2969,27.5625 Z M1334.2969,22.75 L1336.2969,22.75 C1337.4844,22.75 1338.1875,23.3594 1338.1875,24.3281 C1338.1875,25.2813 1337.4844,25.875 1336.2969,25.875 L1334.2969,25.875 L1334.2969,22.75 Z " fill="#000000"/><text fill="#000000" font-family="sans-serif" font-size="12" font-style="italic" lengthAdjust="spacing" textLength="63" x="1362.75" y="23.1387">«protocol»</text><text fill="#000000" font-family="sans-serif" font-size="12" lengthAdjust="spacing" textLength="78" x="1355.25" y="37.1074">SessionType</text><line style="stroke:#A80036;stroke-width:1.5;" x1="1278.5" x2="1477.5" y1="44.9375" y2="44.9375"/><ellipse cx="1288.5" cy="55.9375" rx="3" ry="3" style="stroke:#038048;stroke-width:1.0;fill:none;"/><text fill="#000000" font-family="sans-serif" font-size="11" lengthAdjust="spacing" textLength="125" x="1297.5" y="59.1479">isAuthenticated : Bool</text><ellipse cx="1288.5" cy="68.7422" rx="3" ry="3" style="stroke:#038048;stroke-width:1.0;fill:none;"/><text fill="#000000" font-family="sans-serif" font-size="11" lengthAdjust="spacing" textLength="108" x="1297.5" y="71.9526">user : UserDetails?</text><line style="stroke:#A80036;stroke-width:1.5;" x1="1278.5" x2="1477.5" y1="78.5469" y2="78.5469"/><ellipse cx="1288.5" cy="89.5469" fill="#84BE84" rx="3" ry="3" style="stroke:#038048;stroke-width:1.0;"/><text fill="#000000" font-family="sans-serif" font-size="11" lengthAdjust="spacing" text-decoration="underline" textLength="108" x="1297.5" y="92.7573">handle(url:options:)</text><ellipse cx="1288.5" cy="102.3516" fill="#84BE84" rx="3" ry="3" style="stroke:#038048;stroke-width:1.0;"/><text fill="#000000" font-family="sans-serif" font-size="11" lengthAdjust="spacing" textLength="168" x="1297.5" y="105.562">getAccessToken(completion:)</text><ellipse cx="1288.5" cy="115.1563" fill="#84BE84" rx="3" ry="3" style="stroke:#038048;stroke-width:1.0;"/><text fill="#000000" font-family="sans-serif" font-size="11" lengthAdjust="spacing" textLength="175" x="1297.5" y="118.3667">authenticate(from:completion:)</text><ellipse cx="1288.5" cy="127.9609" fill="#84BE84" rx="3" ry="3" style="stroke:#038048;stroke-width:1.0;"/><text fill="#000000" font-family="sans-serif" font-size="11" lengthAdjust="spacing" textLength="138" x="1297.5" y="131.1714">logout(from:completion:)</text><ellipse cx="1288.5" cy="140.7656" fill="#84BE84" rx="3" ry="3" style="stroke:#038048;stroke-width:1.0;"/><text fill="#000000" font-family="sans-serif" font-size="11" lengthAdjust="spacing" textLength="101" x="1297.5" y="143.9761">clearCredentials()</text><ellipse cx="1288.5" cy="153.5703" fill="#84BE84" rx="3" ry="3" style="stroke:#038048;stroke-width:1.0;"/><text fill="#000000" font-family="sans-serif" font-size="11" lengthAdjust="spacing" textLength="101" x="1297.5" y="156.7808">init(configuration:)</text><!--MD5=[8ceb3d2541a32dc933ba4f6c01f8a8d8]
class SessionType0--><rect codeLine="54" fill="#FEFECE" height="58.7422" id="SessionType0" style="stroke:#A80036;stroke-width:1.5;" width="134" x="1189" y="282.5"/><ellipse cx="1214.8" cy="301.4688" fill="#DA70D6" rx="11" ry="11" style="stroke:#A80036;stroke-width:1.0;"/><path d="M1215.9875,301.4219 L1218.6594,298.25 C1219.2531,298.2344 1219.6281,297.9375 1219.6281,297.4063 C1219.6281,297.1406 1219.5031,296.875 1219.2688,296.7031 C1219.0969,296.5938 1218.9563,296.5625 1218.5031,296.5625 L1216.9719,296.5625 C1216.5969,296.5625 1216.3313,296.6094 1216.1906,296.7344 C1215.9719,296.875 1215.8313,297.1563 1215.8313,297.4063 C1215.8313,297.7813 1216.0031,298 1216.4875,298.2344 L1214.8938,300.0938 L1213.2844,298.2344 C1213.7844,298 1213.925,297.7813 1213.925,297.4063 C1213.925,297.1406 1213.8,296.875 1213.5813,296.7031 C1213.4094,296.5938 1213.2688,296.5625 1212.7844,296.5625 L1211.2375,296.5625 C1211.1281,296.5625 1211.1125,296.5625 1210.9094,296.5938 C1210.4094,296.6406 1210.1281,296.9531 1210.1281,297.4063 C1210.1281,297.9219 1210.4875,298.2188 1211.1125,298.25 L1213.8,301.4063 L1210.9719,304.7656 C1210.3469,304.7656 1209.9719,305.0938 1209.9719,305.625 C1209.9719,305.8906 1210.1125,306.1406 1210.3313,306.3125 C1210.4875,306.4219 1210.6906,306.4688 1211.0969,306.4688 L1212.9719,306.4688 C1213.3313,306.4688 1213.55,306.4375 1213.6906,306.3438 C1213.9406,306.2031 1214.0969,305.9063 1214.0969,305.625 C1214.0969,305.1094 1213.7688,304.7969 1213.1906,304.7656 L1214.9094,302.7344 L1216.6281,304.7656 C1216.0344,304.7969 1215.7063,305.1094 1215.7063,305.625 C1215.7063,306.1875 1216.0656,306.4688 1216.8156,306.4688 L1218.7063,306.4688 C1219.0656,306.4688 1219.2844,306.4375 1219.425,306.3438 C1219.675,306.2031 1219.8313,305.9063 1219.8313,305.625 C1219.8313,305.0938 1219.4719,304.7813 1218.8313,304.7656 L1215.9875,301.4219 Z " fill="#000000"/><text fill="#000000" font-family="sans-serif" font-size="12" font-style="italic" lengthAdjust="spacing" textLength="72" x="1234.2" y="298.6387">«extension»</text><text fill="#000000" font-family="sans-serif" font-size="12" lengthAdjust="spacing" textLength="78" x="1231.2" y="312.6074">SessionType</text><line style="stroke:#A80036;stroke-width:1.5;" x1="1190" x2="1322" y1="320.4375" y2="320.4375"/><ellipse cx="1200" cy="331.4375" fill="#84BE84" rx="3" ry="3" style="stroke:#038048;stroke-width:1.0;"/><text fill="#000000" font-family="sans-serif" font-size="11" lengthAdjust="spacing" text-decoration="underline" textLength="108" x="1209" y="334.6479">handle(url:options:)</text><!--MD5=[b1e075a04bebeb6ec9abcd0394402c93]
class NetworkError--><rect codeLine="57" fill="#FEFECE" height="117.9609" id="NetworkError" style="stroke:#A80036;stroke-width:1.5;" width="212" x="1030" y="26"/><ellipse cx="1091.75" cy="44.9688" fill="#B0C4DE" rx="11" ry="11" style="stroke:#A80036;stroke-width:1.0;"/><path d="M1090.5469,45.8438 L1092,45.8438 L1092,45.9531 C1092,46.3594 1092.0313,46.5156 1092.1094,46.6719 C1092.2656,46.9219 1092.5469,47.0781 1092.8438,47.0781 C1093.0938,47.0781 1093.3594,46.9375 1093.5156,46.7188 C1093.6406,46.5625 1093.6719,46.4063 1093.6719,45.9531 L1093.6719,44.0313 C1093.6719,43.875 1093.6719,43.8281 1093.6563,43.6719 C1093.5938,43.2031 1093.2813,42.8906 1092.8281,42.8906 C1092.5781,42.8906 1092.3125,43.0313 1092.1406,43.25 C1092.0313,43.4219 1092,43.5781 1092,44.0313 L1092,44.1563 L1090.5469,44.1563 L1090.5469,41.75 L1094.5313,41.75 L1094.5313,42.6094 C1094.5313,43.0156 1094.5625,43.1875 1094.6406,43.3438 C1094.8125,43.5938 1095.0938,43.75 1095.375,43.75 C1095.6406,43.75 1095.9063,43.6094 1096.0781,43.3906 C1096.1875,43.2188 1096.2188,43.0781 1096.2188,42.6094 L1096.2188,40.0625 L1088.5938,40.0625 C1088.1563,40.0625 1088.0313,40.0781 1087.875,40.1719 C1087.625,40.3281 1087.4688,40.625 1087.4688,40.9063 C1087.4688,41.1875 1087.6094,41.4375 1087.8281,41.6094 C1087.9844,41.7188 1088.1719,41.75 1088.5938,41.75 L1088.8438,41.75 L1088.8438,48.2656 L1088.5938,48.2656 C1088.1875,48.2656 1088.0313,48.2813 1087.875,48.3906 C1087.625,48.5625 1087.4688,48.8281 1087.4688,49.125 C1087.4688,49.3906 1087.6094,49.6406 1087.8281,49.7969 C1087.9688,49.9219 1088.2031,49.9688 1088.5938,49.9688 L1096.5938,49.9688 L1096.5938,47.3906 C1096.5938,46.9531 1096.5625,46.8125 1096.4844,46.6563 C1096.3125,46.4063 1096.0313,46.25 1095.75,46.25 C1095.4844,46.25 1095.2188,46.3594 1095.0469,46.6094 C1094.9375,46.7656 1094.9063,46.9063 1094.9063,47.3906 L1094.9063,48.2656 L1090.5469,48.2656 L1090.5469,45.8438 Z " fill="#000000"/><text fill="#000000" font-family="sans-serif" font-size="12" font-style="italic" lengthAdjust="spacing" textLength="49" x="1127.75" y="42.1387">«enum»</text><text fill="#000000" font-family="sans-serif" font-size="12" lengthAdjust="spacing" textLength="80" x="1112.25" y="56.1074">NetworkError</text><line style="stroke:#A80036;stroke-width:1.5;" x1="1031" x2="1241" y1="63.9375" y2="63.9375"/><ellipse cx="1041" cy="74.9375" rx="3" ry="3" style="stroke:#038048;stroke-width:1.0;fill:none;"/><text fill="#000000" font-family="sans-serif" font-size="11" lengthAdjust="spacing" textLength="58" x="1050" y="78.1479">invalidURL</text><line style="stroke:#A80036;stroke-width:1.5;" x1="1031" x2="1241" y1="84.7422" y2="84.7422"/><ellipse cx="1041" cy="95.7422" fill="#84BE84" rx="3" ry="3" style="stroke:#038048;stroke-width:1.0;"/><text fill="#000000" font-family="sans-serif" font-size="11" lengthAdjust="spacing" textLength="123" x="1050" y="98.9526">notAuthenticated(url:)</text><ellipse cx="1041" cy="108.5469" fill="#84BE84" rx="3" ry="3" style="stroke:#038048;stroke-width:1.0;"/><text fill="#000000" font-family="sans-serif" font-size="11" lengthAdjust="spacing" textLength="186" x="1050" y="111.7573">emptyResponseBody(response:)</text><ellipse cx="1041" cy="121.3516" fill="#84BE84" rx="3" ry="3" style="stroke:#038048;stroke-width:1.0;"/><text fill="#000000" font-family="sans-serif" font-size="11" lengthAdjust="spacing" textLength="162" x="1050" y="124.562">httpError(url:underlyingError:)</text><ellipse cx="1041" cy="134.1563" fill="#84BE84" rx="3" ry="3" style="stroke:#038048;stroke-width:1.0;"/><text fill="#000000" font-family="sans-serif" font-size="11" lengthAdjust="spacing" textLength="169" x="1050" y="137.3667">nonHTTPResponse(response:)</text><!--MD5=[4fd3bb6c1d79f4919f90c95b62a35422]
class Endpoint--><rect codeLine="64" fill="#FEFECE" height="109.9609" id="Endpoint" style="stroke:#A80036;stroke-width:1.5;" width="198" x="1514" y="30"/><ellipse cx="1579.25" cy="48.9688" fill="#DAA520" rx="11" ry="11" style="stroke:#A80036;stroke-width:1.0;"/><path d="M1578.7969,50.5625 L1580.4688,50.5625 C1582.0469,50.5625 1582.8906,50.2813 1583.6406,49.4531 C1584.1875,48.8594 1584.5,48.0469 1584.5,47.2656 C1584.5,45.3906 1582.9688,44.0625 1580.7969,44.0625 L1576.8438,44.0625 C1576.4063,44.0625 1576.2813,44.0781 1576.125,44.1719 C1575.875,44.3281 1575.7188,44.625 1575.7188,44.9063 C1575.7188,45.1563 1575.8594,45.4375 1576.0781,45.6094 C1576.2344,45.7188 1576.4219,45.75 1576.8438,45.75 L1577.0938,45.75 L1577.0938,52.2656 L1576.8438,52.2656 C1576.4375,52.2656 1576.2813,52.2813 1576.125,52.3906 C1575.875,52.5469 1575.7188,52.8281 1575.7188,53.125 C1575.7188,53.375 1575.8594,53.6406 1576.0781,53.7969 C1576.2188,53.9219 1576.4531,53.9688 1576.8438,53.9688 L1580.4844,53.9688 C1580.8281,53.9688 1581.0781,53.9219 1581.1875,53.8438 C1581.4531,53.7031 1581.6094,53.4063 1581.6094,53.125 C1581.6094,52.8438 1581.4688,52.5938 1581.25,52.4219 C1581.0781,52.2969 1580.9375,52.2656 1580.4844,52.2656 L1578.7969,52.2656 L1578.7969,50.5625 Z M1578.7969,45.75 L1580.7969,45.75 C1581.9844,45.75 1582.6875,46.3594 1582.6875,47.3281 C1582.6875,48.2813 1581.9844,48.875 1580.7969,48.875 L1578.7969,48.875 L1578.7969,45.75 Z " fill="#000000"/><text fill="#000000" font-family="sans-serif" font-size="12" font-style="italic" lengthAdjust="spacing" textLength="63" x="1597.75" y="46.1387">«protocol»</text><text fill="#000000" font-family="sans-serif" font-size="12" lengthAdjust="spacing" textLength="52" x="1603.25" y="60.1074">Endpoint</text><line style="stroke:#A80036;stroke-width:1.5;" x1="1515" x2="1711" y1="67.9375" y2="67.9375"/><ellipse cx="1525" cy="78.9375" rx="3" ry="3" style="stroke:#038048;stroke-width:1.0;fill:none;"/><text fill="#000000" font-family="sans-serif" font-size="11" lengthAdjust="spacing" text-decoration="underline" textLength="81" x="1534" y="82.1479">baseURL : URL</text><ellipse cx="1525" cy="91.7422" rx="3" ry="3" style="stroke:#038048;stroke-width:1.0;fill:none;"/><text fill="#000000" font-family="sans-serif" font-size="11" lengthAdjust="spacing" textLength="58" x="1534" y="94.9526">uri : String</text><ellipse cx="1525" cy="104.5469" rx="3" ry="3" style="stroke:#038048;stroke-width:1.0;fill:none;"/><text fill="#000000" font-family="sans-serif" font-size="11" lengthAdjust="spacing" textLength="172" x="1534" y="107.7573">queryItems : [URLQueryItem]?</text><ellipse cx="1525" cy="117.3516" rx="3" ry="3" style="stroke:#038048;stroke-width:1.0;fill:none;"/><text fill="#000000" font-family="sans-serif" font-size="11" lengthAdjust="spacing" textLength="52" x="1534" y="120.562">url : URL?</text><ellipse cx="1525" cy="130.1563" rx="3" ry="3" style="stroke:#038048;stroke-width:1.0;fill:none;"/><text fill="#000000" font-family="sans-serif" font-size="11" lengthAdjust="spacing" textLength="125" x="1534" y="133.3667">isAuthenticated : Bool</text><!--MD5=[acf971dd077bde756bc5ab1da8050b84]
class Endpoint1--><rect codeLine="71" fill="#FEFECE" height="71.5469" id="Endpoint1" style="stroke:#A80036;stroke-width:1.5;" width="198" x="1514" y="276"/><ellipse cx="1574.75" cy="294.9688" fill="#DA70D6" rx="11" ry="11" style="stroke:#A80036;stroke-width:1.0;"/><path d="M1575.9375,294.9219 L1578.6094,291.75 C1579.2031,291.7344 1579.5781,291.4375 1579.5781,290.9063 C1579.5781,290.6406 1579.4531,290.375 1579.2188,290.2031 C1579.0469,290.0938 1578.9063,290.0625 1578.4531,290.0625 L1576.9219,290.0625 C1576.5469,290.0625 1576.2813,290.1094 1576.1406,290.2344 C1575.9219,290.375 1575.7813,290.6563 1575.7813,290.9063 C1575.7813,291.2813 1575.9531,291.5 1576.4375,291.7344 L1574.8438,293.5938 L1573.2344,291.7344 C1573.7344,291.5 1573.875,291.2813 1573.875,290.9063 C1573.875,290.6406 1573.75,290.375 1573.5313,290.2031 C1573.3594,290.0938 1573.2188,290.0625 1572.7344,290.0625 L1571.1875,290.0625 C1571.0781,290.0625 1571.0625,290.0625 1570.8594,290.0938 C1570.3594,290.1406 1570.0781,290.4531 1570.0781,290.9063 C1570.0781,291.4219 1570.4375,291.7188 1571.0625,291.75 L1573.75,294.9063 L1570.9219,298.2656 C1570.2969,298.2656 1569.9219,298.5938 1569.9219,299.125 C1569.9219,299.3906 1570.0625,299.6406 1570.2813,299.8125 C1570.4375,299.9219 1570.6406,299.9688 1571.0469,299.9688 L1572.9219,299.9688 C1573.2813,299.9688 1573.5,299.9375 1573.6406,299.8438 C1573.8906,299.7031 1574.0469,299.4063 1574.0469,299.125 C1574.0469,298.6094 1573.7188,298.2969 1573.1406,298.2656 L1574.8594,296.2344 L1576.5781,298.2656 C1575.9844,298.2969 1575.6563,298.6094 1575.6563,299.125 C1575.6563,299.6875 1576.0156,299.9688 1576.7656,299.9688 L1578.6563,299.9688 C1579.0156,299.9688 1579.2344,299.9375 1579.375,299.8438 C1579.625,299.7031 1579.7813,299.4063 1579.7813,299.125 C1579.7813,298.5938 1579.4219,298.2813 1578.7813,298.2656 L1575.9375,294.9219 Z " fill="#000000"/><text fill="#000000" font-family="sans-serif" font-size="12" font-style="italic" lengthAdjust="spacing" textLength="72" x="1593.25" y="292.1387">«extension»</text><text fill="#000000" font-family="sans-serif" font-size="12" lengthAdjust="spacing" textLength="52" x="1603.25" y="306.1074">Endpoint</text><line style="stroke:#A80036;stroke-width:1.5;" x1="1515" x2="1711" y1="313.9375" y2="313.9375"/><ellipse cx="1525" cy="324.9375" rx="3" ry="3" style="stroke:#038048;stroke-width:1.0;fill:none;"/><text fill="#000000" font-family="sans-serif" font-size="11" lengthAdjust="spacing" textLength="52" x="1534" y="328.1479">url : URL?</text><ellipse cx="1525" cy="337.7422" rx="3" ry="3" style="stroke:#038048;stroke-width:1.0;fill:none;"/><text fill="#000000" font-family="sans-serif" font-size="11" lengthAdjust="spacing" textLength="172" x="1534" y="340.9526">queryItems : [URLQueryItem]?</text><!--MD5=[f063c9ee3b9a8718271bc7c1779ccca6]
class NetworkAgentType--><rect codeLine="75" fill="#FEFECE" height="109.9609" id="NetworkAgentType" style="stroke:#A80036;stroke-width:1.5;" width="289" x="450.5" y="257"/><ellipse cx="533.25" cy="275.9688" fill="#DAA520" rx="11" ry="11" style="stroke:#A80036;stroke-width:1.0;"/><path d="M532.7969,277.5625 L534.4688,277.5625 C536.0469,277.5625 536.8906,277.2813 537.6406,276.4531 C538.1875,275.8594 538.5,275.0469 538.5,274.2656 C538.5,272.3906 536.9688,271.0625 534.7969,271.0625 L530.8438,271.0625 C530.4063,271.0625 530.2813,271.0781 530.125,271.1719 C529.875,271.3281 529.7188,271.625 529.7188,271.9063 C529.7188,272.1563 529.8594,272.4375 530.0781,272.6094 C530.2344,272.7188 530.4219,272.75 530.8438,272.75 L531.0938,272.75 L531.0938,279.2656 L530.8438,279.2656 C530.4375,279.2656 530.2813,279.2813 530.125,279.3906 C529.875,279.5469 529.7188,279.8281 529.7188,280.125 C529.7188,280.375 529.8594,280.6406 530.0781,280.7969 C530.2188,280.9219 530.4531,280.9688 530.8438,280.9688 L534.4844,280.9688 C534.8281,280.9688 535.0781,280.9219 535.1875,280.8438 C535.4531,280.7031 535.6094,280.4063 535.6094,280.125 C535.6094,279.8438 535.4688,279.5938 535.25,279.4219 C535.0781,279.2969 534.9375,279.2656 534.4844,279.2656 L532.7969,279.2656 L532.7969,277.5625 Z M532.7969,272.75 L534.7969,272.75 C535.9844,272.75 536.6875,273.3594 536.6875,274.3281 C536.6875,275.2813 535.9844,275.875 534.7969,275.875 L532.7969,275.875 L532.7969,272.75 Z " fill="#000000"/><text fill="#000000" font-family="sans-serif" font-size="12" font-style="italic" lengthAdjust="spacing" textLength="63" x="579.75" y="273.1387">«protocol»</text><text fill="#000000" font-family="sans-serif" font-size="12" lengthAdjust="spacing" textLength="115" x="553.75" y="287.1074">NetworkAgentType</text><line style="stroke:#A80036;stroke-width:1.5;" x1="451.5" x2="738.5" y1="294.9375" y2="294.9375"/><ellipse cx="461.5" cy="305.9375" fill="#84BE84" rx="3" ry="3" style="stroke:#038048;stroke-width:1.0;"/><text fill="#000000" font-family="sans-serif" font-size="11" lengthAdjust="spacing" textLength="148" x="470.5" y="309.1479">get(_:session:completion:)</text><ellipse cx="461.5" cy="318.7422" fill="#84BE84" rx="3" ry="3" style="stroke:#038048;stroke-width:1.0;"/><text fill="#000000" font-family="sans-serif" font-size="11" lengthAdjust="spacing" textLength="162" x="470.5" y="321.9526">post(_:_:session:completion:)</text><ellipse cx="461.5" cy="331.5469" fill="#84BE84" rx="3" ry="3" style="stroke:#038048;stroke-width:1.0;"/><text fill="#000000" font-family="sans-serif" font-size="11" lengthAdjust="spacing" textLength="156" x="470.5" y="334.7573">put(_:_:session:completion:)</text><ellipse cx="461.5" cy="344.3516" fill="#84BE84" rx="3" ry="3" style="stroke:#038048;stroke-width:1.0;"/><text fill="#000000" font-family="sans-serif" font-size="11" lengthAdjust="spacing" textLength="167" x="470.5" y="347.562">delete(_:session:completion:)</text><ellipse cx="461.5" cy="357.1563" fill="#84BE84" rx="3" ry="3" style="stroke:#038048;stroke-width:1.0;"/><text fill="#000000" font-family="sans-serif" font-size="11" lengthAdjust="spacing" textLength="263" x="470.5" y="360.3667">poll(_:session:interval:isComplete:completion:)</text><!--MD5=[b8cfd8c4119a3b0a7a46bfc5fc780f85]
class Error--><rect fill="#FEFECE" height="32" id="Error" style="stroke:#A80036;stroke-width:1.5;" width="62" x="977" y="296"/><ellipse cx="992" cy="312" fill="#ADD1B2" rx="11" ry="11" style="stroke:#A80036;stroke-width:1.0;"/><path d="M994.3438,307.6719 C993.4063,307.2344 992.8125,307.0938 991.9375,307.0938 C989.3125,307.0938 987.3125,309.1719 987.3125,311.8906 L987.3125,313.0156 C987.3125,315.5938 989.4219,317.4844 992.3125,317.4844 C993.5313,317.4844 994.6875,317.1875 995.4375,316.6406 C996.0156,316.2344 996.3438,315.7813 996.3438,315.3906 C996.3438,314.9375 995.9531,314.5469 995.4844,314.5469 C995.2656,314.5469 995.0625,314.625 994.875,314.8125 C994.4219,315.2969 994.4219,315.2969 994.2344,315.3906 C993.8125,315.6563 993.125,315.7813 992.3594,315.7813 C990.3125,315.7813 989.0156,314.6875 989.0156,312.9844 L989.0156,311.8906 C989.0156,310.1094 990.2656,308.7969 992,308.7969 C992.5781,308.7969 993.1875,308.9531 993.6563,309.2031 C994.1406,309.4844 994.3125,309.7031 994.4063,310.1094 C994.4688,310.5156 994.5,310.6406 994.6406,310.7656 C994.7813,310.9063 995.0156,311.0156 995.2344,311.0156 C995.5,311.0156 995.7656,310.875 995.9375,310.6563 C996.0469,310.5 996.0781,310.3125 996.0781,309.8906 L996.0781,308.4688 C996.0781,308.0313 996.0625,307.9063 995.9688,307.75 C995.8125,307.4844 995.5313,307.3438 995.2344,307.3438 C994.9375,307.3438 994.7344,307.4375 994.5156,307.75 L994.3438,307.6719 Z " fill="#000000"/><text fill="#000000" font-family="sans-serif" font-size="12" lengthAdjust="spacing" textLength="30" x="1006" y="316.1543">Error</text><!--MD5=[625eb5fdd814536c712f9f96ffbf9401]
class AnyObject--><rect fill="#FEFECE" height="32" id="AnyObject" style="stroke:#A80036;stroke-width:1.5;" width="94" x="1358" y="296"/><ellipse cx="1373" cy="312" fill="#ADD1B2" rx="11" ry="11" style="stroke:#A80036;stroke-width:1.0;"/><path d="M1375.3438,307.6719 C1374.4063,307.2344 1373.8125,307.0938 1372.9375,307.0938 C1370.3125,307.0938 1368.3125,309.1719 1368.3125,311.8906 L1368.3125,313.0156 C1368.3125,315.5938 1370.4219,317.4844 1373.3125,317.4844 C1374.5313,317.4844 1375.6875,317.1875 1376.4375,316.6406 C1377.0156,316.2344 1377.3438,315.7813 1377.3438,315.3906 C1377.3438,314.9375 1376.9531,314.5469 1376.4844,314.5469 C1376.2656,314.5469 1376.0625,314.625 1375.875,314.8125 C1375.4219,315.2969 1375.4219,315.2969 1375.2344,315.3906 C1374.8125,315.6563 1374.125,315.7813 1373.3594,315.7813 C1371.3125,315.7813 1370.0156,314.6875 1370.0156,312.9844 L1370.0156,311.8906 C1370.0156,310.1094 1371.2656,308.7969 1373,308.7969 C1373.5781,308.7969 1374.1875,308.9531 1374.6563,309.2031 C1375.1406,309.4844 1375.3125,309.7031 1375.4063,310.1094 C1375.4688,310.5156 1375.5,310.6406 1375.6406,310.7656 C1375.7813,310.9063 1376.0156,311.0156 1376.2344,311.0156 C1376.5,311.0156 1376.7656,310.875 1376.9375,310.6563 C1377.0469,310.5 1377.0781,310.3125 1377.0781,309.8906 L1377.0781,308.4688 C1377.0781,308.0313 1377.0625,307.9063 1376.9688,307.75 C1376.8125,307.4844 1376.5313,307.3438 1376.2344,307.3438 C1375.9375,307.3438 1375.7344,307.4375 1375.5156,307.75 L1375.3438,307.6719 Z " fill="#000000"/><text fill="#000000" font-family="sans-serif" font-size="12" lengthAdjust="spacing" textLength="62" x="1387" y="316.1543">AnyObject</text><!--MD5=[69e8367d0f03098e5231b4f21bf04326]
link SessionError to Error--><path codeLine="82" d="M940.189,137.62 C960.182,188.738 989.561,263.854 1002.041,295.7627 " fill="none" id="SessionError-Error" style="stroke:#A80036;stroke-width:1.0;"/><text fill="#000000" font-family="sans-serif" font-size="13" lengthAdjust="spacing" textLength="47" x="968" y="206.0669">inherits</text><!--MD5=[730661e2a99e67af4356706869450e5b]
link SessionType to AnyObject--><path codeLine="83" d="M1387.25,163.117 C1391.85,201.436 1397.18,245.853 1400.79,275.929 " fill="none" id="SessionType-to-AnyObject" style="stroke:#A80036;stroke-width:1.0;stroke-dasharray:7.0,7.0;"/><polygon fill="none" points="1407.74,275.103,1403.18,295.795,1393.84,276.772,1407.74,275.103" style="stroke:#A80036;stroke-width:1.0;"/><text fill="#000000" font-family="sans-serif" font-size="13" lengthAdjust="spacing" textLength="47" x="1394" y="206.0669">inherits</text><!--MD5=[246d3a1f740d39c26f5997f27729b8de]
link NetworkError to Error--><path codeLine="84" d="M1102.87,144.236 C1073.98,195.017 1034.06,265.195 1016.67,295.7565 " fill="none" id="NetworkError-Error" style="stroke:#A80036;stroke-width:1.0;"/><text fill="#000000" font-family="sans-serif" font-size="13" lengthAdjust="spacing" textLength="47" x="1073" y="206.0669">inherits</text><!--MD5=[f25a55ba759e7098b0703d54b3d5e5a6]
reverse link SessionType to SessionType0--><path codeLine="85" d="M1333.55,167.978 C1311.81,208.078 1287.03,253.774 1271.45,282.498 " fill="none" id="SessionType-backto-SessionType0" style="stroke:#A80036;stroke-width:1.0;stroke-dasharray:7.0,7.0;"/><polygon fill="#A80036" points="1336.19,163.117,1328.3868,169.1261,1333.809,167.5137,1335.4214,172.9358,1336.19,163.117" style="stroke:#A80036;stroke-width:1.0;"/><text fill="#000000" font-family="sans-serif" font-size="13" lengthAdjust="spacing" textLength="21" x="1318" y="206.0669">ext</text><!--MD5=[9205085af6386496ed51f9d3c02c3370]
reverse link Endpoint to Endpoint1--><path codeLine="86" d="M1613,145.184 C1613,186.748 1613,240.944 1613,275.861 " fill="none" id="Endpoint-backto-Endpoint1" style="stroke:#A80036;stroke-width:1.0;stroke-dasharray:7.0,7.0;"/><polygon fill="#A80036" points="1613,140.179,1609,149.179,1613,145.179,1617,149.179,1613,140.179" style="stroke:#A80036;stroke-width:1.0;"/><text fill="#000000" font-family="sans-serif" font-size="13" lengthAdjust="spacing" textLength="21" x="1614" y="206.0669">ext</text><!--MD5=[d1e55fbd5d6d6eb3d08ce17875cf2ad0]
link UserDetails to URLComponents--><!--MD5=[db2346b35baf616aa85fafa6b17f75d7]
link URLComponents to Environment--><!--MD5=[97e2ed19f4e6271c5b0deae8f61f61d8]
link UserDetails to SessionConfiguration--><!--MD5=[ff0fa6e8997f167d908736755146667d]
link SessionConfiguration to NetworkAgentType--><!--MD5=[0ce0047219a139536597d952b1be95b0]
@startuml

' STYLE START
hide empty members
skinparam shadowing false
' STYLE END


class "UserDetails" as UserDetails << (P, GoldenRod) protocol >> { 
  +name : String
  +givenName : String
  +username : String
  +locale : String
  +familyName : String
  +email : String
  +externalUserId : String 
}
class "URLComponents" as URLComponents << (X, Orchid) extension >> { 
  init(uri:port:) 
}
class "Environment" as Environment << (S, SkyBlue) struct >> { 
  +{static} shared : Environment!
  +baseURL : URL
  +openBankingURL : URL
  +sessionConfiguration : SessionConfiguration
  +{static} setup(bundle:)
  -init(bundle:)
  -init(baseURL:openBankingURL:sessionConfiguration:) 
}
class "SessionConfiguration" as SessionConfiguration << (S, SkyBlue) struct >> { 
  +clientId : String
  +issuer : String
  +scopes : [String]
  +redirectUri : String
  +logoutRedirectUri : String
  +audienceUri : String
  +init(clientId:issuer:scopes:redirectUri:logoutRedirectUri:audienceUri:) 
}
class "SessionError" as SessionError << (E, LightSteelBlue) enum >> { 
  +cancelled
  +cantConnect(error:)
  +offlineSessionExpired
  +other(error:) 
}
class "SessionType" as SessionType << (P, GoldenRod) protocol >> { 
  +isAuthenticated : Bool
  +user : UserDetails?
  +{static} handle(url:options:)
  +getAccessToken(completion:)
  +authenticate(from:completion:)
  +logout(from:completion:)
  +clearCredentials()
  +init(configuration:) 
}
class "SessionType" as SessionType0 << (X, Orchid) extension >> { 
  +{static} handle(url:options:) 
}
class "NetworkError" as NetworkError << (E, LightSteelBlue) enum >> { 
  +invalidURL
  +notAuthenticated(url:)
  +emptyResponseBody(response:)
  +httpError(url:underlyingError:)
  +nonHTTPResponse(response:) 
}
class "Endpoint" as Endpoint << (P, GoldenRod) protocol >> { 
  +{static} baseURL : URL
  +uri : String
  +queryItems : [URLQueryItem]?
  +url : URL?
  +isAuthenticated : Bool 
}
class "Endpoint" as Endpoint1 << (X, Orchid) extension >> { 
  +url : URL?
  +queryItems : [URLQueryItem]? 
}
class "NetworkAgentType" as NetworkAgentType << (P, GoldenRod) protocol >> { 
  +get(_:session:completion:)
  +post(_:_:session:completion:)
  +put(_:_:session:completion:)
  +delete(_:session:completion:)
  +poll(_:session:interval:isComplete:completion:) 
}
SessionError - - Error : inherits
SessionType ..|> AnyObject : inherits
NetworkError - - Error : inherits
SessionType <.. SessionType0 : ext
Endpoint <.. Endpoint1 : ext
@enduml

@startuml

hide empty members
skinparam shadowing false


class "UserDetails" as UserDetails << (P, GoldenRod) protocol >> { 
  +name : String
  +givenName : String
  +username : String
  +locale : String
  +familyName : String
  +email : String
  +externalUserId : String 
}
class "URLComponents" as URLComponents << (X, Orchid) extension >> { 
  init(uri:port:) 
}
class "Environment" as Environment << (S, SkyBlue) struct >> { 
  +{static} shared : Environment!
  +baseURL : URL
  +openBankingURL : URL
  +sessionConfiguration : SessionConfiguration
  +{static} setup(bundle:)
  -init(bundle:)
  -init(baseURL:openBankingURL:sessionConfiguration:) 
}
class "SessionConfiguration" as SessionConfiguration << (S, SkyBlue) struct >> { 
  +clientId : String
  +issuer : String
  +scopes : [String]
  +redirectUri : String
  +logoutRedirectUri : String
  +audienceUri : String
  +init(clientId:issuer:scopes:redirectUri:logoutRedirectUri:audienceUri:) 
}
class "SessionError" as SessionError << (E, LightSteelBlue) enum >> { 
  +cancelled
  +cantConnect(error:)
  +offlineSessionExpired
  +other(error:) 
}
class "SessionType" as SessionType << (P, GoldenRod) protocol >> { 
  +isAuthenticated : Bool
  +user : UserDetails?
  +{static} handle(url:options:)
  +getAccessToken(completion:)
  +authenticate(from:completion:)
  +logout(from:completion:)
  +clearCredentials()
  +init(configuration:) 
}
class "SessionType" as SessionType0 << (X, Orchid) extension >> { 
  +{static} handle(url:options:) 
}
class "NetworkError" as NetworkError << (E, LightSteelBlue) enum >> { 
  +invalidURL
  +notAuthenticated(url:)
  +emptyResponseBody(response:)
  +httpError(url:underlyingError:)
  +nonHTTPResponse(response:) 
}
class "Endpoint" as Endpoint << (P, GoldenRod) protocol >> { 
  +{static} baseURL : URL
  +uri : String
  +queryItems : [URLQueryItem]?
  +url : URL?
  +isAuthenticated : Bool 
}
class "Endpoint" as Endpoint1 << (X, Orchid) extension >> { 
  +url : URL?
  +queryItems : [URLQueryItem]? 
}
class "NetworkAgentType" as NetworkAgentType << (P, GoldenRod) protocol >> { 
  +get(_:session:completion:)
  +post(_:_:session:completion:)
  +put(_:_:session:completion:)
  +delete(_:session:completion:)
  +poll(_:session:interval:isComplete:completion:) 
}
SessionError - - Error : inherits
SessionType ..|> AnyObject : inherits
NetworkError - - Error : inherits
SessionType <.. SessionType0 : ext
Endpoint <.. Endpoint1 : ext
@enduml

PlantUML version 1.2021.7(Sun May 23 12:40:07 UTC 2021)
(GPL source distribution)
Java Runtime: Java(TM) SE Runtime Environment
JVM: Java HotSpot(TM) 64-Bit Server VM
Default Encoding: UTF-8
Language: en
Country: US
--></g></svg>