<?xml version="1.0" encoding="UTF-8" standalone="no"?><svg xmlns="http://www.w3.org/2000/svg" xmlns:xlink="http://www.w3.org/1999/xlink" contentScriptType="application/ecmascript" contentStyleType="text/css" height="768px" preserveAspectRatio="none" style="width:1684px;height:768px;background:#FFFFFF;" version="1.1" viewBox="0 0 1684 768" width="1684px" zoomAndPan="magnify"><defs/><g><!--MD5=[ee735b5005370e9fab0b1b96e9dc8b68]
class DashboardDataProviderError--><rect codeLine="8" fill="#FEFECE" height="58.7422" id="DashboardDataProviderError" style="stroke:#A80036;stroke-width:1.5;" width="205" x="7" y="129.5"/><ellipse cx="22" cy="148.4688" fill="#B0C4DE" rx="11" ry="11" style="stroke:#A80036;stroke-width:1.0;"/><path d="M20.7969,149.3438 L22.25,149.3438 L22.25,149.4531 C22.25,149.8594 22.2813,150.0156 22.3594,150.1719 C22.5156,150.4219 22.7969,150.5781 23.0938,150.5781 C23.3438,150.5781 23.6094,150.4375 23.7656,150.2188 C23.8906,150.0625 23.9219,149.9063 23.9219,149.4531 L23.9219,147.5313 C23.9219,147.375 23.9219,147.3281 23.9063,147.1719 C23.8438,146.7031 23.5313,146.3906 23.0781,146.3906 C22.8281,146.3906 22.5625,146.5313 22.3906,146.75 C22.2813,146.9219 22.25,147.0781 22.25,147.5313 L22.25,147.6563 L20.7969,147.6563 L20.7969,145.25 L24.7813,145.25 L24.7813,146.1094 C24.7813,146.5156 24.8125,146.6875 24.8906,146.8438 C25.0625,147.0938 25.3438,147.25 25.625,147.25 C25.8906,147.25 26.1563,147.1094 26.3281,146.8906 C26.4375,146.7188 26.4688,146.5781 26.4688,146.1094 L26.4688,143.5625 L18.8438,143.5625 C18.4063,143.5625 18.2813,143.5781 18.125,143.6719 C17.875,143.8281 17.7188,144.125 17.7188,144.4063 C17.7188,144.6875 17.8594,144.9375 18.0781,145.1094 C18.2344,145.2188 18.4219,145.25 18.8438,145.25 L19.0938,145.25 L19.0938,151.7656 L18.8438,151.7656 C18.4375,151.7656 18.2813,151.7813 18.125,151.8906 C17.875,152.0625 17.7188,152.3281 17.7188,152.625 C17.7188,152.8906 17.8594,153.1406 18.0781,153.2969 C18.2188,153.4219 18.4531,153.4688 18.8438,153.4688 L26.8438,153.4688 L26.8438,150.8906 C26.8438,150.4531 26.8125,150.3125 26.7344,150.1563 C26.5625,149.9063 26.2813,149.75 26,149.75 C25.7344,149.75 25.4688,149.8594 25.2969,150.1094 C25.1875,150.2656 25.1563,150.4063 25.1563,150.8906 L25.1563,151.7656 L20.7969,151.7656 L20.7969,149.3438 Z " fill="#000000"/><text fill="#000000" font-family="sans-serif" font-size="12" font-style="italic" lengthAdjust="spacing" textLength="49" x="98" y="145.6387">«enum»</text><text fill="#000000" font-family="sans-serif" font-size="12" lengthAdjust="spacing" textLength="173" x="36" y="159.6074">DashboardDataProviderError</text><line style="stroke:#A80036;stroke-width:1.5;" x1="8" x2="211" y1="167.4375" y2="167.4375"/><ellipse cx="18" cy="178.4375" rx="3" ry="3" style="stroke:#038048;stroke-width:1.0;fill:none;"/><text fill="#000000" font-family="sans-serif" font-size="11" lengthAdjust="spacing" textLength="50" x="27" y="181.6479">unknown</text><!--MD5=[50583dffb40a8a5fcdf576953e65df48]
class DashboardDataProviderOperations--><rect codeLine="11" fill="#FEFECE" height="263.6172" id="DashboardDataProviderOperations" style="stroke:#A80036;stroke-width:1.5;" width="482" x="175.5" y="388"/><ellipse cx="307.25" cy="406.9688" fill="#DAA520" rx="11" ry="11" style="stroke:#A80036;stroke-width:1.0;"/><path d="M306.7969,408.5625 L308.4688,408.5625 C310.0469,408.5625 310.8906,408.2813 311.6406,407.4531 C312.1875,406.8594 312.5,406.0469 312.5,405.2656 C312.5,403.3906 310.9688,402.0625 308.7969,402.0625 L304.8438,402.0625 C304.4063,402.0625 304.2813,402.0781 304.125,402.1719 C303.875,402.3281 303.7188,402.625 303.7188,402.9063 C303.7188,403.1563 303.8594,403.4375 304.0781,403.6094 C304.2344,403.7188 304.4219,403.75 304.8438,403.75 L305.0938,403.75 L305.0938,410.2656 L304.8438,410.2656 C304.4375,410.2656 304.2813,410.2813 304.125,410.3906 C303.875,410.5469 303.7188,410.8281 303.7188,411.125 C303.7188,411.375 303.8594,411.6406 304.0781,411.7969 C304.2188,411.9219 304.4531,411.9688 304.8438,411.9688 L308.4844,411.9688 C308.8281,411.9688 309.0781,411.9219 309.1875,411.8438 C309.4531,411.7031 309.6094,411.4063 309.6094,411.125 C309.6094,410.8438 309.4688,410.5938 309.25,410.4219 C309.0781,410.2969 308.9375,410.2656 308.4844,410.2656 L306.7969,410.2656 L306.7969,408.5625 Z M306.7969,403.75 L308.7969,403.75 C309.9844,403.75 310.6875,404.3594 310.6875,405.3281 C310.6875,406.2813 309.9844,406.875 308.7969,406.875 L306.7969,406.875 L306.7969,403.75 Z " fill="#000000"/><text fill="#000000" font-family="sans-serif" font-size="12" font-style="italic" lengthAdjust="spacing" textLength="63" x="401.25" y="404.1387">«protocol»</text><text fill="#000000" font-family="sans-serif" font-size="12" lengthAdjust="spacing" textLength="210" x="327.75" y="418.1074">DashboardDataProviderOperations</text><line style="stroke:#A80036;stroke-width:1.5;" x1="176.5" x2="656.5" y1="425.9375" y2="425.9375"/><ellipse cx="186.5" cy="436.9375" fill="#84BE84" rx="3" ry="3" style="stroke:#038048;stroke-width:1.0;"/><text fill="#000000" font-family="sans-serif" font-size="11" lengthAdjust="spacing" textLength="126" x="195.5" y="440.1479">getAccounts(ifFailure:)</text><ellipse cx="186.5" cy="449.7422" fill="#84BE84" rx="3" ry="3" style="stroke:#038048;stroke-width:1.0;"/><text fill="#000000" font-family="sans-serif" font-size="11" lengthAdjust="spacing" textLength="148" x="195.5" y="452.9526">getMortgageAffordability()</text><ellipse cx="186.5" cy="462.5469" fill="#84BE84" rx="3" ry="3" style="stroke:#038048;stroke-width:1.0;"/><text fill="#000000" font-family="sans-serif" font-size="11" lengthAdjust="spacing" textLength="69" x="195.5" y="465.7573">getIncome()</text><ellipse cx="186.5" cy="475.3516" fill="#84BE84" rx="3" ry="3" style="stroke:#038048;stroke-width:1.0;"/><text fill="#000000" font-family="sans-serif" font-size="11" lengthAdjust="spacing" textLength="132" x="195.5" y="478.562">getDisposableIncome()</text><ellipse cx="186.5" cy="488.1563" fill="#84BE84" rx="3" ry="3" style="stroke:#038048;stroke-width:1.0;"/><text fill="#000000" font-family="sans-serif" font-size="11" lengthAdjust="spacing" textLength="113" x="195.5" y="491.3667">getExternalCapital()</text><ellipse cx="186.5" cy="500.9609" fill="#84BE84" rx="3" ry="3" style="stroke:#038048;stroke-width:1.0;"/><text fill="#000000" font-family="sans-serif" font-size="11" lengthAdjust="spacing" textLength="265" x="195.5" y="504.1714">linkAccounts(institutionId:accounts:completion:)</text><ellipse cx="186.5" cy="513.7656" fill="#84BE84" rx="3" ry="3" style="stroke:#038048;stroke-width:1.0;"/><text fill="#000000" font-family="sans-serif" font-size="11" lengthAdjust="spacing" textLength="154" x="195.5" y="516.9761">deleteIncome(completion:)</text><ellipse cx="186.5" cy="526.5703" fill="#84BE84" rx="3" ry="3" style="stroke:#038048;stroke-width:1.0;"/><text fill="#000000" font-family="sans-serif" font-size="11" lengthAdjust="spacing" textLength="198" x="195.5" y="529.7808">createIncome(income:completion:)</text><ellipse cx="186.5" cy="539.375" fill="#84BE84" rx="3" ry="3" style="stroke:#038048;stroke-width:1.0;"/><text fill="#000000" font-family="sans-serif" font-size="11" lengthAdjust="spacing" textLength="201" x="195.5" y="542.5854">updateIncome(income:completion:)</text><ellipse cx="186.5" cy="552.1797" fill="#84BE84" rx="3" ry="3" style="stroke:#038048;stroke-width:1.0;"/><text fill="#000000" font-family="sans-serif" font-size="11" lengthAdjust="spacing" textLength="198" x="195.5" y="555.3901">deleteExternalCapital(completion:)</text><ellipse cx="186.5" cy="564.9844" fill="#84BE84" rx="3" ry="3" style="stroke:#038048;stroke-width:1.0;"/><text fill="#000000" font-family="sans-serif" font-size="11" lengthAdjust="spacing" textLength="297" x="195.5" y="568.1948">createExternalCapital(description:value:completion:)</text><ellipse cx="186.5" cy="577.7891" fill="#84BE84" rx="3" ry="3" style="stroke:#038048;stroke-width:1.0;"/><text fill="#000000" font-family="sans-serif" font-size="11" lengthAdjust="spacing" textLength="300" x="195.5" y="580.9995">updateExternalCapital(description:value:completion:)</text><ellipse cx="186.5" cy="590.5938" fill="#84BE84" rx="3" ry="3" style="stroke:#038048;stroke-width:1.0;"/><text fill="#000000" font-family="sans-serif" font-size="11" lengthAdjust="spacing" textLength="117" x="195.5" y="593.8042">getDepositBalance()</text><ellipse cx="186.5" cy="603.3984" fill="#84BE84" rx="3" ry="3" style="stroke:#038048;stroke-width:1.0;"/><text fill="#000000" font-family="sans-serif" font-size="11" lengthAdjust="spacing" textLength="456" x="195.5" y="606.6089">updateAccounts(contributesToDeposit:doesNotContributeToDeposit:completion:)</text><ellipse cx="186.5" cy="616.2031" fill="#84BE84" rx="3" ry="3" style="stroke:#038048;stroke-width:1.0;"/><text fill="#000000" font-family="sans-serif" font-size="11" lengthAdjust="spacing" textLength="154" x="195.5" y="619.4136">getTransactionCategories()</text><ellipse cx="186.5" cy="629.0078" fill="#84BE84" rx="3" ry="3" style="stroke:#038048;stroke-width:1.0;"/><text fill="#000000" font-family="sans-serif" font-size="11" lengthAdjust="spacing" textLength="208" x="195.5" y="632.2183">getMonthlySavingsGoal(completion:)</text><ellipse cx="186.5" cy="641.8125" fill="#84BE84" rx="3" ry="3" style="stroke:#038048;stroke-width:1.0;"/><text fill="#000000" font-family="sans-serif" font-size="11" lengthAdjust="spacing" textLength="250" x="195.5" y="645.0229">updateMonthlySavings(request:completion:)</text><!--MD5=[432241e0856dcb84f8563dbe13922cee]
class DashboardDataProviderPublishers--><rect codeLine="30" fill="#FEFECE" height="148.375" id="DashboardDataProviderPublishers" style="stroke:#A80036;stroke-width:1.5;" width="661" x="693" y="446"/><ellipse cx="917.25" cy="464.9688" fill="#DAA520" rx="11" ry="11" style="stroke:#A80036;stroke-width:1.0;"/><path d="M916.7969,466.5625 L918.4688,466.5625 C920.0469,466.5625 920.8906,466.2813 921.6406,465.4531 C922.1875,464.8594 922.5,464.0469 922.5,463.2656 C922.5,461.3906 920.9688,460.0625 918.7969,460.0625 L914.8438,460.0625 C914.4063,460.0625 914.2813,460.0781 914.125,460.1719 C913.875,460.3281 913.7188,460.625 913.7188,460.9063 C913.7188,461.1563 913.8594,461.4375 914.0781,461.6094 C914.2344,461.7188 914.4219,461.75 914.8438,461.75 L915.0938,461.75 L915.0938,468.2656 L914.8438,468.2656 C914.4375,468.2656 914.2813,468.2813 914.125,468.3906 C913.875,468.5469 913.7188,468.8281 913.7188,469.125 C913.7188,469.375 913.8594,469.6406 914.0781,469.7969 C914.2188,469.9219 914.4531,469.9688 914.8438,469.9688 L918.4844,469.9688 C918.8281,469.9688 919.0781,469.9219 919.1875,469.8438 C919.4531,469.7031 919.6094,469.4063 919.6094,469.125 C919.6094,468.8438 919.4688,468.5938 919.25,468.4219 C919.0781,468.2969 918.9375,468.2656 918.4844,468.2656 L916.7969,468.2656 L916.7969,466.5625 Z M916.7969,461.75 L918.7969,461.75 C919.9844,461.75 920.6875,462.3594 920.6875,463.3281 C920.6875,464.2813 919.9844,464.875 918.7969,464.875 L916.7969,464.875 L916.7969,461.75 Z " fill="#000000"/><text fill="#000000" font-family="sans-serif" font-size="12" font-style="italic" lengthAdjust="spacing" textLength="63" x="1008.25" y="462.1387">«protocol»</text><text fill="#000000" font-family="sans-serif" font-size="12" lengthAdjust="spacing" textLength="204" x="937.75" y="476.1074">DashboardDataProviderPublishers</text><line style="stroke:#A80036;stroke-width:1.5;" x1="694" x2="1353" y1="483.9375" y2="483.9375"/><ellipse cx="704" cy="494.9375" rx="3" ry="3" style="stroke:#038048;stroke-width:1.0;fill:none;"/><text fill="#000000" font-family="sans-serif" font-size="11" lengthAdjust="spacing" textLength="433" x="713" y="498.1479">accounts : AnyPublisher&lt;[InstitutionAccount]?, DashboardDataProviderError&gt;</text><ellipse cx="704" cy="507.7422" rx="3" ry="3" style="stroke:#038048;stroke-width:1.0;fill:none;"/><text fill="#000000" font-family="sans-serif" font-size="11" lengthAdjust="spacing" textLength="483" x="713" y="510.9526">disposableIncome : AnyPublisher&lt;DisposableIncome?, DashboardDataProviderError&gt;</text><ellipse cx="704" cy="520.5469" rx="3" ry="3" style="stroke:#038048;stroke-width:1.0;fill:none;"/><text fill="#000000" font-family="sans-serif" font-size="11" lengthAdjust="spacing" textLength="567" x="713" y="523.7573">transactionCategories : AnyPublisher&lt;[TransactionSummaryDetails]?, DashboardDataProviderError&gt;</text><ellipse cx="704" cy="533.3516" rx="3" ry="3" style="stroke:#038048;stroke-width:1.0;fill:none;"/><text fill="#000000" font-family="sans-serif" font-size="11" lengthAdjust="spacing" textLength="635" x="713" y="536.562">mortgageAffordability : AnyPublisher&lt;PropertyGoalAndMortgageLimitsResponse?, DashboardDataProviderError&gt;</text><ellipse cx="704" cy="546.1563" rx="3" ry="3" style="stroke:#038048;stroke-width:1.0;fill:none;"/><text fill="#000000" font-family="sans-serif" font-size="11" lengthAdjust="spacing" textLength="509" x="713" y="549.3667">depositBalance : AnyPublisher&lt;DepositBalanceResponse?, DashboardDataProviderError&gt;</text><ellipse cx="704" cy="558.9609" rx="3" ry="3" style="stroke:#038048;stroke-width:1.0;fill:none;"/><text fill="#000000" font-family="sans-serif" font-size="11" lengthAdjust="spacing" textLength="415" x="713" y="562.1714">income : AnyPublisher&lt;IncomeResponse?, DashboardDataProviderError&gt;</text><ellipse cx="704" cy="571.7656" rx="3" ry="3" style="stroke:#038048;stroke-width:1.0;fill:none;"/><text fill="#000000" font-family="sans-serif" font-size="11" lengthAdjust="spacing" textLength="504" x="713" y="574.9761">externalCapital : AnyPublisher&lt;ExternalCapitalResponse?, DashboardDataProviderError&gt;</text><ellipse cx="704" cy="584.5703" rx="3" ry="3" style="stroke:#038048;stroke-width:1.0;fill:none;"/><text fill="#000000" font-family="sans-serif" font-size="11" lengthAdjust="spacing" textLength="489" x="713" y="587.7808">savingsGoal : AnyPublisher&lt;MonthlySavingsResponse?, DashboardDataProviderError&gt;</text><!--MD5=[abf24a272aa485acc816cf87924651c2]
class DashboardDataProvider--><rect codeLine="40" fill="#FEFECE" height="304.0938" id="DashboardDataProvider" style="stroke:#A80036;stroke-width:1.5;" width="749" x="928" y="7"/><ellipse cx="1226.75" cy="23" fill="#8FBC8F" rx="11" ry="11" style="stroke:#A80036;stroke-width:1.0;"/><path d="M1229.0938,18.6719 C1228.1563,18.2344 1227.5625,18.0938 1226.6875,18.0938 C1224.0625,18.0938 1222.0625,20.1719 1222.0625,22.8906 L1222.0625,24.0156 C1222.0625,26.5938 1224.1719,28.4844 1227.0625,28.4844 C1228.2813,28.4844 1229.4375,28.1875 1230.1875,27.6406 C1230.7656,27.2344 1231.0938,26.7813 1231.0938,26.3906 C1231.0938,25.9375 1230.7031,25.5469 1230.2344,25.5469 C1230.0156,25.5469 1229.8125,25.625 1229.625,25.8125 C1229.1719,26.2969 1229.1719,26.2969 1228.9844,26.3906 C1228.5625,26.6563 1227.875,26.7813 1227.1094,26.7813 C1225.0625,26.7813 1223.7656,25.6875 1223.7656,23.9844 L1223.7656,22.8906 C1223.7656,21.1094 1225.0156,19.7969 1226.75,19.7969 C1227.3281,19.7969 1227.9375,19.9531 1228.4063,20.2031 C1228.8906,20.4844 1229.0625,20.7031 1229.1563,21.1094 C1229.2188,21.5156 1229.25,21.6406 1229.3906,21.7656 C1229.5313,21.9063 1229.7656,22.0156 1229.9844,22.0156 C1230.25,22.0156 1230.5156,21.875 1230.6875,21.6563 C1230.7969,21.5 1230.8281,21.3125 1230.8281,20.8906 L1230.8281,19.4688 C1230.8281,19.0313 1230.8125,18.9063 1230.7188,18.75 C1230.5625,18.4844 1230.2813,18.3438 1229.9844,18.3438 C1229.6875,18.3438 1229.4844,18.4375 1229.2656,18.75 L1229.0938,18.6719 Z " fill="#000000"/><text fill="#000000" font-family="sans-serif" font-size="12" lengthAdjust="spacing" textLength="143" x="1247.25" y="27.1543">DashboardDataProvider</text><line style="stroke:#A80036;stroke-width:1.5;" x1="929" x2="1676" y1="39" y2="39"/><polygon fill="none" points="939,46,935,52,943,52" style="stroke:#1963A0;stroke-width:1.0;"/><text fill="#000000" font-family="sans-serif" font-size="11" lengthAdjust="spacing" textLength="521" x="948" y="53.2104">accountsSubject : CurrentValueSubject&lt;[InstitutionAccount]?, DashboardDataProviderError&gt;</text><polygon fill="none" points="939,58.8047,935,64.8047,943,64.8047" style="stroke:#1963A0;stroke-width:1.0;"/><text fill="#000000" font-family="sans-serif" font-size="11" lengthAdjust="spacing" textLength="661" x="948" y="66.0151">transactionsCategoriesSubject : CurrentValueSubject&lt;[TransactionSummaryDetails]?, DashboardDataProviderError&gt;</text><polygon fill="none" points="939,71.6094,935,77.6094,943,77.6094" style="stroke:#1963A0;stroke-width:1.0;"/><text fill="#000000" font-family="sans-serif" font-size="11" lengthAdjust="spacing" textLength="723" x="948" y="78.8198">mortgageAffordabilitySubject : CurrentValueSubject&lt;PropertyGoalAndMortgageLimitsResponse?, DashboardDataProviderError&gt;</text><polygon fill="none" points="939,84.4141,935,90.4141,943,90.4141" style="stroke:#1963A0;stroke-width:1.0;"/><text fill="#000000" font-family="sans-serif" font-size="11" lengthAdjust="spacing" textLength="597" x="948" y="91.6245">depositBalanceSubject : CurrentValueSubject&lt;DepositBalanceResponse?, DashboardDataProviderError&gt;</text><polygon fill="none" points="939,97.2188,935,103.2188,943,103.2188" style="stroke:#1963A0;stroke-width:1.0;"/><text fill="#000000" font-family="sans-serif" font-size="11" lengthAdjust="spacing" textLength="503" x="948" y="104.4292">incomeSubject : CurrentValueSubject&lt;IncomeResponse?, DashboardDataProviderError&gt;</text><polygon fill="none" points="939,110.0234,935,116.0234,943,116.0234" style="stroke:#1963A0;stroke-width:1.0;"/><text fill="#000000" font-family="sans-serif" font-size="11" lengthAdjust="spacing" textLength="571" x="948" y="117.2339">disposableIncomeSubject : CurrentValueSubject&lt;DisposableIncome?, DashboardDataProviderError&gt;</text><polygon fill="none" points="939,122.8281,935,128.8281,943,128.8281" style="stroke:#1963A0;stroke-width:1.0;"/><text fill="#000000" font-family="sans-serif" font-size="11" lengthAdjust="spacing" textLength="592" x="948" y="130.0386">externalCapitalSubject : CurrentValueSubject&lt;ExternalCapitalResponse?, DashboardDataProviderError&gt;</text><polygon fill="none" points="939,135.6328,935,141.6328,943,141.6328" style="stroke:#1963A0;stroke-width:1.0;"/><text fill="#000000" font-family="sans-serif" font-size="11" lengthAdjust="spacing" textLength="577" x="948" y="142.8433">savingsGoalSubject : CurrentValueSubject&lt;MonthlySavingsResponse?, DashboardDataProviderError&gt;</text><polygon fill="none" points="939,148.4375,935,154.4375,943,154.4375" style="stroke:#1963A0;stroke-width:1.0;"/><text fill="#000000" font-family="sans-serif" font-size="11" lengthAdjust="spacing" textLength="509" x="948" y="155.6479">depositBalance : AnyPublisher&lt;DepositBalanceResponse?, DashboardDataProviderError&gt;</text><polygon fill="none" points="939,161.2422,935,167.2422,943,167.2422" style="stroke:#1963A0;stroke-width:1.0;"/><text fill="#000000" font-family="sans-serif" font-size="11" lengthAdjust="spacing" textLength="415" x="948" y="168.4526">income : AnyPublisher&lt;IncomeResponse?, DashboardDataProviderError&gt;</text><polygon fill="none" points="939,174.0469,935,180.0469,943,180.0469" style="stroke:#1963A0;stroke-width:1.0;"/><text fill="#000000" font-family="sans-serif" font-size="11" lengthAdjust="spacing" textLength="433" x="948" y="181.2573">accounts : AnyPublisher&lt;[InstitutionAccount]?, DashboardDataProviderError&gt;</text><polygon fill="none" points="939,186.8516,935,192.8516,943,192.8516" style="stroke:#1963A0;stroke-width:1.0;"/><text fill="#000000" font-family="sans-serif" font-size="11" lengthAdjust="spacing" textLength="567" x="948" y="194.062">transactionCategories : AnyPublisher&lt;[TransactionSummaryDetails]?, DashboardDataProviderError&gt;</text><polygon fill="none" points="939,199.6563,935,205.6563,943,205.6563" style="stroke:#1963A0;stroke-width:1.0;"/><text fill="#000000" font-family="sans-serif" font-size="11" lengthAdjust="spacing" textLength="635" x="948" y="206.8667">mortgageAffordability : AnyPublisher&lt;PropertyGoalAndMortgageLimitsResponse?, DashboardDataProviderError&gt;</text><polygon fill="none" points="939,212.4609,935,218.4609,943,218.4609" style="stroke:#1963A0;stroke-width:1.0;"/><text fill="#000000" font-family="sans-serif" font-size="11" lengthAdjust="spacing" textLength="504" x="948" y="219.6714">externalCapital : AnyPublisher&lt;ExternalCapitalResponse?, DashboardDataProviderError&gt;</text><polygon fill="none" points="939,225.2656,935,231.2656,943,231.2656" style="stroke:#1963A0;stroke-width:1.0;"/><text fill="#000000" font-family="sans-serif" font-size="11" lengthAdjust="spacing" textLength="483" x="948" y="232.4761">disposableIncome : AnyPublisher&lt;DisposableIncome?, DashboardDataProviderError&gt;</text><polygon fill="none" points="939,238.0703,935,244.0703,943,244.0703" style="stroke:#1963A0;stroke-width:1.0;"/><text fill="#000000" font-family="sans-serif" font-size="11" lengthAdjust="spacing" textLength="489" x="948" y="245.2808">savingsGoal : AnyPublisher&lt;MonthlySavingsResponse?, DashboardDataProviderError&gt;</text><polygon fill="none" points="939,250.875,935,256.875,943,256.875" style="stroke:#1963A0;stroke-width:1.0;"/><text fill="#000000" font-family="sans-serif" font-size="11" lengthAdjust="spacing" textLength="224" x="948" y="258.0854">accountOperations : AccountOperations</text><polygon fill="none" points="939,263.6797,935,269.6797,943,269.6797" style="stroke:#1963A0;stroke-width:1.0;"/><text fill="#000000" font-family="sans-serif" font-size="11" lengthAdjust="spacing" textLength="270" x="948" y="270.8901">affordabilityOperations : AffordabilityOperations</text><polygon fill="none" points="939,276.4844,935,282.4844,943,282.4844" style="stroke:#1963A0;stroke-width:1.0;"/><text fill="#000000" font-family="sans-serif" font-size="11" lengthAdjust="spacing" textLength="267" x="948" y="283.6948">dependencies : DashboardDependenciesType</text><line style="stroke:#A80036;stroke-width:1.5;" x1="929" x2="1676" y1="290.2891" y2="290.2891"/><polygon fill="#4177AF" points="939,297.2891,935,303.2891,943,303.2891" style="stroke:#1963A0;stroke-width:1.0;"/><text fill="#000000" font-family="sans-serif" font-size="11" lengthAdjust="spacing" textLength="110" x="948" y="304.4995">init(dependencies:)</text><!--MD5=[b8cfd8c4119a3b0a7a46bfc5fc780f85]
class Error--><rect fill="#FEFECE" height="32" id="Error" style="stroke:#A80036;stroke-width:1.5;" width="62" x="78.5" y="504"/><ellipse cx="93.5" cy="520" fill="#ADD1B2" rx="11" ry="11" style="stroke:#A80036;stroke-width:1.0;"/><path d="M95.8438,515.6719 C94.9063,515.2344 94.3125,515.0938 93.4375,515.0938 C90.8125,515.0938 88.8125,517.1719 88.8125,519.8906 L88.8125,521.0156 C88.8125,523.5938 90.9219,525.4844 93.8125,525.4844 C95.0313,525.4844 96.1875,525.1875 96.9375,524.6406 C97.5156,524.2344 97.8438,523.7813 97.8438,523.3906 C97.8438,522.9375 97.4531,522.5469 96.9844,522.5469 C96.7656,522.5469 96.5625,522.625 96.375,522.8125 C95.9219,523.2969 95.9219,523.2969 95.7344,523.3906 C95.3125,523.6563 94.625,523.7813 93.8594,523.7813 C91.8125,523.7813 90.5156,522.6875 90.5156,520.9844 L90.5156,519.8906 C90.5156,518.1094 91.7656,516.7969 93.5,516.7969 C94.0781,516.7969 94.6875,516.9531 95.1563,517.2031 C95.6406,517.4844 95.8125,517.7031 95.9063,518.1094 C95.9688,518.5156 96,518.6406 96.1406,518.7656 C96.2813,518.9063 96.5156,519.0156 96.7344,519.0156 C97,519.0156 97.2656,518.875 97.4375,518.6563 C97.5469,518.5 97.5781,518.3125 97.5781,517.8906 L97.5781,516.4688 C97.5781,516.0313 97.5625,515.9063 97.4688,515.75 C97.3125,515.4844 97.0313,515.3438 96.7344,515.3438 C96.4375,515.3438 96.2344,515.4375 96.0156,515.75 L95.8438,515.6719 Z " fill="#000000"/><text fill="#000000" font-family="sans-serif" font-size="12" lengthAdjust="spacing" textLength="30" x="107.5" y="524.1543">Error</text><!--MD5=[625eb5fdd814536c712f9f96ffbf9401]
class AnyObject--><rect fill="#FEFECE" height="32" id="AnyObject" style="stroke:#A80036;stroke-width:1.5;" width="94" x="543.5" y="729"/><ellipse cx="558.5" cy="745" fill="#ADD1B2" rx="11" ry="11" style="stroke:#A80036;stroke-width:1.0;"/><path d="M560.8438,740.6719 C559.9063,740.2344 559.3125,740.0938 558.4375,740.0938 C555.8125,740.0938 553.8125,742.1719 553.8125,744.8906 L553.8125,746.0156 C553.8125,748.5938 555.9219,750.4844 558.8125,750.4844 C560.0313,750.4844 561.1875,750.1875 561.9375,749.6406 C562.5156,749.2344 562.8438,748.7813 562.8438,748.3906 C562.8438,747.9375 562.4531,747.5469 561.9844,747.5469 C561.7656,747.5469 561.5625,747.625 561.375,747.8125 C560.9219,748.2969 560.9219,748.2969 560.7344,748.3906 C560.3125,748.6563 559.625,748.7813 558.8594,748.7813 C556.8125,748.7813 555.5156,747.6875 555.5156,745.9844 L555.5156,744.8906 C555.5156,743.1094 556.7656,741.7969 558.5,741.7969 C559.0781,741.7969 559.6875,741.9531 560.1563,742.2031 C560.6406,742.4844 560.8125,742.7031 560.9063,743.1094 C560.9688,743.5156 561,743.6406 561.1406,743.7656 C561.2813,743.9063 561.5156,744.0156 561.7344,744.0156 C562,744.0156 562.2656,743.875 562.4375,743.6563 C562.5469,743.5 562.5781,743.3125 562.5781,742.8906 L562.5781,741.4688 C562.5781,741.0313 562.5625,740.9063 562.4688,740.75 C562.3125,740.4844 562.0313,740.3438 561.7344,740.3438 C561.4375,740.3438 561.2344,740.4375 561.0156,740.75 L560.8438,740.6719 Z " fill="#000000"/><text fill="#000000" font-family="sans-serif" font-size="12" lengthAdjust="spacing" textLength="62" x="572.5" y="749.1543">AnyObject</text><!--MD5=[0d4fb80341763a24143be61e75fdd318]
class NSObject--><rect fill="#FEFECE" height="32" id="NSObject" style="stroke:#A80036;stroke-width:1.5;" width="88" x="1389.5" y="504"/><ellipse cx="1404.5" cy="520" fill="#ADD1B2" rx="11" ry="11" style="stroke:#A80036;stroke-width:1.0;"/><path d="M1406.8438,515.6719 C1405.9063,515.2344 1405.3125,515.0938 1404.4375,515.0938 C1401.8125,515.0938 1399.8125,517.1719 1399.8125,519.8906 L1399.8125,521.0156 C1399.8125,523.5938 1401.9219,525.4844 1404.8125,525.4844 C1406.0313,525.4844 1407.1875,525.1875 1407.9375,524.6406 C1408.5156,524.2344 1408.8438,523.7813 1408.8438,523.3906 C1408.8438,522.9375 1408.4531,522.5469 1407.9844,522.5469 C1407.7656,522.5469 1407.5625,522.625 1407.375,522.8125 C1406.9219,523.2969 1406.9219,523.2969 1406.7344,523.3906 C1406.3125,523.6563 1405.625,523.7813 1404.8594,523.7813 C1402.8125,523.7813 1401.5156,522.6875 1401.5156,520.9844 L1401.5156,519.8906 C1401.5156,518.1094 1402.7656,516.7969 1404.5,516.7969 C1405.0781,516.7969 1405.6875,516.9531 1406.1563,517.2031 C1406.6406,517.4844 1406.8125,517.7031 1406.9063,518.1094 C1406.9688,518.5156 1407,518.6406 1407.1406,518.7656 C1407.2813,518.9063 1407.5156,519.0156 1407.7344,519.0156 C1408,519.0156 1408.2656,518.875 1408.4375,518.6563 C1408.5469,518.5 1408.5781,518.3125 1408.5781,517.8906 L1408.5781,516.4688 C1408.5781,516.0313 1408.5625,515.9063 1408.4688,515.75 C1408.3125,515.4844 1408.0313,515.3438 1407.7344,515.3438 C1407.4375,515.3438 1407.2344,515.4375 1407.0156,515.75 L1406.8438,515.6719 Z " fill="#000000"/><text fill="#000000" font-family="sans-serif" font-size="12" lengthAdjust="spacing" textLength="56" x="1418.5" y="524.1543">NSObject</text><!--MD5=[53988093a400702ce53fac60919d4c66]
link DashboardDataProviderError to Error--><path codeLine="62" d="M109.5,188.772 C109.5,261.149 109.5,448.912 109.5,503.751 " fill="none" id="DashboardDataProviderError-Error" style="stroke:#A80036;stroke-width:1.0;"/><text fill="#000000" font-family="sans-serif" font-size="13" lengthAdjust="spacing" textLength="47" x="110.5" y="354.0669">inherits</text><!--MD5=[2bbe80d1e36eda91a103e158b5669d1b]
link DashboardDataProviderOperations to AnyObject--><path codeLine="63" d="M518.723,652.01 C536.542,674.8464 553.481,696.5559 566.424,713.1445 " fill="none" id="DashboardDataProviderOperations-to-AnyObject" style="stroke:#A80036;stroke-width:1.0;stroke-dasharray:7.0,7.0;"/><polygon fill="none" points="571.969,708.8717,578.754,728.9459,560.932,717.484,571.969,708.8717" style="stroke:#A80036;stroke-width:1.0;"/><text fill="#000000" font-family="sans-serif" font-size="13" lengthAdjust="spacing" textLength="47" x="554.5" y="695.0669">inherits</text><!--MD5=[b70bc3665e9294b858f264252ef92c0d]
link DashboardDataProviderPublishers to AnyObject--><path codeLine="64" d="M881.72,594.019 C797.514,637.385 696.12,689.6043 637.902,719.5876 " fill="none" id="DashboardDataProviderPublishers-to-AnyObject" style="stroke:#A80036;stroke-width:1.0;stroke-dasharray:7.0,7.0;"/><polygon fill="none" points="640.886,725.9245,619.9,728.8586,634.476,713.4782,640.886,725.9245" style="stroke:#A80036;stroke-width:1.0;"/><text fill="#000000" font-family="sans-serif" font-size="13" lengthAdjust="spacing" textLength="47" x="708.5" y="695.0669">inherits</text><!--MD5=[56f7c0ae8857ed5d3aff8c642e38ce1f]
link DashboardDataProvider to NSObject--><path codeLine="65" d="M1357.68,311.208 C1381.15,375.545 1406.44,444.856 1421.08,484.953 " fill="none" id="DashboardDataProvider-to-NSObject" style="stroke:#A80036;stroke-width:1.0;"/><polygon fill="none" points="1427.66,482.586,1427.94,503.774,1414.51,487.385,1427.66,482.586" style="stroke:#A80036;stroke-width:1.0;"/><text fill="#000000" font-family="sans-serif" font-size="13" lengthAdjust="spacing" textLength="47" x="1373.5" y="354.0669">inherits</text><!--MD5=[2431c92cd17cd8a095d85f05f1c7b5c6]
link DashboardDataProvider to DashboardDataProviderPublishers--><path codeLine="66" d="M1184.99,311.208 C1153.61,351.588 1120.7,393.928 1092.84,429.775 " fill="none" id="DashboardDataProvider-to-DashboardDataProviderPublishers" style="stroke:#A80036;stroke-width:1.0;stroke-dasharray:7.0,7.0;"/><polygon fill="none" points="1098.22,434.261,1080.42,445.757,1087.17,425.67,1098.22,434.261" style="stroke:#A80036;stroke-width:1.0;"/><text fill="#000000" font-family="sans-serif" font-size="13" lengthAdjust="spacing" textLength="73" x="1156.5" y="354.0669">conforms to</text><!--MD5=[f5237581ac114940d2d81c4ae6f0b6d5]
@startuml

' STYLE START
hide empty members
skinparam shadowing false
' STYLE END


class "DashboardDataProviderError" as DashboardDataProviderError << (E, LightSteelBlue) enum >> { 
  +unknown 
}
class "DashboardDataProviderOperations" as DashboardDataProviderOperations << (P, GoldenRod) protocol >> { 
  +getAccounts(ifFailure:)
  +getMortgageAffordability()
  +getIncome()
  +getDisposableIncome()
  +getExternalCapital()
  +linkAccounts(institutionId:accounts:completion:)
  +deleteIncome(completion:)
  +createIncome(income:completion:)
  +updateIncome(income:completion:)
  +deleteExternalCapital(completion:)
  +createExternalCapital(description:value:completion:)
  +updateExternalCapital(description:value:completion:)
  +getDepositBalance()
  +updateAccounts(contributesToDeposit:doesNotContributeToDeposit:completion:)
  +getTransactionCategories()
  +getMonthlySavingsGoal(completion:)
  +updateMonthlySavings(request:completion:) 
}
class "DashboardDataProviderPublishers" as DashboardDataProviderPublishers << (P, GoldenRod) protocol >> { 
  +accounts : AnyPublisher<[InstitutionAccount]?, DashboardDataProviderError>
  +disposableIncome : AnyPublisher<DisposableIncome?, DashboardDataProviderError>
  +transactionCategories : AnyPublisher<[TransactionSummaryDetails]?, DashboardDataProviderError>
  +mortgageAffordability : AnyPublisher<PropertyGoalAndMortgageLimitsResponse?, DashboardDataProviderError>
  +depositBalance : AnyPublisher<DepositBalanceResponse?, DashboardDataProviderError>
  +income : AnyPublisher<IncomeResponse?, DashboardDataProviderError>
  +externalCapital : AnyPublisher<ExternalCapitalResponse?, DashboardDataProviderError>
  +savingsGoal : AnyPublisher<MonthlySavingsResponse?, DashboardDataProviderError> 
}
class "DashboardDataProvider" as DashboardDataProvider << (C, DarkSeaGreen) >> { 
  ~accountsSubject : CurrentValueSubject<[InstitutionAccount]?, DashboardDataProviderError>
  ~transactionsCategoriesSubject : CurrentValueSubject<[TransactionSummaryDetails]?, DashboardDataProviderError>
  ~mortgageAffordabilitySubject : CurrentValueSubject<PropertyGoalAndMortgageLimitsResponse?, DashboardDataProviderError>
  ~depositBalanceSubject : CurrentValueSubject<DepositBalanceResponse?, DashboardDataProviderError>
  ~incomeSubject : CurrentValueSubject<IncomeResponse?, DashboardDataProviderError>
  ~disposableIncomeSubject : CurrentValueSubject<DisposableIncome?, DashboardDataProviderError>
  ~externalCapitalSubject : CurrentValueSubject<ExternalCapitalResponse?, DashboardDataProviderError>
  ~savingsGoalSubject : CurrentValueSubject<MonthlySavingsResponse?, DashboardDataProviderError>
  ~depositBalance : AnyPublisher<DepositBalanceResponse?, DashboardDataProviderError>
  ~income : AnyPublisher<IncomeResponse?, DashboardDataProviderError>
  ~accounts : AnyPublisher<[InstitutionAccount]?, DashboardDataProviderError>
  ~transactionCategories : AnyPublisher<[TransactionSummaryDetails]?, DashboardDataProviderError>
  ~mortgageAffordability : AnyPublisher<PropertyGoalAndMortgageLimitsResponse?, DashboardDataProviderError>
  ~externalCapital : AnyPublisher<ExternalCapitalResponse?, DashboardDataProviderError>
  ~disposableIncome : AnyPublisher<DisposableIncome?, DashboardDataProviderError>
  ~savingsGoal : AnyPublisher<MonthlySavingsResponse?, DashboardDataProviderError>
  ~accountOperations : AccountOperations
  ~affordabilityOperations : AffordabilityOperations
  ~dependencies : DashboardDependenciesType
  ~init(dependencies:) 
}
DashboardDataProviderError - - Error : inherits
DashboardDataProviderOperations ..|> AnyObject : inherits
DashboardDataProviderPublishers ..|> AnyObject : inherits
DashboardDataProvider - -|> NSObject : inherits
DashboardDataProvider ..|> DashboardDataProviderPublishers : conforms to
@enduml

@startuml

hide empty members
skinparam shadowing false


class "DashboardDataProviderError" as DashboardDataProviderError << (E, LightSteelBlue) enum >> { 
  +unknown 
}
class "DashboardDataProviderOperations" as DashboardDataProviderOperations << (P, GoldenRod) protocol >> { 
  +getAccounts(ifFailure:)
  +getMortgageAffordability()
  +getIncome()
  +getDisposableIncome()
  +getExternalCapital()
  +linkAccounts(institutionId:accounts:completion:)
  +deleteIncome(completion:)
  +createIncome(income:completion:)
  +updateIncome(income:completion:)
  +deleteExternalCapital(completion:)
  +createExternalCapital(description:value:completion:)
  +updateExternalCapital(description:value:completion:)
  +getDepositBalance()
  +updateAccounts(contributesToDeposit:doesNotContributeToDeposit:completion:)
  +getTransactionCategories()
  +getMonthlySavingsGoal(completion:)
  +updateMonthlySavings(request:completion:) 
}
class "DashboardDataProviderPublishers" as DashboardDataProviderPublishers << (P, GoldenRod) protocol >> { 
  +accounts : AnyPublisher<[InstitutionAccount]?, DashboardDataProviderError>
  +disposableIncome : AnyPublisher<DisposableIncome?, DashboardDataProviderError>
  +transactionCategories : AnyPublisher<[TransactionSummaryDetails]?, DashboardDataProviderError>
  +mortgageAffordability : AnyPublisher<PropertyGoalAndMortgageLimitsResponse?, DashboardDataProviderError>
  +depositBalance : AnyPublisher<DepositBalanceResponse?, DashboardDataProviderError>
  +income : AnyPublisher<IncomeResponse?, DashboardDataProviderError>
  +externalCapital : AnyPublisher<ExternalCapitalResponse?, DashboardDataProviderError>
  +savingsGoal : AnyPublisher<MonthlySavingsResponse?, DashboardDataProviderError> 
}
class "DashboardDataProvider" as DashboardDataProvider << (C, DarkSeaGreen) >> { 
  ~accountsSubject : CurrentValueSubject<[InstitutionAccount]?, DashboardDataProviderError>
  ~transactionsCategoriesSubject : CurrentValueSubject<[TransactionSummaryDetails]?, DashboardDataProviderError>
  ~mortgageAffordabilitySubject : CurrentValueSubject<PropertyGoalAndMortgageLimitsResponse?, DashboardDataProviderError>
  ~depositBalanceSubject : CurrentValueSubject<DepositBalanceResponse?, DashboardDataProviderError>
  ~incomeSubject : CurrentValueSubject<IncomeResponse?, DashboardDataProviderError>
  ~disposableIncomeSubject : CurrentValueSubject<DisposableIncome?, DashboardDataProviderError>
  ~externalCapitalSubject : CurrentValueSubject<ExternalCapitalResponse?, DashboardDataProviderError>
  ~savingsGoalSubject : CurrentValueSubject<MonthlySavingsResponse?, DashboardDataProviderError>
  ~depositBalance : AnyPublisher<DepositBalanceResponse?, DashboardDataProviderError>
  ~income : AnyPublisher<IncomeResponse?, DashboardDataProviderError>
  ~accounts : AnyPublisher<[InstitutionAccount]?, DashboardDataProviderError>
  ~transactionCategories : AnyPublisher<[TransactionSummaryDetails]?, DashboardDataProviderError>
  ~mortgageAffordability : AnyPublisher<PropertyGoalAndMortgageLimitsResponse?, DashboardDataProviderError>
  ~externalCapital : AnyPublisher<ExternalCapitalResponse?, DashboardDataProviderError>
  ~disposableIncome : AnyPublisher<DisposableIncome?, DashboardDataProviderError>
  ~savingsGoal : AnyPublisher<MonthlySavingsResponse?, DashboardDataProviderError>
  ~accountOperations : AccountOperations
  ~affordabilityOperations : AffordabilityOperations
  ~dependencies : DashboardDependenciesType
  ~init(dependencies:) 
}
DashboardDataProviderError - - Error : inherits
DashboardDataProviderOperations ..|> AnyObject : inherits
DashboardDataProviderPublishers ..|> AnyObject : inherits
DashboardDataProvider - -|> NSObject : inherits
DashboardDataProvider ..|> DashboardDataProviderPublishers : conforms to
@enduml

PlantUML version 1.2021.7(Sun May 23 12:40:07 UTC 2021)
(GPL source distribution)
Java Runtime: Java(TM) SE Runtime Environment
JVM: Java HotSpot(TM) 64-Bit Server VM
Default Encoding: UTF-8
Language: en
Country: US
--></g></svg>